<?xml version="1.0" encoding="UTF-8"?>
<svg width="1920" height="1986.3" version="1.1" viewBox="0 0 1920 1986.2794" xmlns="http://www.w3.org/2000/svg">
 <g transform="matrix(57.159 0 0 57.159 -31.314 5.0807)">
  <path d="m22.661-0.088886-14.315 7.8545c-0.1757 0.14148-0.11417 0.14707-0.11855 0.15271l-0.012056 5.0153-1.2719 0.70126 0.23509 0.1286-0.2572-0.13463-2.2806 4.1433 0.054252 0.03014-0.042196-0.02009-3.5641 3.2807c-0.054517 0.82803-0.1994 2.7735-0.17325 3.5028l-0.36771 3.1265 0.64902 0.33154c0.30731 0.84387 0.9922 1.4302 1.7803 1.5552 0.43699 0.03619 0.67904 0.06979 0.97453 0.06631 0.11511 1e-4 0.22873-0.02247 0.3436-0.04019l5.4373 2.7729-0.00401 0.13061 2.4293-1.1594c-0.36073 1.7028 0.63344 3.0475 1.8787 3.2451 0.43699 0.03619 0.67904 0.06979 0.97453 0.06631 1.4111 0.0012 2.849-1.3799 3.2109-3.0843 0.25761-1.2126-0.09028-2.1824-0.80173-2.7387l1.1152-0.53248v0.03014l1.2136 0.49229 2e-3 -0.05023 0.0221 0.01008 6.7554-3.6429c0.16066 1.1469 0.96287 1.9782 1.9189 2.1299 0.43699 0.03619 0.67904 0.06979 0.97453 0.06631 1.4111 0.0012 2.849-1.3799 3.2109-3.0843 0.19087-0.89843 0.04776-1.6621-0.32551-2.2264l1.7722-0.95645 6e-3 -1.1473 0.0081-4e-3 0.0081-3.3255c0.0032-0.59677 0.02339-1.1332 2e-3 -1.6075l0.02009-8.6261 0.01407-0.00803-0.01407-0.00803v-0.026122l-0.02411 0.014065-11.439-6.4239z" fill="#333"/>
  <g transform="translate(-10.75,-4.875)">
   <path d="m15.504 27.922c-1.3712 6.9e-5 -2.7675 1.3422-3.1191 2.998-0.35183 1.6561 0.61523 2.9641 1.8262 3.1562 0.42476 0.03517 0.66003 0.0678 0.94726 0.06441 1.3717 0.0012 2.7693-1.3413 3.1211-2.998 0.35203-1.657-0.44415-2.8599-1.7773-3.1133-0.33103-0.03917-0.6444-0.11472-0.99805-0.10742z" fill="#333"/>
   <ellipse transform="matrix(1 0 -.20077 .97964 0 0)" cx="22.479" cy="31.95" rx="1.6473" ry="2.102" fill="#4d4d4d"/>
  </g>
  <path d="m10.183 27.818 23.516-8.0309-5e-3 1.1465-13.906 7.4986-1.062-0.53511-8.7019 4.1521z" fill="#666"/>
  <path d="m1.4003 22.552 8.8921 5.0506-0.26049 4.3917-8.9312-4.6257z" fill="#999"/>
  <path d="m8.4957 8.1046 11.58 6.4052-0.26128 13.244-1.2151-0.52141-10.07-3.376z" fill="#e6e6e6"/>
  <path d="m19.922 22.631-1.454-0.79162-0.50973 1.5349 1.931 1.1184z" fill="#fd5a6e"/>
  <path d="m8.4898 8.1043 14.104-7.74 11.158 6.2635-13.908 7.7938z" fill="#f2f2f2"/>
  <path d="m19.837 14.389 13.9-7.7942-0.029017 13.735-13.886 7.3975z" fill="#ccc"/>
  <path d="m1.3196 21.199 8.9728 5.028-0.22142 4.9464-8.9255-4.6054z" fill="#e6e6e6"/>
  <path d="m5.0904 17.735 9.283 4.5796-4.0835 3.9382-8.9754-5.0458z" fill="#f0f1f4"/>
  <path d="m7.2949 13.699 8.9825 4.6744-2.2404 4.4464-8.9584-5.0936z" fill="#3686ff"/>
  <path d="m9.9352 12.261 8.8573 4.9647-2.6688 1.2665-8.8065-4.7889z" fill="#f0f1f4"/>
  <path d="m16.191 18.462 2.7135-1.2214-0.07365 3.4816-4.8267 2.1306z" fill="#0050c9"/>
  <path d="m10.173 26.137 3.8549-3.3403 4.7665-2.0313-0.22266 6.446-8.49 3.9167z" fill="#ccc"/>
  <g transform="translate(-.1875)">
   <path d="m15.504 27.922c-1.3712 6.9e-5 -2.7675 1.3422-3.1191 2.998-0.35183 1.6561 0.61523 2.9641 1.8262 3.1562 0.42476 0.03517 0.66003 0.0678 0.94726 0.06441 1.3717 0.0012 2.7693-1.3413 3.1211-2.998 0.35203-1.657-0.44415-2.8599-1.7773-3.1133-0.33103-0.03917-0.6444-0.11472-0.99805-0.10742z" fill="#333"/>
   <ellipse transform="matrix(1 0 -.20077 .97964 0 0)" cx="22.479" cy="31.95" rx="1.6473" ry="2.102" fill="#4d4d4d"/>
  </g>
  <path d="m18.574 27.213 1.249 0.51122-0.0074 0.7594-1.2305-0.49036z" fill="#999"/>
  <path transform="matrix(.87226 -.48905 .48905 .87226 0 0)" d="m6.2514 29.396 15.806 0.22972-0.75846 1.324-15.994 0.10419z" fill="#ef021f"/>
  <path d="m27.63 12.948a1.4843 2.3639 44.168 0 0 -2.0014 2.6316 1.4843 2.3639 44.168 0 0 1.918 0.98372 1.4843 2.3639 44.168 0 0 2.0034 -2.6325 1.4843 2.3639 44.168 0 0 -1.92 -0.98286zm-0.0094 0.40794a1.1499 1.8314 44.168 0 1 0.38179 -0.1142l-0.02309 1.0011 1.0869-0.45699a1.1499 1.8314 44.168 0 1 0.04128 0.33104 1.1499 1.8314 44.168 0 1 -0.05747 0.37257l-1.0869 0.45698-0.0231 1.0011a1.1499 1.8314 44.168 0 1 -0.38396 0.20777 1.1499 1.8314 44.168 0 1 -0.37974 0.11334l0.02309-1.0011-1.0889 0.45785a1.1499 1.8314 44.168 0 1 -0.04128 -0.33104 1.1499 1.8314 44.168 0 1 0.05959 -0.37344l1.0869-0.45698 0.02313-1.003a1.1499 1.8314 44.168 0 1 0.38186 -0.20502z" fill="#ef021f"/>
  <g transform="translate(5.701 -5.7894)">
   <path d="m23.812 26.596c-1.3712 6.9e-5 -2.7675 1.3422-3.1191 2.998-0.35183 1.6561 0.61523 2.9641 1.8262 3.1562 0.42476 0.03517 0.66003 0.0678 0.94726 0.06441 1.3717 0.0012 2.7693-1.3413 3.1211-2.998 0.35203-1.657-0.44415-2.8599-1.7773-3.1133-0.33103-0.03917-0.6444-0.11472-0.99805-0.10742z" fill="#333"/>
   <ellipse transform="matrix(1 0 -.20077 .97964 0 0)" cx="30.516" cy="30.596" rx="1.6473" ry="2.102" fill="#4d4d4d"/>
  </g>
  <path d="m15.153 16.695 0.65936-0.02343v0.30073l-0.65936 0.47765z" fill="#ad0000"/>
  <path d="m9.9473 14.118 5.2551 3.0005-0.02749 0.32538-5.2282-2.9558z" fill="#c90000"/>
  <path d="m10.947 14.68 3.1464 1.8162-0.02816 0.32766-3.1266-1.7738z" fill="#999"/>
  <path d="m10.668 13.717 5.1425 2.9491-0.60238 0.46182-5.2907-3.0252z" fill="#f00"/>
  <path d="m11.629 14.272 3.1776 1.7928-0.72348 0.43838-3.1422-1.7947z" fill="#b3b3b3"/>
  <path d="m8.6956 20.766a2.5056 1.6961 18.217 0 0 -3.3413 0.0409 2.5056 1.6961 18.217 0 0 0.848 2.533 2.5056 1.6961 18.217 0 0 3.3435 -0.03958 2.5056 1.6961 18.217 0 0 -0.8502 -2.5343zm-0.28133 0.29044a1.9412 1.3141 18.217 0 1 0.37698 0.27674l-0.69044 0.71275 1.1617 0.69108a1.9412 1.3141 18.217 0 1 -0.18982 0.28187 1.9412 1.3141 18.217 0 1 -0.29539 0.21909l-1.1617-0.69108-0.69045 0.71274a1.9412 1.3141 18.217 0 1 -0.44152 -0.21014 1.9412 1.3141 18.217 0 1 -0.37479 -0.27545l0.69044-0.71275-1.1639-0.69239a1.9412 1.3141 18.217 0 1 0.18982 -0.28187 1.9412 1.3141 18.217 0 1 0.29764 -0.21773l1.1618 0.69109 0.69173-0.71409a1.9412 1.3141 18.217 0 1 0.43802 0.21017z" fill="#ef021f"/>
  <path d="m18.738 21.996-8.5781 4.5332-0.05664 1.7812 8.6367-4.4766z" fill="#ef021f"/>
  <path d="m10.148 26.476-8.8382-4.9751-0.044774 1.8317 8.8502 5.0051z" fill="#fd5a6e"/>
 </g>
</svg>
