<?xml version="1.0" encoding="UTF-8"?>
<svg viewBox="0 0 256 256" xmlns="http://www.w3.org/2000/svg" xmlns:xlink="http://www.w3.org/1999/xlink">
 <defs>
  <filter id="y">
   <feGaussianBlur stdDeviation="2.24193"/>
  </filter>
  <linearGradient id="b">
   <stop stop-color="#19aeff" offset="0"/>
   <stop stop-color="#005c94" offset="1"/>
  </linearGradient>
  <linearGradient id="a">
   <stop stop-color="#999" offset="0"/>
   <stop stop-color="#2d2d2d" offset="1"/>
  </linearGradient>
  <linearGradient id="c">
   <stop stop-color="#666" offset="0"/>
   <stop stop-color="#2d2d2d" offset="1"/>
  </linearGradient>
  <linearGradient id="h">
   <stop stop-color="#999" offset="0"/>
   <stop stop-color="#999" stop-opacity="0" offset="1"/>
  </linearGradient>
  <linearGradient id="f" x1="-749.29" x2="-742.86" y1="275.22" y2="293.08" gradientUnits="userSpaceOnUse">
   <stop stop-color="#fff" offset="0"/>
   <stop stop-color="#ccc" offset="1"/>
  </linearGradient>
  <linearGradient id="e" x1="-747.14" x2="-735" y1="300.93" y2="300.22" gradientUnits="userSpaceOnUse">
   <stop stop-color="#999" offset="0"/>
   <stop stop-color="#666" offset="1"/>
  </linearGradient>
  <linearGradient id="x" x1="192.86" x2="57.143" y1="709.51" y2="602.36" gradientTransform="matrix(.31237 0 0 .35026 -488.91 253.67)" gradientUnits="userSpaceOnUse">
   <stop stop-color="#2d2d2d" offset="0"/>
   <stop stop-color="#666" offset="1"/>
  </linearGradient>
  <linearGradient id="w" x1="-808.43" x2="-793.72" y1="481.99" y2="526.59" gradientUnits="userSpaceOnUse">
   <stop stop-color="#0e232e" offset="0"/>
   <stop stop-color="#0e232e" stop-opacity="0" offset="1"/>
  </linearGradient>
  <linearGradient id="g" x1="-235.36" x2="-261.83" y1="443.95" y2="455.99" gradientUnits="userSpaceOnUse" xlink:href="#a"/>
  <linearGradient id="d" x1="-737.86" x2="-728.57" y1="328.79" y2="323.79" gradientUnits="userSpaceOnUse" xlink:href="#h"/>
  <linearGradient id="v" x1="-792.43" x2="-770.45" y1="455.38" y2="467.53" gradientUnits="userSpaceOnUse" xlink:href="#h"/>
  <linearGradient id="u" x1="317.02" x2="325.19" y1="506.03" y2="527.82" gradientTransform="matrix(.9685 0 0 .87219 -209.53 483)" gradientUnits="userSpaceOnUse" xlink:href="#a"/>
  <linearGradient id="t" x1="-795.73" x2="-778.24" y1="457.78" y2="491.86" gradientUnits="userSpaceOnUse" xlink:href="#c"/>
  <linearGradient id="s" x1="184.31" x2="200.72" y1="912.05" y2="929.11" gradientUnits="userSpaceOnUse" xlink:href="#c"/>
  <linearGradient id="r" x1="64.726" x2="61.069" y1="914.39" y2="926.1" gradientUnits="userSpaceOnUse" xlink:href="#a"/>
  <linearGradient id="q" x1="78.99" x2="87.402" y1="851.95" y2="855.14" gradientUnits="userSpaceOnUse" xlink:href="#b"/>
  <radialGradient id="p" cx="326.81" cy="817.99" r="55.97" gradientTransform="matrix(-.6777 .42107 -.66652 -1.1368 1093.5 1610.1)" gradientUnits="userSpaceOnUse">
   <stop stop-color="#666" offset="0"/>
   <stop stop-color="#0d0000" offset="1"/>
  </radialGradient>
  <radialGradient id="o" cx="-640.01" cy="350.13" r="26.281" gradientTransform="matrix(.09703 -.25098 .33378 .12142 46.844 666.81)" gradientUnits="userSpaceOnUse">
   <stop stop-color="#fff" offset="0"/>
   <stop stop-color="#666" offset="1"/>
  </radialGradient>
  <radialGradient id="n" cx="-470.84" cy="340.05" r="65.723" gradientTransform="matrix(-1.3515 .17563 -.01352 -.09791 -449.79 990.07)" gradientUnits="userSpaceOnUse">
   <stop stop-color="#fff" offset="0"/>
   <stop stop-color="#2d2d2d" offset="1"/>
  </radialGradient>
  <radialGradient id="m" cx="-409.29" cy="357.04" r="67.566" gradientTransform="matrix(-.25096 .1558 -.14547 -.22049 160.38 1024.4)" gradientUnits="userSpaceOnUse">
   <stop stop-color="#fff" offset="0"/>
   <stop stop-color="#0084c8" offset="1"/>
  </radialGradient>
  <radialGradient id="l" cx="-554.29" cy="411.67" r="32.179" gradientTransform="matrix(-.08431 .56227 -.43099 -.06081 273.01 1236.7)" gradientUnits="userSpaceOnUse">
   <stop stop-color="#fff" offset="0"/>
   <stop stop-color="#19aeff" offset="1"/>
  </radialGradient>
  <radialGradient id="j" cx="-644.49" cy="354.8" r="63.896" gradientTransform="matrix(-.96004 1.0461 -.26193 -.22618 -426.31 1633.9)" gradientUnits="userSpaceOnUse">
   <stop stop-color="#ccc" offset="0"/>
   <stop stop-color="#2d2d2d" offset="1"/>
  </radialGradient>
  <radialGradient id="i" cx="379.93" cy="446.27" r="9.7763" gradientTransform="matrix(-.44971 -.23094 .24749 -.45347 217.45 1157.8)" gradientUnits="userSpaceOnUse">
   <stop stop-color="#0084c8" offset="0"/>
   <stop stop-color="#19aeff" offset="1"/>
  </radialGradient>
  <radialGradient id="k" cx="40.12" cy="450.6" r="84.523" gradientTransform="matrix(-.49351 .16736 -.08102 -.22482 182.35 979.76)" gradientUnits="userSpaceOnUse" xlink:href="#b"/>
 </defs>
 <g transform="translate(0 -796.36)">
  <path d="m83.46 853.15a1.5932 1.4526 0 1 0 0.26707 2.8949s2.356-0.0634 5.4007 0.16232 6.7574 0.77175 9.0802 1.7857c1.6194 0.70688 3.0132 0.89513 3.8873 1.3798 1.0047 0.55716 2.2657 2.5178 3.0267 4.3559s1.1573 3.4631 1.1573 3.4631l0.38575 1.6504 1.7211-0.59522s4.2498-1.4923 9.6144-2.9761 11.902-2.9376 16.083-2.949c3.0197-9e-3 7.9069 1.0307 11.899 2.1103s7.1514 2.1644 7.1514 2.1644a1.5873 1.4472 0 1 0 1.0979 -2.7055s-3.2496-1.1072-7.3592-2.2185-9.0139-2.256-12.79-2.2456c-4.9377 0.0135-11.522 1.5682-17.003 3.0843-4.5888 1.2692-7.109 2.1639-8.2197 2.5432-0.20119-0.72347-0.22373-1.1024-0.74184-2.3538-0.85856-2.0738-2.0443-4.5045-4.3621-5.7898-1.6065-0.89087-3.1478-1.0628-4.184-1.5151-3.0436-1.3285-6.9553-1.8444-10.178-2.0833s-5.7568-0.16234-5.7568-0.16234a1.5873 1.4472 0 0 0 -0.17804 0z" fill="#2d2d2d"/>
  <g transform="matrix(.47478 0 0 .46055 365.83 695.52)">
   <path d="m-435.14 418.12c-23.044 0-41.721 19.5-41.721 43.542s18.678 43.531 41.721 43.531 41.731-19.489 41.731-43.531-18.687-43.542-41.731-43.542zm10.621 24.869c2.7509 0.0265 5.4614 0.80882 7.9167 2.4299 8.7302 5.764 11.008 19.946 5.0858 31.677s-17.802 16.567-26.532 10.803-11.008-19.946-5.0858-31.677c4.2567-8.4314 11.585-13.301 18.615-13.233z" fill="url(#x)" stroke="#1a1a1a" stroke-linecap="round" stroke-linejoin="bevel" stroke-width="1.5871"/>
   <g transform="matrix(.78892 0 0 .67308 168.51 120.22)" fill="url(#w)">
    <path d="m-766.29 443.57c-29.268 0-52.994 28.294-52.994 63.173s23.726 63.14 52.994 63.14c3.4186 0 6.7532-0.40747 9.9916-1.1445-18.154-3.3765-32.266-28.842-32.266-59.772 0-33.228 16.289-60.164 36.378-60.164s36.378 26.936 36.378 60.164c0 10.719-1.6941 20.777-4.6646 29.494 4.5579-9.3257 7.1762-20.147 7.1762-31.717 0-34.879-23.726-63.173-52.994-63.173z"/>
    <path transform="matrix(1.1554 0 0 1.0338 109.28 -17.876)" d="m-712.86 507.36c0 34.321-20.467 62.143-45.714 62.143s-45.714-27.822-45.714-62.143 20.467-62.143 45.714-62.143 45.714 27.822 45.714 62.143z" stroke="#1a1a1a" stroke-dasharray="6.55430424, 6.55430424" stroke-linecap="round" stroke-linejoin="bevel" stroke-width="3.2772"/>
   </g>
   <path transform="matrix(.27708 .17322 -.15997 .30002 -386.17 164.7)" d="m378.57 818.79c0 39.054-23.985 70.714-53.571 70.714s-53.571-31.66-53.571-70.714 23.985-70.714 53.571-70.714 53.571 31.66 53.571 70.714z" fill="url(#p)" stroke="#1a1a1a" stroke-linecap="round" stroke-linejoin="bevel" stroke-width="4.798"/>
   <path transform="matrix(.28247 .09206 -.08277 .37568 -354.62 172.88)" d="m-24.286 753.79c0 5.5228-4.1574 10-9.2857 10s-9.2857-4.4772-9.2857-10 4.1574-10 9.2857-10 9.2857 4.4772 9.2857 10z"/>
   <path transform="matrix(.14031 .04573 -.04558 .2069 -466.08 263.71)" d="m555.42 812.54c-0.54434 0.45811-9.2551-6.2963-9.9674-6.2111s-7.0708 8.7319-7.7309 8.4811 0.67421-11.37 0.22362-11.93-11.711-1.3339-11.83-2.0449 10.053-5.2147 10.303-5.8903-3.8372-10.495-3.2724-10.92 9.2724 5.7941 9.9821 5.6707 7.3761-9.061 8.0496-8.8094-0.96753 11.62-0.54326 12.186 11.725 1.5114 11.831 2.2107-10.1 4.7324-10.348 5.4087 3.8474 11.391 3.303 11.849z" fill="#666"/>
   <path transform="matrix(.28247 .09206 -.08277 .37568 -364.22 184.58)" d="m-24.286 753.79c0 5.5228-4.1574 10-9.2857 10s-9.2857-4.4772-9.2857-10 4.1574-10 9.2857-10 9.2857 4.4772 9.2857 10z"/>
   <path transform="matrix(.14031 .04573 -.04558 .2069 -475.69 275.42)" d="m555.42 812.54c-0.54434 0.45811-9.2551-6.2963-9.9674-6.2111s-7.0708 8.7319-7.7309 8.4811 0.67421-11.37 0.22362-11.93-11.711-1.3339-11.83-2.0449 10.053-5.2147 10.303-5.8903-3.8372-10.495-3.2724-10.92 9.2724 5.7941 9.9821 5.6707 7.3761-9.061 8.0496-8.8094-0.96753 11.62-0.54326 12.186 11.725 1.5114 11.831 2.2107-10.1 4.7324-10.348 5.4087 3.8474 11.391 3.303 11.849z" fill="#666"/>
   <path transform="matrix(.28247 .09206 -.08277 .37568 -359.85 195.33)" d="m-24.286 753.79c0 5.5228-4.1574 10-9.2857 10s-9.2857-4.4772-9.2857-10 4.1574-10 9.2857-10 9.2857 4.4772 9.2857 10z"/>
   <path transform="matrix(.14031 .04573 -.04558 .2069 -471.31 286.17)" d="m555.42 812.54c-0.54434 0.45811-9.2551-6.2963-9.9674-6.2111s-7.0708 8.7319-7.7309 8.4811 0.67421-11.37 0.22362-11.93-11.711-1.3339-11.83-2.0449 10.053-5.2147 10.303-5.8903-3.8372-10.495-3.2724-10.92 9.2724 5.7941 9.9821 5.6707 7.3761-9.061 8.0496-8.8094-0.96753 11.62-0.54326 12.186 11.725 1.5114 11.831 2.2107-10.1 4.7324-10.348 5.4087 3.8474 11.391 3.303 11.849z" fill="#666"/>
   <path transform="matrix(.28247 .09206 -.08277 .37568 -350.23 196.35)" d="m-24.286 753.79c0 5.5228-4.1574 10-9.2857 10s-9.2857-4.4772-9.2857-10 4.1574-10 9.2857-10 9.2857 4.4772 9.2857 10z"/>
   <path transform="matrix(.14031 .04573 -.04558 .2069 -461.7 287.18)" d="m555.42 812.54c-0.54434 0.45811-9.2551-6.2963-9.9674-6.2111s-7.0708 8.7319-7.7309 8.4811 0.67421-11.37 0.22362-11.93-11.711-1.3339-11.83-2.0449 10.053-5.2147 10.303-5.8903-3.8372-10.495-3.2724-10.92 9.2724 5.7941 9.9821 5.6707 7.3761-9.061 8.0496-8.8094-0.96753 11.62-0.54326 12.186 11.725 1.5114 11.831 2.2107-10.1 4.7324-10.348 5.4087 3.8474 11.391 3.303 11.849z" fill="#666"/>
   <path transform="matrix(.28247 .09206 -.08277 .37568 -347.44 183.69)" d="m-24.286 753.79c0 5.5228-4.1574 10-9.2857 10s-9.2857-4.4772-9.2857-10 4.1574-10 9.2857-10 9.2857 4.4772 9.2857 10z"/>
   <path transform="matrix(.14031 .04573 -.04558 .2069 -458.91 274.53)" d="m555.42 812.54c-0.54434 0.45811-9.2551-6.2963-9.9674-6.2111s-7.0708 8.7319-7.7309 8.4811 0.67421-11.37 0.22362-11.93-11.711-1.3339-11.83-2.0449 10.053-5.2147 10.303-5.8903-3.8372-10.495-3.2724-10.92 9.2724 5.7941 9.9821 5.6707 7.3761-9.061 8.0496-8.8094-0.96753 11.62-0.54326 12.186 11.725 1.5114 11.831 2.2107-10.1 4.7324-10.348 5.4087 3.8474 11.391 3.303 11.849z" fill="#666"/>
   <g transform="matrix(.74255 0 0 .61081 130.64 152.76)" fill="url(#v)" filter="url(#y)" stroke="#1a1a1a" stroke-linecap="round" stroke-linejoin="bevel">
    <path d="m-766.29 443.57c-29.268 0-52.994 28.294-52.994 63.173s23.726 63.14 52.994 63.14c3.4186 0 6.7532-0.40747 9.9916-1.1445-18.154-3.3765-32.266-28.842-32.266-59.772 0-33.228 16.289-60.164 36.378-60.164s36.378 26.936 36.378 60.164c0 10.719-1.6941 20.777-4.6646 29.494 4.5579-9.3257 7.1762-20.147 7.1762-31.717 0-34.879-23.726-63.173-52.994-63.173z" stroke-dasharray="1.81646894, 3.63293788" stroke-width="1.8165"/>
    <path transform="matrix(1.1554 0 0 1.0338 109.28 -17.876)" d="m-712.86 507.36c0 34.321-20.467 62.143-45.714 62.143s-45.714-27.822-45.714-62.143 20.467-62.143 45.714-62.143 45.714 27.822 45.714 62.143z" stroke-dasharray="1.66205754, 3.32411508" stroke-width="1.6621"/>
   </g>
  </g>
  <path d="m135.51 875.86c8.1222 3.5277 16.244 9.1726 24.366-1.0043l17.133-4.0173-8.7567-2.3435z" fill="#19aeff" stroke="#0974b9" stroke-width=".49982"/>
  <g transform="matrix(.40394 0 0 .35204 353.3 753.06)" fill="url(#t)">
   <path d="m-766.29 443.57c-29.268 0-52.994 28.294-52.994 63.173s23.726 63.14 52.994 63.14c3.4186 0 6.7532-0.40747 9.9916-1.1445-18.154-3.3765-32.266-28.842-32.266-59.772 0-33.228 16.289-60.164 36.378-60.164s36.378 26.936 36.378 60.164c0 10.719-1.6941 20.777-4.6646 29.494 4.5579-9.3257 7.1762-20.147 7.1762-31.717 0-34.879-23.726-63.173-52.994-63.173z"/>
   <path transform="matrix(1.1554 0 0 1.0338 109.28 -17.876)" d="m-712.86 507.36c0 34.321-20.467 62.143-45.714 62.143s-45.714-27.822-45.714-62.143 20.467-62.143 45.714-62.143 45.714 27.822 45.714 62.143z"/>
  </g>
  <path d="m173.43 910.59s-6.4087 3.4009-13.068 6.7369c-3.3297 1.668-6.7286 3.3228-9.3614 4.5066-1.3164 0.59189-2.4472 1.0651-3.2067 1.3444-0.14623 0.0538-0.17927 0.0537-0.2931 0.0916-2.4276-0.56542-5.3399-2.2662-8.6718-4.2469-3.5882-2.133-7.8537-4.5874-13.275-4.3691-1.2805 0.0516-2.5951 0.27237-4.6376 0.61107s-4.6172 0.811-7.534 1.3596c-5.8336 1.0972-13.063 2.5279-20.119 3.9566-14.113 2.8574-27.533 5.6829-27.533 5.6829l1.7757 6.5689s13.393-2.8187 27.464-5.6676c7.0355-1.4244 14.235-2.8573 19.999-3.9413 2.8817-0.54201 5.4047-1.0074 7.3443-1.3291s3.4957-0.5005 3.586-0.50413c2.5064-0.10093 5.3074 1.2284 8.6891 3.2386s7.1269 4.653 12.137 5.4537c1.4799 0.2365 1.8773-0.0309 2.4136-0.16805s1.029-0.30564 1.5689-0.50411c1.0797-0.39699 2.3286-0.93837 3.7411-1.5735 2.8251-1.2702 6.2723-2.9497 9.6545-4.644 6.7645-3.3887 13.223-6.8133 13.223-6.8133l-3.8963-5.7898zm-26.36 12.786h0.0862l-0.12069 0.0457c-0.0444 0.0114-0.0882-0.0218 0.0345-0.0457z" fill="#2d2d2d" stroke="#1a1a1a" stroke-width="6.4531"/>
  <path d="m72.123 916.44 31.503-8.7225 0.70005 11.049 23.102-0.58151 4.2004-21.516 14.001-3.489 8.4007 4.0705 8.4007-4.0705s-23.802-16.864-26.602-15.701-12.751-0.14749-12.751-0.14749c-15.718 1.4224-43.509 15.985-50.954 39.108z" fill="#2d2d2d" stroke="#1a1a1a" stroke-width=".44662"/>
  <path d="m70.953 918.76c3.7706-17.866 31.178-34.551 52.274-40.705l-26.602-2.326c-18.018 13.369-48.007 35.527-25.672 43.031z" fill="url(#j)" stroke="#666" stroke-width=".44662"/>
  <path d="m67.922 918.76c13.561-14.626 45.179-42.925 54.605-39.542-11.619 26.225 14.599 12.41 25.202 15.119-30.196 0.37868-58.846 4.0983-79.807 24.423z" fill="url(#k)" stroke="#1b7b9a" stroke-width=".44662"/>
  <path d="m130.93 896.67-2.8002 23.842 20.302-0.58149 9.8008-20.353-11.201-5.815z" fill="url(#l)" stroke="#3c5fb3" stroke-width=".44662"/>
  <path d="m154.73 897.25s9.8008 6.978 12.601 6.978 13.301 0.58149 13.301 0.58149 1.4001 5.2335 4.2004 4.652 13.981-10.225 13.981-10.225 16.502-2.7221 19.621-10.709c1.6282-4.169 6.5366-13.44 0-13.374-14.212 0.1429-20.822 1.6374-19.602-0.58151l-7.7006 9.8855c-5.2025 1.2542-4.9441-7.0432-14.701 4.652-7.234 1.2799-14.468 5.4148-21.702 8.141z" fill="url(#m)" stroke="#5088c7" stroke-width=".44662"/>
  <path d="m97.675 875.44 8.4007 0.5815s8.2759-5.1202 12.951-5.2335c3.8419-0.0931 10.851 3.7797 10.851 3.7797l5.2504 0.87225-2.1002 1.7445-9.1008 0.29074z" fill="#666" stroke="#1a1a1a" stroke-width=".44662"/>
  <path d="m135.48 876.6c11.741 5.9119 22.774 11.824 26.252 17.736 17.735-7.115 19.368-12.19 29.052-9.8855l7.3506-10.467-1.7502-1.4537-8.0507 5.815-11.901-0.29074c-12.074 6.503-26.089 4.4039-40.953-1.4538z" fill="#2d2d2d" stroke="#1a1a1a" stroke-width=".44662"/>
  <path d="m135.48 876.31c29.07 10.47 34.198 5.1969 41.654 1.4538l10.501 1.4537 9.8008-6.6872s-15.401-2.6167-17.501-2.6167-21.002 3.7797-21.002 3.7797l-0.70005 1.7445c-5.8112 5.0767-13.209 5.8697-22.752 0.87226z" fill="url(#n)" stroke="#7a7a7a" stroke-width=".44662"/>
  <path d="m97.067 900.53-0.0307 0.0254-25.206 22.68-0.21439 0.1908-0.09189 0.25441-4.5482 13.089 2.588 0.62328 4.4563-12.822 11.868-10.685c-1.211 2.2878-2.1912 4.6894-2.833 7.2633l2.634 0.45794c1.89-7.5791 6.6232-13.74 12.971-19.208l0.35221-0.31801-1.9448-1.5519z" fill="#0e232e" stroke="#1a1a1a" stroke-width="2.5719"/>
  <path d="m67.006 919.26 0.2884 1.1019 0.78037 2.9221 0.20358 0.80678 1.4081-0.059 36.203-1.5447 8.2448 4.27-38.747 5.8836-2.4768 0.38371 1.7643 1.0823 14.352 8.7663 2.2054-1.2102-12.571-7.684 38.985-5.9229 2.7483-0.42307-2.1206-1.0921-10.857-5.6179-0.47501-0.25582-0.64464 0.0295-18.559 0.79693 0.18661-1.2397-19-0.90518-1.917-0.0885zm3.5795 1.9382 11.383 0.54113-11.112 0.47226-0.27143-1.0134z" fill="#0e232e" stroke="#1a1a1a" stroke-width="2.424"/>
  <g transform="matrix(.32701 0 0 .37329 258.47 742.34)" fill="url(#g)" stroke="#1a1a1a" stroke-width="2.4">
   <path d="m-246.125,422.96875c-.4882-.0842-.49076-.00044-.65625.0312-.33098.0634-.76719.16116-1.40625.34375h-.0312c-2.24589.64485-4.96803,1.91402-7.8125,3.40625-1.54324.58405-2.51001.98841-4.21875,1.625-9.0993,3.38993-19.4375,7.15625-19.4375,7.15625l.8125,2.25c0,0 6.55893-2.41955 11.21875-4.125-.10027.0649-.21275.1228-.3125.1875-6.63958,4.30676-12.03125,8.25-12.03125,8.25l1.125,2.09375 15.4375-5.78125-17.15625,10.0625 1.03125,2.15625 15.5-6.25-15.625,8.28125-.15625.0625 .96875,2.21875 1.59375-.5625 .4375,1.28125 .125-.0312h.0312l18.03125-4.875-15.21875,6.15625-.15625.0625 .75,2.28125 19.78125-5.15625-16.78125,7.09375-.1875.0625 .75,2.28125 17.5625-4.03125-17.375,6.6875-.1875.0625 .6875,2.28125 18.75-3.96875-12.96875,4.53125-.0937.0312-.0937.0312-6.4375,3.59375 .84375,2.21875 34.3125-7.875-.5625-2.34375-24.28125,5.5625 27.59375-9.625h.0625l.15625-.0625-.65625-2.28125-.125.0312-22.15625,4.6875 19.21875-7.375h.0312l.15625-.0625-.6875-2.28125-.1875.0312-.0625.0312-20.625,4.71875 19.46875-8.21875-.78125-2.28125-17.8125,4.625 16.28125-6.59375 .125-.0312-.75-2.28125-16.1875,4.34375 16.1875-6.34375h.0312l-.4375-1.125-.40625-1.125h-.0312l-.28125.0937-23.03125,8.125 22.0625-11.6875 .125-.0625-1.03125-2.15625-.0937.0312-.0625.0312-21.84375,8.8125 15.03125-8.78125 .1875-.0937-1.03125-2.15625-.1875.0625-.0312.0312-19.09375,7.125c1.707-1.16941 1.69233-1.23878 3.78125-2.59375 3.79833-2.46378 7.97669-4.97207 11.78125-6.96875 2.4447-.92637 5.27809-1.98436 6.78125-2.59375 .62663-.25404 1.13298-.47871 1.53125-.65625s.57969-.1974.96875-.5c.0973-.0756.32187-.0576.46875-.75 .0734-.34622-.12957-.92297-.40625-1.15625s-.4717-.26021-.59375-.28125z"/>
   <path d="m-248.21875,424.40625c-.33098.0634-.76719.19241-1.40625.375-2.23767.63933-4.94511,1.92085-7.78125,3.40625-1.55357.58806-2.52764.98334-4.25,1.625-9.0993,3.38993-19.46875,7.125-19.46875,7.125l.8125,2.28125c0,0 6.55893-2.41955 11.21875-4.125-.10027.0649-.21275.1228-.3125.1875-6.63958,4.30676-12.03125,8.25-12.03125,8.25l1.15625,2.09375 15.46875-5.8125-17.0625,10-.15625.0937 1.0625,2.125 .15625-.0625 15.5-6.28125-15.8125,8.40625-.15625.0625 .96875,2.1875 .15625-.0625 1.46875-.5 .4375,1.3125 .125-.0312h.0312l17.90625-4.84375-15.03125,6.09375-.0937.0312-.125.0625 .75,2.25 .125-.0312 19.65625-5.125-17,7.1875 .75,2.28125 17.625-4.03125-17.625,6.71875 .6875,2.3125 18.6875-3.96875-12.90625,4.5-.0937.0625-.0937.0312-6.4375,3.5625 .875,2.21875 34.28125-7.84375-.53125-2.34375-24.28125,5.5625 27.65625-9.65625 .125-.0312-.625-2.3125-22.25,4.71875 19.34375-7.40625-.6875-2.3125-20.875,4.8125 19.3125-8.1875 .15625-.0625-.78125-2.25-17.875,4.65625 16.34375-6.625 .15625-.0625-.78125-2.25-.125.0312h-.0312l-16.15625,4.375 15.84375-6.25 .46875-.15625v-.0312h.0312l-.8125-2.21875-.0625.0312v-.0312l-.53125.21875-22.8125,8 22.21875-11.75-1.03125-2.1875-21.84375,8.8125 14.875-8.71875 .1875-.0937-1.03125-2.15625-19.3125,7.25c1.707-1.16941 1.69233-1.23878 3.78125-2.59375 3.79833-2.46378 7.97669-4.97207 11.78125-6.96875 2.4447-.92637 5.27809-1.98436 6.78125-2.59375 .62663-.25404 1.16423-.47871 1.5625-.65625s.54844-.1974.9375-.5c.0973-.0756.32187-.0576.46875-.75 .0734-.34622-.12957-.95422-.40625-1.1875s-.4717-.22896-.59375-.25c-.4882-.0842-.49076-.0317-.65625,0z"/>
  </g>
  <path d="m101.53 875.73-3.1503-11.921 6.3005-5.815 3.1503 8.4318 13.301-2.6168 1.7501 3.489-9.8008 1.7445z" fill="url(#o)" stroke="#717171" stroke-width=".44662"/>
  <path d="m143.82 859.97a2.7664 2.6835 0 0 0 -0.53414 5.21l12.938 4.6343a2.7698 2.6868 0 0 0 1.9288 -5.0373l-12.968-4.6343a2.7664 2.6835 0 0 0 -1.365 -0.17271z" fill="url(#i)"/>
  <path d="m80.077 850.58a2.7664 2.6835 0 0 0 -0.26706 5.3539l12.433 1.1514a2.7726 2.6895 0 1 0 0.53413 -5.3539l-12.433-1.1226a2.7664 2.6835 0 0 0 -0.26707 -0.0288z" fill="url(#q)"/>
  <g transform="matrix(.19939 -.0974 .14061 .20607 194.73 748.02)">
   <path transform="matrix(.49464 0 0 .48338 -288.35 54.574)" d="m-811.43 317.72c0 3.3532-2.7183 6.0714-6.0714 6.0714s-6.0714-2.7183-6.0714-6.0714 2.7183-6.0714 6.0714-6.0714 6.0714 2.7183 6.0714 6.0714z" fill="#0e232e" fill-opacity=".99065"/>
   <path d="m-691.43 209.51c18.737 0.39112 39.606 15.745 49.812 22.961" fill="none" stroke="#1a1a1a"/>
  </g>
  <g transform="matrix(-.11726 -.16871 -.24808 .11897 114.76 725.78)">
   <path transform="matrix(.49464 0 0 .48338 -288.35 54.574)" d="m-811.43 317.72c0 3.3532-2.7183 6.0714-6.0714 6.0714s-6.0714-2.7183-6.0714-6.0714 2.7183-6.0714 6.0714-6.0714 6.0714 2.7183 6.0714 6.0714z" fill="#0e232e" fill-opacity=".99065"/>
   <path d="m-691.43 209.51c18.737 0.39112 47.067 21.424 57.273 28.64" fill="none" stroke="#1a1a1a"/>
  </g>
  <g transform="matrix(.28164 0 0 .27674 300.36 833.6)">
   <path d="m-755.71 280.93 1.4286 10 22.857-5-2.8572-10c-7.1429-0.91414-14.286-1.5487-21.429 5z" fill="url(#f)"/>
   <path d="m-750.71 291.65 2.8572 15.714 17.143-4.2857-4.2857-16.429z" fill="url(#e)"/>
   <path d="m-745.81 309.22a1.0011 1.0011 0 1 0 0.0937 2h10.75l-9.625 3.0625 0.25 1.9375 9.8125 0.4375-8.625 2.5938 0.3125 1.9688h10.531l-10.875 3.7812 0.21875 1.9375 10.094 1.25-6.5625 1.0312-0.0625 1.9688 6.9688 1.5938h-6.75l-0.25 1.9688 10.469 2.625-9.5625 0.40625-0.1875 1.9688 12.594 3.2812c-0.91226 0.28221-1.8516 0.55444-2.7812 0.875-2.6094 0.89979-4.9375 1.8125-4.9375 1.8125a1.004 1.004 0 1 0 0.71875 1.875s2.3058-0.89532 4.875-1.7812c1.2846-0.44296 2.6384-0.89222 3.7812-1.2188s2.1483-0.53125 2.4062-0.53125l0.28125-1.9688-10-2.5938 9.7812-0.4375 0.1875-1.9688-9.25-2.3125h7.5938l0.21875-1.9688-0.21875-0.0312-10.406-2.375 8.4062-1.3438-0.0312-1.9688-12.906-1.625 12.406-4.3125-0.34375-1.9375h-9.5625l7.7188-2.3125-0.25-1.9688-10.062-0.46875 10.312-3.2812-0.28125-1.9688h-17.156a1.0001 1.0001 0 0 0 -0.0937 0z"/>
   <path d="m-745.81 309.22a1.0011 1.0011 0 1 0 0.0937 2h10.75l-9.625 3.0625 0.25 1.9375 9.8125 0.4375-8.625 2.5938 0.3125 1.9688h10.531l-10.875 3.7812 0.21875 1.9375 10.094 1.25-6.5625 1.0312-0.0625 1.9688 6.9688 1.5938h-6.75l-0.25 1.9688 10.469 2.625-9.5625 0.40625-0.1875 1.9688 12.594 3.2812c-0.91226 0.28221-1.8516 0.55444-2.7812 0.875-2.6094 0.89979-4.9375 1.8125-4.9375 1.8125a1.004 1.004 0 1 0 0.71875 1.875s2.3058-0.89532 4.875-1.7812c1.2846-0.44296 2.6384-0.89222 3.7812-1.2188s2.1483-0.53125 2.4062-0.53125l0.28125-1.9688-10-2.5938 9.7812-0.4375 0.1875-1.9688-9.25-2.3125h7.5938l0.21875-1.9688-0.21875-0.0312-10.406-2.375 8.4062-1.3438-0.0312-1.9688-12.906-1.625 12.406-4.3125-0.34375-1.9375h-9.5625l7.7188-2.3125-0.25-1.9688-10.062-0.46875 10.312-3.2812-0.28125-1.9688h-17.156a1.0001 1.0001 0 0 0 -0.0937 0z" fill="url(#d)"/>
  </g>
  <path d="m67.466 910.77c-4.1724 0-7.1525 3.1207-7.6559 6.7644-0.85649 6.199-2.037 12.578 0.11869 16.954 0.6849 1.3905 1.4101 2.8945 2.552 4.145 1.153 1.2626 2.8504 2.2164 4.9852 2.2164h1.9585c2.2134 0 4.5207-0.99 6.2019-2.3315 0.83794-0.66865 1.5651-1.4566 1.8991-2.4755 0.35491-1.0825 0.05449-2.3762-0.91989-3.2239-3.3624-2.9253-3.8928-5.0555-3.5016-7.2537 0.3879-2.1794 2.012-4.5534 3.7389-7.0522 0.68448-0.99043 0.80644-2.1902 0.44511-3.1951-0.35369-0.98365-1.057-1.7713-1.8694-2.4179-1.625-1.2932-3.8484-2.13-5.9942-2.13h-1.9585zm0 2.8209h1.9585c1.2731 0 3.0804 0.66569 4.1247 1.4968 0.51859 0.4127 0.87387 0.85837 0.97924 1.1514 0.11475 0.31918 0.10185 0.37171-0.1187 0.69084-1.7021 2.463-3.6354 5.0634-4.184 8.146-0.55112 3.0964 0.58589 6.5361 4.4214 9.8731 0.14424 0.12548 0.15271 0.15934 0.14838 0.14392-5e-3 -0.0154 0.012-0.0118-0.0296 0.11514-0.05999 0.18316-0.40755 0.66643-0.97923 1.1226-1.1381 0.90813-3.175 1.6983-4.3621 1.6983h-1.9585c-1.3188 0-2.0254-0.42989-2.7894-1.2665-0.7527-0.82432-1.4249-2.0984-2.1068-3.4829-1.4206-2.884-0.74047-9.1521 0.11869-15.371 0.34143-2.4711 2.0655-4.3177 4.7775-4.3177z" fill="url(#r)" stroke="#474747" stroke-width="1.0278"/>
  <g transform="matrix(.23432 0 0 .36013 354.76 785.52)">
   <path d="m-755.71 280.93 1.4286 10 22.857-5-2.8572-10c-7.1429-0.91414-14.286-1.5487-21.429 5z" fill="url(#f)"/>
   <path d="m-750.71 291.65 2.8572 15.714 17.143-4.2857-4.2857-16.429z" fill="url(#e)"/>
   <path d="m-745.81 309.22a1.0011 1.0011 0 1 0 0.0937 2h10.75l-9.625 3.0625 0.25 1.9375 9.8125 0.4375-8.625 2.5938 0.3125 1.9688h10.531l-10.875 3.7812 0.21875 1.9375 10.094 1.25-6.5625 1.0312-0.0625 1.9688 6.9688 1.5938h-6.75l-0.25 1.9688 10.469 2.625-9.5625 0.40625-0.1875 1.9688 12.594 3.2812c-0.91226 0.28221-1.8516 0.55444-2.7812 0.875-2.6094 0.89979-4.9375 1.8125-4.9375 1.8125a1.004 1.004 0 1 0 0.71875 1.875s2.3058-0.89532 4.875-1.7812c1.2846-0.44296 2.6384-0.89222 3.7812-1.2188s2.1483-0.53125 2.4062-0.53125l0.28125-1.9688-10-2.5938 9.7812-0.4375 0.1875-1.9688-9.25-2.3125h7.5938l0.21875-1.9688-0.21875-0.0312-10.406-2.375 8.4062-1.3438-0.0312-1.9688-12.906-1.625 12.406-4.3125-0.34375-1.9375h-9.5625l7.7188-2.3125-0.25-1.9688-10.062-0.46875 10.312-3.2812-0.28125-1.9688h-17.156a1.0001 1.0001 0 0 0 -0.0937 0z"/>
   <path d="m-745.81 309.22a1.0011 1.0011 0 1 0 0.0937 2h10.75l-9.625 3.0625 0.25 1.9375 9.8125 0.4375-8.625 2.5938 0.3125 1.9688h10.531l-10.875 3.7812 0.21875 1.9375 10.094 1.25-6.5625 1.0312-0.0625 1.9688 6.9688 1.5938h-6.75l-0.25 1.9688 10.469 2.625-9.5625 0.40625-0.1875 1.9688 12.594 3.2812c-0.91226 0.28221-1.8516 0.55444-2.7812 0.875-2.6094 0.89979-4.9375 1.8125-4.9375 1.8125a1.004 1.004 0 1 0 0.71875 1.875s2.3058-0.89532 4.875-1.7812c1.2846-0.44296 2.6384-0.89222 3.7812-1.2188s2.1483-0.53125 2.4062-0.53125l0.28125-1.9688-10-2.5938 9.7812-0.4375 0.1875-1.9688-9.25-2.3125h7.5938l0.21875-1.9688-0.21875-0.0312-10.406-2.375 8.4062-1.3438-0.0312-1.9688-12.906-1.625 12.406-4.3125-0.34375-1.9375h-9.5625l7.7188-2.3125-0.25-1.9688-10.062-0.46875 10.312-3.2812-0.28125-1.9688h-17.156a1.0001 1.0001 0 0 0 -0.0937 0z" fill="url(#d)"/>
  </g>
  <path d="m201.09 902.15c-13.296 0-24.073 11.312-24.073 25.259s10.777 25.253 24.073 25.253 24.078-11.306 24.078-25.253-10.782-25.259-24.078-25.259zm6.128 14.427c1.5872 0.0155 3.1512 0.46921 4.5679 1.4096 5.0372 3.3438 6.3516 11.571 2.9345 18.376s-10.272 9.611-15.309 6.2672-6.3516-11.571-2.9345-18.376c2.4561-4.8912 6.6847-7.7162 10.741-7.6769z" fill="url(#s)"/>
  <path transform="matrix(.17877 .14416 -.10321 .17402 231.71 740.97)" d="m378.57 818.79a53.571 70.714 0 1 1 -107.14 0 53.571 70.714 0 1 1 107.14 0z" fill="#666"/>
  <path transform="matrix(.16298 .0534 -.04775 .21794 247.55 759.88)" d="m-24.286 753.79a9.2857 10 0 1 1 -18.571 0 9.2857 10 0 1 1 18.571 0z"/>
  <path transform="matrix(.08096 .02653 -.0263 .12003 183.23 812.58)" d="m555.42 812.54c-0.54434 0.45811-9.2551-6.2963-9.9674-6.2111s-7.0708 8.7319-7.7309 8.4811 0.67421-11.37 0.22362-11.93-11.711-1.3339-11.83-2.0449 10.053-5.2147 10.303-5.8903-3.8372-10.495-3.2724-10.92 9.2724 5.7941 9.9821 5.6707 7.3761-9.061 8.0496-8.8094-0.96753 11.62-0.54326 12.186 11.725 1.5114 11.831 2.2107-10.1 4.7324-10.348 5.4087 3.8474 11.391 3.303 11.849z" fill="#666"/>
  <path transform="matrix(.16298 .0534 -.04775 .21794 242.01 766.67)" d="m-24.286 753.79a9.2857 10 0 1 1 -18.571 0 9.2857 10 0 1 1 18.571 0z"/>
  <path transform="matrix(.08096 .02653 -.0263 .12003 177.69 819.37)" d="m555.42 812.54c-0.54434 0.45811-9.2551-6.2963-9.9674-6.2111s-7.0708 8.7319-7.7309 8.4811 0.67421-11.37 0.22362-11.93-11.711-1.3339-11.83-2.0449 10.053-5.2147 10.303-5.8903-3.8372-10.495-3.2724-10.92 9.2724 5.7941 9.9821 5.6707 7.3761-9.061 8.0496-8.8094-0.96753 11.62-0.54326 12.186 11.725 1.5114 11.831 2.2107-10.1 4.7324-10.348 5.4087 3.8474 11.391 3.303 11.849z" fill="#666"/>
  <path transform="matrix(.16298 .0534 -.04775 .21794 244.53 772.91)" d="m-24.286 753.79a9.2857 10 0 1 1 -18.571 0 9.2857 10 0 1 1 18.571 0z"/>
  <path transform="matrix(.08096 .02653 -.0263 .12003 180.22 825.6)" d="m555.42 812.54c-0.54434 0.45811-9.2551-6.2963-9.9674-6.2111s-7.0708 8.7319-7.7309 8.4811 0.67421-11.37 0.22362-11.93-11.711-1.3339-11.83-2.0449 10.053-5.2147 10.303-5.8903-3.8372-10.495-3.2724-10.92 9.2724 5.7941 9.9821 5.6707 7.3761-9.061 8.0496-8.8094-0.96753 11.62-0.54326 12.186 11.725 1.5114 11.831 2.2107-10.1 4.7324-10.348 5.4087 3.8474 11.391 3.303 11.849z" fill="#666"/>
  <path transform="matrix(.16298 .0534 -.04775 .21794 250.08 773.5)" d="m-24.286 753.79a9.2857 10 0 1 1 -18.571 0 9.2857 10 0 1 1 18.571 0z"/>
  <path transform="matrix(.08096 .02653 -.0263 .12003 185.77 826.19)" d="m555.42 812.54c-0.54434 0.45811-9.2551-6.2963-9.9674-6.2111s-7.0708 8.7319-7.7309 8.4811 0.67421-11.37 0.22362-11.93-11.711-1.3339-11.83-2.0449 10.053-5.2147 10.303-5.8903-3.8372-10.495-3.2724-10.92 9.2724 5.7941 9.9821 5.6707 7.3761-9.061 8.0496-8.8094-0.96753 11.62-0.54326 12.186 11.725 1.5114 11.831 2.2107-10.1 4.7324-10.348 5.4087 3.8474 11.391 3.303 11.849z" fill="#666"/>
  <path transform="matrix(.16298 .0534 -.04775 .21794 251.69 766.16)" d="m-24.286 753.79a9.2857 10 0 1 1 -18.571 0 9.2857 10 0 1 1 18.571 0z"/>
  <path transform="matrix(.08096 .02653 -.0263 .12003 187.37 818.85)" d="m555.42 812.54c-0.54434 0.45811-9.2551-6.2963-9.9674-6.2111s-7.0708 8.7319-7.7309 8.4811 0.67421-11.37 0.22362-11.93-11.711-1.3339-11.83-2.0449 10.053-5.2147 10.303-5.8903-3.8372-10.495-3.2724-10.92 9.2724 5.7941 9.9821 5.6707 7.3761-9.061 8.0496-8.8094-0.96753 11.62-0.54326 12.186 11.725 1.5114 11.831 2.2107-10.1 4.7324-10.348 5.4087 3.8474 11.391 3.303 11.849z" fill="#666"/>
  <path transform="matrix(.18817 .14662 -.10864 .18006 74.019 737.71)" d="m378.57 818.79a53.571 69.264 0 1 1 -107.14 0 53.571 69.264 0 1 1 107.14 0z" fill="#999" opacity=".39024"/>
  <path transform="matrix(.17658 .05152 -.05174 .21024 93.011 769.71)" d="m-24.286 753.79a9.2857 10 0 1 1 -18.571 0 9.2857 10 0 1 1 18.571 0z"/>
  <path transform="matrix(.08771 .02559 -.02849 .11578 23.332 820.54)" d="m555.42 812.54c-0.54434 0.45811-9.2551-6.2963-9.9674-6.2111s-7.0708 8.7319-7.7309 8.4811 0.67421-11.37 0.22362-11.93-11.711-1.3339-11.83-2.0449 10.053-5.2147 10.303-5.8903-3.8372-10.495-3.2724-10.92 9.2724 5.7941 9.9821 5.6707 7.3761-9.061 8.0496-8.8094-0.96753 11.62-0.54326 12.186 11.725 1.5114 11.831 2.2107-10.1 4.7324-10.348 5.4087 3.8474 11.391 3.303 11.849z" fill="#666"/>
  <path transform="matrix(.17658 .05152 -.05174 .21024 87.005 776.26)" d="m-24.286 753.79a9.2857 10 0 1 1 -18.571 0 9.2857 10 0 1 1 18.571 0z"/>
  <path transform="matrix(.08771 .02559 -.02849 .11578 17.326 827.09)" d="m555.42 812.54c-0.54434 0.45811-9.2551-6.2963-9.9674-6.2111s-7.0708 8.7319-7.7309 8.4811 0.67421-11.37 0.22362-11.93-11.711-1.3339-11.83-2.0449 10.053-5.2147 10.303-5.8903-3.8372-10.495-3.2724-10.92 9.2724 5.7941 9.9821 5.6707 7.3761-9.061 8.0496-8.8094-0.96753 11.62-0.54326 12.186 11.725 1.5114 11.831 2.2107-10.1 4.7324-10.348 5.4087 3.8474 11.391 3.303 11.849z" fill="#666"/>
  <path transform="matrix(.17658 .05152 -.05174 .21024 89.742 782.27)" d="m-24.286 753.79a9.2857 10 0 1 1 -18.571 0 9.2857 10 0 1 1 18.571 0z"/>
  <path transform="matrix(.08771 .02559 -.02849 .11578 20.063 833.11)" d="m555.42 812.54c-0.54434 0.45811-9.2551-6.2963-9.9674-6.2111s-7.0708 8.7319-7.7309 8.4811 0.67421-11.37 0.22362-11.93-11.711-1.3339-11.83-2.0449 10.053-5.2147 10.303-5.8903-3.8372-10.495-3.2724-10.92 9.2724 5.7941 9.9821 5.6707 7.3761-9.061 8.0496-8.8094-0.96753 11.62-0.54326 12.186 11.725 1.5114 11.831 2.2107-10.1 4.7324-10.348 5.4087 3.8474 11.391 3.303 11.849z" fill="#666"/>
  <path transform="matrix(.17658 .05152 -.05174 .21024 95.753 782.84)" d="m-24.286 753.79a9.2857 10 0 1 1 -18.571 0 9.2857 10 0 1 1 18.571 0z"/>
  <path transform="matrix(.08771 .02559 -.02849 .11578 26.074 833.67)" d="m555.42 812.54c-0.54434 0.45811-9.2551-6.2963-9.9674-6.2111s-7.0708 8.7319-7.7309 8.4811 0.67421-11.37 0.22362-11.93-11.711-1.3339-11.83-2.0449 10.053-5.2147 10.303-5.8903-3.8372-10.495-3.2724-10.92 9.2724 5.7941 9.9821 5.6707 7.3761-9.061 8.0496-8.8094-0.96753 11.62-0.54326 12.186 11.725 1.5114 11.831 2.2107-10.1 4.7324-10.348 5.4087 3.8474 11.391 3.303 11.849z" fill="#666"/>
  <path transform="matrix(.17658 .05152 -.05174 .21024 97.496 775.76)" d="m-24.286 753.79a9.2857 10 0 1 1 -18.571 0 9.2857 10 0 1 1 18.571 0z"/>
  <path transform="matrix(.08771 .02559 -.02849 .11578 27.817 826.59)" d="m555.42 812.54c-0.54434 0.45811-9.2551-6.2963-9.9674-6.2111s-7.0708 8.7319-7.7309 8.4811 0.67421-11.37 0.22362-11.93-11.711-1.3339-11.83-2.0449 10.053-5.2147 10.303-5.8903-3.8372-10.495-3.2724-10.92 9.2724 5.7941 9.9821 5.6707 7.3761-9.061 8.0496-8.8094-0.96753 11.62-0.54326 12.186 11.725 1.5114 11.831 2.2107-10.1 4.7324-10.348 5.4087 3.8474 11.391 3.303 11.849z" fill="#666"/>
  <path d="m41.64 932.01 1.9184 8.3741h39.328s4.796-4.6523 0.95921-3.7218-33.572 1.8609-33.572 1.8609z" fill="#666" stroke="#1a1a1a" stroke-width=".46761"/>
  <g transform="matrix(.29589 0 0 -.09504 240.94 972.78)" fill="url(#g)" stroke="#1a1a1a" stroke-width="2.4">
   <path d="m-246.125,422.96875c-.4882-.0842-.49076-.00044-.65625.0312-.33098.0634-.76719.16116-1.40625.34375h-.0312c-2.24589.64485-4.96803,1.91402-7.8125,3.40625-1.54324.58405-2.51001.98841-4.21875,1.625-9.0993,3.38993-19.4375,7.15625-19.4375,7.15625l.8125,2.25c0,0 6.55893-2.41955 11.21875-4.125-.10027.0649-.21275.1228-.3125.1875-6.63958,4.30676-12.03125,8.25-12.03125,8.25l1.125,2.09375 15.4375-5.78125-17.15625,10.0625 1.03125,2.15625 15.5-6.25-15.625,8.28125-.15625.0625 .96875,2.21875 1.59375-.5625 .4375,1.28125 .125-.0312h.0312l18.03125-4.875-15.21875,6.15625-.15625.0625 .75,2.28125 19.78125-5.15625-16.78125,7.09375-.1875.0625 .75,2.28125 17.5625-4.03125-17.375,6.6875-.1875.0625 .6875,2.28125 18.75-3.96875-12.96875,4.53125-.0937.0312-.0937.0312-6.4375,3.59375 .84375,2.21875 34.3125-7.875-.5625-2.34375-24.28125,5.5625 27.59375-9.625h.0625l.15625-.0625-.65625-2.28125-.125.0312-22.15625,4.6875 19.21875-7.375h.0312l.15625-.0625-.6875-2.28125-.1875.0312-.0625.0312-20.625,4.71875 19.46875-8.21875-.78125-2.28125-17.8125,4.625 16.28125-6.59375 .125-.0312-.75-2.28125-16.1875,4.34375 16.1875-6.34375h.0312l-.4375-1.125-.40625-1.125h-.0312l-.28125.0937-23.03125,8.125 22.0625-11.6875 .125-.0625-1.03125-2.15625-.0937.0312-.0625.0312-21.84375,8.8125 15.03125-8.78125 .1875-.0937-1.03125-2.15625-.1875.0625-.0312.0312-19.09375,7.125c1.707-1.16941 1.69233-1.23878 3.78125-2.59375 3.79833-2.46378 7.97669-4.97207 11.78125-6.96875 2.4447-.92637 5.27809-1.98436 6.78125-2.59375 .62663-.25404 1.13298-.47871 1.53125-.65625s.57969-.1974.96875-.5c.0973-.0756.32187-.0576.46875-.75 .0734-.34622-.12957-.92297-.40625-1.15625s-.4717-.26021-.59375-.28125z"/>
   <path d="m-248.21875,424.40625c-.33098.0634-.76719.19241-1.40625.375-2.23767.63933-4.94511,1.92085-7.78125,3.40625-1.55357.58806-2.52764.98334-4.25,1.625-9.0993,3.38993-19.46875,7.125-19.46875,7.125l.8125,2.28125c0,0 6.55893-2.41955 11.21875-4.125-.10027.0649-.21275.1228-.3125.1875-6.63958,4.30676-12.03125,8.25-12.03125,8.25l1.15625,2.09375 15.46875-5.8125-17.0625,10-.15625.0937 1.0625,2.125 .15625-.0625 15.5-6.28125-15.8125,8.40625-.15625.0625 .96875,2.1875 .15625-.0625 1.46875-.5 .4375,1.3125 .125-.0312h.0312l17.90625-4.84375-15.03125,6.09375-.0937.0312-.125.0625 .75,2.25 .125-.0312 19.65625-5.125-17,7.1875 .75,2.28125 17.625-4.03125-17.625,6.71875 .6875,2.3125 18.6875-3.96875-12.90625,4.5-.0937.0625-.0937.0312-6.4375,3.5625 .875,2.21875 34.28125-7.84375-.53125-2.34375-24.28125,5.5625 27.65625-9.65625 .125-.0312-.625-2.3125-22.25,4.71875 19.34375-7.40625-.6875-2.3125-20.875,4.8125 19.3125-8.1875 .15625-.0625-.78125-2.25-17.875,4.65625 16.34375-6.625 .15625-.0625-.78125-2.25-.125.0312h-.0312l-16.15625,4.375 15.84375-6.25 .46875-.15625v-.0312h.0312l-.8125-2.21875-.0625.0312v-.0312l-.53125.21875-22.8125,8 22.21875-11.75-1.03125-2.1875-21.84375,8.8125 14.875-8.71875 .1875-.0937-1.03125-2.15625-19.3125,7.25c1.707-1.16941 1.69233-1.23878 3.78125-2.59375 3.79833-2.46378 7.97669-4.97207 11.78125-6.96875 2.4447-.92637 5.27809-1.98436 6.78125-2.59375 .62663-.25404 1.16423-.47871 1.5625-.65625s.54844-.1974.9375-.5c.0973-.0756.32187-.0576.46875-.75 .0734-.34622-.12957-.95422-.40625-1.1875s-.4717-.22896-.59375-.25c-.4882-.0842-.49076-.0317-.65625,0z"/>
  </g>
  <path d="m115.29 915.08c-15.499 0-28.061 12.75-28.061 28.47s12.562 28.463 28.061 28.463 28.068-12.743 28.068-28.463-12.569-28.47-28.068-28.47zm7.1433 16.26c1.8502 0.0173 3.6732 0.52885 5.3246 1.5888 5.8718 3.7688 7.4039 13.042 3.4206 20.712s-11.973 10.833-17.845 7.0638-7.4039-13.042-3.4206-20.712c2.863-5.5129 7.7921-8.6969 12.52-8.6526z" fill="url(#u)"/>
  <path transform="matrix(.21787 .17643 -.12579 .20516 151.11 720.33)" d="m378.57 818.79a53.571 70.714 0 1 1 -107.14 0 53.571 70.714 0 1 1 107.14 0z" fill="#666"/>
  <path transform="matrix(.20689 .06357 -.06062 .25942 172.45 742.54)" d="m-24.286 753.79a9.2857 10 0 1 1 -18.571 0 9.2857 10 0 1 1 18.571 0z"/>
  <path transform="matrix(.10277 .03158 -.03339 .14287 90.803 805.27)" d="m555.42 812.54c-0.54434 0.45811-9.2551-6.2963-9.9674-6.2111s-7.0708 8.7319-7.7309 8.4811 0.67421-11.37 0.22362-11.93-11.711-1.3339-11.83-2.0449 10.053-5.2147 10.303-5.8903-3.8372-10.495-3.2724-10.92 9.2724 5.7941 9.9821 5.6707 7.3761-9.061 8.0496-8.8094-0.96753 11.62-0.54326 12.186 11.725 1.5114 11.831 2.2107-10.1 4.7324-10.348 5.4087 3.8474 11.391 3.303 11.849z" fill="#666"/>
  <path transform="matrix(.20689 .06357 -.06062 .25942 165.41 750.63)" d="m-24.286 753.79a9.2857 10 0 1 1 -18.571 0 9.2857 10 0 1 1 18.571 0z"/>
  <path transform="matrix(.10277 .03158 -.03339 .14287 83.767 813.35)" d="m555.42 812.54c-0.54434 0.45811-9.2551-6.2963-9.9674-6.2111s-7.0708 8.7319-7.7309 8.4811 0.67421-11.37 0.22362-11.93-11.711-1.3339-11.83-2.0449 10.053-5.2147 10.303-5.8903-3.8372-10.495-3.2724-10.92 9.2724 5.7941 9.9821 5.6707 7.3761-9.061 8.0496-8.8094-0.96753 11.62-0.54326 12.186 11.725 1.5114 11.831 2.2107-10.1 4.7324-10.348 5.4087 3.8474 11.391 3.303 11.849z" fill="#666"/>
  <path transform="matrix(.20689 .06357 -.06062 .25942 168.62 758.05)" d="m-24.286 753.79a9.2857 10 0 1 1 -18.571 0 9.2857 10 0 1 1 18.571 0z"/>
  <path transform="matrix(.10277 .03158 -.03339 .14287 86.974 820.77)" d="m555.42 812.54c-0.54434 0.45811-9.2551-6.2963-9.9674-6.2111s-7.0708 8.7319-7.7309 8.4811 0.67421-11.37 0.22362-11.93-11.711-1.3339-11.83-2.0449 10.053-5.2147 10.303-5.8903-3.8372-10.495-3.2724-10.92 9.2724 5.7941 9.9821 5.6707 7.3761-9.061 8.0496-8.8094-0.96753 11.62-0.54326 12.186 11.725 1.5114 11.831 2.2107-10.1 4.7324-10.348 5.4087 3.8474 11.391 3.303 11.849z" fill="#666"/>
  <path transform="matrix(.20689 .06357 -.06062 .25942 175.66 758.75)" d="m-24.286 753.79a9.2857 10 0 1 1 -18.571 0 9.2857 10 0 1 1 18.571 0z"/>
  <path transform="matrix(.10277 .03158 -.03339 .14287 94.017 821.47)" d="m555.42 812.54c-0.54434 0.45811-9.2551-6.2963-9.9674-6.2111s-7.0708 8.7319-7.7309 8.4811 0.67421-11.37 0.22362-11.93-11.711-1.3339-11.83-2.0449 10.053-5.2147 10.303-5.8903-3.8372-10.495-3.2724-10.92 9.2724 5.7941 9.9821 5.6707 7.3761-9.061 8.0496-8.8094-0.96753 11.62-0.54326 12.186 11.725 1.5114 11.831 2.2107-10.1 4.7324-10.348 5.4087 3.8474 11.391 3.303 11.849z" fill="#666"/>
  <path transform="matrix(.20689 .06357 -.06062 .25942 177.7 750.01)" d="m-24.286 753.79a9.2857 10 0 1 1 -18.571 0 9.2857 10 0 1 1 18.571 0z"/>
  <path transform="matrix(.10277 .03158 -.03339 .14287 96.059 812.74)" d="m555.42 812.54c-0.54434 0.45811-9.2551-6.2963-9.9674-6.2111s-7.0708 8.7319-7.7309 8.4811 0.67421-11.37 0.22362-11.93-11.711-1.3339-11.83-2.0449 10.053-5.2147 10.303-5.8903-3.8372-10.495-3.2724-10.92 9.2724 5.7941 9.9821 5.6707 7.3761-9.061 8.0496-8.8094-0.96753 11.62-0.54326 12.186 11.725 1.5114 11.831 2.2107-10.1 4.7324-10.348 5.4087 3.8474 11.391 3.303 11.849z" fill="#666"/>
 </g>
</svg>
