<?xml version="1.0" encoding="UTF-8"?>
<svg viewBox="0 0 577 339" xmlns="http://www.w3.org/2000/svg" xmlns:xlink="http://www.w3.org/1999/xlink">
 <defs>
  <linearGradient id="a">
   <stop stop-color="#837a81" offset="0"/>
   <stop offset="1"/>
  </linearGradient>
  <linearGradient id="b" x1="434.64" x2="435.41" y1="150.59" y2="389.85" gradientUnits="userSpaceOnUse">
   <stop stop-color="#808080" offset="0"/>
   <stop stop-color="#f9f9f9" offset="1"/>
  </linearGradient>
  <linearGradient id="h" x1="372.94" x2="396.25" y1="106.03" y2="82.749" gradientTransform="matrix(-.98309 0 0 .98465 1369.3 -12.663)" gradientUnits="userSpaceOnUse">
   <stop stop-color="#f2f2f2" offset="0"/>
   <stop stop-color="#f2f2f2" stop-opacity="0" offset="1"/>
  </linearGradient>
  <linearGradient id="f" x2="0" y1="34.285" y2="13.955" gradientUnits="userSpaceOnUse">
   <stop stop-color="#1a1a1a" offset="0"/>
   <stop stop-color="#4d4d4d" offset="1"/>
  </linearGradient>
  <linearGradient id="e" x2="0" y1="41.095" y2="22.727" gradientUnits="userSpaceOnUse">
   <stop stop-color="#4d4d4d" offset="0"/>
   <stop stop-color="#666" offset="1"/>
  </linearGradient>
  <linearGradient id="d" x1="474.57" x2="476.05" y1="75.198" y2="41.735" gradientTransform="matrix(-1 0 0 1 667.95 -21.352)" gradientUnits="userSpaceOnUse">
   <stop stop-color="#666" offset="0"/>
   <stop stop-color="#fff" offset="1"/>
  </linearGradient>
  <linearGradient id="c" x1="469.4" x2="472.12" y1="55.358" y2="62.849" gradientTransform="matrix(-1 0 0 1 667.95 -21.352)" gradientUnits="userSpaceOnUse">
   <stop stop-color="#ccc" offset="0"/>
   <stop stop-color="#e6e6e6" offset="1"/>
  </linearGradient>
  <linearGradient id="m" x2="0" y1="240.44" y2="280.36" gradientUnits="userSpaceOnUse" xlink:href="#a"/>
  <linearGradient id="l" x1="387.26" x2="392.67" y1="65.996" y2="64.278" gradientTransform="matrix(-1 0 0 1 1387.6 -39.816)" gradientUnits="userSpaceOnUse" xlink:href="#a"/>
  <linearGradient id="k" x1="387.26" x2="392.67" y1="65.996" y2="64.278" gradientTransform="matrix(-.93494 .00533 .0057 .99998 1543.1 -39.229)" gradientUnits="userSpaceOnUse" xlink:href="#a"/>
  <linearGradient id="j" x1="387.26" x2="392.55" y1="65.996" y2="62.908" gradientTransform="matrix(.1136 .97127 .76337 -.22004 892.72 -351.6)" gradientUnits="userSpaceOnUse" xlink:href="#a"/>
  <linearGradient id="i" x1="387.26" x2="392.67" y1="65.996" y2="64.278" gradientTransform="matrix(-.25087 .5926 .38245 .22946 1277.7 -147.4)" gradientUnits="userSpaceOnUse" xlink:href="#a"/>
  <linearGradient id="g" x1="387.26" x2="392.67" y1="65.996" y2="64.278" gradientTransform="matrix(-.64174 .04776 -.02926 .44504 1208.9 49.011)" gradientUnits="userSpaceOnUse" xlink:href="#a"/>
 </defs>
 <g transform="translate(-798.6 32.048)">
  <path d="m1121.9 251.87c-19.624 0-39.39-17.435-39.39-37.059s15.907-35.531 35.531-35.531 131.61 2.6562 137.38 2.6562 10.2 5.6946 10.084 10.349-6.164 9.0592-6.5485 9.2001-19.98-1.0758-18.075 4.4106c2.4033 6.9202 11.165 0.9636 14.98 5.9957 2.4745 3.2636 0.3781 7.3591-0.089 7.5452-24.646 9.8256-116.69 32.433-133.87 32.433z" fill="none" stroke="#1a1a1a" stroke-width="2"/>
  <path transform="matrix(1.35 0 0 1.35 572.65 -116.79)" d="m508 246c0 2.4853-2.0147 4.5-4.5 4.5s-4.5-2.0147-4.5-4.5 2.0147-4.5 4.5-4.5 4.5 2.0147 4.5 4.5z" fill="#989898" stroke="#1a1a1a" stroke-linecap="round"/>
  <path transform="matrix(1.225 0 0 1.225 624.96 -97.975)" d="m508 246c0 2.4853-2.0147 4.5-4.5 4.5s-4.5-2.0147-4.5-4.5 2.0147-4.5 4.5-4.5 4.5 2.0147 4.5 4.5z" fill="#989898" stroke="#1a1a1a" stroke-linecap="round"/>
  <path transform="matrix(-.49888 .49888 .49888 .49888 1451.3 -191.4)" d="m478 295.87 96.719-111.17-140.72 31.628 143.59-33.092-132.43-57.124 135.62 57.63-73.564-124.06 75.845 126.34 13.404-143.6-12.901 146.79 95.252-108.3-96.719 111.17 140.72-31.628-143.59 33.092 132.43 57.124-135.62-57.63 73.564 124.06-75.845-126.34-13.404 143.6 12.901-146.79z" fill="#808000" stroke="#000" stroke-linecap="round"/>
  <path transform="matrix(.611 .35276 -.35276 .611 969.74 -128.01)" d="m478 295.87 96.719-111.17-140.72 31.628 143.59-33.092-132.43-57.124 135.62 57.63-73.564-124.06 75.845 126.34 13.404-143.6-12.901 146.79 95.252-108.3-96.719 111.17 140.72-31.628-143.59 33.092 132.43 57.124-135.62-57.63 73.564 124.06-75.845-126.34-13.404 143.6 12.901-146.79z" fill="#808000" stroke="#000" stroke-linecap="round"/>
  <path transform="matrix(-.49888 .49888 .49888 .49888 1117.3 -191.4)" d="m478 295.87 96.719-111.17-140.72 31.628 143.59-33.092-132.43-57.124 135.62 57.63-73.564-124.06 75.845 126.34 13.404-143.6-12.901 146.79 95.252-108.3-96.719 111.17 140.72-31.628-143.59 33.092 132.43 57.124-135.62-57.63 73.564 124.06-75.845-126.34-13.404 143.6 12.901-146.79z" fill="#808000" stroke="#000" stroke-linecap="round"/>
  <path transform="matrix(.611 .35276 -.35276 .611 635.74 -128.01)" d="m478 295.87 96.719-111.17-140.72 31.628 143.59-33.092-132.43-57.124 135.62 57.63-73.564-124.06 75.845 126.34 13.404-143.6-12.901 146.79 95.252-108.3-96.719 111.17 140.72-31.628-143.59 33.092 132.43 57.124-135.62-57.63 73.564 124.06-75.845-126.34-13.404 143.6 12.901-146.79z" fill="#808000" stroke="#000" stroke-linecap="round"/>
  <path d="m1127.8 274.07h11.475a4.1622 3.182 0 0 1 4.1622 3.182 4.1622 3.182 0 0 1 -4.1622 3.182h-11.475a4.1622 3.182 0 0 1 -4.1622 -3.182 4.1622 3.182 0 0 1 4.1622 -3.182" fill="#989898" stroke="#1a1a1a" stroke-linecap="round"/>
  <path transform="matrix(.96593,-.25882,.25882,.96593,0,0)" d="m1022.7 491.48h1.6649a4.1622 3.7095 0 0 1 4.1622 3.7095v64.545a4.1622 3.7095 0 0 1 -4.1622 3.7095h-1.6649a4.1622 3.7095 0 0 1 -4.1622 -3.7095v-64.545a4.1622 3.7095 0 0 1 4.1622 -3.7095" stroke="#1a1a1a" stroke-linecap="round" stroke-width=".78587"/>
  <g transform="matrix(-2.5587 0 0 2.6723 -351.38 -1995.6)" fill="#808000" fill-rule="evenodd" stroke="#000">
   <path d="m-497.53952,815.39864c-2.30824-2e-005-4.18156,1.79903-4.18151,4.01369s1.87327,4.00669 4.18151,4.00669 4.18152-1.79202 4.18152-4.00669-1.8733-4.01369-4.18152-4.01369zm.54542.89504c.43526.0699.84326.22365 1.20271.44051l-1.19573,1.27264-.007-1.71315zm-1.13279.007 .014,1.76211-1.28662-1.26563c.37493-.24578.8088-.41613 1.27263-.49648zm3.18858,1.17474c.32506.40275.55075.88191.64331,1.4055l-1.95091-.021 1.3076-1.38451zm-5.28633.1049 1.27962,1.25164-1.83203-.021c.091-.452.28388-.86902.55241-1.23068zm-.5594,2.36346 1.9579.021-1.31459,1.39152c-.3285-.40315-.55029-.88656-.64331-1.41249zm4.64302.042 1.83902.021c-.09.45453-.28328.87488-.5524,1.23769l-1.28662-1.25865zm-.81813.77615 1.28662,1.25865c-.37598.24775-.81278.42289-1.27962.50346l-.007-1.76211zm-1.13278.063 .014,1.70617c-.43817-.0691-.84758-.22334-1.20969-.44054l1.19571-1.26563z" stroke-width=".22376"/>
   <path transform="matrix(.22376 0 0 .22376 -1380.1 574.77)" d="m3953.7 1093.3c0 5.4394-4.1834 9.849-9.3439 9.849s-9.3439-4.4096-9.3439-9.849 4.1834-9.849 9.3439-9.849 9.3439 4.4095 9.3439 9.849z"/>
   <path d="m-497.83746,819.59314c.34962.30966.7192-.05.6393-.2797-.25193-.45121-.88195-.0855-.6393.2797z" stroke-width=".22376"/>
  </g>
  <path transform="matrix(-1 0 0 1 1387.6 -39.816)" d="m295.05 279.59-5.7617-4.3139 3.022 6.785-5.2876-4.8835 2.3083 7.0598-4.7575-5.4012 1.5702 7.2597-4.1769-5.8618 0.81544 7.3827-3.5521-6.2602 0.052 7.4274-2.8896-6.5922-0.71195 7.3934-2.1964-6.8544-1.4684 7.281-1.48-7.0439-2.2092 7.0914-0.74789-7.1588-2.9267 6.8267-8e-3 -7.1977-3.6131 6.4896 0.73226-7.1604-4.2612 6.0837 1.4646-7.0472-4.8642 5.6133 2.1814-6.8592-5.4155 5.0834 2.8752-6.5985-5.9095 4.4996 3.5384-6.2679-6.3408 3.8682 4.1641-5.8709-6.705 3.1957 4.7457-5.4116-6.998 2.4894 5.277-4.895-7.2169 1.7566 5.7523-4.3265-7.3592 1.0053 6.1667-3.7121-7.4236 0.24324 6.5157-3.0583-7.4093-0.52135 6.7956-2.3722-7.3164-1.2804 7.0035-1.6609-7.146-2.0259 7.1371-0.93197-6.8998-2.7499 7.1951-0.19318-6.5805-3.4448 7.1769 0.54766-6.1914-4.1032 7.0825 1.2827-5.7367-4.718 6.9131 2.0041-5.2212-5.2828 6.6704 2.7043-4.6503-5.7917 6.357 3.3758-4.0302-6.2392 5.9762 4.0116-3.3673-6.6205 5.532 4.6048-2.6687-6.9316 5.0292 5.1492-1.9418-7.1693 4.4731 5.639-1.1944-7.3309 3.8696 6.069-0.43431-7.4149 3.2251 6.4348 0.3304-7.4202 2.5464 6.7323 1.0916-7.3469 1.8406 6.9584 1.8412-7.1958 1.1154 7.1108 2.5714-6.9683 0.37837 7.1878 3.2742-6.667-0.36269 7.1886 3.9424-6.295-1.0999 7.1132 4.5687-5.8563-1.8255 6.9624 5.1467-5.3555-2.5317 6.7378 5.67-4.7979-3.211 6.4418 6.1333-4.1895-3.8564 6.0775 6.5316-3.5366-4.4608 5.6488 6.8606-2.8463-5.018 5.1602 7.1169-2.1258-5.522 4.6168 7.2977-1.3828-5.9674 4.0246 7.4012-0.62508-6.3496 3.3897 7.4263 0.13923-6.6645 2.7189 7.3726 0.90208-6.9087 2.0192 7.2408 1.6554-7.0797 1.2981 7.0322 2.3911-7.1756 0.56332 6.7491 3.1015-7.1955-0.17747 6.3944 3.779-7.1392-0.91639 5.972 4.4164-7.0071-1.6456 5.4862 5.0071-6.8008-2.3573 4.9423 5.5446-6.5223-3.0441 4.346 6.0234-6.1748-3.6986z" fill="none" stroke="url(#m)" stroke-linecap="round"/>
  <path transform="matrix(-1.0701 0 0 1.0701 1406.5 -57.612)" d="m297.48 253.96c0 15.338-12.434 27.773-27.773 27.773s-27.773-12.434-27.773-27.773 12.434-27.773 27.773-27.773 27.773 12.434 27.773 27.773z" fill="none" stroke="#000" stroke-linecap="round" stroke-width="5"/>
  <path d="m1115.3 182.98c0.2282-0.0479 0.4731-0.0557 0.7283-0.0827 8.1683-0.85853 4.7205 12.048 11.834 16.154s16.566-5.3323 19.907 2.1709-10.003 8.2001-11.711 16.234 10.197 14.121 4.093 19.617-10.917-6.9646-19.085-6.106-10.26 14.053-17.373 9.946 3.2583-12.55-0.082-20.054-16.529-5.4062-14.821-13.44 12.932-0.76792 19.035-6.2637c5.913-5.3241 0.3984-16.691 7.4753-18.176zm2.6051 21.066c-4.6061 1.2342-7.3247 5.9942-6.0905 10.6s5.9592 7.3341 10.565 6.0999 7.3341-5.9591 6.0999-10.565-5.9685-7.3691-10.575-6.1349z"/>
  <path transform="matrix(-.92064 0 0 .92064 1684.1 -25.621)" d="m572.64 234.21c0 58.191-47.173 105.36-105.36 105.36s-105.36-47.173-105.36-105.36 47.173-105.36 105.36-105.36 105.36 47.173 105.36 105.36z" fill="none" stroke="url(#b)" stroke-linecap="round" stroke-width="12.866"/>
  <g transform="matrix(-2.5587 0 0 2.6723 -17.38 -1997.6)" fill="#808000" fill-rule="evenodd" stroke="#000">
   <path d="m-497.53952,815.39864c-2.30824-2e-005-4.18156,1.79903-4.18151,4.01369s1.87327,4.00669 4.18151,4.00669 4.18152-1.79202 4.18152-4.00669-1.8733-4.01369-4.18152-4.01369zm.54542.89504c.43526.0699.84326.22365 1.20271.44051l-1.19573,1.27264-.007-1.71315zm-1.13279.007 .014,1.76211-1.28662-1.26563c.37493-.24578.8088-.41613 1.27263-.49648zm3.18858,1.17474c.32506.40275.55075.88191.64331,1.4055l-1.95091-.021 1.3076-1.38451zm-5.28633.1049 1.27962,1.25164-1.83203-.021c.091-.452.28388-.86902.55241-1.23068zm-.5594,2.36346 1.9579.021-1.31459,1.39152c-.3285-.40315-.55029-.88656-.64331-1.41249zm4.64302.042 1.83902.021c-.09.45453-.28328.87488-.5524,1.23769l-1.28662-1.25865zm-.81813.77615 1.28662,1.25865c-.37598.24775-.81278.42289-1.27962.50346l-.007-1.76211zm-1.13278.063 .014,1.70617c-.43817-.0691-.84758-.22334-1.20969-.44054l1.19571-1.26563z" stroke-width=".22376"/>
   <path transform="matrix(.22376 0 0 .22376 -1380.1 574.77)" d="m3953.7 1093.3c0 5.4394-4.1834 9.849-9.3439 9.849s-9.3439-4.4096-9.3439-9.849 4.1834-9.849 9.3439-9.849 9.3439 4.4095 9.3439 9.849z"/>
   <path d="m-497.83746,819.59314c.34962.30966.7192-.05.6393-.2797-.25193-.45121-.88195-.0855-.6393.2797z" stroke-width=".22376"/>
  </g>
  <path transform="matrix(-1 0 0 1 1721.1 -44.208)" d="m572.64 234.21c0 58.191-47.173 105.36-105.36 105.36s-105.36-47.173-105.36-105.36 47.173-105.36 105.36-105.36 105.36 47.173 105.36 105.36z" fill="none" stroke="#1a1a1a" stroke-linecap="round" stroke-width="7.2"/>
  <g transform="translate(734.36 -63.092)">
   <path d="m478.34 46.883c-1.1453 1.1453-8.3032 8.5895-8.3032 8.5895l-21.76-1.7179-20.901-14.03" fill="none" stroke="#ccc" stroke-linecap="round" stroke-linejoin="round" stroke-width="1.5"/>
   <path d="m503.23 38.003-5.1537-2.8632-14.316 2.2905-24.051 1.4316-32.354-3.4358h-6.8716l-5.44 4.8674 10.594 5.1537 9.1622-1.4316 11.739 1.4316 24.91 5.44 9.1622 0.57264 7.4443-1.7179 8.5895-4.0084z" stroke="#808080"/>
  </g>
  <path transform="matrix(-.92064 0 0 .92064 1350.5 -21.229)" d="m572.64 234.21c0 58.191-47.173 105.36-105.36 105.36s-105.36-47.173-105.36-105.36 47.173-105.36 105.36-105.36 105.36 47.173 105.36 105.36z" fill="none" stroke="url(#b)" stroke-linecap="round" stroke-width="12.866"/>
  <path transform="matrix(-1 0 0 1 1387.6 -39.816)" d="m572.64 234.21c0 58.191-47.173 105.36-105.36 105.36s-105.36-47.173-105.36-105.36 47.173-105.36 105.36-105.36 105.36 47.173 105.36 105.36z" fill="none" stroke="#1a1a1a" stroke-linecap="round" stroke-width="7.2"/>
  <path d="m1003.4 9.4304c-0.2863 1.1453-11.166 28.918-11.166 28.918" fill="none" stroke="url(#l)" stroke-width="10"/>
  <path d="m1188.8-2.6377c-0.2611 1.1468-14.934 43.681-14.934 43.681" fill="none" stroke="url(#k)" stroke-width="12"/>
  <path d="m989.28 30.594 9.8125 3.4688-7.3591 20.528 122.48 136.72 54.362-154.96 11.875 5.2812-6.0252 23.15 84.814 124.99c2.0852 2.0011 1.7215 6.5974-1.0255 7.537l-142.53 20.719-6.25-0.15625-125.06-138.06-3.0312 4.6562-9.8125-3.4688zm181.53 44.062-44.778 132.31 0.1776 0.43021 123.01-17.738z" fill="#ffdc32"/>
  <path d="m994.42 35.47 174.67 8.0442-0.4735 10.39-174.67-8.0442 0.47345-10.39z" fill="#ffdc32"/>
  <path d="m1012.1 84.725c-38.121-12.043-16.334-55.473-72.871-69.533" fill="none" stroke="#000" stroke-linecap="round" stroke-width="2.0507"/>
  <path d="m971.85 7.4094c0.90679 0.02606 35.718 12.261 35.718 12.261" fill="none" stroke="url(#j)" stroke-width="8.7546"/>
  <path transform="matrix(-.71635 0 0 .71635 1342.1 39.628)" d="m125.52 213.48c0 2.6835-2.1754 4.859-4.859 4.859s-4.859-2.1754-4.859-4.859 2.1754-4.859 4.859-4.859 4.859 2.1754 4.859 4.859z" stroke="#333" stroke-linecap="round" stroke-linejoin="round" stroke-width="1.5"/>
  <path d="m1018.8 84.781s-2.5825 6.3071-4.0938 14.281c-0.7996 4.2195-0.8241 9.6965-0.388 14.081l6.5755 7.0439c-3.7271-4.3483-3.6762-12.849-2.25-20.375s2.9688-11.969 2.9688-11.969z"/>
  <path d="m971.78 80.562 9.4688 3.3438-5.6875 24.375-32.053 65.162-14.996 23.971-3.3886 0.92893c-1.1416 1.3833-2.8789 2.2812-4.8125 2.2812-3.4375 0-6.2188-2.7813-6.2188-6.2188 0-2.0052 0.96499-3.7992 2.4375-4.9375l43.656-88.75z" stroke="#1a1a1a"/>
  <path transform="matrix(1.1277 0 0 1.1277 716.7 -118.68)" d="m365 294c0 4.9706-4.0294 9-9 9s-9-4.0294-9-9 4.0294-9 9-9 9 4.0294 9 9z"/>
  <path d="m1143.6 51.871c40.844 1.2735 39.939 10.351 52.788 34.53" fill="none" stroke="#000" stroke-linecap="round" stroke-width="2.1298"/>
  <path d="m1193.6 82.647c0.3662 0.4325 14.86 22.207 14.86 22.207" fill="none" stroke="url(#i)" stroke-linecap="round" stroke-width="7"/>
  <path transform="matrix(.96593,-.25882,.25882,.96593,0,0)" d="m1022.7 429.48h1.6649a4.1622 3.7095 0 0 1 4.1622 3.7095v64.545a4.1622 3.7095 0 0 1 -4.1622 3.7095h-1.6649a4.1622 3.7095 0 0 1 -4.1622 -3.7095v-64.545a4.1622 3.7095 0 0 1 4.1622 -3.7095" stroke="#1a1a1a" stroke-linecap="round" stroke-width=".78587"/>
  <path d="m1094.7 148.52h11.475a4.1622 3.182 0 0 1 4.1622 3.182 4.1622 3.182 0 0 1 -4.1622 3.182h-11.475a4.1622 3.182 0 0 1 -4.1622 -3.182 4.1622 3.182 0 0 1 4.1622 -3.182" fill="#989898" stroke="#1a1a1a" stroke-linecap="round"/>
  <path d="m1088.7 39.675c-1.9186 0.77266-4.2642 1.8258-6.1212 2.6745-6.4491 2.9476-13.112 6.6405-21.766 6.5174l14.702 0.90724c3.0596-1.0788 6.0304-2.5819 8.7162-3.8095 6.4485-2.9473 12.259-5.9664 19.481-5.2757z"/>
  <path d="m1027.6 127.31 7.3125 8.2188c21.199 13.713 35.555 20.788 54.375 27.844l-5.5923-6.3637c-13.196-4.9874-37.882-17.917-56.095-29.699z"/>
  <path d="m985.18 73.494 122.65 135.37" fill="none" stroke="url(#h)" stroke-linecap="round" stroke-width=".68871"/>
  <g transform="translate(734.36 -63.092)">
   <path d="m503.23 38.003-5.1537-2.8632-21.878 2.978-12.124 11.144 13.6 1.9476 10.382-1.4679 8.5895-4.0084z" fill="#4a4c4a"/>
  </g>
  <path d="m1025.2 38.054c-28.625 0.64502-50.841-8.737-68.502-27.935 18.241 20.506 12.52 57.03 5.7595 78.105" fill="none" stroke="#000" stroke-linecap="round" stroke-width="2.051"/>
  <path d="m965.85 79.315c-0.21725 0.52337-12.958 23.368-12.958 23.368" fill="none" stroke="url(#g)" stroke-linecap="round" stroke-width="7"/>
  <path d="m964.23 103.93 7.3618 2.0803s-1.2112 9.0466-13.161 4.1211" fill="none" stroke="#fff" stroke-width="3"/>
  <g transform="translate(720,-22)">
   <path d="m224.36 22.972c0.50936 1.068-14.649 21.511-14.071 16.601-2.4713-5.8866-6.4449-5.6351-9.4143-8.8069l-3.2393-1.0123c-0.26049-2.1942 0.48079-4.1459-0.20246-10.325 0.0211-1.2736 0.0259-2.5342 1.1135-4.6565 1.2016-1.3086 2.174-2.873 3.6442-3.6442 2.1465-0.64573 2.1898 1.2324 3.1381 2.0246 0.3637 0.584-0.735 1.7107 0.80983 4.4541 0.0145 2.3064 1.6534 2.1765 2.6319 3.0369 5.6109 1.6001 10.828 1.2334 15.589 2.3283z" fill="url(#f)" stroke="url(#e)"/>
   <path d="m197.44 20.239c-1.4728 2.2793-3.3085 3.3123-6.2762 10.325-1.0759 3.0229 0.2178 12.908 0.50614 18.019-1.6841 2.9755-3.6473 5.3927-5.8713 7.2884 3.7454-3.7792 7.1845-3.3095 7.5921-9.1106-0.41712-6.0443-1.4451-12.916 0.40492-14.678 1.2569-0.81806 2.7296-2.7155 3.7455-2.3283z" fill="url(#d)" stroke="url(#c)"/>
   <path d="m252.21 30.185-27.2-2.8632c-1.0326 6.7288-6.5895 11.727-10.594 13.743 0.0229 2.2828 0.19175 4.8212 1.7179 9.7348 0.3633 2.9833-0.31841 5.5908 1.4316 10.307 0.0299 1.871 0.62889 3.6454 4.5811 7.0148l19.613 10.164" fill="none" stroke="#333" stroke-linecap="round" stroke-width="10"/>
  </g>
  <path d="m1166.7 35.041 16.44 5.3033" fill="none" stroke="#000" stroke-width="5"/>
  <path d="m1183.5-4.1591c1.2994-1.9616 0.9534-5.2284 4.4636-5.6127s7.9725 0.05349 11.358 1.2816l-0.4422 1.1546c-4.9514-0.72544-8.0684 2.389-10.12 4.6791" stroke="#000"/>
 </g>
</svg>
