<?xml version="1.0" encoding="UTF-8"?>
<svg viewBox="0 0 1440 900" xmlns="http://www.w3.org/2000/svg" xmlns:xlink="http://www.w3.org/1999/xlink">
 <defs>
  <filter id="b" x="-.1002" y="-.093515" width="1.2004" height="1.187">
   <feGaussianBlur stdDeviation="0.619973"/>
  </filter>
  <filter id="i">
   <feGaussianBlur stdDeviation="7.071968"/>
  </filter>
  <linearGradient id="f" x1=".40847" x2=".44568" y1=".29115" y2=".6882" xlink:href="#a"/>
  <linearGradient id="e" x1=".67295" x2=".6121" y1=".20891" y2=".70434" xlink:href="#a"/>
  <linearGradient id="g" x1=".41844" x2=".41987" y1=".21894" y2=".70631" xlink:href="#a"/>
  <linearGradient id="h" x1=".4815" x2=".48412" y2=".084192">
   <stop stop-color="#fff" offset="0"/>
   <stop stop-color="#e4e4dc" offset="1"/>
  </linearGradient>
  <linearGradient id="a">
   <stop stop-color="#575757" offset="0"/>
   <stop stop-color="#575757" stop-opacity="0" offset="1"/>
  </linearGradient>
  <radialGradient id="d" cx="581.01" cy="471.41" r="17.315" gradientTransform="matrix(1.2567 -.53039 .58148 1.3778 -425.4 129.93)" gradientUnits="userSpaceOnUse">
   <stop stop-color="#e8b700" offset="0"/>
   <stop stop-color="#e2b500" offset=".45674"/>
   <stop stop-color="#ffe400" offset="1"/>
  </radialGradient>
  <radialGradient id="c" cx="581.01" cy="471.41" r="17.315" gradientTransform="matrix(.87211 -.36124 .40352 .93838 -116.75 240.63)" gradientUnits="userSpaceOnUse">
   <stop stop-color="#e8b700" offset="0"/>
   <stop stop-color="#e2b500" offset=".45674"/>
   <stop stop-color="#ae9c00" offset="1"/>
  </radialGradient>
 </defs>
 <path d="m633.88 204.08c-60.589 0.61545-121.41 5.5483-180.54 19.141-17.604 4.7696-34.402 13.922-46.262 27.967-1.9464 0.54817-4.0545 0.016342-5.9847 0.73956-1.5875 0.32623-3.1386 0.81522-4.6611 1.3721-0.28998 4.5715-0.97672 9.1539-0.56439 13.74-13.254 23.894-26.353 48.249-39.508 71.961-0.77286-5.0201-1.8412-10.737-6.0722-14.022-5.9987-4.2759-14.462-3.683-20.708-0.31137-5.3819 3.337-7.7205 10.231-6.6269 16.27-4.1658 2.3769-6.5971 7.2236-7.1134 11.921-0.68915 5.4565 1.7286 11.227 6.5092 14.089 2.1146 1.3032 3.751 3.4508 3.8836 5.9477 0.80185 4.5771 0.27448 9.3332 0.34784 13.938-1.4235 3.9013-2.7416 8.0648-1.9339 12.268 0.36163 4.6167-0.20099 9.3518 0.69083 13.896 0.9949 3.0166 3.669 5.3062 6.695 6.0819 0.85867 0.52295 2.3675 0.90485 1.7224 2.2285-0.046539 4.9184-2.6793 9.1156-5.0662 13.188-17.087 34.028-19.285 74.978-7.1658 110.94-9.79-2.2964-20.626 6.2029-20.017 16.387-0.92438 11.954 2.9244 23.634 2.5193 35.547-1.5312 5.4044-4.3386 10.658-3.6997 16.446 0.2829 9.2368 5.0085 17.631 10.59 24.717-0.063538 4.313 0.22327 8.764 2.3451 12.602 3.104 6.1128 9.7978 10.55 16.806 9.7603 4.9998-0.3576 9.9544-1.4154 14.85-2.4425 2.0282-0.78156 4.2314-0.81403 6.1597 0.19464 6.6366 2.0616 13.516 3.2306 20.26 4.7974 5.8874 19.125 18.374 36.922 36.423 46.213 17.494 9.0226 37.769 10.444 57.16 9.5169 14.037-0.16211 28.846-2.3322 40.394-10.821 9.8018-6.8284 17.975-15.818 24.191-25.992 35.46 0.49731 71.132 0.69873 106.3-4.3596 5.4733 20.19 18.207 39.073 36.952 48.938 17.323 9.0867 37.464 10.578 56.73 9.6365 13.939-0.080994 28.604-2.054 40.27-10.264 17.649-11.725 29.356-30.528 36.38-50.218 4.7414-13.121 6.6835-27.13 7.9426-40.937 3.1508-2.1182 5.678-5.1784 7.055-8.7288 55.4-12.686 110.71-25.886 166.14-38.37 0.48425 16.801 4.7872 34.324 16.066 47.157 7.582 8.2884 18.991 11.682 29.894 12.717 12.55 1.5721 25.992 2.8671 37.893-2.2856 10.661-4.9416 17.727-15.057 22.918-25.271 7.082-14.014 10.899-29.66 12.503-45.24 14.849 6.1317 30.521 11.779 46.826 11.23 9.96-1.5446 15.766-14.17 10.967-22.897-0.60364-1.2182-1.3931-2.3633-2.3451-3.3378 3.447-6.6024 4.1171-14.704 1.6737-21.778 1.9966-3.3113 4.0613-6.5883 5.1575-10.325 3.3116-9.4744 2.0781-21.197-5.4069-28.411-3.2196-3.3009-7.288-5.7372-11.7-7.0489 3.1411-38.406-1.2094-76.839-3.251-115.18-0.22058-2.9078-0.095581-5.7708 0.42908-8.6221 0.61121-6.194-1.3385-12.349-4.4147-17.618-4.7948-26.77-9.1753-54.107-20.954-78.866 0.075317-4.3307-1.4248-8.8823-5.0408-11.463-2.7406-1.9526-6.259-2.5572-8.7787-4.8994-13.527-9.441-29.352-14.862-45.024-19.672-28.843-7.957-58.709-11.112-88.353-14.534-46.34-4.4814-92.812-7.4032-139.25-10.689-67.646-4.295-135.41-7.1205-203.2-6.9481z" fill="#fff" filter="url(#i)" opacity=".5"/>
 <g fill="#cbcbcb" fill-rule="evenodd">
  <path d="m334.58 349.91l0.1998-11.613c-0.1872-1.985 0.32794-3.6459 1.1551-3.7239l6.4943-0.6125c0.82703-0.078003 1.6436 1.4572 1.8308 3.4423l3.2616 29.62c0.18726 1.985-0.32785 3.6459-1.155 3.7238l-5.2947 0.5375-6.597-13.229 0.1051-8.1452z"/>
  <path d="m332.46 358.39c-2.9908 0-4.801-1.597-4.801-3.5908v-1.2066c0-1.9938 2.4101-3.6005 5.4008-3.6005h4.3874c2.2934 4.1484 0.99097 6.1815 0 8.3979-0.36017 0.018951-1.0235 0.024353-1.7273 0.023468"/>
 </g>
 <path d="m1135.3 372.96l-0.1071 0.0097-311.96 23.413s-90.719 7.4851-125.95 12.329c-23.352 3.2108-49.795 9.9127-64.974 14.061l-3.2307 0.8856c-5.811 1.6178-9.2932 2.676-9.2932 2.676-37.111 13.01-89.315 43.969-101.73 52.402-11.42 7.7578-40.958 29.504-40.958 29.505l-0.1751 0.0584c-5.3392 14.395-83.632 91.01-40.238 69.188-19.29 24.31 4.477 13.657 38.438 14.791 0.023895-0.036926 0.053284-0.070557 0.07782-0.107 0.065399-0.097595 0.12521-0.19696 0.19464-0.29199 0.012299-0.016785 0.026489-0.03186 0.03891-0.048706 0.061768-0.083191 0.12988-0.16199 0.19464-0.24322 0.072937-0.091431 0.14703-0.18359 0.22385-0.27246 0.087036-0.10077 0.18051-0.20435 0.27243-0.30176 0.12091-0.1283 0.24063-0.2572 0.36978-0.37946 0.03479-0.032959 0.071655-0.064819 0.10702-0.09729 0.10104-0.092834 0.20563-0.18335 0.31143-0.27246 0.14258-0.12018 0.28693-0.23712 0.4379-0.35034 2.422-1.8166 7.0962-4.672 8.4173-5.3326 0.33029-0.16516 0.67209-0.23352 1.0024-0.23352 0.99081 0 1.9523 0.61383 2.6955 1.1092 0.99078 0.66052 6.544 4.3512 7.4248 5.1769 0.88068 0.82574 1.158 2.2576 1.158 2.2576s-1.9314 4.4562-0.88556 7.8141c1.046 3.3578 3.6881 3.6296 3.6881 3.6296s1.4954 6.6666 3.367 12.777c1.8716 6.1102 4.3984 11.337 4.3984 11.337l-0.0097 0.1071c0.004852-0.004395 0.11682-0.10712 0.11682-0.10712s47.566 3.0801 85.439 0.43787l11.006-0.8757s41.988-3.4741 55.71-5.1769c0.47369-0.058777 0.93195-0.12231 1.3915-0.18494 0.085266-0.011597 0.16815-0.017456 0.25293-0.029236 0.37183-0.05127 0.73706-0.10236 1.0996-0.15558 0.17078-0.025146 0.32758-0.05249 0.49628-0.077942 0.70831-0.10663 1.4084-0.21985 2.0825-0.33075 0.3205-0.052795 0.62109-0.10254 0.93414-0.15576 0.077332-0.013123 0.14697-0.025757 0.22382-0.038879 0.88605-0.15155 1.7505-0.29864 2.5788-0.44769 0.34033-0.061218 0.65173-0.1153 0.98285-0.17511 0.55664-0.10059 1.0839-0.19733 1.6153-0.29199 0.69122-0.12305 1.3636-0.24249 2.0143-0.35034 0.17602-0.029114 0.36206-0.059692 0.53522-0.087524 0.013611-0.002197 0.025269-0.007568 0.03894-0.009705 0.51575-0.082581 1.0168-0.1557 1.5084-0.22382 0.15094-0.020935 0.30853-0.039001 0.45728-0.058411 0.26965-0.035095 0.53546-0.067749 0.79804-0.09729 0.29681-0.033508 0.58752-0.06189 0.87573-0.087524 0.28076-0.025146 0.55432-0.05127 0.82715-0.068237 0.026062-0.001587 0.051819 0.001587 0.07782 0 0.26239-0.015564 0.52319-0.031555 0.77856-0.038879 0.27124-0.007874 0.54407-0.011902 0.80762-0.009705 0.21521 0.00177 0.43201 0.010498 0.64221 0.019409 0.21051 0.008911 0.41711 0.022461 0.6228 0.039001 0.17047 0.013611 0.33862 0.029541 0.50604 0.048584 0.17316 0.019775 0.34589 0.042358 0.51575 0.068115 0.025513 0.003906 0.052429 0.005676 0.07782 0.009827 0.036194 0.005676 0.070923 0.013428 0.10712 0.019409 0.18347 0.030457 0.36505 0.059204 0.54492 0.09729 0.013123 0.002808 0.025635 0.006897 0.038879 0.009705 0.22284 0.048035 0.43457 0.10516 0.65204 0.1654 0.23254 0.064514 0.46411 0.13483 0.69086 0.21417 0.16382 0.057251 0.32562 0.11951 0.48657 0.18481 0.12775 0.051758 0.25348 0.1084 0.37958 0.1654 0.002563 0.001221 0.006958-0.00116 0.009644 0 0.15033 0.068237 0.29974 0.13831 0.44763 0.21417 0.20136 0.10321 0.39636 0.21283 0.59357 0.33087 0.016357 0.009705 0.032471 0.019287 0.048706 0.029114 0.15558 0.094116 0.3139 0.198 0.4671 0.3017 0.052612 0.035645 0.10321 0.07019 0.15576 0.10706 0.11676 0.082092 0.23456 0.16504 0.35022 0.25293 0.053589 0.040771 0.1023 0.084534 0.15576 0.12653 0.0625 0.049255 0.12268 0.094971 0.18481 0.14606 0.17609 0.14447 0.35211 0.29816 0.52551 0.45734 0.1991 0.1828 0.39764 0.37128 0.59357 0.5741 0.046387 0.048096 0.094727 0.10077 0.14606 0.16547 0.003052 0.003845 0.006592 0.005798 0.009705 0.009705 0.04895 0.062195 0.1026 0.1377 0.15564 0.21411 0.002869 0.004028 0.006897 0.005615 0.009766 0.009705 0.10962 0.15851 0.21594 0.34143 0.34058 0.55463 0.009033 0.015564 0.020081 0.023193 0.029175 0.039001 0.13104 0.22595 0.2746 0.48157 0.41852 0.75903 0.001404 0.002686-0.001526 0.006958 0 0.009705 0.12787 0.24707 0.2536 0.50647 0.38916 0.78821 0.019897 0.041199 0.038452 0.074951 0.058411 0.11676 0.13196 0.27643 0.26239 0.56299 0.39899 0.86603 0.025757 0.057129 0.051941 0.1076 0.07782 0.16553 0.13184 0.2951 0.26514 0.60034 0.39905 0.91467 0.029663 0.069824 0.057739 0.13373 0.087524 0.20435 0.13025 0.30884 0.25922 0.62207 0.38928 0.94397 0.15875 0.39288 0.31152 0.7912 0.46704 1.1969l0.4866-0.1265c1.5523-1.1387 2.9289-5.8289 2.929-5.8289 4.7562-10.998 8.8549-25.258 22.907-54.251 16.196-27.616 34.314-29.751 44.033-31.178 9.8711-1.45 26.434-8.9689 40.51 16.29 10.283 27.273 9.2543 39.641 9.2543 45.366 0 5.4083-5.2165 12.076-5.7997 12.806 1.9755-0.45172 199.48-45.603 208.45-47.653 9.0132-2.0601 14.932-11.593 18.022-20.863 3.0902-9.2707 3.0786-9.1639 5.8096-17.117 0.7041-3.2469 4.8026-6.496 11.444-7.347 6.7938-0.87054 52.02-9.5326 57.686-10.305 5.6654-0.77255 5.6694-0.2576 6.4419 3.3474 0.7727 3.6053 1.4117 19.577 1.9269 25.243 0.12866 1.4163-2.4426 6.4322-2.4425 6.4322l8.865-1.7614h0.009644c0.35266-1.4909 0.68286-2.8498 0.90515-3.7756 0.77258-3.2191 3.2231-3.7323 4.7682-3.9899 0.72607-0.12091 2.4473-0.49206 4.2816-0.92444 0.061768-0.014465 0.12305-0.033936 0.18494-0.048584 1.6482-9.0147 3.0096-18.089 4.8071-27.072 0.36853-2.0928 1.3433-22.926 1.3429-23.306 0-0.37976 1.1714-18.868 0.92444-27.772-0.24695-8.905-2.3645-37.386-2.3646-44.636-1.22e-4 -7.2502-2.6177-35.241-2.6177-36.248 0-0.97354-0.49792-2.3774-0.89526-2.7734zm-797.76 179.53l-0.0663 2.0408c0-1.22e-4 -5.9082 0.13757-7.4169 0.23633-1.2848 0.084045-1.2747 1.2747-1.2747 1.2747l-0.545 8.3785 11.084 9.0499 2.6371 2.968 3.8924-1.3527c3.9918 0.96143 9.5963 2.1962 15.667 3.1432-9.6242-4.8778-17.85-13.907-23.977-25.739zm0.2335 29.758c0.083435 0.081543 0.16702 0.16064 0.25296 0.23352-0.084717-0.072327-0.17065-0.15271-0.25296-0.23352zm4.3011 2.063l0.0195 0.0778 11.56 22.479s-0.035095-6.1e-5 -0.03891 0l0.36 0.0584c1.312 0.39972 27.779 8.4086 55.477 12.67 28.406 4.3702 65.549 8.0087 65.549 8.0087l0.1751-0.7493c-0.024536-0.42914-0.053833-0.86847-0.07782-1.2942-0.13538-2.3983-0.26218-4.7166-0.37955-6.9578-0.018677-0.35266-0.030609-0.67718-0.048615-1.0217-0.04422-0.85272-0.094879-1.6921-0.13623-2.5106-0.087799-1.725-0.15219-3.1656-0.22385-4.6515-0.15247-3.1583-0.27487-5.7203-0.36975-7.8433l-0.0195 0.0584c-28.163-1.8288-49.981-4.7515-79.882-8.398-15.196-1.8532-29.38-4.3558-39.8-6.7534-6.4519-1.4898-10.142-2.52-12.164-3.1723zm134.97 69.373c0.25146 2.8542 0.50635 5.549 0.77853 7.9503h0.009705c-0.27328-2.408-0.53555-5.0912-0.78824-7.9503z" fill="#007f00"/>
 <g fill-rule="evenodd">
  <path d="m644.61 215.88c-29.17 0.053467-56.008 0.88869-78.432 2.8123-101.38 8.7095-122.22 20-125.8 21.798-3.587 1.7974-16.815 8.0963-27.403 22.42l-4.0092 1.664 0.2336 2.5496s-54.61 99.961-55.71 101.94c-1.101 1.9817-4.4058 5.0661-4.8461 6.6074-0.42612 1.4913-2.4933 13.622-3.0264 17.604l0.2336 0.0292-0.2919 0.4185c0.014282-0.11435 0.040497-0.31406 0.058319-0.44766l-0.0583-0.0097v0.01947h-8.0672c-0.83508-0.13913-1.2085 0.40295-1.012 1.7808l0.1751 11.648h8.252s-1.4934 2.9248 1.3137 5.7316c0.15796 0.15796-0.90298 11.287-1.5278 17.642 9.7144-14.842 22.346-24.715 35.927-26.994 7.0711-2.4913 15.994-4.5204 26.264-4.4277 10.259 0.092438 21.85 2.3014 34.244 8.2423l0.3795 0.1945c24.575 10.87 40.437 48.27 36.579 91.667-0.28711 3.23-0.67972 6.4063-1.1677 9.5267l0.1751-0.0584s12.662-9.3139 24.62-17.934c5.4164-3.898 10.825-7.8106 16.339-11.57 12.414-8.4327 64.618-39.392 101.73-52.402 0 0 3.482-1.0582 9.2932-2.676l3.2307-0.8856c12.334-3.3708 32.099-8.4305 51.604-11.93 1.5004-0.2692 3.002-0.52914 4.4958-0.77844 2.9876-0.49872 5.9558-0.95126 8.8747-1.3527 35.23-4.8442 125.95-12.329 125.95-12.329l186.75-14.013 125.21-9.4002 0.1071-0.0097 0.4087-0.5352c0.90271-1.3417 1.9537-4.2645 1.0802-9.118-0.82727-4.596-2.7489-5.9943-3.3669-6.3349-0.40991-2.7665-8.6338-57.566-20.601-80.048l-4.6318-6.9091c-0.27527-0.31396-0.53332-0.6004-0.72009-0.80771-4.2831-4.7532-14.712-10.055-30.283-16.572-19.816-8.2938-63.369-14.762-81.897-17.127-15.478-1.9753-210.12-19.885-350.67-19.628zm-207.93 361.61c-0.83408 0.44452-1.6737 0.86096-2.5204 1.2457l0.0486 0.068c-7.7884 3.3619-15.096 5.5467-21.875 6.841-0.010071 0.001953-0.019226 0.007874-0.029205 0.009705l-0.0097-0.0097c-0.049377 0.009338-0.09668 0.019897-0.14603 0.029236l0.107 0.0583c6.9793 0.85065 13.84 1.6966 20.669 2.501l0.1848-0.506c0-6.1e-5 1.8162-6.0786 3.5714-10.237zm-98.916 4.7585c0.082306 0.080811 0.16824 0.16119 0.25296 0.23352-0.085938-0.072876-0.16952-0.15198-0.25296-0.23352zm70.521 4.0676c-0.43454 0.061646-0.86447 0.11102-1.2942 0.1654l0.0389 0.0097c0.41745-0.05365 0.83331-0.1142 1.2553-0.17511zm-2.6664 8.5146s4.7356 18.028 11.473 18.392c6.7375 0.36414 10.378-5.6504 12.563-14.937l-24.036-3.4546z" fill="url(#h)"/>
  <path d="m747.89 278.72l42.622 0.792c5.4512 0.071442 6.1844 3.8154 6.8505 5.9611l15.388 86.129-47.49 1.8978" fill="#5d536c"/>
  <path d="m702.35 281.24l-0.364 3.1782c4.5658 0.11276 3.7855 3.2908 3.3806 5.2684l-9.9354 52.363-3.5615 31.991 67.777-2.3355-3.1858-18.186c-0.85132-2.0603-4.3614-3.6161-7.7421-3.6161-3.523 0-26.196-0.4379-26.196-0.4379l14.421-64.848 7.1913 0.1362-0.5839-3.2794-41.201-0.2336z" fill="#6d6f84"/>
  <path d="m816.54 374.82l-15.881-90.071c-0.60406-2.7893-2.5579-9.8026-10.899-9.3418l-127.71-1.2845c-5.3242 0.11716-8.4543-0.33154-10.35 6.0172" fill="none"/>
  <path d="m405.65 398.67c-9.7574 0.070221-18.249 2.0357-25.038 4.4277 3.0007-0.50354 6.0459-0.64594 9.118-0.37955 31.022 2.6901 52.914 45.074 48.869 94.596-0.063263 0.77377-0.1293 1.5382-0.20432 2.3062-0.009521 0.097137-0.019592 0.19501-0.029205 0.29196-0.066833 0.66983-0.13837 1.3393-0.21414 2.0046-0.021637 0.19092-0.045715 0.38379-0.068115 0.57422-0.066986 0.56888-0.14062 1.1375-0.21405 1.7029-0.001678 0.012787 0.001678 0.026215 0 0.039001-0.086761 0.66779-0.18662 1.332-0.28223 1.9948-0.010742 0.07428-0.018311 0.14957-0.029205 0.22376-0.054321 0.37256-0.10834 0.7482-0.16544 1.1191-0.022034 0.14291-0.045624 0.28549-0.068115 0.42816-0.089661 0.57001-0.18594 1.1369-0.28217 1.7029-0.020813 0.1228-0.037231 0.24716-0.058411 0.36987-0.048126 0.27869-0.096191 0.55908-0.14594 0.83673-0.097778 0.54742-0.19788 1.0914-0.30164 1.6349-0.035919 0.18774-0.070465 0.37714-0.10712 0.56439-0.046387 0.23767-0.098358 0.47357-0.14594 0.71033-0.098541 0.49072-0.19818 0.98218-0.30164 1.4695-0.15137 0.71295-0.30539 1.4254-0.4671 2.1311-0.001587 0.006775-0.008209 0.012573-0.009705 0.01947-8.8709 38.69-33.032 66.182-59.233 64.79-0.37909-0.014465-0.78076-0.041809-1.1969-0.077942-0.43903-0.038025-0.87839-0.082275-1.3138-0.13623-0.045624-0.005554-0.090607-0.013611-0.13623-0.019409-0.47968-0.061462-0.95544-0.13348-1.4304-0.21411-0.40036-0.067932-0.79999-0.14246-1.1969-0.22382-0.23114-0.047058-0.46103-0.09436-0.69092-0.14594-0.23404-0.052734-0.46783-0.10815-0.70065-0.16547-0.25452-0.062378-0.50598-0.13648-0.75903-0.20435-0.12296-0.033081-0.24716-0.062927-0.36975-0.09729-0.3511-0.098145-0.70279-0.20282-1.051-0.31134-0.042084-0.013245-0.084442-0.025696-0.12653-0.039001-0.39768-0.12561-0.79346-0.25989-1.1871-0.39899-0.39822-0.14062-0.79309-0.28357-1.1872-0.43787 9.7602 4.9401 25.863 9.9524 47.361 5.8873l0.0097 0.0097c0.009979-0.001831 0.019135-0.007751 0.029205-0.009705 6.7791-1.2943 14.087-3.4791 21.875-6.841l-0.0486-0.068c22.356-10.156 40.502-41.45 43.926-79.96 3.8579-43.396-12.004-80.796-36.579-91.667l-0.3795-0.1945c-12.394-5.9408-23.985-8.1496-34.244-8.2423-0.40961-0.003693-0.82071-0.002899-1.226 0z" fill="#333"/>
 </g>
 <path d="m438.6 497.31c-4.045 49.522-32.506 87.531-63.528 84.841-31.022-2.6901-52.917-45.065-48.872-94.588 1.8182-22.261 8.5697-42.195 18.27-57.152 11.879-18.317 28.18-29.17 45.258-27.689 31.022 2.6901 52.917 45.065 48.872 94.588z" fill="#595959"/>
 <g fill-rule="evenodd">
  <g fill="#ccc">
   <path d="m317.28 557.1c-0.81418 0.030884-4.0793 0.5174-4.1356 6.4322-0.064026 6.7229 3.426 34.109 3.4642 34.409 0.004028-0.009155 0.005707-0.02002 0.009827-0.029114 2.5107-5.7298 4.4471-5.9847 4.4471-5.9847l0.0389 0.0292c0.032288 0.83014 0.063995 1.7224 0.097321 2.5788l0.0097-0.0097c-0.40671-10.474-0.76398-19.445-0.82715-20.455-0.18167-2.9064 1.116-7.451 5.0991-8.7386v-0.009705s0.37097-0.097595 0.40866-0.107v-0.009827c0 1.22e-4 -1.7425-0.83282-3.0944-4.1162-1.352-3.2834-2.059-3.9898-5.3424-3.9898 0 0-0.058868-0.004333-0.1752 0z"/>
   <path d="m353.96 606.92l-0.3664-0.0598c0-1.22e-4 -6.4317 0.15888-9.3452 3.4365-2.9134 3.2777-7.4734 15.668-7.4734 19.492 0 3.8238 6.3357 11.911 6.7436 13.838 0.5686 2.6858 83.533 21.657 135.07 23.851-1.3844-8.7381-2.5658-25.625-3.4253-40.637l-0.1751 0.759s-37.142-3.6386-65.549-8.0087c-27.698-4.2612-54.165-12.27-55.477-12.67z"/>
  </g>
  <path d="m1085.7 514.45c-14.317 2.6396-30.383 5.6091-34.224 6.1014-6.6411 0.85101-10.74 4.1001-11.444 7.347-2.731 7.9531-2.7194 7.8463-5.8096 17.117-3.0902 9.2706-9.0088 18.803-18.022 20.863-0.02301 0.005249-0.48798 0.10602-0.53522 0.11676l-0.399 1.7322c-0.3783 1.313-0.7298 1.7224-1.9753 2.0727l-14.003 3.2502c-2.3209 34.039 8.0071 59.38 27.218 61.53 0.2544 0.3689 17.559 3.8837 31.023 2.4912 17.395 1.0808 34.198-28.185 37.504-65.325 2.102-23.62-1.767-44.755-9.332-57.297z" fill="#333"/>
  <path d="m1085.7 514.45c-14.317 2.6396-30.383 5.6091-34.224 6.1014-3.6484 0.46753-6.5228 1.6651-8.4952 3.1821-5.5872 11.524-9.6638 26.498-11.123 43.011l-0.0345 1.1354c-1.2395 13.927-0.22986 26.947 2.2142 37.896 0.082886 0.37146 0.1665 0.7428 0.25293 1.1093 0.019775 0.083679 0.038574 0.16962 0.058472 0.25305 4.2583 17.464 12.648 29.184 23.218 29.845 7.1174 0.44556 14.134-4.1909 20.182-12.378 0.23267-0.31488 0.47107-0.638 0.70068-0.96338 0.16284-0.23047 0.32532-0.4649 0.48669-0.70062 0.065308-0.096191 0.1294-0.19488 0.19458-0.29193 0.22656-0.33551 0.44775-0.67609 0.67139-1.0217 0.1554-0.24017 0.31335-0.48492 0.46704-0.72986 0.066895-0.10712 0.13782-0.21314 0.20435-0.32117 0.151-0.24359 0.29822-0.49133 0.44775-0.7395 0.067139-0.11237 0.13733-0.22742 0.20422-0.3407 7.0114-11.866 12.218-28.781 13.906-47.75 2.102-23.62-1.767-44.755-9.332-57.297z" fill="#575757"/>
  <path d="m1085.6 571.98a21.74 43.24 0 1 1 -43.48 -2.5171 21.74 43.24 0 1 1 43.48 2.5171z" fill="#fff" stroke-width="2.919"/>
  <path d="m1084.5 571.75a19.724 41.738 0 1 1 -39.448 -2.4296 19.724 41.738 0 1 1 39.448 2.4296z" fill="#b3b3b3" stroke-width="3.119"/>
 </g>
 <path d="m1112.4 509.94c-0.80884 0.003998-1.8728 0.10849-3.2892 0.30164-2.4399 0.33273-12.578 2.1996-23.452 4.2038 4.4258 7.339 7.5829 17.62 9.02 29.621l20.358 1.1977s2.5712-5.016 2.4425-6.4322c-0.51514-5.6654-1.1542-21.637-1.9269-25.243-0.57935-2.7039-0.72644-3.6612-3.1527-3.649z" fill="#333"/>
 <path d="m1135 529.75c-0.057861 0.33411-0.1167 0.66827-0.17517 1.0023 1.0243 0.31641 3.3203 1.0164 3.8341 1.1191 0.6438 0.12872 2.7024 0.90344 0.64221 1.5472-1.0596 0.33106-3.1718 0.8656-5.1866 1.3429-0.06189 0.014648-0.12317 0.034119-0.18494 0.048584-1.8344 0.43237-3.5555 0.80353-4.2816 0.92444-1.545 0.25757-3.9956 0.77081-4.7682 3.9899-0.22229 0.92584-0.55249 2.2847-0.90515 3.7756-0.87329 3.6936-1.8918 8.2985-1.8002 9.8576 0.12878 2.1888 2.8347 8.1313 3.2211 8.9039 0.38635 0.77258 1.0312 2.0646 4.3789 1.4208 3.3478-0.6438 15.837-3.0975 17.253-3.4838 1.4163-0.38629 1.7192-0.92511 3.0068-3.114 1.2875-2.1889 3.3962-6.1768 3.4351-9.3516 0.034546-2.754-2.5785-9.809-2.5786-9.809l-0.0487-0.0097-0.0974-0.2141c-0.20728 0.41809-0.44751 0.90497-0.44751 0.90497-2.8042-0.48511-5.5353-2.844-5.8388-4.6126 0 0 0.3241-0.64087 0.81738-1.6056-3.5472-1.7574-8.6287-2.4471-10.276-2.6371z" fill="#ccc" fill-rule="evenodd"/>
 <g fill="#76705a">
  <path d="m1090.2 410.61s0.095947 2.7728 0.84522 3.1941c1.3354 0.75076 2.6035 0.3042 4.6758 0.13571 2.9561-0.24039 22.414-1.5858 24.159-1.7286 1.7446-0.14273 2.6793-1.2214 2.667-3.7723l-0.135-0.1336-32.212 2.3047z"/>
  <path d="m811.35 612.69l0.2747 2.4941c0.15314 1.0287 1.0959 1.287 2.008 0.95923l99.736-23.157 50.795-11.794 49.118-11.396c1.2456-0.35034 1.6004-0.75623 1.9789-2.0692l0.4133-1.7964-204.32 46.76z"/>
 </g>
 <path d="m1139.3 502.65c-0.15625 2.5156-0.2998 4.4772-0.39905 5.0407-0.11267 0.56329-0.22131 1.1293-0.33081 1.6932 2.6985 0.35886 5.76 0.54156 8.359 1.5959 2.5557 1.3065 4.1285 3.251 4.4667 5.6343 0.33789 2.3834-0.40442 5.0902-1.2068 6.5101-2.5492 4.5113-5.7511 10.87-5.7511 10.87 0.30347 1.7686 3.0346 4.1274 5.8388 4.6126 0 0 3.8724-7.8677 6.1792-11.95 1.7297-3.0611 2.6685-7.1162 2.0629-11.385-0.60535-4.2692-3.395-8.9109-8.6703-10.685-2.7676-0.9306-6.9706-1.868-10.548-1.9364z" fill="#b3b3b3" fill-rule="evenodd"/>
 <path d="m828.52 385.79s-90.719 7.4851-125.95 12.329c-23.352 3.2108-49.795 9.9127-64.974 14.061l-3.2307 0.8855c-5.811 1.6178-9.2933 2.6761-9.2933 2.6761-37.111 13.01-89.315 43.969-101.73 52.402-11.42 7.7578-40.958 29.504-40.958 29.505l-0.1752 0.0584c-0.65323 1.7612-2.4041 4.4551-4.885 7.7848-0.12793 0.93762-0.26361 1.8749-0.40869 2.8026l0.1751-0.0584s12.662-9.3139 24.62-17.934c5.4164-3.898 10.825-7.8106 16.339-11.57 12.414-8.4327 64.618-39.392 101.73-52.402 0 0 3.482-1.0582 9.2932-2.676l3.2307-0.8856c12.334-3.3708 32.099-8.4305 51.604-11.93 1.5004-0.2692 3.002-0.52914 4.4958-0.77844 2.9876-0.49872 5.9558-0.95126 8.8747-1.3527 35.23-4.8442 125.95-12.329 125.95-12.329l186.75-14.013 125.21-9.4002 0.1071-0.0097 0.4087-0.5352c0.81482-1.211 1.7505-3.7102 1.2826-7.7547l-308.46 21.125z" fill="#b4b4b4"/>
 <g fill-rule="evenodd">
  <g fill="none">
   <path d="m825.26 442.8l2.6469 78.606s-0.8078 59.475-1.0898 66.171c-0.30176 7.3201-0.95404 23.544-4.8266 22.576m-5.5088-235.39c1.8612-0.31824 6.1044 3.7499 6.7543 7.9146 0.60785 3.8948 2.3355 10.432-0.62274 13.857l2.5433 40.095"/>
   <path d="m610.08 627.69l0.0778-23.141" fill-opacity=".536"/>
  </g>
  <path d="m632.08 423.68l1.076-10.485-11.717-1.3901-1.39 10.856 12.031 1.0187z" fill="#918a6f" stroke-linecap="square" stroke-linejoin="round"/>
  <path d="m655.9 263.74l-30.331 119.27-6.1898 43.391c-4.2658 29.904-7.9737 82.72-9.2948 106.94-0.28784 5.2767 0 55.253 0 55.253l7.9778 0.2208-0.2648 15.622-7.9434 0.5296" fill="none"/>
  <path d="m823.1 274.56c-4.1274 0.15173-6.2684 2.4867-4.5542 10.626 0 0 5.5502 25.544 7.5319 36.774s6.8312 43.819 6.8312 43.819c0.80365 3.8872 1.5606 9.5519 9.2446 8.8066l55.38-3.0847c6.6243-0.38422 7.0219-4.0993 6.5002-9.9062-4.548-25.431-8.8367-50.794-14.976-76.622-1.3913-4.1673-1.3279-9.2456-9.0305-9.4684l-55.049-0.8855c-0.66516-0.056915-1.2884-0.080048-1.878-0.05838zm87.035 1.0412c-7.9828 0.035004-4.671 11.239-4.671 11.239-0.22015 0 5.8301 24.556 6.4906 28.96 0.66058 4.4038 5.4006 35.449 7.162 46.018 1.7615 10.569 10.015 7.8104 13.098 7.5902 3.0827-0.22018 39.741-2.1998 44.695-2.5301 4.9543-0.33029 4.2964-7.3762 3.4156-12.991-0.88068-5.6148-10.565-59.01-12.436-68.808-1.8716-9.7984-10.243-8.5828-11.784-8.5828-1.5413 0-37.103-0.55527-45.58-0.88553-0.13238-0.005157-0.26257-0.010284-0.38916-0.009735zm76.856 2.209c-7.0133 0.032898-4.1064 10.548-4.1064 10.548-0.19354 0 4.2462 22.186 4.8265 26.323 0.58044 4.1364 6.0696 33.297 7.6097 43.226 1.4375 9.2117 8.8036 7.3397 11.512 7.1329 2.7084-0.20682 34.134-2.2658 38.496-2.3841 6.0812-0.16711 4.9324-6.762 3.766-12.193-1.1194-5.2115-9.8994-54.901-11.629-64.089-1.6443-8.7364-8.9899-8.0671-10.344-8.0671-1.3542 0-32.342-0.18607-39.79-0.49628-0.11639-0.004852-0.22937-5.19e-4 -0.3407 0z" fill="#5d536c"/>
  <path d="m1117.3 536.27c0.068237 0.98602 0.13025 1.8512 0.1947 2.5594-0.062988-0.69366-0.12646-1.5842-0.1947-2.5594zm6.6172 7.2303l-8.865 1.7614-20.357-1.197c0.25977 2.1712 0.4602 4.3995 0.60327 6.6756 0.066528 0.02655 5.4701 2.1815 9.6144 3.834l2.5496-0.9828 15.2 2.2089 0.0194-0.0778c-0.30371-0.93878-0.52051-1.786-0.55469-2.3646-0.091675-1.5593 0.92725-6.1655 1.8002-9.8576h-0.009644z" fill="#333"/>
  <path d="m999.28 573.03l-10.227 2.2576 9.9939 2.1506c0.052429-1.4191 0.13525-2.8588 0.23352-4.3108 0.00177-0.032532-0.002258-0.064941 0-0.097412z" fill="#484537"/>
  <path d="m778.51 536.9c-5.6044-0.013062-10.723 1.581-14.733 2.1701-8.1116 1.1915-22.075 2.8807-35.888 19.462 6.9732-4.142 14.439-6.4069 22.06-6.4031 1.4213 8.54e-4 2.8517 0.081848 4.2817 0.24335 26.507 2.9932 45.656 33.092 47.634 71.018l2.1117 2.6371c0.61609 0.29138 0.93707 1.0898 2.3257 0.029175 1.52-1.1547 3.6978-2.8738 3.6978-3.2794 0-0.60126-2.8456-8.4499-3.0457-9.0012l0.6812-0.0974s5.9067-7.2272 5.9067-12.952c0-5.725 1.0289-18.094-9.2543-45.366-8.358-14.997-17.586-18.441-25.778-18.46z" fill="#333"/>
  <path d="m1064.4 541.36c-7.2637 0.32245-14.118 12.312-15.502 27.403-1.4286 15.578 3.5154 28.594 11.035 29.047 2.1335 0.1286 3.3789-0.5033 6.2085-2.4814 2.8296-1.9782 13.195-11.957 13.195-26.245 0-18.405-6.8542-23.394-8.3998-25.045-1.5455-1.6508-3.2926-2.5164-5.827-2.6692-0.23498-0.01416-0.47607-0.020142-0.71033-0.009705z" fill="#fff"/>
  <path d="m1064 535.62c-8.1215-0.069336-15.874 14.67-17.419 33.29-1.5693 18.916 3.8643 34.715 12.125 35.266 5.4879 0.36578 10.853-6.0868 14.295-16.008l0.0096-0.2239c-2.7341 3.8987-5.6051 6.4811-6.8993 7.3859-2.8296 1.9782-4.075 2.61-6.2085 2.4814-7.5195-0.45343-12.464-13.469-11.035-29.047 1.3839-15.091 8.2379-27.08 15.502-27.403 0.23425-0.010437 0.47534-0.004456 0.71033 0.009705 2.5344 0.15283 4.2833 1.0156 5.829 2.6664 0.66272 0.70789 2.3043 2.0374 3.9604 4.7681v-0.048584c-2.1195-7.7322-5.8575-12.809-10.48-13.118-0.12903-0.008667-0.26038-0.018372-0.38928-0.01947z" fill="#878787"/>
  <path d="m702.7 278.16l-0.3504 3.0847 41.201 0.2336 16.096 90.23-67.788 2.2689-0.3226 2.2342 68.44-2.3165 0.7589 0.0584 1.7711-0.0584-17.681-94.985-42.126-0.7493z" fill="#5d536c"/>
  <g stroke-linecap="square" stroke-linejoin="round">
   <path d="m749 284.8l28.238 0.7024c1.3447 0.17676 3.14-0.67621 2.5322 3.9634l-11.009 61.763c-0.57269 2.2676-2.0092 3.4684-3.7433 3.4129l-3.1854-0.1875-12.833-69.654z" fill="#d5e5ff"/>
   <path d="m623.62 260.52s1.328 2.5898 4.8475 2.5898c3.5194 0 4.3826-2.5898 4.3826-2.5898s136.26 2.3906 239.05 5.0467c102.79 2.6562 239.26 4.5155 239.26 4.5155 0.8374 0.61975 0.35486 1.2395 0 1.8593l-228.36-3.7186-254.73-4.7811-206.38 2.1249c-4.4038-0.01828-13.334-0.34659-14.05 0.13733-0.10254-0.85883-0.027313-2.5279-0.027313-2.5279l216.01-2.6562z" fill="#fff"/>
  </g>
  <path d="m748.39 281.38l0.6325 3.4546 0.0195-0.0292 28.201 0.7006c1.3447 0.17676 3.1379-0.67905 2.5301 3.9606l-11.016 61.763c-0.57257 2.2676-2.0026 3.471-3.7368 3.4156l-3.1893-0.1873 3.0627 16.928 44.845-2.2343-5.5894-31.137c-3.2227 0.57077-5.8728 1.7444-7.8238 4.8266-1.2703 3.7105-3.4498 9.264-3.4545 9.2834-0.021301 0.08609-0.60584 0.057709-1.8002 0-1.6305-0.058899-3.1315-0.15228-2.6664-3.075l8.8262-49.551-2.0922-11.658c-0.65222-2.0898-1.3772-5.7399-6.7144-5.8094l-40.034-0.652z" fill="#6d6f84"/>
  <g stroke-linecap="square" stroke-linejoin="round">
   <path d="m643.21 377.81c-7.876 0.20548-11.011-8.7362-8.4056-16.443l18.869-77.285c0.37787-0.99558 1.0774-6.1221 7.6386-6.0816l37.479 0.1651-11.351 98.356-44.23 1.288z" fill="#5d536c"/>
   <path d="m657.99 283.46c-0.41894 0.56918-0.57922 1.5655-0.7298 2.3355l-16.484 66.609 11.599 0.8174c1.2726-2.5972 3.4044-5.3216 6.8799-5.3132 0.11218 2.75e-4 0.22571 0.003693 0.34058 0.009735 5.9166 0.3114 28.415 0.93417 28.415 0.93417l0.0194 0.545 7.1621-65.101-0.0974 0.0973-37.105-0.9342zm44.033 0.9926l-0.0486 0.0779-6.5392 57.52 9.9354-52.363c0.40485-1.9777 1.2183-5.1226-3.3475-5.2353z" fill="#d5e5ff"/>
   <g fill="#6d6f84">
    <path d="m659.25 347.91c-3.4755-0.008392-5.6073 2.716-6.8799 5.3132l-11.599-0.8174-2.6664 10.772c-1.309 6.7527-0.34735 11.495 5.5857 11.833l41.493-0.7123 2.8414-24.9-0.0194-0.545s-22.498-0.62277-28.415-0.93417c-0.11487-0.006042-0.22839-0.00946-0.34058-0.009735z"/>
    <path d="m661.67 280.97c-1.4915 0.067352-2.7883 0.8201-3.6802 2.4912l0.0505-1e-4 37.056 0.9342 0.0974-0.0973 0.3503-3.1723c-11.291 0.039032-22.584-0.23325-33.874-0.1557z"/>
   </g>
   <path d="m804.08 338.27s-6.2044 0.04007-7.7554 4.5702c-1.2704 3.7105-3.4501 9.2675-3.4548 9.2869-0.021301 0.08609-0.61005 0.056061-1.8044-0.001617-1.6305-0.058868-3.123-0.15247-2.6578-3.0752l8.8218-49.549 6.8506 38.769z" fill="#d5e5ff"/>
   <path d="m659.98 384.13l-2.0096-14.807c-0.88861-7.0204 3.3254-13.296 9.4486-14.071l9.2511-1.1711c6.1231-0.77512 11.768 4.2526 12.657 11.273l3.4595 27.328c0.88873 7.0203-3.3254 13.296-9.4485 14.071l-9.251 1.1711c-6.1232 0.77508-11.768-4.2527-12.657-11.273l-1.0565-8.3456-0.1235-0.9752" fill="#5d536c"/>
   <path d="m661.9 386.78c0.05127 0.44064 0.025696 0.45294 0.079346 0.89313 0.50128 4.1168 1.118 8.2115 2.1365 12.228 1.9411 4.419 7.2961 5.4971 11.496 5.1852 4.3034-0.5419 9.7241-0.14758 12.446-4.3612 2.9385-4.182 1.6147-9.6986 0.86114-14.44-1.1287-8.1228-1.4939-16.437-3.6151-24.368-1.7739-3.6141-5.7795-6.0455-9.5931-5.3673-4.4356 1.2073-9.9188-0.039459-13.381 3.6654-3.0778 3.1289-3.1516 8.0696-2.214 12.246 0.51856 3.25 1.0106 11.023 1.3727 11.023" fill="#c6c6c6"/>
   <path d="m749.95 552.13c-7.6217-0.003723-15.087 2.2611-22.06 6.4031-2.7366 3.285-5.4667 7.1496-8.145 11.716-14.052 28.993-18.151 43.253-22.907 54.251-1.22e-4 0-1.3767 4.6902-2.929 5.8289l-0.4866 0.1265c1.3159 3.4351 2.462 7.1876 2.462 9.0012 0 3.523-1.3227 13.652-8.3687 17.175-0.16785 0.083862-0.36639 0.17535-0.5741 0.2627l0.6908 1.5181c3.4633 35.289 22.02 62.654 47.225 65.5 31.281 3.5324 61.01-32.032 66.356-79.376 5.3465-47.344-15.7-88.631-46.982-92.163-1.43-0.1615-2.8604-0.24255-4.2817-0.24335zm-71.368 67.923c-0.23157 0.021851-0.46356 0.041443-0.70062 0.068176 0.2381-0.026917 0.46808-0.046204 0.70062-0.068176zm6.4905 0.3698c0.14203 0.040833 0.27856 0.089844 0.41852 0.13623-0.13995-0.046387-0.27637-0.095398-0.41852-0.13623zm1.9949 0.8077c0.18176 0.09552 0.36652 0.19379 0.54498 0.30158-0.17828-0.10779-0.3634-0.20606-0.54498-0.30158zm0.545 0.3016c0.20331 0.12286 0.40393 0.25006 0.60333 0.38922-0.20007-0.13983-0.39935-0.26587-0.60333-0.38922zm1.3527 0.9634c0.16364 0.1355 0.32507 0.27991 0.48651 0.42816-0.16162-0.14856-0.32257-0.29248-0.48651-0.42816zm0.4865 0.4282c0.19928 0.18286 0.39746 0.37109 0.59357 0.5741-0.19501-0.20178-0.39551-0.39215-0.59357-0.5741z" fill="#575757"/>
   <path d="m693.47 650.14c-0.065918 0.138-0.13501 0.2721-0.20435 0.40881 0.068848-0.13605 0.13892-0.27154 0.20435-0.40881z" fill="#b2b2b2" fill-opacity=".536"/>
   <path d="m686.94 656.89c-5.1309 2.157-22.245 5.3174-42.184 8.0574 4.1916 21.58 14.311 39.243 28.278 48.363v0.01947c11.394 7.7317 25.161 10.527 36.676 11.298 9.6678 0.64734 23.314-0.045105 30.234-0.48663-1.6896 0.035034-3.3869-0.041199-5.0894-0.23352-25.205-2.8462-43.762-30.211-47.225-65.5l-0.6908-1.5181z" fill="#333"/>
   <path d="m744.36 723.79c-0.2467 0.033386-0.49249 0.068542-0.73956 0.09729 0.40027-0.029968 0.75897-0.058411 0.75897-0.058411l-0.0194-0.0389z" fill="#b2b2b2" fill-opacity=".536"/>
  </g>
  <path d="m781.93 635.2a32.146 60.636 0 1 1 -64.293 0.91345 32.146 60.636 0 1 1 64.293 -0.91345z" fill="#fff" stroke-width="2.033"/>
  <path d="m781.41 634.7a30.347 58.576 0 1 1 -60.694 0.88251 30.347 58.576 0 1 1 60.694 -0.88251z" fill="#b3b3b3" stroke-width="2.129"/>
  <path d="m747.97 595c-10.664 1.2339-19.533 18.666-20.03 39.824-0.51239 21.841 8.0982 39.428 19.218 39.246 3.155-0.051392 4.9246-1.0657 8.8894-4.1255 3.965-3.0598 18.211-18.072 16.752-37.963-1.8802-25.623-12.484-31.828-14.929-33.959-2.4448-2.131-5.1058-3.1473-8.8537-3.0862-0.34753 0.005615-0.70325 0.023438-1.0471 0.063171z" fill="#fff"/>
  <path d="m759.01 632.58c-1.8092 3.7654-2.3586 3.8473-3.2159 4.6266-0.97138 0.88306-3.0507-1.201-4.9428 0.44842-3.4438 3.0024-6.3615-1.0708-9.5405-2.4836-3.179-1.4129-3.1771 0.085693-5.1198 0.7038-1.9427 0.61816-2.0221 0.87982-4.2232-0.78265-0.50671-0.38269-0.74628-2.5776-1.6875-5.0938-1.3272 13.262 0.53058 27.094 8.5312 37.75 3.6182 5.02 11.217 5.7445 15.438 1.0312 5.5675-4.5678 9.9207-10.462 12.781-17-0.31842 0.10547-0.65179 0.21612-1 0.28125-6.8762-0.076721-7.6502-9.0267-7.75-14.25 0.20129-2.4144 0.20557-2.5098 0.72961-5.2313z" fill="url(#g)"/>
  <path d="m771.55 636.12a5.1192 13.471 0 1 1 -10.238 -0.65533 5.1192 13.471 0 1 1 10.238 0.65533z" fill="#b3b3b3" stroke-width="2.237"/>
  <path d="m747.23 586.75c-12.222 0.072876-22.539 21.638-23.033 48.14-0.49457 26.502 9.0209 47.95 21.243 47.877 7.8862-0.046936 14.977-9.0408 19.151-22.537-3.3776 5.0052-6.873 8.432-8.5439 9.7214-3.965 3.0598-5.7294 4.0649-8.8845 4.1163-11.12 0.18127-19.731-17.404-19.219-39.246 0.4964-21.159 9.3624-38.586 20.027-39.82 0.34393-0.039734 0.70343-0.062378 1.0509-0.068054 3.748-0.061157 6.4105 0.96344 8.8553 3.0944 1.0068 0.87756 3.3995 2.4401 5.9944 5.7706-3.867-10.457-9.8364-17.089-16.64-17.049zm16.738 17l-0.0292 0.1459c0.009766 0.012695 0.019409 0.026184 0.029175 0.038879v-0.18481z" fill="#878787"/>
  <path d="m681.25 619.91c-5.0306-0.040955-11.421 1.8079-20.377 2.9193-13.723 1.7028-55.71 5.1769-55.71 5.1769l-11.006 0.8757c-37.872 2.6423-85.439-0.43787-85.439-0.43787s-4.3958 3.9676-6.5977 6.1695-3.0898 14.528-2.209 21.574 4.4082 13.156 4.4082 13.156l0.8736 0.7001c9.2e-5 0 65.625 2.0007 99.094-0.64166 33.469-2.6423 76.184-9.2539 83.23-12.777 7.046-3.523 8.3688-13.652 8.3687-17.175 0-3.523-4.3087-14.375-5.8387-15.959-2.5493-2.6389-5.3549-3.553-8.7969-3.581z" fill="#ccc"/>
  <g fill="#333" stroke-linecap="square" stroke-linejoin="round">
   <path d="m446.9 616.31c-0.23157 0.021973-0.46353 0.041443-0.70062 0.068115 0.23813-0.026855 0.46811-0.046082 0.70062-0.068115z"/>
   <path d="m453.39 616.68c0.142 0.040894 0.27853 0.089783 0.4184 0.13617-0.13986-0.046387-0.2764-0.095398-0.4184-0.13617z"/>
  </g>
  <path d="m486.76 584.35c-0.33029 0-0.67209 0.068359-1.0024 0.23352-1.3211 0.66058-5.9953 3.516-8.4173 5.3326-2.4221 1.8165-3.7949 4.521-3.6298 7.8238 0.16516 3.3029 2.9092 71.89 6.4322 75.523 3.523 3.6331 8.7031 5.0087 12.612 3.3572 3.4727-1.4673 10.522-5.8149 12.125-6.8117l-0.5644-0.4574s-3.5274-6.1104-4.4082-13.156c-0.8808-7.0461 0.00708-19.372 2.209-21.574 2.1498-2.1497 6.2814-5.8822 6.4809-6.0624l0.0097-0.1071s-2.5268-5.2265-4.3984-11.337c-1.8716-6.1102-3.367-12.777-3.367-12.777s-2.6421-0.27179-3.6881-3.6296c-1.0458-3.3578 0.88556-7.8141 0.88556-7.8141s-0.27731-1.4319-1.158-2.2576c-0.8808-0.82574-6.434-4.5164-7.4248-5.1769-0.7432-0.49542-1.7047-1.1092-2.6955-1.1092z" fill="#999"/>
  <path d="m380.78 653.47c4.7886 18.859 14.285 34.142 26.945 42.408v0.01947c11.394 7.7318 25.161 10.527 36.676 11.298 9.6677 0.6474 23.314-0.045044 30.234-0.48657 18.734-0.38757 36.45-14.471 48.13-36.248-10.547-0.19495-17.633-0.42822-17.633-0.42822l-0.253-0.2238c-1.603 0.99676-8.6523 5.3444-12.125 6.8117-3.9084 1.6515-9.0885 0.27594-12.612-3.3572-0.53922-0.55609-1.0607-2.6477-1.557-5.7803-29.425-1.2524-69.077-7.9753-97.807-14.013z" fill="#333" stroke-linecap="square" stroke-linejoin="round"/>
  <path d="m574.61 590.61c-0.29498-8.54e-4 -0.58722 0.004761-0.87573 0.009705-0.30774 0.005249-0.61517 0.018127-0.9148 0.029236-7.7454 0.2868-65.968 1.9224-74.803 2.17 0.003174 0.014709 0.019501 0.068115 0.019501 0.068115s-1.9314 4.4562-0.88556 7.8141c1.046 3.3578 3.6881 3.6296 3.6881 3.6296s0.009521 0.037964 0.009796 0.03894c0.093842-0.003662 63.909-2.5082 72.38-2.822 3.6144-0.13379 7.766 0.34961 11.113 1.9852 3.3469 1.6356 6.0801 4.1365 7.7848 9.4781 2.0297 6.3594 2.952 14.094 3.6005 22.985 1.0723 3.6306 12.412 11.177 10.879-0.79791-0.67474-9.2484-1.4652-17.219-4.1065-25.496-2.5293-7.9251-7.7335-13.204-13.37-15.959-4.9545-2.4211-10.092-3.1212-14.519-3.1334z" fill="#e2e3db"/>
  <path d="m542.06 499.15c-19.374 0.065491-35.167 13.699-36.959 31.402-1.8108 0-4.2876 0.40546-4.2876 2.5975 0 2.4988 1.7222 3.0562 4.2 3.0562 1.2652 18.578 17.814 33.61 38.029 34.02 21.038 0.42639 38.117-15.143 38.117-34.759 0-19.617-17.078-35.88-38.117-36.307-0.3288-0.006714-0.65607-0.010925-0.98285-0.009796z" fill="#bababa"/>
  <path d="m573.43 535.24a32.318 31.032 0 1 1 -64.637 -1.3492 32.318 31.032 0 1 1 64.637 1.3492z" fill="#454545" stroke-width="3.691"/>
  <path d="m566.95 535.45a28.198 28.972 0 1 1 -56.396 -1.2596 28.198 28.972 0 1 1 56.396 1.2596z" fill="#d7e3f4" stroke-width="4.09"/>
  <path d="m602.84 471.37a21.858 19.72 0 1 1 -43.716 -0.85742 21.858 19.72 0 1 1 43.716 0.85742z" fill="#b3b3b3" stroke-width="5.63"/>
  <path d="m600.33 471.5a19.827 18.513 0 1 1 -39.654 -0.8049 19.827 18.513 0 1 1 39.654 0.8049z" fill="#454545" stroke-width="6.101"/>
  <path d="m595.7 472.96c-0.79285 8.7677-8.0505 15.777-16.807 15.581-9.2861-0.20743-16.823-8.1192-16.823-17.66 0-9.5411 7.5366-17.116 16.823-16.909 8.5543 0.19107 15.624 6.92 16.685 15.438" fill="url(#d)"/>
  <path d="m454.72 363.7l37.984-86.397c3.5338-6.7695 9.9-10.441 18.928-11.202l118.97-0.2575c9.913 0.023346 10.666 5.8984 9.142 13.262l-24.335 88.972c-3.5001 9.2323-9.1289 12.196-15.709 12.361l-138.29-3.0902c-5.4248-0.011871-8.9603-6.7042-6.6955-13.648z" fill="#5d536c"/>
  <path d="m674.98 379.91c-1.7615 0.44037 0.055847-0.07666-0.078491-0.041992-3.4129 0.88074-36.001 10.303-36.001 10.303-2.5173 0.70248-4.3234 1.6607-5.537 3.075-1.2135 1.4143-1.6826 3.1634-1.8197 5.0018l-2.7928 27.987c-0.086975 0.56888 0.14685 1.1392 0.60803 1.4833 0.46112 0.34412 1.0745 0.40579 1.5951 0.16049 0.52045-0.2453 0.86322-0.75772 0.8913-1.3324l2.8026-28.026c0.003357-0.012939 0.006653-0.025909 0.009705-0.03894 0.11114-1.4899 0.40698-2.438 1.0704-3.2112 0.66351-0.77322 1.8367-1.493 4.0189-2.1019h0.009827l36-10.303c0.77368-0.19577 0.94391-0.83475 0.82849-1.6244-0.11523-0.7897-0.80896-1.3644-1.6063-1.3307z" fill="#fff" stroke-linecap="square" stroke-linejoin="round"/>
  <path d="m460.29 362.07l36.016-81.937c3.3508-6.42 9.3872-9.9021 17.947-10.624l112.81-0.2442c9.3995 0.022125 10.114 5.5939 8.6683 12.578l-23.075 84.379c-3.3187 8.7556-8.6559 11.567-14.895 11.723l-131.12-2.9307c-5.1438-0.01123-8.4962-6.3581-6.3487-12.944z" fill="#6d6f84"/>
  <path d="m603.42 348.98l9.1555-63.649-40.17-2.1798c-4.4601 0.19043-6.2224 3.3485-6.5394 8.0963l-13.299 54.619 50.852 3.1139z" fill="#d5e5ff"/>
  <path d="m478.33 267.01c15.606-0.38919 10.457 5.9052 9.6883 10.789l-22.79 52.625-14.422 32.918c-5.9746 11.885-11.45 13.283-16.844 12.991l-66.057-3.523c-7.5464 0.51675-6.966-4.7407-3.413-12.11l43.928-81.69c4.1654-7.2192 8.794-9.574 13.542-10.679l56.368-1.3211z" fill="#5d536c"/>
  <path d="m480.23 268.85c-0.44022-0.001038-0.90112 0.007324-1.3818 0.01947l-53.754 1.2748c-4.5273 1.0674-8.9411 3.3423-12.913 10.315l-41.892 78.9c-3.3881 7.1179-3.9362 12.196 3.26 11.697l62.989 3.4059c2.6399 0.14444 5.3035-0.14154 8.0378-2.0046 2.0266-1.9701 4.0929-4.8708 6.2279-9.118l14.421-32.92 22.79-52.626c0.27658-1.7568 1.1222-3.6946 1.3624-5.4397l-0.0098 0.0292c-0.40039-2.0391-2.5344-3.5164-9.1374-3.5324z" fill="#6d6f84"/>
  <path d="m419.25 280.44c-3.562 0.011993-6.853 0.47101-9.02 2.277l-40.307 75.912c-3.388 7.118-3.936 12.196 3.26 11.697l10.413 0.564 0.019-0.029 42.155-90.148c-2.15-0.125-4.382-0.28-6.52-0.27301zm10.909 0.506l-41.464 90.217 25.018 1.353c4.298-17.861 18.093-30.945 34.439-30.945 3.657 0 7.185 0.651 10.509 1.868l0.175-0.01 6.024-13.74 20.241-46.748-54.942-1.995zm17.993 65.724c-0.81198 0-1.619 0.039001-2.414 0.117-0.24799 0.023987-0.49298 0.056-0.73898 0.086975-0.95902 0.12302-1.904 0.29501-2.832 0.526-0.83801 0.20801-1.663 0.466-2.472 0.759l4.019 18.936 5.411-0.885 7.619-17.993c-3.077-0.80701-6.685-1.547-8.592-1.547zm-11.619 2.88c-2.681 1.396-5.14 3.256-7.308 5.498-4.018 4.155-7.026 9.616-8.534 15.804l19.685-3.212-3.843-18.09z" fill="#d5e5ff"/>
  <path d="m422.89 493.72c-3.0699 31.423-22.931 55.359-44.333 53.428-21.402-1.9308-36.28-29-33.21-60.423 3.0699-31.423 22.931-55.359 44.333-53.428 21.402 1.9308 36.28 29 33.21 60.423z" fill="#fff"/>
  <path d="m418.18 493.74c-2.8843 29.918-21.545 52.708-41.654 50.869-20.109-1.8384-34.088-27.612-31.203-57.53 2.8844-29.918 21.545-52.708 41.654-50.869 20.109 1.8383 34.088 27.612 31.203 57.53z" fill="#b3b3b3"/>
  <path d="m396.47 445.58c-18.442 0.3566-35.021 19.44-37.688 44.13-2.7988 25.905 10.771 48.222 30.283 49.813 1.9635 0.16022 3.908 0.10059 5.8289-0.15564l0.039-0.0098c12.035-8.2552 21.287-25.287 23.248-45.619 1.8067-18.74-3.0064-35.852-11.794-46.476-2.2822-0.84787-4.6822-1.392-7.1816-1.5959-0.91458-0.074646-1.8274-0.10516-2.7344-0.087616z" fill="#878787"/>
  <path d="m414.12 492.76c-2.071 21.09-15.47 37.154-29.907 35.858-14.438-1.2958-24.475-19.464-22.404-40.554s15.47-37.154 29.907-35.858c14.438 1.2958 24.475 19.464 22.404 40.554z" fill="#fff"/>
  <path d="m382.83 489.74c-0.67255 7.0445-5.0234 12.41-9.7117 11.978-4.6883-0.43283-7.9476-6.5014-7.2751-13.546 0.67246-7.0444 5.0234-12.41 9.7116-11.978 4.6884 0.43277 7.9476 6.5014 7.2752 13.546z" fill="#b3b3b3"/>
  <path d="m339.19 573.42c-1.2032 0.071655-2.7296 1.4384-2.929 4.4763-0.2468 3.7553 2.3628 5.3229 3.7075 5.5662-0.13354 0.13617 2.8299 1.3805 14.256 4.0189 10.42 2.3975 24.604 4.9002 39.8 6.7534 29.901 3.6465 51.72 6.5692 79.882 8.398l0.0195-0.0584c-0.11392-2.5497-0.19156-4.3858-0.21414-4.8364-0.10413-2.0827 0.40494-3.9249 1.4013-5.4591-21.544-1.4058-41.642-3.9616-62.858-6.5472l-0.1145-0.0564c-23.648 4.4716-40.628-2.0719-49.956-7.3897l-0.0486 0.0389c-11.795-1.7906-22.187-4.7487-22.187-4.7487-0.2233-0.11627-0.48135-0.17224-0.75903-0.15576z" fill="#e2e3db"/>
  <path d="m332.11 563.68c-0.024048 0.002014-0.045441 0.004028-0.068207 0.009705-1.4567 0.36414-6.5586 1.6348-6.5586 1.6348v0.009705c-3.9831 1.2875-5.2808 5.8322-5.0991 8.7386 0.18213 2.9134 2.5523 66.099 2.7344 69.013 0.18213 2.9136 2.7349 6.7325 6.5588 6.0041 3.8239-0.72833 9.8286-1.4554 12.378-1.8196 2.2208-0.31732 2.7828-2.2897 2.8902-2.7928-0.88959-0.36108-1.3887-0.64893-1.4306-0.84668-0.40793-1.9269-6.7436-10.014-6.7436-13.838s4.56-16.214 7.4734-19.492c2.9135-3.2776 9.3905-3.4351 9.3905-3.435l-11.56-22.479-0.0195-0.0778c-1.5584-0.50293-2.1503-0.78729-2.0922-0.84662-1.3446-0.24329-3.9543-1.8109-3.7075-5.5662 0.20996-3.1965 1.8878-4.532 3.1139-4.4665l-2.4327-4.2915c-1.7492-2.5455-3.8407-5.3212-4.7488-5.459-0.027222-0.004211-0.053833-0.002075-0.07782 0z" fill="#999"/>
  <path d="m314.24 563.28s0.90131 6.8242 6.116 9.8501" fill="none"/>
  <path d="m321.07 591.93s-1.9364 0.25488-4.4471 5.9847c-2.5109 5.7297-4.6298 13.461-4.7586 15.521-0.12875 2.0601 3.9852 12.811 5.9165 14.743 1.8538 1.8538 4.5363 4.6435 4.7586 4.8753l0.1557-0.2628c-0.43201-10.949-1.0745-27.687-1.5862-40.832l-0.0389-0.0292zm1.4694 41.124l-0.0584 0.0973 0.1946 0.0486s-0.12689-0.13623-0.13623-0.14594z" fill="#ccc"/>
 </g>
 <path d="m816.73 435.22c-1.5201 0-2.8322 1.3449-3.3961 3.2599l0.652-0.1167c-1.1904 0.34662-2.3741 0.70099-3.1334 0.83685-4.6809 0.65546-7.804 1.0771-12.524 1.372-1.5783 0.094147-3.1035 0.44544-3.1918 2.024-0.088318 1.5787 0.83582 2.241 2.3939 2.5106 5.2183-0.099915 10.588 0.25687 15.784-0.23352 0.37817 0.043274 0.79199 0.047852 1.2164 0.029205 0.61408 0.66574 1.3756 1.0607 2.1992 1.0607 2.0355 0 10.023-2.5913 10.023-5.5565 0.12952-0.41397 0.1745-0.86343 0.12653-1.3234-0.14081-1.3472-1.1284-2.424-2.4036-2.715-1.8519-1.1989-6.8638-1.1482-7.746-1.1482z" fill="#fff"/>
 <path d="m1095.3 550.74c0.1471 2.3088 0.23022 4.6723 0.25305 7.0745 0.91882 0.40662 2.3855 1.0021 13.701 5.6051 7.8532 3.1238 16.218 6.4373 18.294 7.1815 4.1475 1.4869 11.94 3.2009 24.25 4.0579 3.094-2.6764 3.0167-6.3746 0.87573-6.695-12.078-0.84082-19.639-2.6948-23.792-4.1552-2.0804 0.22333-2.8616-0.44208-3.2696-1.0802l-0.1947-0.0681c-3.6647-1.4261-9.6044-3.7468-15.034-5.9067-7.7964-3.1012-14.979-5.9721-15.083-6.0138z" fill="#333" fill-rule="evenodd"/>
 <path d="m1134.8 530.76c-0.23364 1.3362-0.46631 2.6753-0.71033 4.0093 2.0149-0.4773 4.1271-1.0118 5.1866-1.3429 2.0602-0.6438 0.001587-1.4185-0.64221-1.5472-0.51379-0.10272-2.8098-0.80273-3.8341-1.1191z" fill="#6a6a6a"/>
 <path d="m811.34 612.7c2.0734-4.6865-0.033386 0.22333-1.9864-0.88043l-2.4022 1.9508c0.19958 0.54968 3.0285 8.348 3.0457 8.9915 0.81354-0.88116 1.3134-9.5381 1.343-10.062z" fill="#918a6f"/>
 <g fill="#b3b3b3">
  <path d="m1078.2 571.09a3.468 9.6542 0 1 1 -6.936 -0.42841 3.468 9.6542 0 1 1 6.936 0.42841z" fill-rule="evenodd" stroke-width="3.211"/>
  <path d="m317.69 557.1c1.078 0.35822 2.2423 2.0598 2.5008 3.9217 0.19864 1.4305 0.58475 3.8872 2.817 5.8984 0.73834-0.82013 1.3027-1.208 2.4768-1.5876v-0.009705s0.37097-0.097595 0.40866-0.107v-0.009827c0 1.22e-4 -1.7425-0.83282-3.0944-4.1162-1.3182-3.2014-2.0312-3.9542-5.1088-3.9898z"/>
 </g>
 <g fill-rule="evenodd">
  <path d="m312.28 615.71c1.0778 3.8972 3.9697 10.937 5.498 12.466 1.8538 1.8538 4.5363 4.6435 4.7586 4.8753l0.1557-0.2628c-0.10944-2.7737-0.26807-6.9799-0.39896-10.344-4.5024-2.4546-7.7328-4.7031-10.013-6.7339zm10.256 17.341l-0.0584 0.0973 0.1946 0.0486s-0.12689-0.13623-0.13623-0.14594zm14.392-4.7975c-0.1004 0.59772-0.15573 1.1206-0.15573 1.5376 0 3.8238 6.3357 11.911 6.7436 13.838 0.5686 2.6858 83.533 21.657 135.07 23.851-0.55423-3.4984-1.0754-8.331-1.557-13.799-30.83-2.8428-105.77-14.836-140.1-25.427zm358.87 12.903c-73.221 16.164-159.49 14.456-196.05 13.478 0.044495 0.53876 0.094147 1.0645 0.15573 1.557 0.8808 7.046 4.4082 13.156 4.4082 13.156l0.8758 0.7007c0-1.22e-4 65.623 2 99.092-0.64233s76.184-9.2539 83.23-12.777c6.1216-3.0609 7.9235-11.103 8.2909-15.472z" fill="#ababab"/>
  <path d="m334.77 340.47c-0.1872-1.985 0.55283-4.6956 1.38-4.7736l4.7028-0.4435c0.82706-0.077972 1.4399 1.4872 1.8308 3.4423 0.52484 2.6242 2.9402 27.307 2.9402 27.307 0.18729 1.985-0.32785 3.6458-1.155 3.7238l-3.4361 0.3948" fill="none"/>
 </g>
 <path d="m1110.2 504.74c-0.32593 0.011383-0.66602 0.039276-1.0217 0.087524-5.6908 0.77255-52.146 9.9504-58.97 10.821-6.671 0.85107-11.048 6.6788-11.755 9.9257-2.4753 7.1769-2.2858 9.8999-3.182 16.416 2.0221-6.0477 2.4432-7.2443 4.7975-14.1 0.7041-3.2469 4.8026-6.496 11.444-7.347 6.7938-0.87054 52.02-9.5326 57.686-10.305 5.6654-0.77255 5.6694-0.25769 6.4419 3.3474 0.72717 3.3928 1.3407 17.635 1.8394 24.036 0.084595-0.34497 0.12634-0.6441 0.10706-0.85626-0.51746-5.6655 0.63977-21.374-0.13623-24.98-0.72754-3.3799-2.3594-7.216-7.2498-7.0453z" fill="#bbbfb0" opacity=".627"/>
 <g fill-rule="evenodd">
  <path d="m827.9 521.78c-0.00116-0.037109-0.13135-0.43835-0.46704-0.36511l-92.173 15.57c-12.374 0.55243-14.761 9.4278-17.438 18.061l-14.947 41.727c-10.476 21.969-8.8051 18.112-26.595 21.175-7.4102 1.2757-42.383 6.3348-66.2 6.2278" fill="none"/>
  <path d="m877.53 278.24l-59.398 0.156c-0.29602 1.492-0.21802 3.508 0.30102 6.189l0.0099-0.059 24.522 0.419c2.503-0.20001 3.194 1.13 2.638 3.523l-16.806 50.222c2.0081 12.892 4.116 27.081 4.116 27.081 0.39801 1.923 0.78497 4.28 2.005 6.082 1.102 0.233 2.625 0.323 5.002 0.24301l54.445-2.899c8.327-0.55399 7.78-3.869 7.259-9.332-1.138-6.008-2.285-12.059-3.454-18.139l-2.696 0.039c-1.963 0.044983-2.106-1.183-2.024-2.569l0.934-16.582h0.02002c-2.425-11.872-5.046-23.782-8.028-35.616-1.076-4.232-1.164-8.548-8.846-8.758zm-51.049 46.057c0.11401 0.67502 0.245 1.424 0.37 2.18-0.12799-0.77298-0.25397-1.492-0.37-2.18zm119.66 17.283c-17.21 0.027985-30.011 0.17297-30.196 0.17499 1.2 7.723 2.391 15.339 3.114 19.696l1.333 4.252c2.427 1.753 6.013 1.624 9.333 1.518 3.079-0.097992 39.637-2.073 44.578-2.384s4.284-6.939 3.406-12.222c-0.21802-1.311-0.97803-5.405-2.025-10.938-7.46-0.059998-14.922-0.093994-21.924-0.096985-2.614-0.001007-5.161-0.004028-7.619 0zm46.437 0.321l-0.0099 0.029c1.15 6.42 2.205 12.431 2.753 15.969 0.28497 1.824 0.802 3.208 1.47 4.262 5.045-0.328 40.755-2.413 44.945-2.355 6.0601 0.085999 6.12-3.289 5.3101-7.23l-0.03-0.02c-4-4.605-10.67-8.626-21.74-9.478-7.94-0.61002-19.56-0.95599-32.699-1.177h9.77e-4z" fill="#6d6f84"/>
  <path d="m907.65 278.96c-1.0368 0.012268-1.886 0.21045-2.569 0.53522h-0.009705c-0.80713 3.2454 0.39899 7.3372 0.39899 7.3372-0.22015 0 5.8301 24.556 6.4906 28.96 0.39148 2.6099 2.2042 14.463 3.9898 25.962 0.21069-0.002289 16.897-0.18533 37.815-0.17514 7.0015 0.003387 14.463 0.037048 21.924 0.09729-3.1704-16.766-8.9797-46.871-10.383-53.803-1.8665-9.2193-10.208-8.0768-11.746-8.0768-1.5371 0-36.999-0.51639-45.454-0.82715-0.15613-0.005737-0.3092-0.011475-0.4574-0.009735zm74.949 2.2479c-0.83215 3.0839 0.29199 7.1426 0.29199 7.1426-0.19354 0 4.2462 22.186 4.8265 26.323 0.3736 2.6624 2.7769 15.661 4.8558 27.257l0.0097-0.0292c13.134 0.22098 24.755 0.56662 32.696 1.1775 11.077 0.85208 17.738 4.8727 21.739 9.4781l0.0292 0.0194c-0.21582-1.043-0.49609-2.1225-0.73962-3.1918-1.1162-4.9035-10.186-51.649-11.911-60.294-1.64-8.22-6.7943-7.2788-8.1449-7.2788-1.1186 0-29.607-0.32391-43.654-0.60333zm-164.15 3.3183l-0.0097 0.0584c0.038269 0.19766 0.073608 0.38852 0.1167 0.5936 0 0 5.5502 25.544 7.5319 36.774 0.67248 3.8101 1.6838 10.117 2.715 16.738l22.343 0.5081c0.29425-0.007416 8.1501-51.12 7.9667-51.26 0.55676-2.3926-1.9877-3.1934-4.4906-2.9931l-36.173-0.4184zm72.632 21.936l-2.7877 32.734c-0.082642 1.3865 0.060852 2.6146 2.024 2.569l7.8587-0.0389c-1.2197-6.3444-2.4611-12.725-3.7659-19.112l-3.3292-16.152zm155.99 51.018c-0.031616 0.0755-0.060547 0.15128-0.09729 0.22382 0.037354-0.073425 0.065308-0.14734 0.09729-0.22382zm-2.2673 1.9462c-0.082153 0.026917-0.15625 0.05365-0.24316 0.07785 0.083496-0.023376 0.16406-0.051971 0.24316-0.07785z" fill="#d5e5ff" stroke-linecap="square" stroke-linejoin="round"/>
 </g>
 <path d="m494.81 284.35l-34.516 77.732c-0.34878 1.0696-0.55808 2.1317-0.63251 3.1626l53.813-7.3178 16.865-66.476c0.97266-3.5877-0.11572-6.0303-5.4797-6.0977l-30.05-1.0032z" fill="#d5e5ff"/>
 <g fill-rule="evenodd">
  <path d="m466.46 348.05l-2.2965 5.2256h0.029114c4.9006 4.158 8.5578 10.243 10.51 17.341 0 0 0.3082 1.9249 0.63251 4.6028l7.2302 0.1654c-0.28729-2.7973-0.5838-5.6148-0.5838-5.6148-2.95-9.1782-8.4752-16.843-15.521-21.72z" fill="#6d6f84"/>
  <path d="m736.95 284.62l-14.421 64.848c-6.1e-5 0 22.673 0.4379 26.196 0.4379 3.3807 0 6.7584 1.4234 7.6096 3.4837l-12.193-68.633-7.1913-0.1362z" fill="#d5e5ff" stroke-linecap="square" stroke-linejoin="round"/>
  <path d="m336.25 578.43c0.020813 3.3715 2.4382 4.7996 3.7173 5.031-0.13354 0.13617 2.8299 1.3805 14.256 4.0189 10.42 2.3975 24.604 4.9002 39.8 6.7534 29.901 3.6465 51.72 6.5692 79.882 8.398l0.0195-0.0584c-0.11093-2.483-0.17963-4.2009-0.20435-4.7098-1.1078-0.10742-2.269-0.216-3.5032-0.32117l-0.0195 0.0584c-28.163-1.8288-49.981-4.7514-79.882-8.3979-15.196-1.8533-29.38-4.3558-39.8-6.7534-11.426-2.6384-14.39-3.8827-14.256-4.0189-0.00296-4.88e-4 -0.006805 5.49e-4 -0.009796 0z" fill="#a1a29c"/>
  <path d="m674.99 379.91c-0.02887 0.007202-0.02179 0.003021-0.048645 0.009735 0.026672 0.082367 0.045532 0.1647 0.058411 0.25299 0.11536 0.78973-0.053467 1.4293-0.82715 1.6251l-35.995 10.305h-0.009827c-2.1822 0.60898-3.3555 1.3287-4.0189 2.1019-0.66345 0.77322-0.95935 1.7213-1.0704 3.2113-0.003113 0.013031-0.006348 0.02597-0.009827 0.03894l-2.8025 28.026c-0.028076 0.57465-0.37482 1.0878-0.89526 1.3331-0.17725 0.083588-0.36548 0.12299-0.55469 0.13623 0.097961 0.30035 0.29224 0.56317 0.55469 0.75903 0.46124 0.34412 1.0657 0.41074 1.5862 0.16544 0.52045-0.24539 0.86706-0.75848 0.89526-1.3332l2.8025-28.026c0.003479-0.012939 0.006775-0.025909 0.009827-0.03894 0.11102-1.4899 0.40692-2.438 1.0704-3.2112 0.66339-0.77322 1.8367-1.493 4.0189-2.1019h0.009705l36.005-10.305c0.77368-0.1958 0.9425-0.83539 0.82715-1.6251-0.1153-0.7897-0.80829-1.3571-1.6056-1.3234z" fill="#5d536c" stroke-linecap="square" stroke-linejoin="round"/>
  <path d="m341.76 393.34c-0.002716-0.74088-0.006165-1.4818-0.010437-2.2228-0.032288-5.3528-0.11197-10.802-0.28226-15.132-0.085083-2.1647-0.19238-4.0457-0.33078-5.5175-0.069214-0.7359-0.15143-1.3732-0.24332-1.9073-0.091827-0.53412-0.1535-0.92014-0.40869-1.4305-1.638-3.2759-7.1789-13.366-7.1789-13.366-0.27869-0.51666-0.82416-0.8327-1.411-0.81741-0.55124 0.013733-1.0541 0.31799-1.3221 0.79996-0.26798 0.48196-0.26108 1.0697 0.018188 1.5452 0 0 5.6585 10.326 7.1108 13.23-0.062042-0.12405 0.056183 0.16519 0.12656 0.57416 0.070343 0.40897 0.13977 0.97751 0.20432 1.664 0.12915 1.373 0.23727 3.2195 0.32117 5.3521 0.16766 4.2652 0.25006 11.758 0.28214 17.093m-0.017 13.452c-0.023804 3.3175 0.039948 1.7989 0.039948 1.7989-0.010742 0.55872 0.27878 1.0803 0.75845 1.3667 0.4798 0.28644 1.0763 0.29392 1.563 0.019501 0.48676-0.27441 0.78918-0.78851 0.79254-1.3473 0 0-0.064117 1.452-0.040405-1.8348" fill="#cbcbcb"/>
  <path d="m1153.4 546.74c-0.42004 1.1132-2.3064 1.2942-2.3064 1.2942s-22.507 4.4958-25.155 4.4958h-3.7367c-0.026733 0.32373-0.041992 0.61035-0.029175 0.82715 0.12878 2.1888 2.8347 8.1313 3.2211 8.9039 0.38635 0.77258 1.0312 2.0646 4.3789 1.4208 3.3478-0.6438 15.837-3.0975 17.253-3.4838 1.4163-0.38629 1.7192-0.92511 3.0068-3.114 1.2875-2.1889 3.3962-6.1768 3.4351-9.3516 0.003662-0.28503-0.020752-0.62787-0.067993-0.99255z" fill="#ababab"/>
  <path d="m1070.1 569.45c-1.1467 2.3509-1.495 2.402-2.0384 2.8887-0.6156 0.55133-1.9336-0.74988-3.1329 0.27991-2.1829 1.8746-4.0324-0.66852-6.0474-1.5507-2.0149-0.88208-2.0138 0.053528-3.2451 0.43945-1.2316 0.38592-1.2817 0.54932-2.6769-0.48865-0.32141-0.23895-1.5328-1.2561-2.1294-2.8271-0.84131 8.2799-0.01709 17.622 5.0543 24.276 2.2935 3.1342 8.5227 2.5269 11.198-0.41583 3.529-2.8518 6.2884-6.5316 8.1016-10.614-0.2019 0.065796-0.41321 0.13495-0.63391 0.1756-4.3584-0.047913-4.849-5.6358-4.9124-8.897 0.12756-1.5074 0.13025-1.567 0.4624-3.2662z" fill="url(#f)"/>
  <path d="m383.97 485c1.2371 3.9901 1.7685 4.1518 2.5021 5.0485 0.83127 1.016 3.1939-0.74042 4.8234 1.1688 2.966 3.4752 6.4498-0.12564 9.8017-1.0567s3.1301 0.551 4.9611 1.4475c1.831 0.89652 1.8711 1.167 4.2924-0.15445 0.55737-0.3042 1.1164-2.4401 2.4168-4.791 0.79422 13.517-4.4536 26.729-13.979 36.089-4.3157 4.4347-11.938 4.0363-15.422-1.2454-9.1409 4.3378-22.547-12.342-20.48-32.555-0.64801 1.6289 1.513-1.4047 1.7223 1.049 0.41538 4.8713 1.5758 7.5298 3.1588 9.829 1.4097 2.0475 4.6467 4.1703 8.871 2.7044 3.4511-1.1976 6.4194-7.0998 7.2847-12.252 0.15515-2.4178 0.16495-2.5128 0.045898-5.2817h6.1e-5z" fill="url(#e)"/>
  <path d="m591.85 474.26c-0.55017 5.9716-5.5867 10.745-11.664 10.612-6.4442-0.14127-11.674-5.5299-11.674-12.028 0-6.4983 5.2301-11.658 11.674-11.516 5.9363 0.13016 10.842 4.7131 11.579 10.514" fill="url(#c)"/>
 </g>
 <g fill="#fff" fill-opacity=".617" stroke-width="3.9">
  <path d="m584.61 458.37a9.0393 6.7819 0 1 1 -18.079 15.579 9.0393 6.7819 0 1 1 18.079 -15.579z" filter="url(#b)" opacity=".607"/>
  <path d="m553 517.05a16.296 14.08 0 1 1 -32.592 32.344 16.296 14.08 0 1 1 32.592 -32.344z" filter="url(#b)" opacity=".926"/>
 </g>
 <g fill="#76705a">
  <path d="m1087.3 392.18s0.095947 2.7728 0.84522 3.1941c1.3354 0.75076 2.6035 0.3042 4.6758 0.13571 2.9561-0.24039 22.414-1.5858 24.159-1.7286 1.7446-0.14273 2.6793-1.2214 2.667-3.7723l-0.135-0.1336-32.212 2.3047z"/>
  <path d="m1087.9 401.52s0.095947 2.7728 0.84522 3.1941c1.3354 0.75073 2.6035 0.3042 4.6758 0.13571 2.9561-0.24039 22.414-1.5858 24.159-1.7286 1.7446-0.14273 2.6793-1.2214 2.667-3.7723l-0.135-0.1336-32.212 2.3047z"/>
  <path d="m1091.5 418.66s0.095947 2.7728 0.84522 3.1941c1.3354 0.75076 2.6035 0.3042 4.6758 0.13571 2.9561-0.24039 22.414-1.5858 24.159-1.7286 1.7446-0.14276 2.6793-1.2214 2.667-3.7723l-0.135-0.1336-32.212 2.3047z"/>
  <path d="m1092 428s0.095947 2.7728 0.84522 3.1941c1.3354 0.75076 2.6035 0.3042 4.6758 0.13571 2.9561-0.24039 22.414-1.5858 24.159-1.7286 1.7446-0.14273 2.6793-1.2214 2.667-3.7723l-0.135-0.1336-32.212 2.3047z"/>
 </g>
 <path d="m590.45 477.44a2.6781 2.0093 0 1 1 -5.3562 4.6157 2.6781 2.0093 0 1 1 5.3562 -4.6157z" fill="#fff" fill-opacity=".617" filter="url(#b)" opacity=".668" stroke-width="3.9"/>
</svg>
