<?xml version="1.0" encoding="UTF-8"?>
<svg width="386.93" height="332.82" fill-rule="evenodd" viewBox="0 0 309.543 266.258" xmlns="http://www.w3.org/2000/svg">
 <path d="m197.68 71.716 14.461 10.918-116.45 125.38-14.695-9.979 116.68-126.32z" fill="#ed801f" stroke="#2c2c2b" stroke-width=".17282"/>
 <path d="m157.94 176.15h-31.968v44.378h37.451l7.096-17.369-12.579-27.009z" fill="#ed801f" stroke="#2c2c2b" stroke-width=".17282"/>
 <path d="m114.67 220.6v5.087h39.457v-5.087h-39.457z" fill="#2c2c2b"/>
 <path d="m1.4239 224.52h49.103v22.322h-49.103v-22.322z" fill="#2c2c2b"/>
 <path d="m24.566 190.22h16.749c4.5679 0.271 6.5643 1.895 5.9891 4.872v38.879c-11.199-4.299-21.42-2.708-30.453 5.989h-16.648v-18.272c3.8372-9.285 8.3714-18.57 13.835-27.851 1.8832-2.154 5.3927-3.36 10.527-3.617z" fill="#ed801f" stroke="#2c2c2b" stroke-width=".17282"/>
 <path d="m48.338 242.73h156.5v-6.106h-17.098v-1.92h19.715v-6.106h-159.12v14.132z" fill="#2c2c2b"/>
 <path d="m243.55 109.64h66v15.762h-66v-15.762z" fill="#9fdcf5" stroke="#2c2c2b" stroke-width=".40008"/>
 <path d="m35.076 235.59c8.4443 0 15.332 6.888 15.332 15.332 0 8.445-6.8879 15.333-15.332 15.333s-15.332-6.888-15.332-15.333 6.8879-15.332 15.332-15.332z" fill="#2c2c2b"/>
 <path d="m35.076 243.32c-4.1809 0-7.591 3.778-7.591 8.41s3.4101 8.41 7.591 8.41 7.591-3.778 7.591-8.41-3.4101-8.41-7.591-8.41z" fill="#868889"/>
 <path d="m35.076 243.32c4.1809 0 7.591 3.41 7.591 7.591s-3.4101 7.591-7.591 7.591-7.591-3.41-7.591-7.591 3.4101-7.591 7.591-7.591z" fill="#c5c5c7"/>
 <path d="m35.076 248.16c1.5195 0 2.7588 1.239 2.7588 2.758s-1.2393 2.759-2.7588 2.759-2.7587-1.239-2.7587-2.759 1.2392-2.758 2.7587-2.758z" fill="#2c2c2b"/>
 <path d="m35.0257,235.704c-8.2803,0-15.0414,6.354-15.0414,14.134 0,.235.0072.467.0197.699 .3916-6.753 6.9912-12.16 15.0217-12.16s14.63,5.407 15.0216,12.16c.0125-.232.0197-.464.0197-.699 0-7.78-6.7611-14.134-15.0413-14.134z" fill="#454545"/>
 <path d="m145.34 235.59c8.444 0 15.332 6.888 15.332 15.332 0 8.445-6.888 15.333-15.332 15.333s-15.332-6.888-15.332-15.333 6.888-15.332 15.332-15.332z" fill="#2c2c2b"/>
 <path d="m145.34 243.32c-4.181 0-7.591 3.778-7.591 8.41s3.41 8.41 7.591 8.41 7.591-3.778 7.591-8.41-3.41-8.41-7.591-8.41z" fill="#868889"/>
 <path d="m145.34 243.32c4.181 0 7.591 3.41 7.591 7.591s-3.41 7.591-7.591 7.591-7.591-3.41-7.591-7.591 3.41-7.591 7.591-7.591z" fill="#c5c5c7"/>
 <path d="m145.34 248.16c1.52 0 2.759 1.239 2.759 2.758s-1.239 2.759-2.759 2.759-2.759-1.239-2.759-2.759 1.24-2.758 2.759-2.758z" fill="#2c2c2b"/>
 <path d="m145.288,235.704c-8.28,0-15.041,6.354-15.041,14.134 0,.235.007.467.02.699 .391-6.753 6.991-12.16 15.021-12.16s14.63,5.407 15.022,12.16c.012-.232.02-.464.02-.699 0-7.78-6.761-14.134-15.042-14.134z" fill="#454545"/>
 <path d="m59.437 261.88h15.579c1.5776 0 2.8665 0.986 2.8665 2.191v2.191h-21.312v-2.191c0-1.205 1.289-2.191 2.8666-2.191z" fill="#ed801f" stroke="#2c2c2b" stroke-width=".17282"/>
 <path d="m65.998 258.1h2.4574v3.598h-2.4574v-3.598z" fill="#8e522c" stroke="#2c2c2b" stroke-width=".17282"/>
 <path d="m58.611 244.76h24.837v-12.112h-24.837v12.112z" fill="#ed801f" stroke="#2c2c2b" stroke-width=".17282"/>
 <path d="m92.384 244.52-22.349 12.365v-7.908l16.141-13.729 6.3549-0.149-0.147 9.421z" fill="#ed801f" stroke="#2c2c2b" stroke-width=".17282"/>
 <path d="m64.418 258.1h5.6168v-18.08h-5.6168v18.08z" fill="#ed801f" stroke="#2c2c2b" stroke-width=".17282"/>
 <path d="m92.3125,235.247-22.2187,16.594 .125.156 22.2187-16.593-.125-.157z" fill="#2c2c2b"/>
 <path d="m74.25,249.216-.1875.125 2.4687,4.063 .1876-.125-2.4688-4.063z" fill="#2c2c2b"/>
 <path d="m78.3125,246.185-.1875.125 2.6562,4.625 .1876-.125-2.6563-4.625z" fill="#2c2c2b"/>
 <path d="m81.9375,243.154-.1875.125 3.4688,5.312 .1562-.125-3.4375-5.312z" fill="#2c2c2b"/>
 <path d="m86.0625,240.31-.1875.125 3.875,5.312 .1875-.125-3.875-5.312z" fill="#2c2c2b"/>
 <path d="m70.5625,252.122-.1875.094 1.5938,3.594 .1874-.094-1.5937-3.594z" fill="#2c2c2b"/>
 <path d="m205.9 261.88h-15.578c-1.578 0-2.867 0.986-2.867 2.191v2.191h21.312v-2.191c0-1.205-1.289-2.191-2.867-2.191z" fill="#ed801f" stroke="#2c2c2b" stroke-width=".17282"/>
 <path d="m199.34 258.1h-2.457v3.598h2.457v-3.598z" fill="#8e522c" stroke="#2c2c2b" stroke-width=".17282"/>
 <path d="m172.955,244.52 22.349,12.365v-7.908l-16.141-13.729-6.355-.149 .147,9.421z" fill="#ed801f" stroke="#2c2c2b" stroke-width=".17282"/>
 <path d="m200.92 258.1h-5.617v-18.08h5.617v18.08z" fill="#ed801f" stroke="#2c2c2b" stroke-width=".17282"/>
 <path d="m173.031,235.247-.125.157 22.219,16.593 .125-.156-22.219-16.594z" fill="#2c2c2b"/>
 <path d="m191.094,249.216-2.469,4.063 .187.125 2.469-4.063-.187-.125z" fill="#2c2c2b"/>
 <path d="m187.031,246.185-2.656,4.625 .187.125 2.657-4.625-.188-.125z" fill="#2c2c2b"/>
 <path d="m183.406,243.154-3.437,5.312 .156.125 3.469-5.312-.188-.125z" fill="#2c2c2b"/>
 <path d="m179.281,240.31-3.875,5.312 .188.125 3.875-5.312-.188-.125z" fill="#2c2c2b"/>
 <path d="m194.781,252.122-1.593,3.594 .187.094 1.594-3.594-.188-.094z" fill="#2c2c2b"/>
 <path d="m48.338 225.11h159.12v3.489h-159.12v-3.489z" fill="#737476" stroke="#2c2c2b" stroke-width=".17282"/>
 <path d="m93.177 234.35h29.311v3.489h-29.311v-3.489z" fill="#737476" stroke="#2c2c2b" stroke-width=".17282"/>
 <path d="m123.45 243.6 1e-3 -13.608h2.18v13.608h-2.181z" fill="#737476" stroke="#2c2c2b" stroke-width=".17282"/>
 <path d="m123.45 243.6 1e-3 13.609h2.18v-13.609h-2.181z" fill="#2c2c2b"/>
 <path d="m165.49 243.6 1e-3 -13.608h2.18v13.608h-2.181z" fill="#737476" stroke="#2c2c2b" stroke-width=".17282"/>
 <path d="m165.49 243.6 1e-3 13.609h2.18v-13.609h-2.181z" fill="#2c2c2b"/>
 <path d="m6.3e-4 241.99 3.8732 0.101c-0.00211 1.497-0.00318 2.994-0.00425 4.491l7.5784-0.117c3.8637-10.155 10.706-16.114 20.528-17.874h13.095v5.887c-7.6926-1.07-14.277-1.233-19.569 1.419-8.254 4.138-12.609 12.656-13.218 16.244h-12.283v-10.151z" fill="#ed801f" stroke="#2c2c2b" stroke-width=".17282"/>
 <path d="m21.216 199.56h18.779v16.343h-18.779v-16.343z" fill="#fff" stroke="#2c2c2b" stroke-width=".17282"/>
 <path d="m21.216 199.56h-4.0604l-7.0041 16.343h11.064v-16.343z" fill="#fff" stroke="#2c2c2b" stroke-width=".17282"/>
 <path d="m0.90625 220.47v0.219h46.125v-0.219h-46.125z" fill="#2c2c2b"/>
 <path d="m6.78125,220.56v19.187h.21875v-19.187h-.21875z" fill="#2c2c2b"/>
 <path d="m12.594 195.59v0.219h34.719v-0.219h-34.719z" fill="#2c2c2b"/>
 <path d="m54.647 242.65 0.0011 14.562h2.1803v-14.562h-2.1814z" fill="#2c2c2b"/>
 <path d="m130.3 184.57h9.952v16.343h-9.952v-16.343z" fill="#fff" stroke="#2c2c2b" stroke-width=".17282"/>
 <path d="m143.7 184.57h10.762l7.284 16.343h-18.046v-16.343z" fill="#fff" stroke="#2c2c2b" stroke-width=".17282"/>
 <path d="m71.819 195.07h54.151v25.454h-54.151v-25.454z" fill="#ed801f" stroke="#2c2c2b" stroke-width=".17282"/>
 <path d="m125.97 180.12v0.188h34.156v-0.188h-34.156z" fill="#2c2c2b"/>
 <path d="m256.24 12.748 8.999 6.6136-55.755 61.186-9.344-7.1016 56.1-60.698z" fill="#ed801f" stroke="#2c2c2b" stroke-width=".17282"/>
 <path d="m256.24 12.748 8.999 6.6136 11.584 3.5201 6.12-6.9641-19.101-15.92-9.835 9.569 2.233 3.1818z" fill="#ed801f" stroke="#2c2c2b" stroke-width=".17282"/>
 <path d="m259.98 3.6796h8.11l2.844 2.2904h-13.283l2.329-2.2904z" fill="#2c2c2b"/>
 <path d="m254.8 8.9624h19.715l2.798 2.2903h-22.186l-0.988-1.4148 0.661-0.87549z" fill="#2c2c2b"/>
 <path d="m257.97 13.87h22.326l2.657 2.2903h-21.906l-3.077-2.2903z" fill="#2c2c2b"/>
 <path d="m265.57 19.152h14.681l-2.376 2.2903h-5.592l-6.713-2.2903z" fill="#2c2c2b"/>
 <path d="m275.08 58.489 7.15-0.0373 3.438-15.164-14.242-0.2012 3.654 15.402z" fill="#ed801f" stroke="#2c2c2b" stroke-width=".17282"/>
 <path d="m274.57 43.201 8.461 10.196-0.571 2.8678-10.454-13.125 2.564 0.0615z" fill="#2c2c2b"/>
 <path d="m280.215,43.2014 4.179,5.2835-.374,2.2355-6.368-7.5805 2.563.0615z" fill="#2c2c2b"/>
 <path d="m273.16 48.698 7.975 9.7101-2.419-0.0025-4.568-5.732-0.988-3.9756z" fill="#2c2c2b"/>
 <path d="m274.406,22.216v20.875h.219v-20.875h-.219z" fill="#2c2c2b"/>
 <path d="m282.81 16.185v26.906h0.219v-26.906h-0.219z" fill="#2c2c2b"/>
 <path d="m277.09,58.6525h2.251v4.2612c2.985.1364 4.159,3.3086 4.131,4.9486-.051,3.0379-2.454,4.6779-5.256,4.6779-3.241,0-5.079-2.9787-6.027-6.6129 .677-.2146 1.458-.1184 1.665.2939 .942,2.0631 2.38,3.1246 4.143,3.2177 .806-.0666 2.087-.2601 2.102-1.8356 .016-1.5037-.315-2.7429-3.009-2.7101v-6.2407z" fill="#2c2c2b"/>
 <path d="m280.094,70.841-.188.125 25.719,39.094 .187-.125-25.718-39.094z" fill="#2c2c2b"/>
 <path d="m276.812,70.841-27.687,39.094 .187.125 27.657-39.094-.157-.125z" fill="#2c2c2b"/>
 <path d="m149.84 150.11c5.65 6.477 4.01 6.856 3.276 7.928-0.743 1.087-1.122 1.827-8.974-2.284l5.698-5.644z" fill="#ed801f" stroke="#2c2c2b" stroke-width=".17282"/>
 <path d="m138.28 175.83c2.051-5.439 3.776-4.957 5.496-5.026s2.805-0.316 5.003 5.05l-10.499-0.024z" fill="#ed801f" stroke="#2c2c2b" stroke-width=".17282"/>
 <path d="m148.04 157.49 2.613 1.116-5.077 12.324-3.29 0.097 5.754-13.537z" fill="#ce6c2a" stroke="#2c2c2b" stroke-width=".17282"/>
</svg>
