<?xml version="1.0" encoding="UTF-8"?>
<svg viewBox="0 0 756.27722 549.66852" xmlns="http://www.w3.org/2000/svg">
 <g transform="translate(-88.915 -120.6)">
  <path d="m465.83 426.07 57.116 15.304v42.074l-53.308 14.284-3.8086-71.662z"/>
  <g transform="translate(-47.493 88.858)">
   <path d="m268.11 404.31-35.237-105.71-16.852 1.532 13.788-19.916h-24.513l16.852-24.513-15.32 1.532-21.449-65.878" fill="none" stroke="#000" stroke-width="2.5"/>
   <path transform="translate(76.602 65.878)" d="m119.5 124.71c0 6.3426-5.1476 11.49-11.49 11.49s-11.49-5.1476-11.49-11.49 5.1476-11.49 11.49-11.49 11.49 5.1476 11.49 11.49z"/>
  </g>
  <g transform="matrix(1.7217 .16658 -.16658 1.7217 -338.72 -517.03)">
   <path transform="matrix(.26403 0 0 .26403 516.23 306.47)" d="m571.84 424.91c0 40.041-32.497 72.538-72.538 72.538s-72.538-32.497-72.538-72.538 32.497-72.538 72.538-72.538 72.538 32.497 72.538 72.538z" fill="#241f1c"/>
   <path transform="matrix(.14302 0 0 .14302 574.58 350.82)" d="m571.84 424.91c0 40.041-32.497 72.538-72.538 72.538s-72.538-32.497-72.538-72.538 32.497-72.538 72.538-72.538 72.538 32.497 72.538 72.538z" fill="#ac9d93"/>
   <path transform="matrix(.11551 0 0 .11551 588.31 362.76)" d="m571.84 424.91c0 40.041-32.497 72.538-72.538 72.538s-72.538-32.497-72.538-72.538 32.497-72.538 72.538-72.538 72.538 32.497 72.538 72.538z" fill="#e3dedb"/>
   <path d="m659.74 402.92 44.416-7.5832 27.083 55.249-9.2082 11.375-21.666-46.582-34.124 5.4166-6.4999-17.875z" fill="#fc0"/>
   <path d="m637.23 431.37-3.2171 44.944 57.626 21.568 10.423-10.273-48.473-17.022 2.064-34.49-18.423-4.7264z" fill="#fc0"/>
   <path transform="matrix(.49485 0 0 .49485 210.08 268.76)" d="m571.84 424.91c0 40.041-32.497 72.538-72.538 72.538s-72.538-32.497-72.538-72.538 32.497-72.538 72.538-72.538 72.538 32.497 72.538 72.538z" fill="#241f1c"/>
   <path transform="matrix(.26805 0 0 .26805 319.44 351.88)" d="m571.84 424.91c0 40.041-32.497 72.538-72.538 72.538s-72.538-32.497-72.538-72.538 32.497-72.538 72.538-72.538 72.538 32.497 72.538 72.538z" fill="#ac9d93"/>
   <path transform="matrix(.2165 0 0 .2165 345.18 374.27)" d="m571.84 424.91c0 40.041-32.497 72.538-72.538 72.538s-72.538-32.497-72.538-72.538 32.497-72.538 72.538-72.538 72.538 32.497 72.538 72.538z" fill="#e3dedb"/>
   <path transform="matrix(.44167 0 0 .44167 304.8 164.05)" d="m571.84 424.91c0 40.041-32.497 72.538-72.538 72.538s-72.538-32.497-72.538-72.538 32.497-72.538 72.538-72.538 72.538 32.497 72.538 72.538z" fill="#241f1c"/>
   <path transform="matrix(.23924 0 0 .23924 402.4 238.23)" d="m571.84 424.91c0 40.041-32.497 72.538-72.538 72.538s-72.538-32.497-72.538-72.538 32.497-72.538 72.538-72.538 72.538 32.497 72.538 72.538z" fill="#ac9d93"/>
   <path transform="matrix(.19323 0 0 .19323 425.37 258.22)" d="m571.84 424.91c0 40.041-32.497 72.538-72.538 72.538s-72.538-32.497-72.538-72.538 32.497-72.538 72.538-72.538 72.538 32.497 72.538 72.538z" fill="#e3dedb"/>
   <path d="m441.3 447.83 53.194 32.642 39.303-98.496-41.374-23.887-51.124 89.741z" fill="#fc0"/>
   <path d="m553.08 332.59-10.958 48.104 90.413 46.959 17.253-28.266-96.707-66.798z" fill="#fc0"/>
   <path d="m500.52 362.73-50.362 91.532 9.9491 5.857 51.418-91.178-11.006-6.2107z" fill="#540"/>
   <path d="m515.52 370.92-51.271 93.351 9.9491 5.857 52.328-92.997-11.006-6.2107z" fill="#540"/>
   <path d="m649.34 400.42-100.63-56.272-5.857 9.9491 100.27 57.329 6.2107-11.006z" fill="#540"/>
   <path d="m641.16 415.42-96.533-53.09-5.857 9.9491 96.18 54.146 6.2107-11.006z" fill="#540"/>
  </g>
  <path d="m245.38 400.48h224.14l43.316 145.65-306.9 1.1476 39.438-146.8z" fill="#fc0"/>
  <path d="m597.02 661.83 20.439-0.48213 20.788-21.792-0.54238-22.993-40.684 45.268z" fill="#28170b"/>
  <path d="m634.39 622.1 9.1556-18.28-9.5043-28.578-20.565-10.3 20.913 57.158z" fill="#28170b"/>
  <path d="m606.63 559.34-3.6875-20.109-24.788-17.106-22.623 4.1484 51.098 33.066z" fill="#28170b"/>
  <path d="m135.44 661.83-20.439-0.48213-20.788-21.792 0.54239-22.993 40.684 45.268z" fill="#28170b"/>
  <path d="m98.071 622.1-9.1556-18.28 9.5043-28.578 20.565-10.3-20.913 57.158z" fill="#28170b"/>
  <path d="m125.83 559.34 3.6875-20.109 24.788-17.106 22.623 4.1484-51.098 33.066z" fill="#28170b"/>
  <path d="m127.3 655.82 14.456 14.456h30.117l16.263-16.263-60.837 1.807z" fill="#28170b"/>
  <path d="m544.12 655.82 14.456 14.456h30.117l16.263-16.263-60.837 1.807z" fill="#28170b"/>
  <path d="m180.3 655.82 14.456 14.456h30.117l16.263-16.263-60.837 1.807z" fill="#28170b"/>
  <path d="m256.6 655.82 14.456 14.456h30.117l16.263-16.263-60.837 1.807z" fill="#28170b"/>
  <path d="m330.49 655.82 14.456 14.456h30.117l16.263-16.263-60.837 1.807z" fill="#28170b"/>
  <path d="m401.97 655.82 14.456 14.456h30.117l16.263-16.263-60.837 1.807z" fill="#28170b"/>
  <path d="m477.46 655.82 14.456 14.456h30.117l16.263-16.263-60.837 1.807z" fill="#28170b"/>
  <path d="m528.66 516.94c-117.8 0.78159-235.61-0.22695-353.41 0.5625-30.739 19.498-62.723 42.105-77.438 76.5-7.0674 19.609 1.4388 42.114 17.469 54.438 19.12 16.312 46.228 19.395 70.341 14.927 34.371-1.2382 68.774 0.18568 103.16-0.36499 89.115 0.17578 178.28-0.9109 267.36 0.76754 24.795 4.5612 54.102-0.73703 69.609-22.111 17.638-23.473 13.507-59.849-8.4465-79.124-22.255-22.912-52.206-37.118-82.804-45.314-1.9214-0.30898-3.8955-0.35803-5.8438-0.28125z" fill="#28170b"/>
  <path d="m178.6 527.22s-91.589 53.583-70.099 96.352c21.74 43.267 75.813 29.363 75.813 29.363h368.57s60.636 15.352 72.758-35.275c14.244-59.485-89.901-90.439-89.901-90.439h-357.14z" fill="#520"/>
  <path transform="matrix(.79371 -.29916 .29916 .79371 236.85 365.11)" d="m324.94 404.88c0 29.015-23.548 52.563-52.563 52.563s-52.563-23.548-52.563-52.563 23.548-52.563 52.563-52.563 52.563 23.548 52.563 52.563z" fill="#2b1100"/>
  <path transform="matrix(.79371 -.29916 .29916 .79371 -176.66 367.11)" d="m324.94 404.88c0 29.015-23.548 52.563-52.563 52.563s-52.563-23.548-52.563-52.563 23.548-52.563 52.563-52.563 52.563 23.548 52.563 52.563z" fill="#2b1100"/>
  <path transform="matrix(.84822 0 0 .84822 -6.5274 247.6)" d="m324.94 404.88c0 29.015-23.548 52.563-52.563 52.563s-52.563-23.548-52.563-52.563 23.548-52.563 52.563-52.563 52.563 23.548 52.563 52.563z" fill="#2b1100"/>
  <path d="m160.38 567.78-9.3438 0.75c-1.6151 0.13025-2.7199 2.761-2.4688 5.875l0.53125 6.4375c-1.7694 0.71294-3.4896 1.6166-5.0938 2.7188l-5-4.25c-2.3795-2.0244-5.1376-2.6716-6.1875-1.4375l-6.0625 7.125c-1.0499 1.2341 0.0267 3.8819 2.4062 5.9062l5.3125 4.5312c-0.67883 1.6665-1.1756 3.384-1.5 5.125l-7.125 0.5625c-3.114 0.25114-5.5052 1.7599-5.375 3.375l0.75 9.3438c0.13025 1.6151 2.7297 2.7199 5.8438 2.4688l7.5-0.59375c0.63325 1.5144 1.3915 2.9822 2.3125 4.375l-4.9062 5.7812c-2.0244 2.3795-2.6716 5.1376-1.4375 6.1875l7.1562 6.0625c1.2341 1.0499 3.8506 5e-3 5.875-2.375l5.0312-5.9062c1.492 0.6392 3.0038 1.1173 4.5625 1.4688l0.625 7.7188c0.25114 3.114 1.7599 5.5365 3.375 5.4062l9.3438-0.75c1.6151-0.13025 2.7199-2.761 2.4688-5.875l-0.59375-7.5c1.5619-0.58434 3.0553-1.3353 4.5-2.2188l5.6562 4.8125c2.3795 2.0244 5.1376 2.6716 6.1875 1.4375l6.0938-7.125c1.0499-1.2341-0.0267-3.8819-2.4062-5.9062l-5.375-4.5625c0.77575-1.6477 1.3965-3.3562 1.8125-5.0938l6.875-0.5625c3.114-0.25114 5.5052-1.7599 5.375-3.375l-0.75-9.3438c-0.13025-1.6151-2.761-2.7199-5.875-2.4688l-6.5 0.53125c-0.65085-1.8059-1.4836-3.569-2.5312-5.2188l4.1562-4.875c2.0244-2.3795 2.6404-5.1376 1.4062-6.1875l-7.125-6.0625c-1.2341-1.0499-3.8506-5e-3 -5.875 2.375l-4.0625 4.7812c-1.8449-0.83275-3.7407-1.4564-5.6875-1.8438l-0.5-6.2188c-0.25114-3.114-1.7599-5.5365-3.375-5.4062z" fill="#d45500"/>
  <path transform="matrix(.79371 -.29916 .29916 .79371 -38.378 347.16)" d="m324.94 404.88c0 29.015-23.548 52.563-52.563 52.563s-52.563-23.548-52.563-52.563 23.548-52.563 52.563-52.563 52.563 23.548 52.563 52.563z" fill="#2b1100"/>
  <path transform="matrix(.79371 -.29916 .29916 .79371 29.954 346.76)" d="m324.94 404.88c0 29.015-23.548 52.563-52.563 52.563s-52.563-23.548-52.563-52.563 23.548-52.563 52.563-52.563 52.563 23.548 52.563 52.563z" fill="#2b1100"/>
  <path transform="matrix(.79371 -.29916 .29916 .79371 100.09 348.22)" d="m324.94 404.88c0 29.015-23.548 52.563-52.563 52.563s-52.563-23.548-52.563-52.563 23.548-52.563 52.563-52.563 52.563 23.548 52.563 52.563z" fill="#2b1100"/>
  <path transform="matrix(.79371 -.29916 .29916 .79371 169.35 348.22)" d="m324.94 404.88c0 29.015-23.548 52.563-52.563 52.563s-52.563-23.548-52.563-52.563 23.548-52.563 52.563-52.563 52.563 23.548 52.563 52.563z" fill="#2b1100"/>
  <path d="m162.67 587.19v37.875c8.6457-1.9693 15.094-9.6981 15.094-18.938s-6.4511-16.966-15.094-18.938zm-9.375 0.1875c-8.2755 2.2289-14.375 9.7735-14.375 18.75s6.098 16.522 14.375 18.75v-37.5z" fill="#d4aa00"/>
  <path d="m233.82 554.72-9.3306-0.8992c-1.6129-0.15482-3.1617 2.2416-3.4602 5.3514l-0.60521 6.431c-1.867 0.3918-3.7189 0.97999-5.4914 1.7839l-4.1778-5.0605c-1.9879-2.4101-4.5898-3.5307-5.8398-2.4997l-7.2174 5.9522c-1.25 1.031-0.65405 3.8265 1.3339 6.2366l4.4361 5.3922c-0.96039 1.5217-1.7505 3.1255-2.375 4.7828l-7.1133-0.69493c-3.1098-0.29852-5.7285 0.76782-5.8833 2.3807l-0.8992 9.3306c-0.15483 1.6129 2.2108 3.1562 5.3206 3.4547l7.488 0.7299c0.35803 1.602 0.84729 3.1799 1.5099 4.7126l-5.8435 4.8319c-2.4101 1.9879-3.5307 4.5898-2.4997 5.8398l5.983 7.2229c1.031 1.25 3.7902 0.67978 6.2003-1.3086l5.9885-4.933c1.3569 0.8908 2.7615 1.6265 4.2345 2.2456l-0.73746 7.7088c-0.29851 3.1098 0.76235 5.7592 2.3753 5.9141l9.3306 0.8992c1.6129 0.15483 3.1617-2.2416 3.4602-5.3514l0.7299-7.488c1.6401-0.30156 3.242-0.77918 4.8192-1.3957l4.7253 5.7293c1.9879 2.4101 4.5898 3.5307 5.8398 2.4997l7.2482-5.9467c1.25-1.031 0.65405-3.8265-1.3339-6.2366l-4.4922-5.4339c1.0525-1.4862 1.9631-3.0595 2.6772-4.6972l6.8672 0.65112c3.1098 0.29852 5.7285-0.76782 5.8833-2.3807l0.8992-9.3306c0.15483-1.6129-2.2416-3.1617-5.3514-3.4602l-6.4925-0.61617c-0.32427-1.892-0.83517-3.7738-1.5774-5.5816l4.9463-4.0711c2.4101-1.9879 3.4999-4.5953 2.4689-5.8453l-5.9522-7.2174c-1.031-1.25-3.7902-0.67978-6.2003 1.3086l-4.8376 3.9952c-1.6704-1.1432-3.4275-2.0894-5.2763-2.812l0.59764-6.2101c0.29851-3.1098-0.76235-5.7592-2.3753-5.9141z" fill="#d45500"/>
  <path d="m243.85 589.46-35.682 12.702c4.7547 7.4846 14.198 10.967 22.903 7.8687s13.82-11.767 12.779-20.571zm-3.3207-8.7692c-4.8751-7.0488-14.028-10.265-22.485-7.2544s-13.52 11.286-12.843 19.831l35.328-12.576z" fill="#d4aa00"/>
  <path d="m449.78 551.67-9.1409-2.0766c-1.5802-0.35835-3.4207 1.822-4.1116 4.8688l-1.4168 6.3021c-1.9016 0.15159-3.8132 0.4999-5.6735 1.0723l-3.5014-5.55c-1.6658-2.643-4.1044-4.0849-5.4752-3.2209l-7.9147 4.9877c-1.3708 0.86398-1.1346 3.7125 0.53128 6.3554l3.7156 5.9118c-1.1458 1.3875-2.1332 2.878-2.963 4.4425l-6.9675-1.5924c-3.0468-0.69094-5.7796 0.0343-6.138 1.6145l-2.0766 9.1409c-0.35836 1.5802 1.7922 3.4114 4.839 4.1023l7.3347 1.6747c0.15174 1.6345 0.43671 3.2617 0.8994 4.8661l-6.4097 4.0509c-2.643 1.6658-4.0849 4.1044-3.2209 5.4752l5.0175 7.924c0.86398 1.3708 3.6732 1.1555 6.3163-0.5108l6.5664-4.1328c1.2328 1.0559 2.5327 1.9639 3.9151 2.7651l-1.7102 7.5528c-0.69093 3.0468 0.025 5.8094 1.6052 6.1678l9.1409 2.0766c1.5802 0.35836 3.4207-1.822 4.1116-4.8688l1.6747-7.3347c1.6652-0.0909 3.3147-0.36126 4.9574-0.77257l3.9596 6.2829c1.6658 2.643 4.1044 4.0849 5.4752 3.2209l7.9445-4.9784c1.3708-0.86398 1.1346-3.7125-0.53127-6.3554l-3.7659-5.9603c1.2327-1.3406 2.3357-2.7855 3.2519-4.3193l6.7289 1.5177c3.0468 0.69094 5.7796-0.0343 6.138-1.6145l2.0766-9.1409c0.35835-1.5802-1.822-3.4207-4.8688-4.1116l-6.3617-1.4355c-0.0814-1.9179-0.34928-3.8493-0.85601-5.7367l5.4232-3.4102c2.643-1.6658 4.055-4.1137 3.1911-5.4845l-4.9877-7.9147c-0.86399-1.3708-3.6732-1.1555-6.3163 0.51079l-5.3057 3.3487c-1.5117-1.346-3.1345-2.5077-4.8766-3.4592l1.3813-6.084c0.69093-3.0468-0.025-5.8094-1.6052-6.1678z" fill="#d45500"/>
  <path d="m455.3 586.52-35.682 12.702c4.7547 7.4846 14.198 10.967 22.903 7.8687s13.82-11.767 12.779-20.571zm-3.3207-8.7692c-4.8751-7.0488-14.028-10.265-22.485-7.2544s-13.52 11.286-12.843 19.831l35.328-12.576z" fill="#d4aa00"/>
  <path d="m309.67 551.67-9.1409-2.0766c-1.5802-0.35835-3.4207 1.822-4.1116 4.8688l-1.4168 6.3021c-1.9016 0.15159-3.8132 0.4999-5.6735 1.0723l-3.5014-5.55c-1.6658-2.643-4.1044-4.0849-5.4752-3.2209l-7.9147 4.9877c-1.3708 0.86398-1.1346 3.7125 0.53128 6.3554l3.7156 5.9118c-1.1458 1.3875-2.1332 2.878-2.963 4.4425l-6.9675-1.5924c-3.0468-0.69094-5.7796 0.0343-6.138 1.6145l-2.0766 9.1409c-0.35836 1.5802 1.7922 3.4114 4.839 4.1023l7.3347 1.6747c0.15174 1.6345 0.43671 3.2617 0.8994 4.8661l-6.4097 4.0509c-2.643 1.6658-4.0849 4.1044-3.2209 5.4752l5.0175 7.924c0.86398 1.3708 3.6732 1.1555 6.3163-0.5108l6.5664-4.1328c1.2328 1.0559 2.5327 1.9639 3.9151 2.7651l-1.7102 7.5528c-0.69093 3.0468 0.025 5.8094 1.6052 6.1678l9.1409 2.0766c1.5802 0.35836 3.4207-1.822 4.1116-4.8688l1.6747-7.3347c1.6652-0.0909 3.3147-0.36126 4.9574-0.77257l3.9596 6.2829c1.6658 2.643 4.1044 4.0849 5.4752 3.2209l7.9445-4.9784c1.3708-0.86398 1.1346-3.7125-0.53127-6.3554l-3.7659-5.9603c1.2327-1.3406 2.3357-2.7855 3.2519-4.3193l6.7289 1.5177c3.0468 0.69094 5.7796-0.0343 6.138-1.6145l2.0766-9.1409c0.35835-1.5802-1.822-3.4207-4.8688-4.1116l-6.3617-1.4355c-0.0814-1.9179-0.34928-3.8493-0.85601-5.7367l5.4232-3.4102c2.643-1.6658 4.055-4.1137 3.1911-5.4845l-4.9877-7.9147c-0.86399-1.3708-3.6732-1.1555-6.3163 0.51079l-5.3057 3.3487c-1.5117-1.346-3.1345-2.5077-4.8766-3.4592l1.3813-6.084c0.69093-3.0468-0.025-5.8094-1.6052-6.1678z" fill="#d45500"/>
  <path d="m308.84 602.37-28.822-24.572c-4.1105 7.8569-2.4123 17.778 4.6187 23.772s17.096 6.0979 24.204 0.80002zm5.9396-7.2558c3.6727-7.7436 1.8886-17.28-4.9424-23.104s-16.529-6.0786-23.595-1.2253l28.537 24.329z" fill="#d4aa00"/>
  <path d="m379.36 551.67-9.1409-2.0766c-1.5802-0.35835-3.4207 1.822-4.1116 4.8688l-1.4168 6.3021c-1.9016 0.15159-3.8132 0.4999-5.6735 1.0723l-3.5014-5.55c-1.6658-2.643-4.1044-4.0849-5.4752-3.2209l-7.9147 4.9877c-1.3708 0.86398-1.1346 3.7125 0.53128 6.3554l3.7156 5.9118c-1.1458 1.3875-2.1332 2.878-2.963 4.4425l-6.9675-1.5924c-3.0468-0.69094-5.7796 0.0343-6.138 1.6145l-2.0766 9.1409c-0.35836 1.5802 1.7922 3.4114 4.839 4.1023l7.3347 1.6747c0.15174 1.6345 0.43671 3.2617 0.8994 4.8661l-6.4097 4.0509c-2.643 1.6658-4.0849 4.1044-3.2209 5.4752l5.0175 7.924c0.86398 1.3708 3.6732 1.1555 6.3163-0.5108l6.5664-4.1328c1.2328 1.0559 2.5327 1.9639 3.9151 2.7651l-1.7102 7.5528c-0.69093 3.0468 0.025 5.8094 1.6052 6.1678l9.1409 2.0766c1.5802 0.35836 3.4207-1.822 4.1116-4.8688l1.6747-7.3347c1.6652-0.0909 3.3147-0.36126 4.9574-0.77257l3.9596 6.2829c1.6658 2.643 4.1044 4.0849 5.4752 3.2209l7.9445-4.9784c1.3708-0.86398 1.1346-3.7125-0.53127-6.3554l-3.7659-5.9603c1.2327-1.3406 2.3357-2.7855 3.2519-4.3193l6.7289 1.5177c3.0468 0.69094 5.7796-0.0343 6.138-1.6145l2.0766-9.1409c0.35835-1.5802-1.822-3.4207-4.8688-4.1116l-6.3617-1.4355c-0.0814-1.9179-0.34928-3.8493-0.85601-5.7367l5.4232-3.4102c2.643-1.6658 4.055-4.1137 3.1911-5.4845l-4.9877-7.9147c-0.86399-1.3708-3.6732-1.1555-6.3163 0.51079l-5.3057 3.3487c-1.5117-1.346-3.1345-2.5077-4.8766-3.4592l1.3813-6.084c0.69093-3.0468-0.025-5.8094-1.6052-6.1678z" fill="#d45500"/>
  <path d="m361.55 607.64 0.79623-37.867c-8.6852 1.7871-15.294 9.3787-15.489 18.616s6.093 17.098 14.692 19.251zm9.3769 0.01c8.3205-2.0544 14.577-9.4692 14.766-18.444 0.18873-8.9756-5.7493-16.647-13.978-19.048l-0.78835 37.492z" fill="#d4aa00"/>
  <path d="m518.73 551.67-9.1409-2.0766c-1.5802-0.35835-3.4207 1.822-4.1116 4.8688l-1.4168 6.3021c-1.9016 0.15159-3.8132 0.4999-5.6735 1.0723l-3.5014-5.55c-1.6658-2.643-4.1044-4.0849-5.4752-3.2209l-7.9147 4.9877c-1.3708 0.86398-1.1346 3.7125 0.53128 6.3554l3.7156 5.9118c-1.1458 1.3875-2.1332 2.878-2.963 4.4425l-6.9675-1.5924c-3.0468-0.69094-5.7796 0.0343-6.138 1.6145l-2.0766 9.1409c-0.35836 1.5802 1.7922 3.4114 4.839 4.1023l7.3347 1.6747c0.15174 1.6345 0.43671 3.2617 0.8994 4.8661l-6.4097 4.0509c-2.643 1.6658-4.0849 4.1044-3.2209 5.4752l5.0175 7.924c0.86398 1.3708 3.6732 1.1555 6.3163-0.5108l6.5664-4.1328c1.2328 1.0559 2.5327 1.9639 3.9151 2.7651l-1.7102 7.5528c-0.69093 3.0468 0.025 5.8094 1.6052 6.1678l9.1409 2.0766c1.5802 0.35836 3.4207-1.822 4.1116-4.8688l1.6747-7.3347c1.6652-0.0909 3.3147-0.36126 4.9574-0.77257l3.9596 6.2829c1.6658 2.643 4.1044 4.0849 5.4752 3.2209l7.9445-4.9784c1.3708-0.86398 1.1346-3.7125-0.53127-6.3554l-3.7659-5.9603c1.2327-1.3406 2.3357-2.7855 3.2519-4.3193l6.7289 1.5177c3.0468 0.69094 5.7796-0.0343 6.138-1.6145l2.0766-9.1409c0.35835-1.5802-1.822-3.4207-4.8688-4.1116l-6.3617-1.4355c-0.0814-1.9179-0.34928-3.8493-0.85601-5.7367l5.4232-3.4102c2.643-1.6658 4.055-4.1137 3.1911-5.4845l-4.9877-7.9147c-0.86399-1.3708-3.6732-1.1555-6.3163 0.51079l-5.3057 3.3487c-1.5117-1.346-3.1345-2.5077-4.8766-3.4592l1.3813-6.084c0.69093-3.0468-0.025-5.8094-1.6052-6.1678z" fill="#d45500"/>
  <path d="m500.35 606.17 0.79623-37.867c-8.6852 1.7871-15.294 9.3787-15.489 18.616s6.093 17.098 14.692 19.251zm9.3769 0.01c8.3205-2.0544 14.577-9.4692 14.766-18.444 0.18873-8.9756-5.7493-16.647-13.978-19.048l-0.78835 37.492z" fill="#d4aa00"/>
  <path d="m603.08 578.77-7.273-5.9137c-1.2576-1.0218-3.8739 0.11672-5.8439 2.5414l-4.0638 5.0209c-1.7717-0.70715-3.6396-1.2424-5.5608-1.554l-0.67817-6.527c-0.32153-3.1076-1.8682-5.4811-3.4799-5.3143l-9.3056 0.96207c-1.6117 0.16677-2.6628 2.8248-2.3412 5.9323l0.70975 6.9463c-1.6422 0.73573-3.188 1.6341-4.6254 2.6686l-5.5395-4.5162c-2.4247-1.97-5.1959-2.5315-6.2176-1.2739l-5.9137 7.273c-1.0218 1.2576 0.0941 3.8523 2.5188 5.8223l5.8322 4.7527c-0.58858 1.5324-1.0545 3.1173-1.351 4.7606l-7.5413 0.78955c-3.1075 0.3215-5.4811 1.8681-5.3143 3.4798l0.98465 9.3272c0.16677 1.6117 2.7803 2.6641 5.8881 2.3422l7.718-0.79352c0.637 1.493 1.3995 2.8832 2.2835 4.2142l-4.8813 6.0119c-1.97 2.4247-2.553 5.2184-1.2955 6.2402l7.273 5.9137c1.2576 1.0218 3.8739-0.11673 5.8439-2.5414l4.7527-5.8322c1.5329 0.65671 3.1313 1.1456 4.7862 1.5052l0.76394 7.3871c0.32152 3.1075 1.8682 5.4811 3.4799 5.3143l9.3282-0.94047c1.6117-0.16676 2.6628-2.8248 2.3413-5.9323l-0.73335-7.0121c1.6992-0.65517 3.3285-1.4614 4.8297-2.4301l5.3587 4.3435c2.4247 1.97 5.1958 2.5315 6.2176 1.2739l5.9137-7.273c1.0218-1.2576-0.11674-3.8739-2.5414-5.8439l-5.066-4.107c0.77727-1.7552 1.3934-3.6052 1.7759-5.5217l6.3729-0.65258c3.1075-0.32153 5.4585-1.8897 5.2917-3.5015l-0.96207-9.3056c-0.16677-1.6117-2.7803-2.6641-5.8881-2.3423l-6.2404 0.64959c-0.75832-1.8767-1.6979-3.6374-2.8377-5.2626l3.9353-4.8411c1.97-2.4247 2.553-5.2185 1.2955-6.2402z" fill="#d45500"/>
  <path d="m594.57 610.3-37.875 0.1302c1.999 8.6389 9.75 15.06 18.989 15.029s16.944-6.5094 18.886-15.159zm-0.21936-9.3743c-2.2573-8.2678-9.8229-14.341-18.799-14.31s-16.501 6.1547-18.7 14.439l37.5-0.1289z" fill="#d4aa00"/>
  <path d="m180.3 522.3 14.456-14.456h30.117l16.263 16.263-60.837-1.807z" fill="#28170b"/>
  <path d="m256.6 522.3 14.456-14.456h30.117l16.263 16.263-60.837-1.807z" fill="#28170b"/>
  <path d="m330.49 522.3 14.456-14.456h30.117l16.263 16.263-60.837-1.807z" fill="#28170b"/>
  <path d="m401.97 522.3 14.456-14.456h30.117l16.263 16.263-60.837-1.807z" fill="#28170b"/>
  <path d="m477.46 522.3 14.456-14.456h30.117l16.263 16.263-60.837-1.807z" fill="#28170b"/>
  <g transform="matrix(.80704 0 0 .80704 15.318 96.184)">
   <path d="m300.6 415.69-6.8443 21.674h114.07l-6.8443-26.236 0.66467 21.763-101.57-0.33233 0.52096-16.868z"/>
   <path d="m300.6 446.71-6.8443 21.674h114.07l-6.8443-26.236 0.66467 21.763-101.57-0.33233 0.52096-16.868z"/>
   <path d="m300.6 476.79-6.8443 21.674h114.07l-6.8443-26.236 0.66467 21.763-101.57-0.33234 0.52096-16.868z"/>
  </g>
 </g>
</svg>
