<?xml version="1.0" encoding="UTF-8"?>
<svg viewBox="0 0 744.09448819 1052.3622047" xmlns="http://www.w3.org/2000/svg">
 <g fill="#b3b3b3" stroke="#000">
  <path d="m-284.3 479.18 52.733-146.73 34.391-36.684 637.38-176.54 84.831 73.367-32.098 130.69-502.11 153.61-94.002 4.5855-181.13-2.2927z"/>
  <path d="m-229.27 334.74 135.27 48.147-11.464 96.295"/>
  <path d="m-199.47 298.05 162.78 61.904-29.805 116.93"/>
  <path d="m-282.01 476.89 178.83-89.416"/>
  <path d="m-34.391 359.96 559.43-167.37 2.2927 2.2927-84.831-77.953 25.22 94.002-142.15-59.611-29.805 110.05-155.91-59.611-11.464 105.47-160.49-57.318-2.2927 110.05z"/>
  <path d="m-31.805 362.54 554.84-167.37-34.391 130.69-22.927-110.05-61.904 135.27-103.17-87.124-41.269 130.69-123.81-80.245-48.147 132.98-119.22-84.831z"/>
 </g>
 <path d="m-233.86 334.74 135.27 50.44-4.5854 94.002" fill="none" stroke="#000"/>
 <path transform="matrix(.60751 0 0 .70751 29.689 186.33)" d="m-327.86 284.3a22.927 22.927 0 1 1 -45.855 0 22.927 22.927 0 1 1 45.855 0z" fill="#b3b3b3" stroke="#000"/>
 <path transform="matrix(.60751 0 0 .70751 75.543 241.35)" d="m-327.86 284.3a22.927 22.927 0 1 1 -45.855 0 22.927 22.927 0 1 1 45.855 0z" fill="#b3b3b3" stroke="#000"/>
 <g stroke="#000">
  <g transform="translate(-10.255 88.452)">
   <g fill="#ff2a2a">
    <path d="m-338.57 415.22h254.29a12.857 12.857 0 0 1 12.857 12.857 12.857 12.857 0 0 1 -12.857 12.857h-254.29a12.857 12.857 0 0 1 -12.857 -12.857 12.857 12.857 0 0 1 12.857 -12.857"/>
    <path d="m-334.27 440.96h642.82a25.71 25.71 0 0 1 25.71 25.71v197.11a25.71 25.71 0 0 1 -25.71 25.71h-642.82a25.71 25.71 0 0 1 -25.71 -25.71v-197.11a25.71 25.71 0 0 1 25.71 -25.71" stroke-width="1.0438"/>
    <path d="m-322.86 392.36h220a11.429 11.429 0 0 1 11.429 11.429 11.429 11.429 0 0 1 -11.429 11.429h-220a11.429 11.429 0 0 1 -11.429 -11.429 11.429 11.429 0 0 1 11.429 -11.429"/>
    <path d="m327.14 318.08h357.14a34.286 34.286 0 0 1 34.286 34.286v302.86a34.286 34.286 0 0 1 -34.286 34.286h-357.14a34.286 34.286 0 0 1 -34.286 -34.286v-302.86a34.286 34.286 0 0 1 34.286 -34.286"/>
    <path d="m-347.89 658.49h1060.3a25.302 25.302 0 0 1 25.302 25.302 25.302 25.302 0 0 1 -25.302 25.302h-1060.3a25.302 25.302 0 0 1 -25.302 -25.302 25.302 25.302 0 0 1 25.302 -25.302" stroke-width="1.8239"/>
   </g>
   <g transform="translate(297.62 -51.021)">
    <path d="m182.72 672.37c-48.917 0-88.562 39.646-88.562 88.562 0 0.96339 0.032 1.919 0.0625 2.875h177c0.0305-0.95598 0.0625-1.9116 0.0625-2.875 0-48.917-39.646-88.562-88.562-88.562z" fill="#1a1a1a"/>
    <path transform="matrix(.76424 0 0 .76424 815.95 380.12)" d="m-720 509.51c0 58.384-48.609 105.71-108.57 105.71s-108.57-47.33-108.57-105.71 48.609-105.71 108.57-105.71 108.57 47.33 108.57 105.71z"/>
   </g>
   <g transform="translate(297.62 -51.021)">
    <path d="m-434.42 669.5c-48.917 0-88.562 39.646-88.562 88.562 0 0.9634 0.032 1.9191 0.0625 2.875h177c0.0305-0.9559 0.0625-1.9116 0.0625-2.875 0-48.917-39.646-88.562-88.562-88.562z" fill="#1a1a1a"/>
    <path transform="matrix(.76424 0 0 .76424 198.81 377.26)" d="m-720 509.51c0 58.384-48.609 105.71-108.57 105.71s-108.57-47.33-108.57-105.71 48.609-105.71 108.57-105.71 108.57 47.33 108.57 105.71z"/>
   </g>
   <path d="m603.75 317.66 1.7007 340.14" fill="none"/>
   <path d="m-358.85 470.72 1078.2 1.7007" fill="none"/>
   <path d="m-360.55 525.14h656.47" fill="none"/>
   <path d="m208.95 470.37v52.558" fill="none"/>
   <path d="m138.45 471.01v52.558" fill="none"/>
   <path d="m16.042 473.55v184.65" fill="none" stroke-width="1.8743"/>
   <path d="m78.197 471.01v52.558" fill="none"/>
   <path d="m-120.65 471.01v52.558" fill="none"/>
   <path d="m-42.303 472.3v52.558" fill="none"/>
   <path d="m-217.28 472.85v185.9" fill="none" stroke-width="1.9148"/>
   <path d="m-278.18 470.3v52.558" fill="none"/>
  </g>
  <path d="m329.12 435.76h239.11a15.047 15.047 0 0 1 15.047 15.047v81.432a15.047 15.047 0 0 1 -15.047 15.047h-239.11a15.047 15.047 0 0 1 -15.047 -15.047v-81.432a15.047 15.047 0 0 1 15.047 -15.047" fill="#afe9dd"/>
  <path d="m631.26 434.36h49.029a12.63 12.63 0 0 1 12.63 12.63v87.486a12.63 12.63 0 0 1 -12.63 12.63h-49.029a12.63 12.63 0 0 1 -12.63 -12.63v-87.486a12.63 12.63 0 0 1 12.63 -12.63" fill="#afe9dd" stroke-width="1.0614"/>
  <path d="m283.3 430.63h424.31" fill="none"/>
 </g>
 <path d="m42.114 643.43h206.77a12.63 12.63 0 0 1 12.63 12.63v60.627a12.63 12.63 0 0 1 -12.63 12.63h-206.77a12.63 12.63 0 0 1 -12.63 -12.63v-60.627a12.63 12.63 0 0 1 12.63 -12.63" fill="#d40000" stroke="#000"/>
 <path d="m-336.99 642.62h76.248a12.68 12.68 0 0 1 12.68 12.68v60.865a12.68 12.68 0 0 1 -12.68 12.68h-76.248a12.68 12.68 0 0 1 -12.68 -12.68v-60.865a12.68 12.68 0 0 1 12.68 -12.68" fill="#d40000" stroke="#000" stroke-width=".66305"/>
 <path transform="matrix(.79371 0 0 .79371 40.559 130.26)" d="m276.89 575.49a24.356 24.356 0 1 1 -48.713 0 24.356 24.356 0 1 1 48.713 0z" fill="#d40000" stroke="#000"/>
 <path transform="matrix(.79371 0 0 .79371 -35.441 130.26)" d="m276.89 575.49a24.356 24.356 0 1 1 -48.713 0 24.356 24.356 0 1 1 48.713 0z" fill="#d40000" stroke="#000"/>
 <path transform="matrix(.79371 0 0 .79371 -103.07 130.26)" d="m276.89 575.49a24.356 24.356 0 1 1 -48.713 0 24.356 24.356 0 1 1 48.713 0z" fill="#d40000" stroke="#000"/>
 <path transform="matrix(.79371 0 0 .79371 -165.02 130.26)" d="m276.89 575.49a24.356 24.356 0 1 1 -48.713 0 24.356 24.356 0 1 1 48.713 0z" fill="#d40000" stroke="#000"/>
 <path transform="matrix(.79371 0 0 .79371 -224.55 130.26)" d="m276.89 575.49a24.356 24.356 0 1 1 -48.713 0 24.356 24.356 0 1 1 48.713 0z" fill="#d40000" stroke="#000"/>
 <path transform="matrix(.79371 0 0 .79371 -290.8 130.82)" d="m276.89 575.49a24.356 24.356 0 1 1 -48.713 0 24.356 24.356 0 1 1 48.713 0z" fill="#d40000" stroke="#000"/>
 <path transform="matrix(.79371 0 0 .79371 -378.17 130.26)" d="m276.89 575.49a24.356 24.356 0 1 1 -48.713 0 24.356 24.356 0 1 1 48.713 0z" fill="#d40000" stroke="#000"/>
 <path transform="matrix(.79371 0 0 .79371 -458.63 130.26)" d="m276.89 575.49a24.356 24.356 0 1 1 -48.713 0 24.356 24.356 0 1 1 48.713 0z" fill="#d40000" stroke="#000"/>
 <path transform="matrix(.79371 0 0 .79371 -528.11 130.26)" d="m276.89 575.49a24.356 24.356 0 1 1 -48.713 0 24.356 24.356 0 1 1 48.713 0z" fill="#d40000" stroke="#000"/>
 <path d="m581.95 351.56h78.756a11.118 11.118 0 0 1 11.118 11.118v30.609a11.118 11.118 0 0 1 -11.118 11.118h-78.756a11.118 11.118 0 0 1 -11.118 -11.118v-30.609a11.118 11.118 0 0 1 11.118 -11.118" fill="#00f" stroke="#000" stroke-width=".88818"/>
 <path d="m591.93 341.39h57.672v9.5244h-57.672z" stroke="#000" stroke-width=".64651"/>
 <path d="m589.11 350.84h66.151a11.578 11.578 0 0 1 11.578 11.578v31.76a11.578 11.578 0 0 1 -11.578 11.578h-66.151a11.578 11.578 0 0 1 -11.578 -11.578v-31.76a11.578 11.578 0 0 1 11.578 -11.578" fill="#f00" stroke="#000" stroke-width="1.1087"/>
 <path transform="matrix(.26293 0 0 .74759 796.14 560.28)" d="m-331.59 129.42a52.118 58.843 0 1 1 -1.2934 117.52" fill="#ff0" stroke="#000"/>
</svg>
