<?xml version="1.0" encoding="UTF-8"?>
<svg enable-background="new -34.541 65.61 1989.082 795.768" version="1.1" viewBox="-34.541 65.61 1989.082 795.768" xmlns="http://www.w3.org/2000/svg">
 <g stroke-width=".5">
  <path d="m538.35 132.54c3.69-4.8 6.03-10.54 9.97-15.14 2.49 1.22 4.8 2.86 7.54 3.52 6.82 1.73 13.6 3.64 20.45 5.27-0.45 2.42-1 4.83-1.52 7.23 12.81 0.43 25.63 0.41 38.44 0.79 0.02-3.16 0.04-6.33 0.09-9.49 9.94-0.05 19.89-0.03 29.84-0.03-0.03 3.36-0.03 6.73-0.01 10.09 32.58 0.63 65.16 1.17 97.74 1.94-0.01-1.92 0-3.83 0-5.75 9.96 0 19.93-0.1 29.9 0.05-0.05 2.06-0.07 4.12-0.09 6.19 35.61 0.7 71.23 1.52 106.84 2.01-0.01-1.94 0-3.87 0.01-5.8 9.92-0.07 19.84-0.07 29.77 0 0.07 2.11 0.08 4.22 0.27 6.32 33.76 1.03 67.57 1.33 101.34 2.13 0.01-3.62 0.01-7.25 0.05-10.87 9.96 0.04 19.93 0.01 29.9 0.02 0.01 3.76 0.01 7.51-0.04 11.27 19.85 0.88 39.74 0.63 59.6 1.36 16.18 0.19 32.35 0.69 48.54 0.73-0.08-4.39-0.06-8.78-0.05-13.17 9.97-0.02 19.94-0.01 29.92-0.01 0.02 4.64 0.03 9.28-0.01 13.91 38.62 0.73 77.23 1.55 115.85 2.23 0.09-6.17 0.03-12.34 0.03-18.51 9.95-0.01 19.91 0.04 29.87-0.04 0.18 6.4 0.03 12.8 0.1 19.19 37.4 0.63 74.79 1.49 112.19 2.11 0.24-6.57-0.51-13.25 0.35-19.74 6.72-0.27 13.46 0.02 20.2-0.11 3.62-0.16 7.14 0.86 10.59 1.87 0.28 27.57-0.53 55.14-1.25 82.71-0.24 89.51-0.17 179.02-0.43 268.53 1.48-0.13 3-0.25 4.51-0.38 1.35-52.17 2.91-104.33 4.27-156.51 0.66-15.35 1.17-30.71 2.63-46.01 0.92-8.72 1.66-17.61 4.62-25.93 1.08-2.99 3.32-6.64 7.01-6.2 5.61 1.27 7 7.71 10.97 11.02 4.82 1.27 9.96 0.53 14.93 0.71 16.2-0.11 32.51-0.55 48.57 1.94 1.28-6.25 3.08-12.64 7.28-17.61 3.8-4.82 9.89-8.23 16.17-7.4 6.69 0.79 12.11 5.77 15.24 11.5 3.93 7.04 5.11 15.34 4.25 23.3 10.09 5.85 20.31 11.61 29.43 18.95 4.68 3.67 8.26 8.5 11.8 13.23 1.7 2.18 1.49 5.73-0.99 7.26-4.43 3.03-10.45 3.61-13.98 7.95-2.7 3.57-1.15 8.39 0.2 12.21 4.32 10.99 10.83 20.93 17.11 30.88 1.37-0.33 2.73-0.66 4.15-0.98 0.52-11.51 1.47-23.21 5.36-34.14 1.46-3.63 3.33-8.03 7.51-9.09 3.16-0.6 5.8 1.96 7.24 4.5 2.99 5.18 4.22 11.13 5.33 16.95 2.34 13.54 2.54 27.37 1.65 41.06-0.98 10.51-2.2 21.34-7.05 30.87 4.61-0.16 9.17-1.1 13.79-1.22 22.63 2 45.21 4.83 67.56 9.01 11.65 2.33 23.38 4.86 34.38 9.49 7.23 3.09 14.3 7.94 17.59 15.36 2.7 5.75 2.42 12.26 2.47 18.46-1.27-0.71-3.54-0.36-4-2.02-0.18-3.1-0.03-6.23-0.81-9.27l-0.25-1.37c-0.33-1.63-0.94-3.2-1.53-4.74-1.68-3.17-4.11-5.88-7-7.99-4.42-3.2-9.5-5.29-14.66-6.95-18.52-6.09-37.92-8.91-57.17-11.56-8.97-1.12-17.91-2.53-26.93-3.13-9.18-1.55-18.38 0.14-27.58 0.28-3.41 0.28-6.59-1.04-9.54-2.57-1.57 1.53-3.11 3.08-4.45 4.81-0.84 1.85-1.54 3.76-2 5.74-0.78 4.76-0.74 9.61-0.23 14.4 43.55 5.75 87.17 11.29 130.34 19.55 5.98 1.24 12 2.36 17.89 4.05l0.31 0.09c1.45 0.45 2.98 0.82 4.48 1.26 7.51 1.31 14.73 4.01 21.77 6.9 8.04 3.51 16.04 8.55 20.25 16.53 4.31 8.25 4.53 17.86 4.49 26.96-0.55 17.24-3.34 34.3-6.06 51.3 12.93 11.05 22.71 25.4 29.33 41.01 1.79 4.96 5.9 8.63 7.66 13.62 2.66 7.01 2.99 14.88 0.97 22.1-1.27 3.86-0.56 7.94-0.44 11.91 0.7 15.05 1.02 30.19-0.61 45.2-1.06 7.64-2.42 15.64-6.99 22.06-3.68 5.16-10.03 7.67-16.18 8.05-6.56 0.4-13.11-0.54-19.54-1.64-0.22-2.29-0.44-4.58-0.66-6.84-2.47 6.55-4.25 13.36-7.43 19.63-12.79 27.52-37.87 49.28-67.42 56.77 1.5 0.79 3.2 0.96 4.9 1.15-1.44 0.31-2.9 0.64-4.27 1.02-0.23-0.51-0.67-1.53-0.89-2.04-20.78 5.1-43.18 3.48-62.82-5.08-28.42-12.09-50.18-37.74-58.91-67.22-2.06 0.3-4.12 0.58-6.15 0.87-1.93 4.62-4.57 9.33-9.22 11.67-7.39 3.76-16.27 2.09-23.38-1.53-0.29 2.45 0.2 5.46-1.87 7.27-1.37 1.5-3.5 1.48-5.34 1.51-45.02-0.09-90.04-0.13-135.06-0.18-2.92 0.39-6.19-1.51-6.49-4.58-0.21-3.15-0.43-6.37 0.21-9.47 2.63-5.74 8.2-9.08 12.53-13.39 7.6-7.09 14.88-15.5 16.85-26.04 2.05-11.34-0.99-22.85-4.81-33.49-42.43-0.44-84.85 1.1-127.27 1.68-1.1 0.19-3.66-0.46-3.14 1.58-0.08 19.74-0.02 39.49-0.09 59.23 0.42 3.18-2.51 6.04-5.66 5.6-65.05-0.06-130.1-0.18-195.15-0.24-3.07 0.39-6.12-2.21-5.76-5.38-0.13-18.93 0.18-37.87-0.09-56.8-77.34 1.57-154.69 2.97-232.03 4.46-3.3 0.24-6.57 0.83-9.88 0.77 8.52 26.73 5.75 56.63-7.08 81.53-11.92 23.64-33.09 42.46-58.07 51.28-27.19 9.81-58.45 7.39-83.78-6.54-26.82-14.41-46.53-41.08-52.65-70.88-1.53-7.05-2.14-14.26-2.33-21.46-0.129-3.601-0.267-6.729 0.4-9.69 0.82-6.55 1.98-13.06 3.41-19.51 1.36-4.08 2.88-8.1 4.35-12.14 4.58-11.01 10.85-21.36 18.8-30.27 8.38-10.28 19.76-17.32 30.71-24.5-7.55 0.12-14.81-2.21-22.29-2.74-1.94-0.17-3.85-0.56-5.73-1.01-8.98 0.99-17.89-2.16-26.82-0.65-4.23 0.62-8.47-0.83-12.68 0.01-5.75 1.49-11.79-0.6-17.43 1.69-0.69-0.29-1.37-0.58-2.03-0.85-6.43 1.02-12.88 1.93-19.34 2.78-2.82 0.6-6.44 0.61-8.35 3.02 3.49 3.01 7.71 5.01 11.29 7.91 5.27 4.19 10.3 8.7 14.95 13.58 7.83 9.03 14.07 19.39 18.74 30.39 2.38 5.4 4 11.09 5.54 16.77 1.58 7.98 2.35 16.09 2.44 24.22 0.16 30.31-13.71 60.2-36.71 79.91-15.71 13.84-35.57 23.04-56.43 25.39-22.17 2.7-45.17-2.15-64.36-13.57-27.01-15.81-46.03-44.34-50.3-75.33-1.25-8.12-1.32-16.38-0.74-24.56-2.33 0.64-6.09-0.67-7.3 2.06-3.55 8.42-9.6 16-17.71 20.39-9.05 5.33-22.63 3.07-28.13-6.31-5.69-9.03-5.99-20.41-3.33-30.5-0.2-44.59 6.1-88.88 11.39-133.08-14.58 31.78-28.72 64.09-48.87 92.84-10.58 14.87-23.16 28.82-39.2 37.9-19.78 11.48-42.99 15.21-65.57 15.65-2.89 4.27-5.66 8.63-8.36 13.03-5.99-3.4-11.64-7.36-17.49-10.99 0.19-0.62 0.58-1.86 0.77-2.48-14.14-0.3-28.27-0.92-42.39-1.61-1.47 2.18-3.45 4.23-4.03 6.86-0.27 5.02 0.02 10.07-0.12 15.11-59.54 0.06-119.07-0.34-178.6-0.31-0.1-11.14 0.09-22.27-0.06-33.41 41.47 0.6 82.95 0.13 124.42 0.41l0.07-0.83c0.19-30 0.14-60 0.16-90-24.25 0.33-48.48 1.19-72.73 1.59l0.08-3.28c-0.51-0.28-1.55-0.84-2.07-1.12 0.06-11.22 0.19-22.45-0.02-33.68-8.73 0.76-17.47 1.59-26.23 2 6.05-56.21 12.31-112.39 19.35-168.48 7.32-58.38 14.73-116.75 21.89-175.16 0.47-4.28 0.89-8.63 2.48-12.67 18.4 1.41 36.85 0.87 55.28 0.94-0.07-4.77-0.29-9.58 0.53-14.3 0.49-2.98 1.83-5.78 1.94-8.82 0.25-6.36-0.29-12.74 0.21-19.08 0.2-2.93 2.99-5.21 5.87-5.13 4.04-0.18 8.09 0 12.14-0.07 2.3 0.09 4.92-0.23 6.88 1.24 1.74 1.23 2.07 3.48 2.82 5.32 16-4.34 32.68-5.28 49.17-5.93 53.04-1.64 106.07 1.61 159.1 2.42 20.29 0.52 40.66 0.68 60.86-1.53 7.91-1.11 16.17-2.18 23.15-6.34 3.43-2.87 5.99-6.97 6.55-11.47 4.64-2.72 7.24-7.42 10.21-11.7 1.4-2.31 4.43-4.27 7.07-2.71 3.72 2.18 7.27 4.68 10.64 7.36 1.7 1.24 1.64 3.48 2 5.35 7.15-0.16 14.32 0.78 21.46 0.24m10.96-9.94c-54.74 87.86-109.52 175.69-164.25 263.55-7.65 9.92-13.68 20.96-20.53 31.43-60.7-0.23-121.39-0.1-182.09-0.3-0.02-33.19 0.07-66.38 0.09-99.57 53.27-0.01 106.54 0.13 159.82 0.21 0.97-4.21 2.7-8.2 5.27-11.68-55.02 0.03-110.03-0.19-165.05-0.19-0.01-50.25 0.14-100.49 0.16-150.74-5.82-0.04-11.64-0.05-17.46-0.02-0.23 174.3-0.57 348.59-0.78 522.89 5.88-0.05 11.75-0.05 17.62 0.03 0.09-43.72-0.12-87.45 0.32-131.16 3.62-0.46 7.24-1.07 10.91-0.99 30.53 0.1 61.06 0.09 91.59 0.17-26.87 44.12-54.48 87.78-81.76 131.64-1.48-0.04-2.95-0.08-4.41-0.12 26.34-42.64 53-85.09 79.47-127.66-30.37-0.01-60.73-0.07-91.1-0.13-0.1 42.67 0.08 85.35-0.31 128.02 8.99 0.26 18 0.12 26.99 0.2-0.03 3.44-0.08 6.88-0.1 10.33 106.57-170.66 212.83-341.52 319.4-512.19 1.05 0.57 2.11 1.15 3.18 1.71-13.62 51.54-27.06 103.12-40.63 154.67-1.16 4.32-5 7.14-7.13 10.95-74.56 116.32-149.23 232.56-223.81 348.86 3.66 2.34 7.3 4.72 11.01 7.01 47.48-74.35 95.27-148.52 142.87-222.8 21.33-33.04 42.3-66.33 63.85-99.22-0.28 8.6-3.12 16.78-5.24 25.05-10.52 40.21-21.06 80.42-31.64 120.62 6.95 1.77 13.89 3.58 20.82 5.45 35.01-133.02 69.9-266.08 104.95-399.1-6.98-3.46-15.08-3.48-22.03-6.92m-56.69 13.06c-37.42 54.03-74.84 108.07-112.25 162.11 4.43 1.79 8.27 4.7 11.55 8.15 40.31-58.58 81.07-116.84 121.32-175.46-3.63-2.79-7.45-5.28-11.19-7.91-3.53 4.08-6.28 8.74-9.43 13.11m124.83-7.1c-0.02 130.14 0.09 260.27-0.03 390.41 7.17 0.14 14.35-0.09 21.52 0.13 0.27-21.88 0.12-43.76 0.15-65.63-0.21-108.3 0.06-216.59-0.08-324.89-7.18-0.04-14.37-0.03-21.56-0.02m679.51 4.01c-0.13 18.32-0.08 36.63-0.07 54.94 0.21 108.36-0.08 216.71 0.12 325.06 7.16-0.02 14.32-0.03 21.48-0.01-0.1-12.64 0.17-25.27-0.08-37.9 0.15-23.76 0.06-47.53 0.01-71.29 0.06-48.92 0.07-97.85-0.03-146.76 0.16-17.08 0.09-34.16 0.01-51.24 0.17-24.24 0-48.49 0.03-72.74-7.16 0-14.32 0.08-21.47-0.06m-551.82 2.19c-0.17 76.23 0.05 152.46-0.06 228.69-0.11 51.51 0.29 103.03-0.13 154.53 7.1 1.11 14.36 0.06 21.53 0.5l0.07-0.84c-0.02-12.65 0.01-25.3 0.04-37.95 0.12-32.09 0.05-64.19-0.05-96.29-0.07-41.27-0.06-82.54 0.03-123.82 0.14-21.7 0.06-43.41-0.03-65.11-0.06-19.89 0.03-39.77-0.1-59.66-7.1 0.04-14.2 0.11-21.3-0.05m268.13 0.06c-0.19 10.53-0.06 21.06-0.12 31.58-0.14 30.38-0.05 60.76 0.05 91.14 0.06 42.63 0.07 85.26-0.03 127.89-0.13 22.39-0.09 44.79 0.04 67.18 0.02 20.71 0.04 41.42 0.03 62.13 7.16-0.03 14.31-0.04 21.47-0.01 0.08-65.1-0.06-130.2-0.08-195.3 0.12-61.53 0.12-123.07-0.06-184.6-7.1 0.11-14.2 0.1-21.3-0.01m425.87-0.68c-0.17 126.61-0.33 253.23-0.66 379.84 7.24 0.03 14.48 0.14 21.73-0.02-0.23-14.49 0.01-28.99-0.03-43.49 0.2-112.1 0.15-224.2 0.39-336.3-7.15 0.03-14.29 0-21.43-0.03m-287.98 0.95c0.02 10.43-0.02 20.87-0.03 31.3-0.14 22.06-0.07 44.13 0.04 66.19 0.05 50.95 0.11 101.89-0.02 152.84-0.14 21.73-0.08 43.48 0.04 65.22 0.02 21.43 0.06 42.87 0.04 64.3 7.15-0.03 14.3-0.05 21.46-0.01-0.06-126.61 0-253.23-0.07-379.84-7.16 0.04-14.31 0.02-21.46 0m-638.67 3.35c-39.36 57.03-78.95 113.9-118.29 170.93 4.97 8.65 4.29 20.17-2.06 27.94-8.3 10.86-24.77 13.73-36.49 6.92-8.11-4.4-13.48-13.21-13.58-22.45-51.54 0.01-103.09-0.17-154.63-0.18 0 30.6-0.1 61.2-0.11 91.8 58.68 0.11 117.36 0.08 176.03 0.17 47.96-77.07 96.04-154.08 144.05-231.13 9.34-15.27 19.16-30.26 28.24-45.69-6.78-0.18-13.57 0-20.36-0.28-1.44-0.36-2.11 1.04-2.8 1.97m61.04-0.74c-11.51 43.58-22.83 87.21-34.34 130.79-22.56 85.16-44.73 170.43-67.21 255.62 6.44-0.63 12.91-0.48 19.37-0.46 40.66-0.31 81.29-1.14 121.95-1.33 0.07-53.59 0.26-107.18-0.05-160.76 0.02-74.34 0.35-148.69 0-223.03-13.24-0.43-26.47-0.77-39.72-0.83m308.05-0.31c0.18 126.62-0.01 253.24 0.13 379.86 7.19-0.06 14.39-0.06 21.58-0.02 0.08-29.22 0.07-58.44 0.02-87.65-0.12-97.42 0.05-194.83-0.04-292.24-7.23 0.02-14.47-0.08-21.69 0.05m-238.42 1.74c-0.02 22.81-0.04 45.61-0.1 68.42 0.63 20.64 0.14 41.31 0.25 61.96-0.07 53.67-0.13 107.35-0.22 161.02 0.59 30.49 0.12 61 0.19 91.5 18.05-0.71 36.12-0.41 54.18-0.69 9.29-0.65 18.61 0.19 27.9-0.51 5.2-0.25 10.42 0.06 15.62-0.21-0.16-44.37 0.1-88.75 0.11-133.13-0.73-16.99-0.16-34.02-0.3-51.03 0.08-57.33 0.22-114.67 0.26-172.01-0.51-7.85-0.34-15.71-0.28-23.57-32.54-0.59-65.06-1.43-97.61-1.75m127.46 2.47c0.05 23.64-0.05 47.28-0.09 70.92 0.73 18.65 0.17 37.34 0.3 56-0.07 55.67-0.18 111.33-0.26 166.99 0.56 9.33 0.28 18.67 0.32 28.01-0.05 18.98 0.01 37.96-0.13 56.95 9.5-0.61 19.04 0.17 28.55-0.48 26.03-0.37 52.08-0.35 78.11-0.94 0.48-49.85-0.2-99.7-0.01-149.55 0.03-32 0.07-64 0.12-96 0.21-43.37-0.36-86.73-0.12-130.1-21.34 0.01-42.67-0.99-64.01-1.05-14.26-0.29-28.52-0.89-42.78-0.75m136.74 2.44c-0.08 33.48 0.04 66.96 0.14 100.44-0.05 52.7-0.12 105.39-0.14 158.08 0.07 38.72 0.3 77.43 0.05 116.14 11.64 0.11 23.28-0.37 34.94-0.2 10.99-0.65 22.01 0.09 33-0.65 11.26 0.16 22.5-0.26 33.76-0.36-0.1-22.99 0.06-45.98 0.06-68.97 0.29-11.69-0.55-23.36-0.32-35.04 0.07-53.66 0.16-107.31 0.25-160.96-0.12-15.68 0.41-31.36-0.31-47.02 0.04-19.76 0.08-39.53 0.08-59.29-21.14-0.93-42.31-0.57-63.45-1.5-12.69-0.08-25.38-0.2-38.06-0.67m131.44 2.6c0.04 16.62-0.05 33.24-0.06 49.87-0.21 13.02 0.65 26.02 0.32 39.05-0.06 38.63-0.11 77.27-0.18 115.9 0.11 30.02-0.49 60.05 0.23 90.06-0.01 25.32-0.13 50.64-0.07 75.95 8.42-0.52 16.86-0.54 25.3-0.44 20.69-0.68 41.41-0.25 62.1-0.89 6.88-0.17 13.82 0.52 20.68-0.47-0.25-33.05 0.38-66.12-0.3-99.16 0.08-63.67 0.19-127.33 0.3-191 0.3-9-0.57-17.99-0.33-26.99 0.06-16.63-0.03-33.27 0.13-49.9-36.05-0.4-72.08-1.34-108.12-1.98m137.93 2.79c0.31 23.69-0.48 47.39 0.35 71.07-0.14 68.99-0.22 137.98-0.36 206.97 0.67 12.69 0.24 25.4 0.33 38.11-0.03 16.64-0.04 33.29-0.09 49.94 38.6-0.05 77.16-1.24 115.76-1.05 0.19-25.99 0.09-51.98 0.2-77.97-0.69-26.98-0.16-53.98-0.26-80.98-0.09-53.99 0.56-107.99-0.11-161.97 0.03-14.04 0.02-28.08 0.07-42.12-14.09 0.08-28.16-0.39-42.24-0.78-24.56-0.07-49.09-1.16-73.65-1.22m-712.23 5.61c-14.88 2.44-30.01 2.79-45.07 2.62-38.72 0.29-77.39-1.93-116.1-2.48-18.31-0.47-36.64-0.96-54.96-0.36-20.35 0.63-41.04 0.99-60.77 6.54 0.04 46.94-0.15 93.87-0.11 140.81 54.63 0.01 109.26 0.14 163.89 0.21 6.97-5.59 16.35-7.82 25.08-5.83 33.44-48.16 66.83-96.36 100.13-144.61-3.94 1.37-7.97 2.44-12.09 3.1m857.98-2.92c0.31 21.78-0.43 43.57 0.34 65.34-0.12 69.33-0.2 138.67-0.32 208.01 0.64 12.68 0.19 25.39 0.29 38.08-0.06 16.72 0.05 33.43-0.14 50.14 37.25 0.1 74.49-0.87 111.74-1.08 0.02-119.46 0.28-238.92 0.46-358.38-37.46-0.51-74.91-1.35-112.37-2.11m-794.29 39.37c-102.63 164.71-205.28 329.41-307.99 494.08 14.35 0.99 28.74 0.93 43.08 1.91 69.59-108.47 139.2-216.92 208.78-325.39 4.57-7.37 9.69-14.41 13.63-22.15 2.92-4.59 6.27-9.06 7.42-14.5 11.86-44.6 23.62-89.25 35.08-133.95m-422.92 9.63c-6.62 54.11-13.39 108.2-20.26 162.27-7.89 61.63-14.83 123.38-21.55 185.14 8.61-0.21 17.3-2.45 25.84-0.58 0.12 12.35 0.02 24.7 0 37.04 23.33-0.73 46.67-1.12 70-1.75 0.1-0.41 0.3-1.24 0.4-1.66 0.22-47.06 0.06-94.13 0.33-141.2-5.11 3.98-11.17 7-17.74 7.29-10.96 1-22.5-4.56-27.74-14.4-4.35-7.79-3.78-17.9 1.31-25.21 6.38-9.53 18.83-14.1 29.95-11.79 5.32 0.95 10.13 3.64 14.29 7.03-0.16-67.15 0.22-134.31 0.16-201.46-18.33-0.15-36.69 0.53-54.99-0.72m1468.9 43.12c-5.25 4.62-7.54 11.55-8.7 18.24 11.9 3.42 23.83 6.75 35.75 10.11 0.43-5.75 0.37-11.67-1.55-17.17-1.99-5.99-5.9-11.92-12.02-14.23-4.63-1.8-9.95-0.24-13.48 3.05m-87.57 7.88c-3.03 3.81-3.82 8.73-4.72 13.37-2.48 15.21-3.11 30.64-3.92 46.01-4.2 102.28-1.5 204.73-6.23 307 37.87-0.08 75.74 0.07 113.61 0.02 2.08-0.06 4.21 0.05 6.24 0.7 6.98-20.62 14.43-41.5 26.99-59.48 9.04-13.17 21.6-24.05 36.41-30.21-2.36-27.28-4.18-54.61-6.3-81.91-0.48-9.31-2.54-18.93 0.5-28.02 1.26-4.15 4.41-7.29 7.56-10.1-1.21-5.24-1.22-10.66-2.35-15.91-0.95-6.18-2.97-12.11-4.72-18.1-4.19 0.79-8.52 0.76-12.63-0.38-3-2.8-6.78-4.54-10.02-7 1.68-2.32 3.55-4.78 6.38-5.74 3.36-1.05 6.86 0.11 10.19 0.79-6.61-9.82-12.64-20.15-16.76-31.27-1.63-5.21-3.32-11.24-0.62-16.37 3.32-5.42 9.88-7.21 15.58-8.99-10.25-11.94-22.81-22.17-37.56-27.94-22.88-8.73-47.23-15.35-71.92-13.83-11.92 0.63-23.85 0.72-35.76 1.39-3.01-4.87-5.25-10.49-9.95-14.03m-1123.8 47.95c-7.89 2.18-14.7 8.51-16.68 16.56-2.06 7.46 0.6 15.77 6.16 21.04 7.77 7.69 20.65 9.13 30.1 3.78 6.53-3.58 11.29-10.41 11.84-17.9 0.72-8.06-3.67-16.09-10.44-20.36-6.11-4.03-13.96-5.04-20.98-3.12m1297.7 32.97c-0.85 3.21-2.02 6.45-1.91 9.82-2.32 13.21-2.65 26.88-0.99 40.2-0.35 2.69 0.35 5.36 0.9 7.99-0.02 2.02 0.56 3.99 1.04 5.95 0.32 4.36 1.93 8.63 4.06 12.43 0.64 1.48 2.24 1.91 3.62 2.5 2.08-3.36 4.35-6.88 4.8-10.9 1.14-3.92 1.95-7.92 2.48-11.97 0.33-3.3 1.1-6.61 0.74-9.94 0.86-8.05 0.89-16.22 0.06-24.27 0.32-3.38-0.42-6.76-0.98-10.08 0.03-4.02-1.24-7.91-2.18-11.78-0.86-3.95-2.14-8.73-5.74-11.02-3.74 2.1-5.08 7.09-5.9 11.07m-1541.9 76.85c-4.69 6.69-4.88 16.14-0.46 23.01 4.99 8.14 14.98 12.45 24.36 11.51 6.45-0.5 12.5-3.59 16.99-8.19 0.57-5.87 0.17-11.77 0.29-17.66-0.1-3.84 0.42-7.76-0.53-11.53v-0.16c-4.69-4.23-10.52-7.39-16.92-7.79-9.05-0.85-18.63 3.15-23.73 10.81m347.44 0.2c-59.28 92.49-118.75 184.87-177.92 277.43 12.49-0.52 25.02-1.87 37.08-5.26 15.96-4.33 30.95-12.58 42.67-24.3 14.4-13.78 25.17-30.79 34.97-48 14.17-25.32 25.83-51.93 37.52-78.45 1.59-2.82-0.07-6.09 1.04-9.03 11-41.44 21.67-82.96 32.67-124.41-3.11 3.7-5.32 8.04-8.03 12.02m1186.4 32.24c2.35 28.53 4.46 57.09 6.51 85.65 18.37-6.58 38.16-7.03 57.45-6.28 25.88 1.63 51.51 6.78 76.1 15.01 17.55 6.01 34.82 13.68 49.52 25.18 2-14.43 4.49-28.82 5.33-43.38 0.2-9.31 0.74-19.06-2.82-27.87-3.05-7.57-10.09-12.51-17.21-15.88-12.36-5.61-25.67-8.64-38.87-11.52-44.97-9.18-90.59-14.6-136.01-20.91m-188.01 45.23c-0.14 10.04-0.01 20.08-0.11 30.12-1.78 0.12-3.53 0.24-5.27 0.36-4.72 44.91-8.91 89.88-13.78 134.78 2.5-0.01 5.02-0.02 7.55-0.04 2.08-0.16 4.19-0.28 6.31-0.37 4.06 0.17 8.16 0 12.15-0.9-0.34-0.35-1.03-1.04-1.37-1.39 0.37-3.05 1.23-6.11 0.91-9.19-1-2.78-2.96-5.05-4.24-7.67-1.48-2.68-1.26-5.84-1.34-8.78 0-12.65 0.91-25.27 0.95-37.91-0.08-5.89 0.97-11.83-0.01-17.68 0.17-1.48 0.33-2.96 0.45-4.43 0.52-25.71 1.39-51.4 2-77.11-1.42 0.07-2.82 0.14-4.2 0.21m-90.05 29.9c-295.65 3.56-591.29 6.96-886.94 10.46-5.58 0.04-11.2-0.38-16.72 0.56-0.41 1.73-0.81 3.47-1.22 5.22-7.54-1.55-14.84-4.05-22.36-5.65-1.76 0.7-1.69 3.26-2.22 4.88-2.96 22.81-5.84 45.64-8.29 68.52-2.34 22.71-4.65 45.49-4.67 68.35 2.95-2.73 6.16-5.68 10.34-6.17 4.8-0.79 9.45 1.89 12.51 5.43 9.92 12.37 9.14 31.54-0.63 43.81 10.06-4.31 18.66-13.98 19.22-25.25 2.5-15.78 4.65-32.28 13.18-46.14 4.44-7.26 10.59-13.22 16.36-19.4 14.02-14.18 31.4-24.57 49.45-32.79 35.58-15.87 74.36-23.56 113.09-26.21 47.72-2.74 96.27 1.37 141.9 16.2 25.82 8.55 51.1 20.48 71.52 38.77 13.09 11.85 23.87 27.29 26.67 45.05 53.27-0.9 106.54-1.98 159.81-3.01 25.73-0.66 51.47-0.68 77.19-1.59 0.06-24.69 0.07-49.38 0.12-74.06-0.46-3.25 2.4-6.26 5.69-5.84 65.04 0.01 130.08 0.19 195.11 0.25 3.22-0.44 6.29 2.34 5.87 5.64 0.02 23.39-0.06 46.78-0.06 70.16 23.37-0.31 46.74-1.01 70.12-1.22 6.82-0.71 13.78 0.51 20.52-0.98 2.84-44.93 6.89-89.78 9.71-134.7-6.11 0.27-12.23 0.25-18.26-0.83-19-0.43-38 0.74-57.01 0.54m293.04 12.45c-16.18 4.21-31.22 13.56-41.26 27.04-5.45 6.55-9.96 13.85-13.75 21.47-2.59 5.83-5.92 11.45-7.6 17.62-2.3 5.19-4.69 10.45-5.99 15.96-3 7.25-6.2 14.78-5.12 22.81-1.49 6.17-1.71 12.54-2.56 18.81-0.25 2.7-0.95 5.44-0.42 8.16-2.02 11.79-1.88 23.87-1.38 35.79l0.27 1.65c0.02 0.09 0.05 0.26 0.07 0.34-0.1 5.6 1.34 11.06 2.89 16.39l0.19 0.01c1.65 4.04 3.61 8.26 7.23 10.92 2.51 1.87 4.43 4.56 7.45 5.73 5.69 2.63 12.85 3.57 18.46 0.25 5.19-3.54 6.87-10.12 8.06-15.92 1.13-10.41 1.26-20.9 2.05-31.33 0.29-4.13 0.88-8.26 0.81-12.4l0.22 0.64c0.49-7.6 2.1-15.1 2.72-22.67l0.21 0.53c1.39-7.66 3.62-15.12 5.59-22.62l0.07 0.49c3.43-9.51 8.11-18.54 14.22-26.6l0.37-0.11c4.69-5.86 10.7-10.4 16.69-14.85l0.43 0.03c19.01-11.04 41.39-14.86 63.14-14.39 4.12 0.03 8.24 1.05 12.36 0.48 5.44 1.4 11.08 1.87 16.52 3.33 10.23 2.33 20 6.37 29.18 11.41l0.38 0.05c5.94 3.97 11.54 8.39 16.54 13.5 5.19 5.77 9.12 12.45 12.98 19.14 1.1 3.66 2.98 7.04 4.19 10.67l0.12-0.02c3.33 9.89 5.44 20.13 7.17 30.41 0.24 3.64 0.88 7.26 1.33 10.89 0.01 2.09 0.28 4.17 0.56 6.26l0.19-0.59c0.44 10.47 0.93 20.96 1.85 31.41 0.11 4.36-1.54 9.12 0.61 13.23 6.93 0.38 14.16 1.9 20.9-0.54 4.84-1.68 8.25-6.06 9.83-10.81 2.62-7.69 3.75-15.88 3.78-23.99l0.28-0.38c-0.14-6.02 1.01-12.18-0.04-18.1 0.62-6.22-0.34-12.43-0.07-18.65-3.64 4.59-8.24 9.81-14.71 9.29-5.59 0.26-9.64-4.06-13.12-7.81-2.35-5.13-4.42-10.38-5.29-15.98 0.42-6.32 0.01-12.76 2.16-18.85l0.18 0.08c2.02-5.3 5.09-10.57 10.26-13.33 3.27-1.97 7.25-1.32 10.89-1.14-2.41-4.6-4.66-9.31-7.73-13.51l-0.07-0.43c-2.62-4.18-5.56-8.15-8.96-11.7-5.35-7.06-12.76-12.35-19.9-17.5-9.55-6.46-19.99-11.62-30.81-15.56l-0.1-0.34c-13.8-5.11-27.93-9.56-42.39-12.32-10.36-2.78-21.06-4.09-31.71-5.24-9.06-1.47-18.25-1.21-27.38-1.2-11.15-0.33-22.21 1.65-33.04 4.09m-521.3 52.14c-0.36 36.15-0.17 72.31-0.31 108.46 0.14 10.37-0.37 20.76 0.22 31.12 60.78 0.18 121.56 0.2 182.35 0.34 5.67-0.26 11.48 0.57 17.06-0.38 1.1-3.15 0.22-6.74 0.49-10.04 0.05-42.39 0.17-84.77 0.18-127.16 0.42-1.7-1.22-2.45-2.65-2.21-40.01-0.11-80.03-0.14-120.04-0.22-25.76 0.09-51.54-0.36-77.3 0.09m-380.25 24.9c-12.92 4.53-24.07 12.86-34.17 21.9-10.35 10.92-18.86 23.74-23.85 38-10.81 30.36-5.99 66.15 13.36 92.05 9.8 13.83 23.4 24.68 38.57 32.11 14.56 6.5 30.6 9.79 46.55 8.91 27.73-1.16 54.53-14.95 71.9-36.54 18.03-21.95 25.78-51.87 20.9-79.83-1.98-10.97-5.23-21.95-11.28-31.4-0.26-2.05-1.53-3.77-2.58-5.47-2.81-4.16-5.64-8.34-9.12-11.99-6.07-6.24-12.06-12.69-19.47-17.37-26.11-18.13-61.28-21.97-90.81-10.37m964.94-6c-9.37 1.16-18.61 3.69-27.13 7.78-30.6 14.19-51.1 46.33-53.08 79.74-3.3 36.89 18.98 73.84 52.1 89.76 16.8 8.44 36.25 10.47 54.69 7.63 18.31-3.29 35.46-12.49 48.4-25.85 12.68-12.72 20.25-29.8 23.41-47.32 3.72-21.14 0.47-43.49-9.41-62.57-8.32-16.2-21.35-30.05-37.36-38.82-15.57-8.74-33.89-12.29-51.62-10.35m-1156.1 2.04c-23.45 2.94-45.61 14.86-60.99 32.8-26.11 30.42-30.74 76.92-11.63 112.09 15.17 29.54 46.17 50.34 79.37 52.59 22.37 1.85 45.28-4.38 63.59-17.37 13.19-9.12 23.48-22.03 30.76-36.23 14.89-29.72 13.71-66.78-3.2-95.42-10.01-17.2-25.25-31.27-43.17-39.92-16.94-7.96-36.16-11.09-54.73-8.54m1281.1 8.5c-2.9 2.04-4.6 5.25-5.92 8.44-3.4 8.71-3.07 18.85 1.12 27.23 2.48 4.86 6.77 9.3 12.35 10.25 3.32 0.68 6.76-0.25 9.58-2.07l0.42-0.02c7.08-5.64 10.25-14.96 9.98-23.8-0.06-8.21-3.14-16.98-9.95-21.97-5.2-3.95-13.44-3.06-17.58 1.94m-386.07 11.22c-0.29 2.05-0.22 4.14-0.24 6.21 40.04 0.45 80.07 0.64 120.1 0.91 0.01-2.38 0.02-4.75-0.05-7.12-18.03-0.22-36.06-0.07-54.08-0.14-21.91 0.14-43.84-0.37-65.73 0.14m4.73 11.36c0.97 1.97 1.99 3.95 2.98 5.94 1.53 3.02 2.92 6.11 4.44 9.14 0.33 1.31 0.92 2.54 1.45 3.82 1.07 2.67 2.08 5.37 3.05 8.09 0.64 2.35 1.26 4.72 1.89 7.1 0.35 2.04 0.73 4.1 1.03 6.16 0.08 1.66 0.15 3.34 0.48 5-0.12 2.58-0.57 5.21-0.07 7.79-0.81 3.22-1.53 6.46-2.4 9.66-1 2.28-2.03 4.54-3.06 6.8-1.33 2.06-2.7 4.11-4.09 6.14-2.3 2.66-4.66 5.25-7.01 7.86-0.75 0.68-1.47 1.38-2.17 2.09l-0.08 0.18c-1.53 1.24-3.05 2.49-4.4 3.92-1.16 0.83-2.27 1.76-3.32 2.72 43.48 0.07 86.96 0 130.45 0.06-0.78-1.16-1.55-2.32-2.29-3.45-1.69-3.25-3.05-6.64-4.07-10.14-0.29-1.35-0.68-2.73-0.91-4.04-0.38-2.37-0.74-4.74-1-7.11-0.92-6.24-0.26-12.56-0.86-18.8 0.22-5.01 1.08-10.03 0.81-15.05 0.67-3.85 0.88-7.75 1.19-11.64 0.32-2.73 0.89-5.46 0.83-8.2 0.79-4.62 1.1-9.31 1.87-13.93-38.25 0.03-76.5-0.16-114.74-0.11m-1033.6 32.35l-1.34-0.14c-3.48 2.16-6.79 4.87-8.66 8.61-3.9 6.83-3.49 14.99-2.89 22.56 1.26 6.66 4.92 13.36 11.13 16.54 4.17 2.22 9.49 1.05 12.8-2.19 10.32-9.9 11.19-27.46 3.35-39.1-2.06-2.67-4.55-6-8.17-6.2-0.61-1.9-5.52-1.87-6.22-0.08m-402.58 14.58c0 9.1-0.23 18.19 0.09 27.29 57.44 0.14 114.89 0.37 172.34 0.26 0.19-4.32 0.37-8.67-0.39-12.94 0.24-4.59 0.46-9.19 0.42-13.78-10.72-1.04-21.5-0.26-32.25-0.56-8.33 0.1-16.68-0.28-25 0.43-16.69 0.14-33.37-0.07-50.06 0.06-20.69-0.94-41.43-0.42-62.13-0.4-0.75-0.09-2.26-0.27-3.02-0.36m1420.9 49.48c-0.2 3.1-0.19 6.2-0.08 9.31 45.44 0.24 90.88 0.14 136.31 0.31 1.22-0.16 2.75 0.3 3.84-0.56 0.16-2.93 0.06-5.86-0.04-8.78-46.67-0.33-93.35-0.19-140.03-0.28z" stroke="#000"/>
  <path d="m549.31 122.6c6.95 3.44 15.05 3.46 22.03 6.92-35.05 133.02-69.94 266.08-104.95 399.1-6.93-1.87-13.87-3.68-20.82-5.45 10.58-40.2 21.12-80.41 31.64-120.62 2.12-8.27 4.96-16.45 5.24-25.05-21.55 32.89-42.52 66.18-63.85 99.22-47.6 74.28-95.39 148.45-142.87 222.8-3.71-2.29-7.35-4.67-11.01-7.01 74.58-116.3 149.25-232.54 223.81-348.86 2.13-3.81 5.97-6.63 7.13-10.95 13.57-51.55 27.01-103.13 40.63-154.67-1.07-0.56-2.13-1.14-3.18-1.71-106.57 170.67-212.83 341.53-319.4 512.19 0.02-3.45 0.07-6.89 0.1-10.33-8.99-0.08-18 0.06-26.99-0.2 3.97-0.34 7.96-0.39 11.94-0.23 1.46 0.04 2.93 0.08 4.41 0.12 27.28-43.86 54.89-87.52 81.76-131.64-30.53-0.08-61.06-0.07-91.59-0.17-3.67-0.08-7.29 0.53-10.91 0.99-0.44 43.71-0.23 87.44-0.32 131.16-5.87-0.08-11.74-0.08-17.62-0.03 0.21-174.3 0.55-348.59 0.78-522.89 5.82-0.03 11.64-0.02 17.46 0.02-0.02 50.25-0.17 100.49-0.16 150.74 55.02 0 110.03 0.22 165.05 0.19-2.57 3.48-4.3 7.47-5.27 11.68-53.28-0.08-106.55-0.22-159.82-0.21-0.02 33.19-0.11 66.38-0.09 99.57 60.7 0.2 121.39 0.07 182.09 0.3 6.85-10.47 12.88-21.51 20.53-31.43 54.73-87.86 109.51-175.69 164.25-263.55m-366.83 307.29c-0.18 34.91-0.12 69.83-0.22 104.75 36.64-0.52 73.29 0.04 109.94-0.14 21.47-34.78 42.72-69.7 64.46-104.31-58.06-0.1-116.12-0.15-174.18-0.3z" fill="#F2734D" stroke="#F2734D"/>
  <path d="m492.62 135.66c3.15-4.37 5.9-9.03 9.43-13.11 3.74 2.63 7.56 5.12 11.19 7.91-40.25 58.62-81.01 116.88-121.32 175.46-3.28-3.45-7.12-6.36-11.55-8.15 37.41-54.04 74.83-108.08 112.25-162.11z" fill="#F2734D" stroke="#F2734D"/>
  <path d="m617.45 128.56c7.19-0.01 14.38-0.02 21.56 0.02 0.14 108.3-0.13 216.59 0.08 324.89-0.03 21.87 0.12 43.75-0.15 65.63-7.17-0.22-14.35 0.01-21.52-0.13 0.12-130.14 0.01-260.27 0.03-390.41z" fill="#F2734D" stroke="#F2734D"/>
  <path d="m1297 132.57c7.15 0.14 14.31 0.06 21.47 0.06-0.03 24.25 0.14 48.5-0.03 72.74-0.22 17.08-0.35 34.17-0.01 51.24 0.1 48.91 0.09 97.84 0.03 146.76-0.19 23.76-0.39 47.53-0.01 71.29 0.25 12.63-0.02 25.26 0.08 37.9-7.16-0.02-14.32-0.01-21.48 0.01-0.2-108.35 0.09-216.7-0.12-325.06-0.01-18.31-0.06-36.62 0.07-54.94z" fill="#F2734D" stroke="#F2734D"/>
  <path d="m745.14 134.76c7.1 0.16 14.2 0.09 21.3 0.05 0.13 19.89 0.04 39.77 0.1 59.66-0.04 21.7-0.01 43.41 0.03 65.11-0.09 41.28-0.1 82.55-0.03 123.82-0.01 32.1-0.02 64.19 0.05 96.29-0.03 12.65-0.06 25.3-0.04 37.95-7.2 0.25-14.42-0.35-21.6 0.34 0.42-51.5 0.02-103.02 0.13-154.53 0.11-76.23-0.11-152.46 0.06-228.69m1.43 1.23c-0.47 16.82-0.03 33.64-0.22 50.46 0.06 53.34-0.21 106.68 0.09 160.02-0.09 56.71-0.23 113.43-0.03 170.14 6.31 0.2 12.64 0.37 18.95-0.07 0.24-29.36-0.3-58.72 0.01-88.08 0.02-56.28 0.25-112.56-0.02-168.83-0.19-41.04 0.2-82.09 0.05-123.14-6.27-0.41-12.57 0.01-18.83-0.5z" fill="#FC825A" stroke="#FC825A"/>
  <path d="m1013.3 134.82c7.1 0.11 14.2 0.12 21.3 0.01 0.18 61.53 0.18 123.07 0.06 184.6 0.02 65.1 0.16 130.2 0.08 195.3-7.16-0.03-14.31-0.02-21.47 0.01 0.01-20.71-0.01-41.42-0.03-62.13 0.01-22.39 0-44.79-0.04-67.18 0.1-42.63 0.09-85.26 0.03-127.89 0.01-30.38 0-60.76-0.05-91.14 0.06-10.52-0.07-21.05 0.12-31.58m1.13 1.64c-0.42 18 0.32 35.99 0.04 53.99-0.1 70.69-0.28 141.38 0.02 212.06 0.02 36.96-0.23 73.91-0.06 110.87 6.31 0.32 12.63 0.21 18.95 0.17 0.14-92.02 0.15-184.04 0.04-276.05-0.08-33.7 0.25-67.4-0.06-101.09-6.31-0.18-12.62-0.11-18.93 0.05z" fill="#FC825A" stroke="#FC825A"/>
  <path d="m1439.1 134.14c7.14 0.03 14.28 0.06 21.43 0.03-0.24 112.1-0.19 224.2-0.39 336.3 0.04 14.5-0.2 29 0.03 43.49-7.25 0.16-14.49 0.05-21.73 0.02 0.33-126.61 0.49-253.23 0.66-379.84z" fill="#F2734D" stroke="#F2734D"/>
  <path d="m746.57 135.99c6.26 0.51 12.56 0.09 18.83 0.5 0.15 41.05-0.24 82.1-0.05 123.14 0.27 56.27 0.04 112.55 0.02 168.83-0.31 29.36 0.23 58.72-0.01 88.08-6.31 0.44-12.64 0.27-18.95 0.07-0.2-56.71-0.06-113.43 0.03-170.14-0.3-53.34-0.03-106.68-0.09-160.02 0.19-16.82-0.25-33.64 0.22-50.46z" fill="#F2734D" stroke="#F2734D"/>
  <path d="m1151.2 135.09c7.15 0.02 14.3 0.04 21.46 0 0.07 126.61 0.01 253.23 0.07 379.84-7.16-0.04-14.31-0.02-21.46 0.01 0.02-21.43-0.02-42.87-0.04-64.3 0.02-21.74 0-43.48-0.04-65.22 0.13-50.95 0.07-101.89 0.02-152.84 0.02-22.06 0-44.13-0.04-66.19 0.01-10.43 0.05-20.87 0.03-31.3m1.26 1.36c-0.53 19.66 0.24 39.33-0.05 58.99-0.1 57.71-0.11 115.42-0.11 173.13 0.4 48.3-0.19 96.61 0.1 144.91 6.35 0.31 12.71 0.26 19.06 0.09 0.13-125.7 0.06-251.41 0-377.11-6.34-0.09-12.67-0.17-19-0.01z" fill="#FF845A" stroke="#FF845A"/>
  <path d="m512.49 138.44c0.69-0.93 1.36-2.33 2.8-1.97 6.79 0.28 13.58 0.1 20.36 0.28-9.08 15.43-18.9 30.42-28.24 45.69-48.01 77.05-96.09 154.06-144.05 231.13-58.67-0.09-117.35-0.06-176.03-0.17 0.01-30.6 0.11-61.2 0.11-91.8 51.54 0.01 103.09 0.19 154.63 0.18 0.1 9.24 5.47 18.05 13.58 22.45 11.72 6.81 28.19 3.94 36.49-6.92 6.35-7.77 7.03-19.29 2.06-27.94 39.34-57.03 78.93-113.9 118.29-170.93z" fill="#F14F1B" stroke="#F14F1B"/>
  <path d="m1014.4 136.46c6.31-0.16 12.62-0.23 18.93-0.05 0.31 33.69-0.02 67.39 0.06 101.09 0.11 92.01 0.1 184.03-0.04 276.05-6.32 0.04-12.64 0.15-18.95-0.17-0.17-36.96 0.08-73.91 0.06-110.87-0.3-70.68-0.12-141.37-0.02-212.06 0.28-18-0.46-35.99-0.04-53.99z" fill="#F2734D" stroke="#F2734D"/>
  <path d="m1152.4 136.45c6.33-0.16 12.66-0.08 19 0.01 0.06 125.7 0.13 251.41 0 377.11-6.35 0.17-12.71 0.22-19.06-0.09-0.29-48.3 0.3-96.61-0.1-144.91 0-57.71 0.01-115.42 0.11-173.13 0.29-19.66-0.48-39.33 0.05-58.99z" fill="#F2734D" stroke="#F2734D"/>
  <path d="m573.53 137.7c13.25 0.06 26.48 0.4 39.72 0.83 0.35 74.34 0.02 148.69 0 223.03 0.31 53.58 0.12 107.17 0.05 160.76-40.66 0.19-81.29 1.02-121.95 1.33-6.46-0.02-12.93-0.17-19.37 0.46 22.48-85.19 44.65-170.46 67.21-255.62 11.51-43.58 22.83-87.21 34.34-130.79z" fill="#F14F1B" stroke="#F14F1B"/>
  <path d="m881.58 137.39c7.22-0.13 14.46-0.03 21.69-0.05 0.09 97.41-0.08 194.82 0.04 292.24 0.05 29.21 0.06 58.43-0.02 87.65-7.19-0.04-14.39-0.04-21.58 0.02-0.14-126.62 0.05-253.24-0.13-379.86z" fill="#F2734D" stroke="#F2734D"/>
  <path d="m643.16 139.13c32.55 0.32 65.07 1.16 97.61 1.75-0.06 7.86-0.23 15.72 0.28 23.57-0.04 57.34-0.18 114.68-0.26 172.01 0.14 17.01-0.43 34.04 0.3 51.03-0.01 44.38-0.27 88.76-0.11 133.13-5.2 0.27-10.42-0.04-15.62 0.21-9.29 0.7-18.61-0.14-27.9 0.51-18.06 0.28-36.13-0.02-54.18 0.69-0.07-30.5 0.4-61.01-0.19-91.5 0.09-53.67 0.15-107.35 0.22-161.02-0.11-20.65 0.38-41.32-0.25-61.96 0.06-22.81 0.08-45.61 0.1-68.42z" fill="#F14F1B" stroke="#F14F1B"/>
  <path d="m770.62 141.6c14.26-0.14 28.52 0.46 42.78 0.75 21.34 0.06 42.67 1.06 64.01 1.05-0.24 43.37 0.33 86.73 0.12 130.1-0.05 32-0.09 64-0.12 96-0.19 49.85 0.49 99.7 0.01 149.55-26.03 0.59-52.08 0.57-78.11 0.94-9.51 0.65-19.05-0.13-28.55 0.48 0.14-18.99 0.08-37.97 0.13-56.95-0.04-9.34 0.24-18.68-0.32-28.01 0.08-55.66 0.19-111.32 0.26-166.99-0.13-18.66 0.43-37.35-0.3-56 0.04-23.64 0.14-47.28 0.09-70.92z" fill="#F14F1B" stroke="#F14F1B"/>
  <path d="m907.36 144.04c12.68 0.47 25.37 0.59 38.06 0.67 21.14 0.93 42.31 0.57 63.45 1.5 0 19.76-0.04 39.53-0.08 59.29 0.72 15.66 0.19 31.34 0.31 47.02-0.09 53.65-0.18 107.3-0.25 160.96-0.23 11.68 0.61 23.35 0.32 35.04 0 22.99-0.16 45.98-0.06 68.97-11.26 0.1-22.5 0.52-33.76 0.36-10.99 0.74-22.01 0-33 0.65-11.66-0.17-23.3 0.31-34.94 0.2 0.25-38.71 0.02-77.42-0.05-116.14 0.02-52.69 0.09-105.38 0.14-158.08-0.1-33.48-0.22-66.96-0.14-100.44z" fill="#F14F1B" stroke="#F14F1B"/>
  <path d="m1038.8 146.64c36.04 0.64 72.07 1.58 108.12 1.98-0.16 16.63-0.07 33.27-0.13 49.9-0.24 9 0.63 17.99 0.33 26.99-0.11 63.67-0.22 127.33-0.3 191 0.68 33.04 0.05 66.11 0.3 99.16-6.86 0.99-13.8 0.3-20.68 0.47-20.69 0.64-41.41 0.21-62.1 0.89-8.44-0.1-16.88-0.08-25.3 0.44-0.06-25.31 0.06-50.63 0.07-75.95-0.72-30.01-0.12-60.04-0.23-90.06 0.07-38.63 0.12-77.27 0.18-115.9 0.33-13.03-0.53-26.03-0.32-39.05 0.01-16.63 0.1-33.25 0.06-49.87z" fill="#F14F1B" stroke="#F14F1B"/>
  <path d="m1176.7 149.43c24.56 0.06 49.09 1.15 73.65 1.22 14.08 0.39 28.15 0.86 42.24 0.78-0.05 14.04-0.04 28.08-0.07 42.12 0.67 53.98 0.02 107.98 0.11 161.97 0.1 27-0.43 54 0.26 80.98-0.11 25.99-0.01 51.98-0.2 77.97-38.6-0.19-77.16 1-115.76 1.05 0.05-16.65 0.06-33.3 0.09-49.94-0.09-12.71 0.34-25.42-0.33-38.11 0.14-68.99 0.22-137.98 0.36-206.97-0.83-23.68-0.04-47.38-0.35-71.07z" fill="#F14F1B" stroke="#F14F1B"/>
  <path d="m464.5 155.04c4.12-0.66 8.15-1.73 12.09-3.1-33.3 48.25-66.69 96.45-100.13 144.61-8.73-1.99-18.11 0.24-25.08 5.83-54.63-0.07-109.26-0.2-163.89-0.21-0.04-46.94 0.15-93.87 0.11-140.81 19.73-5.55 40.42-5.91 60.77-6.54 18.32-0.6 36.65-0.11 54.96 0.36 38.71 0.55 77.38 2.77 116.1 2.48 15.06 0.17 30.19-0.18 45.07-2.62z" fill="#F14F1B" stroke="#F14F1B"/>
  <path d="m1322.5 152.12c37.46 0.76 74.91 1.6 112.37 2.11-0.18 119.46-0.44 238.92-0.46 358.38-37.25 0.21-74.49 1.18-111.74 1.08 0.19-16.71 0.08-33.42 0.14-50.14-0.1-12.69 0.35-25.4-0.29-38.08 0.12-69.34 0.2-138.68 0.32-208.01-0.77-21.77-0.03-43.56-0.34-65.34z" fill="#F14F1B" stroke="#F14F1B"/>
  <path d="m1013.2 257.54c-0.1-30.38-0.19-60.76-0.05-91.14 0.05 30.38 0.06 60.76 0.05 91.14z" enable-background="new " fill="#3B3B3B" opacity=".47" stroke="#3B3B3B"/>
  <path d="m1151.2 232.58c-0.11-22.06-0.18-44.13-0.04-66.19 0.04 22.06 0.06 44.13 0.04 66.19z" enable-background="new " fill="#3B3B3B" opacity=".47" stroke="#3B3B3B"/>
  <path d="m528.19 191.49c-11.46 44.7-23.22 89.35-35.08 133.95-1.15 5.44-4.5 9.91-7.42 14.5-3.94 7.74-9.06 14.78-13.63 22.15-69.58 108.47-139.19 216.92-208.78 325.39-14.34-0.98-28.73-0.92-43.08-1.91 102.71-164.67 205.36-329.37 307.99-494.08z" fill="#F14F1B" stroke="#F14F1B"/>
  <path d="m766.54 194.47c0.09 21.7 0.17 43.41 0.03 65.11-0.04-21.7-0.07-43.41-0.03-65.11z" enable-background="new " fill="#3B3B3B" opacity=".47" stroke="#3B3B3B"/>
  <path d="m105.27 201.12c18.3 1.25 36.66 0.57 54.99 0.72 0.06 67.15-0.32 134.31-0.16 201.46-4.16-3.39-8.97-6.08-14.29-7.03-11.12-2.31-23.57 2.26-29.95 11.79-5.09 7.31-5.66 17.42-1.31 25.21 5.24 9.84 16.78 15.4 27.74 14.4 6.57-0.29 12.63-3.31 17.74-7.29-0.27 47.07-0.11 94.14-0.33 141.2-0.1 0.42-0.3 1.25-0.4 1.66-23.33 0.63-46.67 1.02-70 1.75 0.02-12.34 0.12-24.69 0-37.04-8.54-1.87-17.23 0.37-25.84 0.58 6.72-61.76 13.66-123.51 21.55-185.14 6.87-54.07 13.64-108.16 20.26-162.27m12.6 292c-12.78 3.15-23.44 14.94-23.33 28.41-0.12 12.1 8.47 23.11 19.59 27.28 13.21 5.36 29.77 1.57 38.69-9.73 7.01-8.43 8.07-21.19 2.8-30.75-7.05-13.07-23.68-19.13-37.75-15.21z" fill="#F14F1B" stroke="#F14F1B"/>
  <path d="m1318.4 256.61c-0.34-17.07-0.21-34.16 0.01-51.24 0.08 17.08 0.15 34.16-0.01 51.24z" fill="#fff" stroke="#fff"/>
  <path d="m1574.2 244.24c3.53-3.29 8.85-4.85 13.48-3.05 6.12 2.31 10.03 8.24 12.02 14.23 1.92 5.5 1.98 11.42 1.55 17.17-11.92-3.36-23.85-6.69-35.75-10.11 1.16-6.69 3.45-13.62 8.7-18.24z" fill="#FF6A00" stroke="#FF6A00"/>
  <path d="m1486.6 252.12c4.7 3.54 6.94 9.16 9.95 14.03 11.91-0.67 23.84-0.76 35.76-1.39 24.69-1.52 49.04 5.1 71.92 13.83 14.75 5.77 27.31 16 37.56 27.94-5.7 1.78-12.26 3.57-15.58 8.99-2.7 5.13-1.01 11.16 0.62 16.37 4.12 11.12 10.15 21.45 16.76 31.27-3.33-0.68-6.83-1.84-10.19-0.79-2.83 0.96-4.7 3.42-6.38 5.74 3.24 2.46 7.02 4.2 10.02 7 4.11 1.14 8.44 1.17 12.63 0.38 1.75 5.99 3.77 11.92 4.72 18.1 1.13 5.25 1.14 10.67 2.35 15.91-3.15 2.81-6.3 5.95-7.56 10.1-3.04 9.09-0.98 18.71-0.5 28.02 2.12 27.3 3.94 54.63 6.3 81.91-14.81 6.16-27.37 17.04-36.41 30.21-12.56 17.98-20.01 38.86-26.99 59.48-2.03-0.65-4.16-0.76-6.24-0.7-37.87 0.05-75.74-0.1-113.61-0.02 4.73-102.27 2.03-204.72 6.23-307 0.81-15.37 1.44-30.8 3.92-46.01 0.9-4.64 1.69-9.56 4.72-13.37m29.3 61.06c-6.74 1.64-12.08 6.92-14.61 13.26-4.98 12.04-5.8 25.25-6.6 38.11-0.67 9.65 0.63 19.28 0.37 28.93 0.32 11.39 0.47 23.63 6.79 33.58 5.08 7.81 14.13 11.64 22.68 14.33 8.4 2.77 17.33 3.43 25.66 6.41 13.97 4.2 28.49 6.36 43.02 7.4 8.09 0.41 16.48 0.49 24.22-2.23 6.23-2.16 10.82-7.53 13.07-13.61 5.38-12.89 5.88-27.31 3.52-40.94-3.14-18.38-8.21-37-18.97-52.49-4.59-7.19-9.57-14.39-16.42-19.63-9.67-7.82-21.97-11.51-34.14-13.05-10.99-1.59-22.1-0.86-33.14-1.34-5.18-0.14-10.42-0.01-15.45 1.27m-15.26 157.6c-4.64 2.5-2.73 10.22 1.7 11.74 5.59 0.1 10.68-2.92 16.21-3.45 1.53-0.18 3.84-0.5 4.49 1.38 1.12 5.4-2.3 10.48-1.8 15.89 1.69 0.09 3.4 0.13 5.14 0.15 1.75-6.2 4.03-12.44 4.04-18.96 0.21-3.01-2.05-6.01-5.15-6.21-5.93-0.71-11.89 0.76-17.84 0.28-2.31 0.02-4.51-1-6.79-0.82z" fill="#fff" stroke="#fff"/>
  <path d="m362.78 300.07c7.02-1.92 14.87-0.91 20.98 3.12 6.77 4.27 11.16 12.3 10.44 20.36-0.55 7.49-5.31 14.32-11.84 17.9-9.45 5.35-22.33 3.91-30.1-3.78-5.56-5.27-8.22-13.58-6.16-21.04 1.98-8.05 8.79-14.38 16.68-16.56m7.13 18.99c-1.76-0.01-2.94 2.19-1.91 3.62 0.75 1.7 3.47 1.58 4.23-0.08 1.04-1.56-0.63-3.79-2.32-3.54z" fill="#808080" stroke="#808080"/>
  <path d="m1515.9 313.18c5.03-1.28 10.27-1.41 15.45-1.27 11.04 0.48 22.15-0.25 33.14 1.34 12.17 1.54 24.47 5.23 34.14 13.05 6.85 5.24 11.83 12.44 16.42 19.63 10.76 15.49 15.83 34.11 18.97 52.49 2.36 13.63 1.86 28.05-3.52 40.94-2.25 6.08-6.84 11.45-13.07 13.61-7.74 2.72-16.13 2.64-24.22 2.23-14.53-1.04-29.05-3.2-43.02-7.4-8.33-2.98-17.26-3.64-25.66-6.41-8.55-2.69-17.6-6.52-22.68-14.33-6.32-9.95-6.47-22.19-6.79-33.58 0.26-9.65-1.04-19.28-0.37-28.93 0.8-12.86 1.62-26.07 6.6-38.11 2.53-6.34 7.87-11.62 14.61-13.26m0.74 6.64c-3.24 1.86-4.92 5.42-6.34 8.71-3.37 8.59-4.73 17.78-6.2 26.84-2.03 15.61-3.41 31.38-2.69 47.13 0.34 6.33 0.99 12.78 3.3 18.74 0.86 1.9 1.66 4.19 3.73 5.11 7.1 3.51 14.39 6.69 22 8.93 19.92 6.2 39.93 12.89 60.79 14.98 8.84 0.83 18.31 0.78 26.34-3.52 6.41-3.4 10.42-10.28 11.26-17.38 3.33-16.68-0.07-33.74-4.55-49.86-4.37-15.69-11.45-31.2-23.2-42.73-7.15-4.83-14.52-9.79-22.8-12.38-18.75-3.51-37.88-4.28-56.89-5.04-1.6 0.07-3.31-0.29-4.75 0.47z" stroke="#000"/>
  <path d="m369.91 319.06c1.69-0.25 3.36 1.98 2.32 3.54-0.76 1.66-3.48 1.78-4.23 0.08-1.03-1.43 0.15-3.63 1.91-3.62z" fill="#030303" stroke="#030303"/>
  <path d="m1516.7 319.82c1.44-0.76 3.15-0.4 4.75-0.47 19.01 0.76 38.14 1.53 56.89 5.04 8.28 2.59 15.65 7.55 22.8 12.38 11.75 11.53 18.83 27.04 23.2 42.73 4.48 16.12 7.88 33.18 4.55 49.86-0.84 7.1-4.85 13.98-11.26 17.38-8.03 4.3-17.5 4.35-26.34 3.52-20.86-2.09-40.87-8.78-60.79-14.98-7.61-2.24-14.9-5.42-22-8.93-2.07-0.92-2.87-3.21-3.73-5.11-2.31-5.96-2.96-12.41-3.3-18.74-0.72-15.75 0.66-31.52 2.69-47.13 1.47-9.06 2.83-18.25 6.2-26.84 1.42-3.29 3.1-6.85 6.34-8.71z" enable-background="new " fill="#3B3B3B" opacity=".47" stroke="#3B3B3B"/>
  <path d="m766.54 383.4c0.1 32.1 0.17 64.2 0.05 96.29-0.07-32.1-0.06-64.19-0.05-96.29z" enable-background="new " fill="#3B3B3B" opacity=".47" stroke="#3B3B3B"/>
  <path d="m1013.2 452.61c-0.13-22.39-0.17-44.79-0.04-67.18 0.04 22.39 0.05 44.79 0.04 67.18z" enable-background="new " fill="#3B3B3B" opacity=".47" stroke="#3B3B3B"/>
  <path d="m1151.2 450.64c-0.12-21.74-0.18-43.49-0.04-65.22 0.04 21.74 0.06 43.48 0.04 65.22z" enable-background="new " fill="#3B3B3B" opacity=".47" stroke="#3B3B3B"/>
  <radialGradient id="f" cx="1666.2" cy="366.95" r="40.336" gradientUnits="userSpaceOnUse">
   <stop stop-color="#E5E2DF" offset="0"/>
   <stop stop-color="#F1EFEE" offset="0"/>
   <stop stop-color="#fff" offset="0"/>
   <stop stop-color="#F0F0F1" offset=".1259"/>
   <stop stop-color="#C9CACB" offset=".3664"/>
   <stop stop-color="#ADAEB0" offset=".5225"/>
   <stop stop-color="#A3A5A7" offset=".6029"/>
   <stop stop-color="#898D90" offset=".7382"/>
   <stop stop-color="#5F6769" offset=".9108"/>
   <stop stop-color="#465053" offset="1"/>
  </radialGradient>
  <path d="m1675.3 354.85c0.32-3.38-0.42-6.76-0.98-10.08 0.03-4.02-1.24-7.91-2.18-11.78-0.86-3.95-2.14-8.73-5.74-11.02-3.74 2.1-5.08 7.09-5.9 11.07-0.85 3.21-2.02 6.45-1.91 9.82-2.32 13.21-2.65 26.88-0.99 40.2-0.35 2.69 0.35 5.36 0.9 7.99-0.02 2.02 0.56 3.99 1.04 5.95 0.32 4.36 1.93 8.63 4.06 12.43 0.64 1.48 2.24 1.91 3.62 2.5 2.08-3.36 4.35-6.88 4.8-10.9 1.14-3.92 1.95-7.92 2.48-11.97 0.33-3.3 1.1-6.61 0.74-9.94 0.86-8.05 0.89-16.22 0.06-24.27z" fill="url(#f)" stroke="#686868"/>
  <path d="m466.01 410.09c2.71-3.98 4.92-8.32 8.03-12.02-11 41.45-21.67 82.97-32.67 124.41-1.11 2.94 0.55 6.21-1.04 9.03-11.69 26.52-23.35 53.13-37.52 78.45-9.8 17.21-20.57 34.22-34.97 48-11.72 11.72-26.71 19.97-42.67 24.3-12.06 3.39-24.59 4.74-37.08 5.26 59.17-92.56 118.64-184.94 177.92-277.43z" fill="#F14F1B" stroke="#F14F1B"/>
  <path d="m1318.4 474.66c-0.38-23.76-0.18-47.53 0.01-71.29 0.05 23.76 0.14 47.53-0.01 71.29z" fill="#fff" stroke="#fff"/>
  <path d="m159.75 418.56c-0.1-3.84 0.42-7.76-0.53-11.53v-0.16c-4.69-4.23-10.52-7.39-16.92-7.79-9.05-0.85-18.63 3.15-23.73 10.81-4.69 6.69-4.88 16.14-0.46 23.01 4.99 8.14 14.98 12.45 24.36 11.51 6.45-0.5 12.5-3.59 16.99-8.19 0.57-5.87 0.17-11.77 0.29-17.66zm-18.09 4.3c-2.34 2.25-5.63-2.08-2.95-3.78 2.33-2.07 5.52 2.07 2.95 3.78z" fill="#808080" stroke="#808080"/>
  <path d="m138.71 419.08c2.33-2.07 5.52 2.07 2.95 3.78-2.34 2.25-5.63-2.08-2.95-3.78z" stroke="#000"/>
  <linearGradient id="g" x1="1731.4" x2="1726.8" y1="421.08" y2="450" gradientUnits="userSpaceOnUse">
   <stop stop-color="#8A949B" offset="0"/>
   <stop stop-color="#fff" offset=".1629"/>
   <stop stop-color="#437A7F" offset=".767"/>
   <stop stop-color="#64747E" offset="1"/>
  </linearGradient>
  <path d="m1803.5 451.24l-0.25-1.37c-0.33-1.63-0.94-3.2-1.53-4.74-1.68-3.17-4.11-5.88-7-7.99-4.42-3.2-9.5-5.29-14.66-6.95-18.52-6.09-37.92-8.91-57.17-11.56-8.97-1.12-17.91-2.53-26.93-3.13-9.18-1.55-18.38 0.14-27.58 0.28-3.41 0.28-6.59-1.04-9.54-2.57-1.57 1.53-3.11 3.08-4.45 4.81-0.84 1.85-1.54 3.76-2 5.74-0.78 4.76-0.74 9.61-0.23 14.4 43.55 5.75 87.17 11.29 130.34 19.55 5.98 1.24 12 2.36 17.89 4.05 0.77-0.04 2.3-0.11 3.07-0.14 0.87-3.35 0.14-6.95 0.04-10.38z" fill="url(#g)" stroke="#FDFDFD"/>
  <path d="m182.48 429.89c58.06 0.15 116.12 0.2 174.18 0.3-21.74 34.61-42.99 69.53-64.46 104.31-36.65 0.18-73.3-0.38-109.94 0.14 0.1-34.92 0.04-69.84 0.22-104.75m4.93 3.87c-0.25 32.25-0.11 64.5-0.23 96.75 34.4 0 68.81-0.04 103.22 0.06 20.04-32.17 40.13-64.31 60.12-96.51-54.37-0.07-108.74-0.09-163.11-0.3z" stroke="#000"/>
  <path d="m187.41 433.76c54.37 0.21 108.74 0.23 163.11 0.3-19.99 32.2-40.08 64.34-60.12 96.51-34.41-0.1-68.82-0.06-103.22-0.06 0.12-32.25-0.02-64.5 0.23-96.75z" fill="#F14F1B" stroke="#F14F1B"/>
  <path d="m1652.4 442.33c45.42 6.31 91.04 11.73 136.01 20.91 13.2 2.88 26.51 5.91 38.87 11.52 7.12 3.37 14.16 8.31 17.21 15.88 3.56 8.81 3.02 18.56 2.82 27.87-0.84 14.56-3.33 28.95-5.33 43.38-14.7-11.5-31.97-19.17-49.52-25.18-24.59-8.23-50.22-13.38-76.1-15.01-19.29-0.75-39.08-0.3-57.45 6.28-2.05-28.56-4.16-57.12-6.51-85.65z" fill="#fff" stroke="#fff"/>
  <path d="m1500.7 470.78c2.28-0.18 4.48 0.84 6.79 0.82 5.95 0.48 11.91-0.99 17.84-0.28 3.1 0.2 5.36 3.2 5.15 6.21-0.01 6.52-2.29 12.76-4.04 18.96-1.74-0.02-3.45-0.06-5.14-0.15-0.5-5.41 2.92-10.49 1.8-15.89-0.65-1.88-2.96-1.56-4.49-1.38-5.53 0.53-10.62 3.55-16.21 3.45-4.43-1.52-6.34-9.24-1.7-11.74z" stroke="#000"/>
  <path d="m1464.4 487.56c1.38-0.07 2.78-0.14 4.2-0.21-0.61 25.71-1.48 51.4-2 77.11-0.12 1.47-0.28 2.95-0.45 4.43-1.76-7.78-0.19-15.78-1.23-23.63-1.35 19.05-1.89 38.17-3.45 57.22-0.63 16.66-2.34 33.25-2.37 49.93-2.12 0.09-4.23 0.21-6.31 0.37-1.3-7.03 0.13-14.19 0.57-21.23 0.57-20.71 2.74-41.36 3.16-62.05 1.32-5.26 0.06-10.67 0.84-15.99 1.34-11.18 1.72-22.46 3.33-33.61 0.83-0.35 1.69-0.7 2.56-1.03-1.43-0.28-2.84-0.56-4.23-0.83 1.74-0.12 3.49-0.24 5.27-0.36 0.1-10.04-0.03-20.08 0.11-30.12z" fill="#383838" stroke="#383838"/>
  <path d="m117.87 493.12c14.07-3.92 30.7 2.14 37.75 15.21 5.27 9.56 4.21 22.32-2.8 30.75-8.92 11.3-25.48 15.09-38.69 9.73-11.12-4.17-19.71-15.18-19.59-27.28-0.11-13.47 10.55-25.26 23.33-28.41m1.91 2.89c-9.68 2.12-18.39 9.37-21.05 19.08-2.5 8.58 0.37 18.22 6.77 24.35 8.27 8.25 21.43 10.58 32.26 6.55 9.52-3.4 17.3-12.28 17.91-22.58 0.78-8.53-3.53-16.98-10.3-22.04-7.17-5.5-16.82-7.31-25.59-5.36z" stroke="#000"/>
  <path d="m119.78 496.01c8.77-1.95 18.42-0.14 25.59 5.36 6.77 5.06 11.08 13.51 10.3 22.04-0.61 10.3-8.39 19.18-17.91 22.58-10.83 4.03-23.99 1.7-32.26-6.55-6.4-6.13-9.27-15.77-6.77-24.35 2.66-9.71 11.37-16.96 21.05-19.08m6.12 23.06c-1.47 0.07-2.84 1.69-2.23 3.14 0.47 1.69 2.94 2.41 4.08 0.95 1.74-1.39 0.1-4.33-1.85-4.09z" fill="#808080" stroke="#808080"/>
  <path d="m1374.4 517.46c19.01 0.2 38.01-0.97 57.01-0.54 6.03 1.08 12.15 1.1 18.26 0.83-2.82 44.92-6.87 89.77-9.71 134.7-6.74 1.49-13.7 0.27-20.52 0.98-23.38 0.21-46.75 0.91-70.12 1.22 0-23.38 0.08-46.77 0.06-70.16 0.42-3.3-2.65-6.08-5.87-5.64-65.03-0.06-130.07-0.24-195.11-0.25-3.29-0.42-6.15 2.59-5.69 5.84-0.05 24.68-0.06 49.37-0.12 74.06-25.72 0.91-51.46 0.93-77.19 1.59-53.27 1.03-106.54 2.11-159.81 3.01-2.8-17.76-13.58-33.2-26.67-45.05-20.42-18.29-45.7-30.22-71.52-38.77-45.63-14.83-94.18-18.94-141.9-16.2-38.73 2.65-77.51 10.34-113.09 26.21-18.05 8.22-35.43 18.61-49.45 32.79-5.77 6.18-11.92 12.14-16.36 19.4-8.53 13.86-10.68 30.36-13.18 46.14-0.56 11.27-9.16 20.94-19.22 25.25 9.77-12.27 10.55-31.44 0.63-43.81-3.06-3.54-7.71-6.22-12.51-5.43-4.18 0.49-7.39 3.44-10.34 6.17 0.02-22.86 2.33-45.64 4.67-68.35 2.45-22.88 5.33-45.71 8.29-68.52 0.53-1.62 0.46-4.18 2.22-4.88 7.52 1.6 14.82 4.1 22.36 5.65 0.41-1.75 0.81-3.49 1.22-5.22 5.52-0.94 11.14-0.52 16.72-0.56 295.65-3.5 591.29-6.9 886.94-10.46z" fill="#515151" stroke="#515151"/>
  <path d="m744.95 517.98c7.18-0.69 14.4-0.09 21.6-0.34l-0.07 0.84c-7.17-0.44-14.43 0.61-21.53-0.5z" fill="#996C5E" stroke="#996C5E"/>
  <path d="m125.9 519.07c1.95-0.24 3.59 2.7 1.85 4.09-1.14 1.46-3.61 0.74-4.08-0.95-0.61-1.45 0.76-3.07 2.23-3.14z" fill="#030303" stroke="#030303"/>
  <path d="m1445.2 652.82c4.87-44.9 9.06-89.87 13.78-134.78 1.39 0.27 2.8 0.55 4.23 0.83-0.87 0.33-1.73 0.68-2.56 1.03-1.61 11.15-1.99 22.43-3.33 33.61-0.78 5.32 0.48 10.73-0.84 15.99-0.42 20.69-2.59 41.34-3.16 62.05-0.44 7.04-1.87 14.2-0.57 21.23-2.53 0.02-5.05 0.03-7.55 0.04z" fill="#464646" stroke="#464646"/>
  <path d="m1461.5 602.48c1.56-19.05 2.1-38.17 3.45-57.22 1.04 7.85-0.53 15.85 1.23 23.63 0.98 5.85-0.07 11.79 0.01 17.68-0.04 12.64-0.95 25.26-0.95 37.91 0.08 2.94-0.14 6.1 1.34 8.78 1.28 2.62 3.24 4.89 4.24 7.67 0.32 3.08-0.54 6.14-0.91 9.19 0.34 0.35 1.03 1.04 1.37 1.39-3.99 0.9-8.09 1.07-12.15 0.9 0.03-16.68 1.74-33.27 2.37-49.93z" fill="#2A2A2A" stroke="#2A2A2A"/>
  <path d="m187.13 549.96c30.37 0.06 60.73 0.12 91.1 0.13-26.47 42.57-53.13 85.02-79.47 127.66-3.98-0.16-7.97-0.11-11.94 0.23 0.39-42.67 0.21-85.35 0.31-128.02z" fill="#F14F1B" stroke="#F14F1B"/>
  <path d="m1146.1 582.05c25.76-0.45 51.54 0 77.3-0.09 40.01 0.08 80.03 0.11 120.04 0.22 1.43-0.24 3.07 0.51 2.65 2.21-0.01 42.39-0.13 84.77-0.18 127.16-0.27 3.3 0.61 6.89-0.49 10.04-5.58 0.95-11.39 0.12-17.06 0.38-60.79-0.14-121.57-0.16-182.35-0.34-0.59-10.36-0.08-20.75-0.22-31.12 0.14-36.15-0.05-72.31 0.31-108.46m95.75 26.03c-6.79 1.67-12.94 8.49-11.07 15.79 2.25 8.65 12.51 12.62 20.66 10.72 7.17-1.18 14.01-7.96 12.39-15.63-2.07-9.38-13.46-13.45-21.98-10.88z" fill="#FFD800" stroke="#FFD800"/>
  <path d="m765.84 606.95c29.53-11.6 64.7-7.76 90.81 10.37 7.41 4.68 13.4 11.13 19.47 17.37 3.48 3.65 6.31 7.83 9.12 11.99 1.05 1.7 2.32 3.42 2.58 5.47 0.1 1.51 0.12 3.02 0.17 4.54-5.42-9.53-13.76-16.86-22.25-23.58-6.7-4.48-13.15-9.66-21.05-11.88-6.58-1.86-12.87-5.61-19.88-5.25-7.76-1.3-15.49-3.05-23.41-2.64-18.69-0.53-37.18 6.03-52.03 17.21-17.02 12.5-28.67 31.6-33.43 52.06-0.31-0.52-0.92-1.56-1.23-2.07-1.78 8.35-4.05 16.69-4.53 25.25 0.15 13.35 2.09 26.76 6.57 39.37 1.21 4.1 2.92 8.06 5.3 11.63-0.22 0.53-0.65 1.58-0.87 2.11-19.35-25.9-24.17-61.69-13.36-92.05 4.99-14.26 13.5-27.08 23.85-38 10.1-9.04 21.25-17.37 34.17-21.9z" fill="#0E0E0E" stroke="#0E0E0E"/>
  <path d="m1730.8 600.95c17.73-1.94 36.05 1.61 51.62 10.35 16.01 8.77 29.04 22.62 37.36 38.82 9.88 19.08 13.13 41.43 9.41 62.57-3.16 17.52-10.73 34.6-23.41 47.32-12.94 13.36-30.09 22.56-48.4 25.85-18.44 2.84-37.89 0.81-54.69-7.63-33.12-15.92-55.4-52.87-52.1-89.76 1.98-33.41 22.48-65.55 53.08-79.74 8.52-4.09 17.76-6.62 27.13-7.78m-2.02 7.04c-19.99 2.6-38.81 12.62-52.38 27.47-10.66 11.8-18.16 26.47-21.13 42.11-3.85 19.18-0.76 39.56 8.16 56.93 8.03 17.42 21.76 32.3 38.9 41.04 17.96 9.41 39.57 11.56 59.05 5.95 16.07-4.44 30.43-14.14 41.23-26.76 9.08-9.96 16.33-21.71 20.26-34.64 5.83-19.02 5.14-40.09-2.46-58.51-7.23-18.38-21.15-33.95-38.38-43.53-16.08-8.93-35.03-12.54-53.25-10.06z" fill="#242424" stroke="#242424"/>
  <path d="m574.64 602.99c18.57-2.55 37.79 0.58 54.73 8.54 17.92 8.65 33.16 22.72 43.17 39.92 16.91 28.64 18.09 65.7 3.2 95.42-7.28 14.2-17.57 27.11-30.76 36.23-18.31 12.99-41.22 19.22-63.59 17.37-33.2-2.25-64.2-23.05-79.37-52.59-19.11-35.17-14.48-81.67 11.63-112.09 15.38-17.94 37.54-29.86 60.99-32.8m1.15 12.03c-25.15 3.41-48.45 18.33-62.13 39.7-10.99 16.62-15.84 37.09-13.93 56.89 2.69 30.14 21.98 58.1 49.25 71.23 20.72 10.42 45.54 11.83 67.53 4.68 15.57-5.34 29.74-14.92 40.22-27.64 10.59-12.54 17.32-28.17 19.71-44.37 3.02-21.19-1.96-43.41-13.81-61.24-8.54-13.26-20.85-23.93-34.94-30.95-15.94-8-34.27-10.71-51.9-8.3z" fill="#1E1E1E" stroke="#1E1E1E"/>
  <path d="m1241.8 608.08c8.52-2.57 19.91 1.5 21.98 10.88 1.62 7.67-5.22 14.45-12.39 15.63-8.15 1.9-18.41-2.07-20.66-10.72-1.87-7.3 4.28-14.12 11.07-15.79m-6.89 9.68c-0.16 0.54-0.47 1.61-0.63 2.15 8.58-0.14 17.16-0.17 25.75-0.41-0.11-0.41-0.34-1.23-0.45-1.65-4.48-9.55-20.12-9.59-24.67-0.09z" fill="#050400" stroke="#050400"/>
  <path d="m1728.8 607.99c18.22-2.48 37.17 1.13 53.25 10.06 17.23 9.58 31.15 25.15 38.38 43.53 7.6 18.42 8.29 39.49 2.46 58.51-3.93 12.93-11.18 24.68-20.26 34.64-10.8 12.62-25.16 22.32-41.23 26.76-19.48 5.61-41.09 3.46-59.05-5.95-17.14-8.74-30.87-23.62-38.9-41.04-8.92-17.37-12.01-37.75-8.16-56.93 2.97-15.64 10.47-30.31 21.13-42.11 13.57-14.85 32.39-24.87 52.38-27.47m-0.15 5.93c-11.82 1.67-23.26 6.04-33.14 12.76-28.38 18.96-43.4 56.72-33.92 89.79 5.16 18.8 17.33 35.57 33.59 46.31 13.01 8.66 28.58 13.5 44.22 13.59 19.85 0.3 39.7-7.08 54.55-20.26 10.93-9.72 19.86-22.26 23.32-36.63 4.23-16.11 3.82-33.42-1.4-49.25-5.76-17.82-17.55-33.71-33.23-44.01-15.7-10.52-35.28-15.01-53.99-12.3z" stroke="#000"/>
  <path d="m1855.8 611.49c4.14-5 12.38-5.89 17.58-1.94 6.81 4.99 9.89 13.76 9.95 21.97 0.27 8.84-2.9 18.16-9.98 23.8l-0.42 0.02c-4.71 0.2-10.19 1.2-14.05-2.2-7.4-6.1-9.53-16.46-8.63-25.59 0.29-5.81 3.55-10.76 5.55-16.06z" fill="#FFBE26" stroke="#FFBE26"/>
  <path d="m1235 617.76c4.55-9.5 20.19-9.46 24.67 0.09-8.2 0.76-16.5 0.93-24.67-0.09z" fill="#F8D200" stroke="#F8D200"/>
  <path d="m1849.8 619.93c1.32-3.19 3.02-6.4 5.92-8.44-2 5.3-5.26 10.25-5.55 16.06-0.9 9.13 1.23 19.49 8.63 25.59 3.86 3.4 9.34 2.4 14.05 2.2-2.82 1.82-6.26 2.75-9.58 2.07-5.58-0.95-9.87-5.39-12.35-10.25-4.19-8.38-4.52-18.52-1.12-27.23z" fill="#CC9473" stroke="#CC9473"/>
  <path d="m749.37 630.55c14.85-11.18 33.34-17.74 52.03-17.21 7.92-0.41 15.65 1.34 23.41 2.64 10.77 3.72 21.37 8.54 30.21 15.86 10.07 7.7 17.87 18.02 23.94 29.07 9.84 19.67 12.57 42.92 6.99 64.25-5.47 21.55-19.13 41.06-38.01 52.95-25.65 16.99-60.71 18.44-87.6 3.44-34.76-18.06-53.69-61.01-44.4-98.94 4.76-20.46 16.41-39.56 33.43-52.06m39.45-11.45c-13.6 2.16-26.64 7.82-37.44 16.36-13.87 10.82-24.17 26.1-29.13 42.96-5.55 19.38-4.32 40.71 3.92 59.15 10.94 25.16 34.94 44.34 62.18 48.48 20.96 3.44 43.18-1.7 60.38-14.2 21.71-15.45 35.27-41.67 35.17-68.34 0.66-28.24-13.89-56.4-37.61-71.83-16.68-11.23-37.64-15.72-57.47-12.58z" stroke="#000"/>
  <path d="m1728.6 613.92c18.71-2.71 38.29 1.78 53.99 12.3 15.68 10.3 27.47 26.19 33.23 44.01 5.22 15.83 5.63 33.14 1.4 49.25-3.46 14.37-12.39 26.91-23.32 36.63-14.85 13.18-34.7 20.56-54.55 20.26-15.64-0.09-31.21-4.93-44.22-13.59-16.26-10.74-28.43-27.51-33.59-46.31-9.48-33.07 5.54-70.83 33.92-89.79 9.88-6.72 21.32-11.09 33.14-12.76m5.23 13.17c-17.58 1.76-34.18 11-45.05 24.91-13.66 16.95-18.22 40.62-12.28 61.51 4.29 15.47 14.19 29.34 27.58 38.22 14.72 10.03 33.68 13.44 51 9.36 15.54-3.52 29.47-13.12 38.76-26.01 8.59-12 13.29-26.81 12.84-41.59-0.08-20.9-10.61-41.41-27.44-53.77-12.9-9.59-29.39-14.35-45.41-12.63z" fill="#404040" stroke="#404040"/>
  <path d="m575.79 615.02c17.63-2.41 35.96 0.3 51.9 8.3 14.09 7.02 26.4 17.69 34.94 30.95 11.85 17.83 16.83 40.05 13.81 61.24-2.39 16.2-9.12 31.83-19.71 44.37-10.48 12.72-24.65 22.3-40.22 27.64-21.99 7.15-46.81 5.74-67.53-4.68-27.27-13.13-46.56-41.09-49.25-71.23-1.91-19.8 2.94-40.27 13.93-56.89 13.68-21.37 36.98-36.29 62.13-39.7m0.85 4.91c-16.88 2.21-33.01 9.83-45.44 21.46-12.15 11.16-20.83 26.01-24.68 42.04-4.31 18.05-2.56 37.62 5.49 54.4 8.76 18.58 24.62 33.64 43.62 41.43 12.95 5.31 27.28 7.5 41.21 5.92 17.26-1.63 33.86-9.01 46.86-20.44 14.4-12.61 24.3-30.31 27.25-49.25 2.62-15.67 0.3-32.05-6.06-46.57-7.29-16.45-20.04-30.45-35.83-39.11-15.78-8.87-34.5-12.37-52.42-9.88z" stroke="#000"/>
  <path d="m824.81 615.98c7.01-0.36 13.3 3.39 19.88 5.25 7.9 2.22 14.35 7.4 21.05 11.88 8.49 6.72 16.83 14.05 22.25 23.58-0.05-1.52-0.07-3.03-0.17-4.54 6.05 9.45 9.3 20.43 11.28 31.4 4.88 27.96-2.87 57.88-20.9 79.83-17.37 21.59-44.17 35.38-71.9 36.54-15.95 0.88-31.99-2.41-46.55-8.91-15.17-7.43-28.77-18.28-38.57-32.11 0.22-0.53 0.65-1.58 0.87-2.11-2.38-3.57-4.09-7.53-5.3-11.63-4.48-12.61-6.42-26.02-6.57-39.37 0.48-8.56 2.75-16.9 4.53-25.25 0.31 0.51 0.92 1.55 1.23 2.07-9.29 37.93 9.64 80.88 44.4 98.94 26.89 15 61.95 13.55 87.6-3.44 18.88-11.89 32.54-31.4 38.01-52.95 5.58-21.33 2.85-44.58-6.99-64.25-6.07-11.05-13.87-21.37-23.94-29.07-8.84-7.32-19.44-12.14-30.21-15.86z" fill="#151515" stroke="#151515"/>
  <path d="m1235 617.76c8.17 1.02 16.47 0.85 24.67 0.09 0.11 0.42 0.34 1.24 0.45 1.65-8.59 0.24-17.17 0.27-25.75 0.41 0.16-0.54 0.47-1.61 0.63-2.15z" fill="#F9EA00" stroke="#F9EA00"/>
  <path d="m788.82 619.1c19.83-3.14 40.79 1.35 57.47 12.58 23.72 15.43 38.27 43.59 37.61 71.83 0.1 26.67-13.46 52.89-35.17 68.34-17.2 12.5-39.42 17.64-60.38 14.2-27.24-4.14-51.24-23.32-62.18-48.48-8.24-18.44-9.47-39.77-3.92-59.15 4.96-16.86 15.26-32.14 29.13-42.96 10.8-8.54 23.84-14.2 37.44-16.36m0.11 22.09c-17.05 3.03-32.49 13.52-41.83 28.06-14.39 21.61-13.18 52.25 3.04 72.56 9.55 12.36 23.74 21.15 39.2 23.71 16.14 2.94 33.39-0.83 46.78-10.31 11.61-8.06 20.5-20.06 24.51-33.64 5.09-16.18 2.91-34.32-5.35-49.07-6.18-10.77-15.47-19.78-26.54-25.44-12.17-6.22-26.37-8.23-39.81-5.87z" fill="#404040" stroke="#404040"/>
  <path d="m576.64 619.93c17.92-2.49 36.64 1.01 52.42 9.88 15.79 8.66 28.54 22.66 35.83 39.11 6.36 14.52 8.68 30.9 6.06 46.57-2.95 18.94-12.85 36.64-27.25 49.25-13 11.43-29.6 18.81-46.86 20.44-13.93 1.58-28.26-0.61-41.21-5.92-19-7.79-34.86-22.85-43.62-41.43-8.05-16.78-9.8-36.35-5.49-54.4 3.85-16.03 12.53-30.88 24.68-42.04 12.43-11.63 28.56-19.25 45.44-21.46m0.14 22.07c-15.53 2.42-30.14 10.71-39.89 23.08-9.84 12.37-14.9 28.67-12.95 44.44 1.03 10.51 4.92 20.72 11.21 29.22 9.43 13.21 24.24 22.38 40.22 25.14 12.87 2.28 26.48 0.66 38.33-4.92 18.46-8.36 32.32-26.24 35.43-46.32 1.3-9.5 0.83-19.38-2.3-28.49-4.17-12.94-12.91-24.3-24.19-31.87-13.21-9.14-30.02-12.76-45.86-10.28z" fill="#404040" stroke="#404040"/>
  <path d="m1469.7 622.71c21.89-0.51 43.82 0 65.73-0.14 18.02 0.07 36.05-0.08 54.08 0.14 0.07 2.37 0.06 4.74 0.05 7.12-40.03-0.27-80.06-0.46-120.1-0.91 0.02-2.07-0.05-4.16 0.24-6.21z" fill="#fff" stroke="#fff"/>
  <path d="m1733.8 627.09c16.02-1.72 32.51 3.04 45.41 12.63 16.83 12.36 27.36 32.87 27.44 53.77 0.45 14.78-4.25 29.59-12.84 41.59-9.29 12.89-23.22 22.49-38.76 26.01-17.32 4.08-36.28 0.67-51-9.36-13.39-8.88-23.29-22.75-27.58-38.22-5.94-20.89-1.38-44.56 12.28-61.51 10.87-13.91 27.47-23.15 45.05-24.91m-2.04 6.02c-21.72 3-40.79 18.92-48.25 39.45-6.42 16.62-5.19 35.89 3.09 51.65 8.59 16.69 25.11 29.2 43.71 32.26 18.81 3.48 39.06-2.94 52.57-16.44 12.19-11.75 19.13-28.64 18.94-45.56-0.06-16.6-6.94-33.08-18.87-44.65-13.19-13.18-32.76-19.6-51.19-16.71z" stroke="#000"/>
  <path d="m1731.8 633.11c18.43-2.89 38 3.53 51.19 16.71 11.93 11.57 18.81 28.05 18.87 44.65 0.19 16.92-6.75 33.81-18.94 45.56-13.51 13.5-33.76 19.92-52.57 16.44-18.6-3.06-35.12-15.57-43.71-32.26-8.28-15.76-9.51-35.03-3.09-51.65 7.46-20.53 26.53-36.45 48.25-39.45m4.74 15.69c-3.52 1.22-4.07 6.58-0.81 8.44 3.15 2.35 8-0.81 7.33-4.61-0.28-3.03-3.75-4.97-6.52-3.83m-1.74 13.28c-5.87 1.16-11.38 4.07-15.63 8.27-9.77 9.38-12.57 24.98-6.82 37.21 5.27 12.2 18.84 20.38 32.14 18.49 9.34-1.1 17.86-6.88 22.68-14.91 6.18-10.05 6.29-23.45 0.39-33.65-6.28-11.3-19.98-18.15-32.76-15.41m43.87 25.9c-3.06 1.36-3.62 6.01-0.89 8 2.47 2.24 6.87 0.76 7.62-2.45 1.25-3.76-3.28-7.45-6.73-5.55m-81.9 3.02c-2.59 1.85-2.29 6.14 0.42 7.74 2.66 1.83 6.72 0.07 7.25-3.11 1.12-4.13-4.54-7.59-7.67-4.63m42.86 39.92c-2.9 1.25-3.65 5.59-1.23 7.69 2.34 2.6 7.16 1.25 7.95-2.13 1.27-3.69-3.3-7.57-6.72-5.56z" fill="#B6FF00" stroke="#B6FF00"/>
  <path d="m788.93 641.19c13.44-2.36 27.64-0.35 39.81 5.87 11.07 5.66 20.36 14.67 26.54 25.44 8.26 14.75 10.44 32.89 5.35 49.07-4.01 13.58-12.9 25.58-24.51 33.64-13.39 9.48-30.64 13.25-46.78 10.31-15.46-2.56-29.65-11.35-39.2-23.71-16.22-20.31-17.43-50.95-3.04-72.56 9.34-14.54 24.78-25.03 41.83-28.06m-0.04 4.05c-22.12 4.06-40.93 21.91-46.16 43.78-3.87 15.44-1.27 32.46 7.38 45.87 7.96 12.64 20.83 22.19 35.37 25.8 15.66 4.09 33.01 1.36 46.59-7.48 19.36-12.1 30.4-36.06 26.67-58.63-2.39-16.88-12.67-32.33-27.1-41.35-12.52-8.02-28.18-10.82-42.75-7.99z" stroke="#000"/>
  <path d="m576.78 642c15.84-2.48 32.65 1.14 45.86 10.28 11.28 7.57 20.02 18.93 24.19 31.87 3.13 9.11 3.6 18.99 2.3 28.49-3.11 20.08-16.97 37.96-35.43 46.32-11.85 5.58-25.46 7.2-38.33 4.92-15.98-2.76-30.79-11.93-40.22-25.14-6.29-8.5-10.18-18.71-11.21-29.22-1.95-15.77 3.11-32.07 12.95-44.44 9.75-12.37 24.36-20.66 39.89-23.08m-0.89 4.14c-22.28 3.73-41.64 21.36-46.78 43.46-3.29 12.66-1.68 26.42 4.04 38.15 7.56 16.04 22.99 27.96 40.26 31.74 11.45 2.59 23.64 1.75 34.63-2.38 13.52-5.12 25.18-15.27 31.67-28.24 7.95-15.21 8.32-34.11 0.96-49.62-4.54-10.04-12.15-18.58-21.4-24.53-12.65-8.27-28.53-11.31-43.38-8.58z" fill="#010100" stroke="#010100"/>
  <path d="m788.89 645.24c14.57-2.83 30.23-0.03 42.75 7.99 14.43 9.02 24.71 24.47 27.1 41.35 3.73 22.57-7.31 46.53-26.67 58.63-13.58 8.84-30.93 11.57-46.59 7.48-14.54-3.61-27.41-13.16-35.37-25.8-8.65-13.41-11.25-30.43-7.38-45.87 5.23-21.87 24.04-39.72 46.16-43.78m8.76 15.53c-2.66 1.61-2.83 5.86-0.32 7.69 2.64 2.27 7.38 0.53 7.71-3.01 0.78-3.88-4.21-7.15-7.39-4.68m-1.13 13.97c-14.11 1.41-25.69 14.61-25.15 28.8-0.04 14.13 11.9 26.88 25.98 27.85 14.1 1.55 28.1-9.05 30.48-23.02 1.91-9.34-1.46-19.49-8.4-25.99-6.01-5.76-14.64-8.65-22.91-7.64m-36.04 23.05c-3.58 1.16-4.14 6.67-0.83 8.49 2.87 2.06 7.28-0.32 7.31-3.79 0.34-3.31-3.46-6.1-6.48-4.7m72.22 3.24c-2.99 1.43-3.47 5.96-0.8 7.96 2.8 2.54 7.76 0.29 7.8-3.46 0.33-3.57-3.9-6.22-7-4.5m-34.05 35.78c-3.26 1.79-2.78 7.23 0.74 8.44 3.05 1.54 7-1.4 6.56-4.75-0.1-3.43-4.47-5.75-7.3-3.69z" fill="#B6FF00" stroke="#B6FF00"/>
  <path d="m575.89 646.14c14.85-2.73 30.73 0.31 43.38 8.58 9.25 5.95 16.86 14.49 21.4 24.53 7.36 15.51 6.99 34.41-0.96 49.62-6.49 12.97-18.15 23.12-31.67 28.24-10.99 4.13-23.18 4.97-34.63 2.38-17.27-3.78-32.7-15.7-40.26-31.74-5.72-11.73-7.33-25.49-4.04-38.15 5.14-22.1 24.5-39.73 46.78-43.46m10.85 17.91c-3.39 1.22-4.16 6.21-1.2 8.32 2.62 2.23 7.14 0.48 7.63-2.91 0.85-3.51-3.15-6.84-6.43-5.41m-5.94 14.97c-10.1 2.48-18.4 11.19-19.99 21.53-1.68 9.5 2.66 19.62 10.43 25.26 8.15 6.17 19.8 7.13 28.89 2.46 10.77-5.15 17.01-18.05 14.01-29.68-3.18-14.33-19.31-23.51-33.34-19.57m-33.94 19.09c-2.93 1.17-3.96 5.38-1.63 7.63 2.14 2.57 6.73 1.77 7.89-1.37 1.89-3.68-2.58-8.1-6.26-6.26m74.73 1.7c-3.26 1.55-3.25 6.79 0.01 8.35 3.15 2 7.63-1.03 7.07-4.68-0.23-3.28-4.27-5.43-7.08-3.67m-38.83 36.25c-3.53 1.07-4.31 6.32-1.24 8.36 2.63 2.1 7.07 0.42 7.54-2.95 0.83-3.46-3.02-6.75-6.3-5.41z" fill="#B6FF00" stroke="#B6FF00"/>
  <path d="m1736.5 648.8c2.77-1.14 6.24 0.8 6.52 3.83 0.67 3.8-4.18 6.96-7.33 4.61-3.26-1.86-2.71-7.22 0.81-8.44z" stroke="#000"/>
  <path d="m797.65 660.77c3.18-2.47 8.17 0.8 7.39 4.68-0.33 3.54-5.07 5.28-7.71 3.01-2.51-1.83-2.34-6.08 0.32-7.69z" stroke="#000"/>
  <path d="m1734.8 662.08c12.78-2.74 26.48 4.11 32.76 15.41 5.9 10.2 5.79 23.6-0.39 33.65-4.82 8.03-13.34 13.81-22.68 14.91-13.3 1.89-26.87-6.29-32.14-18.49-5.75-12.23-2.95-27.83 6.82-37.21 4.25-4.2 9.76-7.11 15.63-8.27m0.02 3.99c-7.9 1.74-14.74 7.28-18.34 14.48-5.31 10.19-3.81 23.46 3.71 32.16 6.22 7.53 16.74 11.31 26.29 9.02 7.76-1.65 14.48-7.05 18.14-14.04 4.14-7.74 4.44-17.34 0.98-25.37-4.79-11.75-18.3-19.3-30.78-16.25z" fill="#020201" stroke="#020201"/>
  <path d="m586.74 664.05c3.28-1.43 7.28 1.9 6.43 5.41-0.49 3.39-5.01 5.14-7.63 2.91-2.96-2.11-2.19-7.1 1.2-8.32z" stroke="#000"/>
  <path d="m1734.8 666.07c12.48-3.05 25.99 4.5 30.78 16.25 3.46 8.03 3.16 17.63-0.98 25.37-3.66 6.99-10.38 12.39-18.14 14.04-9.55 2.29-20.07-1.49-26.29-9.02-7.52-8.7-9.02-21.97-3.71-32.16 3.6-7.2 10.44-12.74 18.34-14.48z" fill="#A0A0A0" stroke="#A0A0A0"/>
  <path d="m455.16 672.7c-2.06-2.67-4.55-6-8.17-6.2-0.61-1.9-5.52-1.87-6.22-0.08l-1.34-0.14c-3.48 2.16-6.79 4.87-8.66 8.61-3.9 6.83-3.49 14.99-2.89 22.56 1.26 6.66 4.92 13.36 11.13 16.54 4.17 2.22 9.49 1.05 12.8-2.19 10.32-9.9 11.19-27.46 3.35-39.1z" fill="#FFBE27" stroke="#FFBE27"/>
  <linearGradient id="h" x1="696.99" x2="696.99" y1="702.51" y2="585.94" gradientUnits="userSpaceOnUse">
   <stop stop-color="#fff" offset="0"/>
   <stop stop-color="#F6F6F6" offset=".0074"/>
   <stop stop-color="#C8C8C8" offset=".0477"/>
   <stop stop-color="#9D9D9D" offset=".0931"/>
   <stop stop-color="#777" offset=".1419"/>
   <stop stop-color="#575757" offset=".195"/>
   <stop stop-color="#3B3B3B" offset=".2537"/>
   <stop stop-color="#252525" offset=".32"/>
   <stop stop-color="#141414" offset=".3974"/>
   <stop stop-color="#090909" offset=".4931"/>
   <stop stop-color="#020202" offset=".6274"/>
   <stop offset="1"/>
  </linearGradient>
  <path d="m732.03 603.12c-1.94-0.17-3.85-0.56-5.73-1.01-8.98 0.99-17.89-2.16-26.82-0.65-4.23 0.62-8.47-0.83-12.68 0.01-5.75 1.49-11.79-0.6-17.43 1.69-0.69-0.29-1.37-0.58-2.03-0.85-6.43 1.02-12.88 1.93-19.34 2.78-2.82 0.6-6.44 0.61-8.35 3.02 3.49 3.01 7.71 5.01 11.29 7.91 5.27 4.19 10.3 8.7 14.95 13.58 7.83 9.03 14.07 19.39 18.74 30.39 2.38 5.4 4 11.09 5.54 16.77 1.58 7.98 2.35 16.09 2.44 24.22 1.29 0.1 2.59 0.23 3.89 0.38 0.17-3.03-0.34-6.14 0.55-9.08 0.82-6.55 1.98-13.06 3.41-19.51 1.36-4.08 2.88-8.1 4.35-12.14 4.58-11.01 10.85-21.36 18.8-30.27 8.38-10.28 19.76-17.32 30.71-24.5-7.55 0.12-14.81-2.21-22.29-2.74z" enable-background="new " fill="url(#h)" opacity=".73" stroke="#000"/>
  <path d="m796.52 674.74c8.27-1.01 16.9 1.88 22.91 7.64 6.94 6.5 10.31 16.65 8.4 25.99-2.38 13.97-16.38 24.57-30.48 23.02-14.08-0.97-26.02-13.72-25.98-27.85-0.54-14.19 11.04-27.39 25.15-28.8m-0.55 4.39c-12 1.68-21.33 13.42-20.3 25.48 0.53 8.96 6.45 17.36 14.8 20.73 7.27 3.15 16.05 2.31 22.66-2.05 5.73-3.7 9.7-9.94 10.68-16.69 1.22-7.69-1.64-15.87-7.32-21.18-5.38-5.13-13.2-7.52-20.52-6.29z" fill="#020201" stroke="#020201"/>
  <path d="m35.073 677.97c6.09-0.72 12.23-0.28 18.35-0.38 35.38-0.08 70.76 0.31 106.14-0.04l-0.07 0.83c-41.47-0.28-82.95 0.19-124.42-0.41z" enable-background="new " fill="#0E0E0E" opacity=".65" stroke="#0E0E0E"/>
  <path d="m1589.3 697.57c-0.12-6.76 0.17-13.52 0.62-20.26 0.25 4.89 0.5 9.78 0.86 14.67-0.32 2.42-0.77 4.83-1.21 7.24l-0.27-1.65z" fill="#999" stroke="#999"/>
  <path d="m580.8 679.02c14.03-3.94 30.16 5.24 33.34 19.57 3 11.63-3.24 24.53-14.01 29.68-9.09 4.67-20.74 3.71-28.89-2.46-7.77-5.64-12.11-15.76-10.43-25.26 1.59-10.34 9.89-19.05 19.99-21.53m2.7 3.74c-9.13 1.54-16.99 9.06-18.45 18.27-1.53 8.21 2.3 16.98 9.13 21.69 7.31 5.26 17.7 5.63 25.41 1.03 6.41-3.74 10.89-10.83 10.98-18.32 0.37-7.06-3.13-14.03-8.73-18.26-5.14-3.96-11.97-5.54-18.34-4.41z" fill="#010100" stroke="#010100"/>
  <path d="m795.97 679.13c7.32-1.23 15.14 1.16 20.52 6.29 5.68 5.31 8.54 13.49 7.32 21.18-0.98 6.75-4.95 12.99-10.68 16.69-6.61 4.36-15.39 5.2-22.66 2.05-8.35-3.37-14.27-11.77-14.8-20.73-1.03-12.06 8.3-23.8 20.3-25.48z" fill="#A0A0A0" stroke="#A0A0A0"/>
  <path d="m38.193 681c0.76 0.09 2.27 0.27 3.02 0.36 20.04 1.08 40.14-0.28 60.19 0.71 20.72-0.14 41.44 0.28 62.15-0.27 0.93 5.52 1.02 11.12 0.79 16.7 0.06 2.95-0.48 6.34 1.67 8.74 0.98-7.63-0.24-15.34 0.84-22.96 0.73 7.02 0.01 14.08 0.41 21.12l0.71 0.03c4.83 0.03 9.67-0.13 14.48 0.37 1.99 0.14 3.98 0.14 5.96 0 6.6-0.63 13.24-0.24 19.85-0.33 0.01-7.06 0.02-14.12 0.08-21.17-6.66-0.06-13.32-0.04-19.97-0.05-0.01-0.6-0.01-1.8-0.02-2.4 7.24-0.02 14.48-0.17 21.7 0.34 0.01 4.47-0.3 8.96 0.18 13.42 0.76 4.27 0.58 8.62 0.39 12.94-57.45 0.11-114.9-0.12-172.34-0.26-0.32-9.1-0.09-18.19-0.09-27.29m18.7 2.54c0.58 7.15 0.26 14.34 0.2 21.51 0.14 0.02 0.42 0.06 0.56 0.08-0.09-5.89-0.24-11.79-0.05-17.67-0.33-1.6 1.07-2.48 1.89-3.53-0.01 7.12-0.06 14.25-0.01 21.38 4.58-0.02 9.16-0.01 13.75 0.02 0.05-7.07-0.06-14.14 0.14-21.2l1.79-0.04c0.07 6.99 0.14 13.99-0.07 20.98h0.57c-0.13-7.01-0.17-14.02 0.01-21.02-6.26-0.02-12.56 0.44-18.78-0.51m36.83 0.46c0.16 7.09 0.36 14.19 0.18 21.28 3.99 0.05 7.99 0.04 11.97 0.28 0.46-1.89 0.75-3.82 0.97-5.75l0.16-0.04c0.4 2.06-0.27 4.97 2.18 5.94 4.62-0.57 9.28-0.27 13.91-0.38-0.1-7.1 0-14.2-0.04-21.29-4.57 0.13-9.15 0.22-13.71-0.18-1.34-0.02-2.69-0.02-4.03 0.01-3.86 0.33-7.73 0.29-11.59 0.13m30.87-0.34c-0.35 7.41-0.25 14.87 0.18 22.28 2.33-1.26 1.56-4.24 1.79-6.4-0.18-5.28 0.27-10.6-0.35-15.85-0.41-0.01-1.22-0.02-1.62-0.03m3.56 0.52c0.02 7.08-0.09 14.16 0.01 21.24 5.02-0.05 10.03-0.04 15.05-0.02 0.01-5.96 0.08-11.93-0.1-17.89-0.46-0.66 0.6-4.38 1.58-2.47 1.07 6.59 0.34 13.35 0.4 20.02 0.15 0 0.44 0.01 0.59 0.02-0.12-7.08-0.31-14.17 0.11-21.23-5.88-0.1-11.75 0.66-17.64 0.33m-85.9-0.07c0.04 7.07-0.12 14.14 0.06 21.21 4.09-0.06 8.18-0.06 12.26 0.03 0.23-7.08 0.11-14.16 0.11-21.24-4.14-0.05-8.28-0.05-12.43 0m35.8 0.03c-0.01 7.03-0.02 14.05-0.02 21.09 4.25 0.08 8.5 0.08 12.75 0.02 0.04-7.04 0.03-14.07 0.03-21.1-4.25-0.05-8.51-0.05-12.76-0.01m69.54 0.18c0.11 7.03 0.05 14.06 0.04 21.09 5.1 0 10.21-0.03 15.31 0.09 0.15-7.09 0.15-14.18 0.05-21.27-5.13-0.01-10.27-0.12-15.4 0.09z" fill="#4F4F4F" stroke="#4F4F4F"/>
  <path d="m41.213 681.36c20.7-0.02 41.44-0.54 62.13 0.4 16.69-0.13 33.37 0.08 50.06-0.06 8.32-0.71 16.67-0.33 25-0.43 10.75 0.3 21.53-0.48 32.25 0.56 0.04 4.59-0.18 9.19-0.42 13.78-0.48-4.46-0.17-8.95-0.18-13.42-7.22-0.51-14.46-0.36-21.7-0.34-8.26-0.07-16.53-0.05-24.8-0.05-20.71 0.55-41.43 0.13-62.15 0.27-20.05-0.99-40.15 0.37-60.19-0.71z" fill="#ACABAB" stroke="#ACABAB"/>
  <path d="m163.55 681.8c8.27 0 16.54-0.02 24.8 0.05 0.01 0.6 0.01 1.8 0.02 2.4 0.03 7.18-0.02 14.37 0.04 21.55-1.98 0.14-3.97 0.14-5.96 0 0.06-7.15 0.07-14.31 0.05-21.46-4.85-0.06-9.7-0.07-14.55-0.02-0.05 7.03-0.09 14.07 0.02 21.11l-0.71-0.03c-0.4-7.04 0.32-14.1-0.41-21.12-1.08 7.62 0.14 15.33-0.84 22.96-2.15-2.4-1.61-5.79-1.67-8.74 0.23-5.58 0.14-11.18-0.79-16.7z" fill="#595959" stroke="#595959"/>
  <path d="m583.5 682.76c6.37-1.13 13.2 0.45 18.34 4.41 5.6 4.23 9.1 11.2 8.73 18.26-0.09 7.49-4.57 14.58-10.98 18.32-7.71 4.6-18.1 4.23-25.41-1.03-6.83-4.71-10.66-13.48-9.13-21.69 1.46-9.21 9.32-16.73 18.45-18.27z" fill="#A0A0A0" stroke="#A0A0A0"/>
  <path d="m56.893 683.54c6.22 0.95 12.52 0.49 18.78 0.51-0.18 7-0.14 14.01-0.01 21.02h-0.57c0.21-6.99 0.14-13.99 0.07-20.98l-1.79 0.04c-0.2 7.06-0.09 14.13-0.14 21.2-4.59-0.03-9.17-0.04-13.75-0.02-0.05-7.13 0-14.26 0.01-21.38-0.82 1.05-2.22 1.93-1.89 3.53-0.19 5.88-0.04 11.78 0.05 17.67-0.14-0.02-0.42-0.06-0.56-0.08 0.06-7.17 0.38-14.36-0.2-21.51z" fill="#ADADAD" stroke="#ADADAD"/>
  <path d="m93.723 684c3.86 0.16 7.73 0.2 11.59-0.13 0.21 7.23-0.01 14.47 0.56 21.69-3.98-0.24-7.98-0.23-11.97-0.28 0.18-7.09-0.02-14.19-0.18-21.28z" fill="#ADADAD" stroke="#ADADAD"/>
  <path d="m105.31 683.87c1.34-0.03 2.69-0.03 4.03-0.01-0.08 7.28 0.11 14.57-0.16 21.85-2.45-0.97-1.78-3.88-2.18-5.94l-0.16 0.04c-0.22 1.93-0.51 3.86-0.97 5.75-0.57-7.22-0.35-14.46-0.56-21.69z" fill="#575757" stroke="#575757"/>
  <path d="m109.34 683.86c4.56 0.4 9.14 0.31 13.71 0.18 0.04 7.09-0.06 14.19 0.04 21.29-4.63 0.11-9.29-0.19-13.91 0.38 0.27-7.28 0.08-14.57 0.16-21.85z" fill="#ADADAD" stroke="#ADADAD"/>
  <path d="m124.59 683.66c0.4 0.01 1.21 0.02 1.62 0.03 0.62 5.25 0.17 10.57 0.35 15.85-0.23 2.16 0.54 5.14-1.79 6.4-0.43-7.41-0.53-14.87-0.18-22.28z" fill="#5C5C5C" stroke="#5C5C5C"/>
  <path d="m128.15 684.18c5.89 0.33 11.76-0.43 17.64-0.33-0.42 7.06-0.23 14.15-0.11 21.23-0.15-0.01-0.44-0.02-0.59-0.02-0.06-6.67 0.67-13.43-0.4-20.02-0.98-1.91-2.04 1.81-1.58 2.47 0.18 5.96 0.11 11.93 0.1 17.89-5.02-0.02-10.03-0.03-15.05 0.02-0.1-7.08 0.01-14.16-0.01-21.24z" fill="#ADADAD" stroke="#ADADAD"/>
  <path d="m42.253 684.11c4.15-0.05 8.29-0.05 12.43 0 0 7.08 0.12 14.16-0.11 21.24-4.08-0.09-8.17-0.09-12.26-0.03-0.18-7.07-0.02-14.14-0.06-21.21z" fill="#ADADAD" stroke="#ADADAD"/>
  <path d="m78.053 684.14c4.25-0.04 8.51-0.04 12.76 0.01 0 7.03 0.01 14.06-0.03 21.1-4.25 0.06-8.5 0.06-12.75-0.02 0-7.04 0.01-14.06 0.02-21.09z" fill="#ADADAD" stroke="#ADADAD"/>
  <path d="m147.59 684.32c5.13-0.21 10.27-0.1 15.4-0.09 0.1 7.09 0.1 14.18-0.05 21.27-5.1-0.12-10.21-0.09-15.31-0.09 0.01-7.03 0.07-14.06-0.04-21.09z" fill="#ADADAD" stroke="#ADADAD"/>
  <path d="m167.95 684.32c4.85-0.05 9.7-0.04 14.55 0.02 0.02 7.15 0.01 14.31-0.05 21.46-4.81-0.5-9.65-0.34-14.48-0.37-0.11-7.04-0.07-14.08-0.02-21.11z" fill="#ADADAD" stroke="#ADADAD"/>
  <path d="m188.37 684.25c6.65 0.01 13.31-0.01 19.97 0.05-0.06 7.05-0.07 14.11-0.08 21.17-6.61 0.09-13.25-0.3-19.85 0.33-0.06-7.18-0.01-14.37-0.04-21.55z" fill="#ADADAD" stroke="#ADADAD"/>
  <path d="m1778.7 687.98c3.45-1.9 7.98 1.79 6.73 5.55-0.75 3.21-5.15 4.69-7.62 2.45-2.73-1.99-2.17-6.64 0.89-8z" stroke="#000"/>
  <path d="m1696.8 691c3.13-2.96 8.79 0.5 7.67 4.63-0.53 3.18-4.59 4.94-7.25 3.11-2.71-1.6-3.01-5.89-0.42-7.74z" stroke="#000"/>
  <path d="m546.86 698.11c3.68-1.84 8.15 2.58 6.26 6.26-1.16 3.14-5.75 3.94-7.89 1.37-2.33-2.25-1.3-6.46 1.63-7.63z" stroke="#000"/>
  <path d="m760.48 697.79c3.02-1.4 6.82 1.39 6.48 4.7-0.03 3.47-4.44 5.85-7.31 3.79-3.31-1.82-2.75-7.33 0.83-8.49z" stroke="#000"/>
  <linearGradient id="i" x1="1589" x2="1879.6" y1="630.39" y2="630.39" gradientUnits="userSpaceOnUse">
   <stop stop-color="#E5E2DF" offset="0"/>
   <stop stop-color="#DED9D6" offset="0"/>
   <stop stop-color="#CFCCC9" offset=".0381"/>
   <stop stop-color="#A8A8A8" offset=".1113"/>
   <stop stop-color="#6A7072" offset=".2112"/>
   <stop stop-color="#465053" offset=".264"/>
   <stop stop-color="#878D8F" offset=".3722"/>
   <stop stop-color="#B7BABB" offset=".4638"/>
   <stop stop-color="#D5D6D6" offset=".5335"/>
   <stop stop-color="#E0E0E0" offset=".573"/>
   <stop stop-color="#D6D7D8" offset=".632"/>
   <stop stop-color="#BCBFC2" offset=".7314"/>
   <stop stop-color="#92989E" offset=".8582"/>
   <stop stop-color="#8B9298" offset=".8764"/>
   <stop stop-color="#D1D3D4" offset="1"/>
   <stop stop-color="#A7A9AC" offset="1"/>
  </linearGradient>
  <path d="m1879.2 670.01c0.62-6.22-0.34-12.43-0.07-18.65-3.64 4.59-8.24 9.81-14.71 9.29-5.59 0.26-9.64-4.06-13.12-7.81-2.35-5.13-4.42-10.38-5.29-15.98 0.42-6.32 0.01-12.76 2.16-18.85l0.18 0.08c2.02-5.3 5.09-10.57 10.26-13.33 3.27-1.97 7.25-1.32 10.89-1.14-2.41-4.6-4.66-9.31-7.73-13.51l-0.07-0.43c-2.62-4.18-5.56-8.15-8.96-11.7-5.35-7.06-12.76-12.35-19.9-17.5-9.55-6.46-19.99-11.62-30.81-15.56l-0.1-0.34c-13.8-5.11-27.93-9.56-42.39-12.32-10.36-2.78-21.06-4.09-31.71-5.24-9.06-1.47-18.25-1.21-27.38-1.2-11.15-0.33-22.21 1.65-33.04 4.09-16.18 4.21-31.22 13.56-41.26 27.04-5.45 6.55-9.96 13.85-13.75 21.47-2.59 5.83-5.92 11.45-7.6 17.62-2.3 5.19-4.69 10.45-5.99 15.96-3 7.25-6.2 14.78-5.12 22.81-1.49 6.17-1.71 12.54-2.56 18.81-0.25 2.7-0.95 5.44-0.42 8.16-2.02 11.79-1.88 23.87-1.38 35.79-0.12-6.76 0.17-13.52 0.62-20.26 0.25 4.89 0.5 9.78 0.86 14.67-0.32 2.42-0.77 4.83-1.21 7.24 0.02 0.09 0.05 0.26 0.07 0.34-0.1 5.6 1.34 11.06 2.89 16.39l0.19 0.01c1.65 4.04 3.61 8.26 7.23 10.92 2.51 1.87 4.43 4.56 7.45 5.73 5.69 2.63 12.85 3.57 18.46 0.25 5.19-3.54 6.87-10.12 8.06-15.92 1.13-10.41 1.26-20.9 2.05-31.33 0.29-4.13 0.88-8.26 0.81-12.4l0.22 0.64c0.49-7.6 2.1-15.1 2.72-22.67l0.21 0.53c1.39-7.66 3.62-15.12 5.59-22.62l0.07 0.49c3.43-9.51 8.11-18.54 14.22-26.6l0.37-0.11c4.69-5.86 10.7-10.4 16.69-14.85l0.43 0.03c19.01-11.04 41.39-14.86 63.14-14.39 4.12 0.03 8.24 1.05 12.36 0.48 5.44 1.4 11.08 1.87 16.52 3.33 10.23 2.33 20 6.37 29.18 11.41l0.38 0.05c5.94 3.97 11.54 8.39 16.54 13.5 5.19 5.77 9.12 12.45 12.98 19.14 1.1 3.66 2.98 7.04 4.19 10.67l0.12-0.02c3.33 9.89 5.44 20.13 7.17 30.41 0.24 3.64 0.88 7.26 1.33 10.89 0.01 2.09 0.28 4.17 0.56 6.26l0.19-0.59c0.44 10.47 0.93 20.96 1.85 31.41 0.11 4.36-1.54 9.12 0.61 13.23 6.93 0.38 14.16 1.9 20.9-0.54 4.84-1.68 8.25-6.06 9.83-10.81 2.62-7.69 3.75-15.88 3.78-23.99l0.28-0.38c-0.14-6.02 1.01-12.18-0.04-18.1z" fill="url(#i)" stroke="#969696"/>
  <path d="m621.59 699.81c2.81-1.76 6.85 0.39 7.08 3.67 0.56 3.65-3.92 6.68-7.07 4.68-3.26-1.56-3.27-6.8-0.01-8.35z" stroke="#000"/>
  <path d="m832.7 701.03c3.1-1.72 7.33 0.93 7 4.5-0.04 3.75-5 6-7.8 3.46-2.67-2-2.19-6.53 0.8-7.96z" stroke="#000"/>
  <linearGradient id="j" x1="1528.4" x2="1528.4" y1="726.54" y2="634.06" gradientUnits="userSpaceOnUse">
   <stop stop-color="#E5E2DF" offset="0"/>
   <stop stop-color="#DED9D6" offset="0"/>
   <stop stop-color="#CFCCC9" offset=".0381"/>
   <stop stop-color="#A8A8A8" offset=".1113"/>
   <stop stop-color="#6A7072" offset=".2112"/>
   <stop stop-color="#465053" offset=".264"/>
   <stop stop-color="#878D8F" offset=".3722"/>
   <stop stop-color="#B7BABB" offset=".4638"/>
   <stop stop-color="#D5D6D6" offset=".5335"/>
   <stop stop-color="#E0E0E0" offset=".573"/>
   <stop stop-color="#D6D7D8" offset=".632"/>
   <stop stop-color="#BCBFC2" offset=".7314"/>
   <stop stop-color="#92989E" offset=".8582"/>
   <stop stop-color="#8B9298" offset=".8764"/>
   <stop stop-color="#D1D3D4" offset="1"/>
   <stop stop-color="#A7A9AC" offset="1"/>
  </linearGradient>
  <path d="m1591.3 723.09c-1.69-3.25-3.05-6.64-4.07-10.14-0.29-1.35-0.68-2.73-0.91-4.04-0.38-2.37-0.74-4.74-1-7.11-0.92-6.24-0.26-12.56-0.86-18.8 0.22-5.01 1.08-10.03 0.81-15.05 0.67-3.85 0.88-7.75 1.19-11.64 0.32-2.73 0.89-5.46 0.83-8.2 0.79-4.62 1.1-9.31 1.87-13.93-38.25 0.03-76.5-0.16-114.74-0.11 0.97 1.97 1.99 3.95 2.98 5.94 1.53 3.02 2.92 6.11 4.44 9.14 0.33 1.31 0.92 2.54 1.45 3.82 1.07 2.67 2.08 5.37 3.05 8.09 0.64 2.35 1.26 4.72 1.89 7.1 0.35 2.04 0.73 4.1 1.03 6.16 0.08 1.66 0.15 3.34 0.48 5-0.12 2.58-0.57 5.21-0.07 7.79-0.81 3.22-1.53 6.46-2.4 9.66-1 2.28-2.03 4.54-3.06 6.8-1.33 2.06-2.7 4.11-4.09 6.14-2.3 2.66-4.66 5.25-7.01 7.86-0.75 0.68-1.47 1.38-2.17 2.09l-0.08 0.18c-1.53 1.24-3.05 2.49-4.4 3.92-1.16 0.83-2.27 1.76-3.32 2.72 43.48 0.07 86.96 0 130.45 0.06-0.78-1.16-1.55-2.32-2.29-3.45z" fill="url(#j)" stroke="#C9C9C9"/>
  <path d="m1459.1 730.48c46.68 0.09 93.36-0.05 140.03 0.28 0.1 2.92 0.2 5.85 0.04 8.78-1.09 0.86-2.62 0.4-3.84 0.56-45.43-0.17-90.87-0.07-136.31-0.31-0.11-3.11-0.12-6.21 0.08-9.31z" fill="#fff" stroke="#fff"/>
  <path d="m1739.6 730.92c3.42-2.01 7.99 1.87 6.72 5.56-0.79 3.38-5.61 4.73-7.95 2.13-2.42-2.1-1.67-6.44 1.23-7.69z" stroke="#000"/>
  <path d="m582.76 736.06c3.28-1.34 7.13 1.95 6.3 5.41-0.47 3.37-4.91 5.05-7.54 2.95-3.07-2.04-2.29-7.29 1.24-8.36z" stroke="#000"/>
  <path d="m798.65 736.81c2.83-2.06 7.2 0.26 7.3 3.69 0.44 3.35-3.51 6.29-6.56 4.75-3.52-1.21-4-6.65-0.74-8.44z" stroke="#000"/>
  <path d="m950.27 808.99c3.5-0.44 7.49-1.82 10.69 0.38-3.57 0.44-7.16 0.19-10.69-0.38z" enable-background="new " opacity=".15" stroke="#000"/>
 </g>
</svg>
