<?xml version="1.0" encoding="UTF-8"?>
<svg viewBox="0 0 1154 866" xmlns="http://www.w3.org/2000/svg">
 <g fill-rule="evenodd">
  <path d="m325 455h2v1h-1v2h1v1h1v1h1v1h1v2l-10 9q-10 8-18 21t-12 24-4 13q0 1-1 1t-1 1-1 1-1 3q0 4-1 4t-1 2-1 1q-1 0-3 3-2 2-4 10-2 7-2 18-2 11-2 13v2h-5v-1q-1 0-3-1t-10-1h-16l-2 1h-1v-1h1v-1q0-1 1-2l1-1v-1h1v-1h1v-1l-1-3v-2h-1q-2 0-2-1t-4-1q-3-1-3-2-1-1-5-3-4-1-6-4-3-3-4-3t-7-6q-5-7-9-12-4-6-6-8-2-1-13-7-10-5-14-7t-3-3q2-1 0-1l-2-2h3v-1l-1-1-2-1-2-1h4q3 0 6 1h2v1l4-1q4 0 4 1t22 0q22 0 22-2 0-1 2-2 1 0 1-1h1q0-1 0-1h2t0-1h4l3-1h5q6 0 7-1h9q8 0 9 5 1 6 1 8v2h7l1-1q1-1 6-3 4-2 13-18l9-15v-1t2-2l2-3q1-1 8-7l7-7h1q0-1 2-2l1-1h1t0-1h1l1-1h1v-1z" fill="#181818" stroke="#181818"/>
  <path d="m280 466h1v2l-1 3v3h1l1 1 1 1h8q7 1 8 0 1 0 2-1h1l-2 3q-2 2-2 2v1h-1q-1 1-3 2-3 1-12 2h-8v-9l1-2 1-1v-3h2v-2h1t0-1h1q0-1 0-1z" fill="#8f979a" stroke="#8f979a"/>
  <path d="m383 589h1l2 1q2 1 2 1v1h1l5 5q6 5 8 6 1 1 1 2h1v1l1 1 1 1v5l-1 1h-1l-2-1q-1-1-6-1-4 0-8 4l-3 3h-5q-6-1-8-1h-2t-1-1l-1-1h-2v-1h-1v-1h-2v-2l1-1v-2l1-1v-1h1q0-1 0-1v-1h1v-1h1v-1q0-1 4-7l3-6h1t0-1l2-1q2 0 3 0t2 1z" fill="#0f0e0e" stroke="#0f0e0e"/>
  <path d="m746 404v-1h13q1 0 1 1t-7 2q-6 1-6 0t-1-1q-1-1 0-1z" fill="#515152" stroke="#515152"/>
  <path d="m241 586h9q8 0 10 1t3 1v1h-15v-1h1t-4-1l-4-1z" fill="#8d9294" stroke="#8d9294"/>
  <path d="m759 426h8v38q0 1-5 1l-4 1h-11v-39h11t1-1z" fill="#080808" stroke="#080808"/>
  <path d="m412 565l-2-3h2l2 2q3 2 4 3 0 1 0 1h1l3 5q4 5 4 6v1q-1 0-2 0h-1q-1-1-4-6l-3-4-1-1q-1-1-3-4z" fill="#bdc1c3" stroke="#bdc1c3"/>
  <path d="m100 442h2v2q-1 2 4 2t9 1h4v1h-16l-1-1h-2v1q0 1-1 2h-1t0 1h4l3 1h2q2 0 7 1h5v1h4v1h-3l-3-1h-18t-1-1q-2 0-2-3v-3q0-1 1-3t3-2z" fill="#9a9b9e" stroke="#9a9b9e"/>
  <path d="m324 429h3v1h2l5 2q4 2 5 4 0 2 0 6 1 4 0 4v1q-1 0-1 1 0 0-4 2l-4 2-1 1-1 1h-2v1h-1v1h-1v1h-1v1h-2v-2h2v-1h1v-2q0-1 0-2 2-1 2-7 0-5-2-6-2-2-7-3l-4-1 4-2q4-2 4-2h1q1 0 2-1z" fill="#b8c2c4" stroke="#b8c2c4"/>
  <path d="m626 384h2l-2 1h-1v1l1 1v1h1v1h1v1l4 3q2 3 4 5 2 3 2 4v1h-2v-1q0-1-2-4-2-2-3-3t-5-5l-3-5h1q0-1 2-1z" fill="#ababad" stroke="#ababad"/>
  <path d="m241 459h1l1 3q1 2 2 2 0 0 1 1l1 3q1 2 0 2v1h-1v2t-1 1h-2q-1-1-1-1v-2l-1-1q-1-2-1-6v-5q1-1 1 0z" fill="#e1e5e7" stroke="#e1e5e7"/>
  <path d="m373 480h1v7l-2 5q-2 6-3 6v-3q-1-3-1-4t0-2v-1q1 0 2-2 1 0-2-2h-4v-1l4-1q3 0 4-1l1-1z" fill="#424648" stroke="#424648"/>
  <path d="m980 539h1l3 1q4 1 5 2 1 0 1 1 1 1 2 2 1 0 2 1 0 2 1 2t1 1 1 1 3 2q1 2 2 3v1t0 1h1q0 1 1 1 0 0 0 1h1l1 1q0 2 1 2v1h1v2h-1v1h-10v-1q0-1 1-1t1-2q-1-1-7-7l-7-6v-1q-1 0-1 0 0-1-1-2-1 0 0 0l1-1v-3q0-2-2-2l-2 1v-1t0-1z" fill="#818588" stroke="#818588"/>
  <path d="m406 613h6v1h2l2 2q2 1 2 1v1l1 1v1h-2l-1 1q-1 1-2 1h-1l-1 1-1 1h-1t1 1 1 1 0 1h-2q-1 1-2 1-2 0-10 2l-7 1v-1q-1 0-1-1l-1-1h-7q-7 0-12-1l-4-1-2-1-1-1h-3l-1-1-1-1 1-1v-1h3v-1h1l1-1h8q2 0 8 1h5l5-1q4 0 6-1l2-1h3q3-2 3-2h2t0-1z" fill="#f1f2f1" stroke="#f1f2f1"/>
  <path d="m549 347h4v1q0 1-1 1l-1 1h-2q-2 0-3 1l-2 1h-5q-1-1-1-1v-1h2l2-2q3 0 7-1z" fill="#a5a9b0" stroke="#a5a9b0"/>
  <path d="m1030 477l3 8q3 8 5 15 0 6 1 8v3h-1q0-1-1-1h-1t-2 0l-2 1v-1q0-1 1-2 1-2-5 1l-5 2h-1q-2 1-3 1h-1t0-1 0-1q-1 0-1-1 1-1-11-1l-12 1v-3l1-1 1-1v-3h1l1-1t-1-1l-1-1h-2v-2h9q7-2 13-4t8-2h1v-1h1v-1h2l1-1h1v-2h-2q-2-1-6-1h-4v-1h1l1-1h5l1 1q1 0 2-4 0-3 0-3 1 0 2 1z" fill="#868b8f" stroke="#868b8f"/>
  <path d="m955 476l4-5v1q1 1 1 2-1 0-1 1h-1q0 1 0 1l-1 2q-1 3-2 4l-1 1v3h-1v1h-1v1h1l3 2q4 2 4 2v1t1 1v1h-1q-2 0-4 9-1 8-5 8l-4-1v5q-1 0-1 1v4q0 3 1 7l1 4v1h-3v1l-1 2v-3l-1-4v-14q1-10 5-22t7-17z" fill="#75787a" stroke="#75787a"/>
  <path d="m548 366h4v2q0 2-5 7-4 5-4 6h-1v1h-1l-2 1h-3q-2 0-2-1v-1l4-4q4-4 6-7 4-3 4-4z" fill="#98a0a3" stroke="#98a0a3"/>
  <path d="m366 413h7q2 1 1 1-2 0-2 1h-4q-4 1-12 3l-8 2h-3l-2 1-2 1h-1q-2 0-6 2l-4 1h-1l-1-1h1l1-1 1-1h3l1-1 1-1 8-2q9-4 13-4t9-1z" fill="#2f3335" stroke="#2f3335"/>
  <path d="m588 352h1v8q0 8-3 9t-4 1h-1v-1q0-1 2-2t2-2h1v-1t1-4l1-5v-1t-1 0v-1q0-1 1-1z" fill="#505050" stroke="#505050"/>
  <path d="m403 602l-2-4 3 2q2 2 2 2h1l1 1h1v1l1 1v1h1v1h1v1l2 2q2 2 2 2l1 1q0 1-1 1h-2t-1-1h-3q-3 1-4 1h-1v-1q0-1 1-1t1-2l-1-1v-3q0-1-3-4z" fill="#6d7274" stroke="#6d7274"/>
  <path d="m352 373h1v1h2l29 2q29 2 54 4t26 3h3q0 1 1 1h2t0 1 0 1-3 2h-3l-2 1-3 1h15l-2 1-1 1h-5q-4 0-54 6l-51 5v-1q0-1-23 1-24 3-41 5-17 4-45 10l-29 7v-1q0-1 1-1 1-1 2-2 1-2-19 0l-20 1-1 1-1 1h-1l-1 1-1 1h-1v1h-3q-4 1-8 3l-4 2v1h-1v1h-1v1h-1l-5 3q-5 3-6 4 0 2 0 2l-1 1q-1 1-1 3v3l-3 9q-3 10-3 12v1h-1v-1h-2v-1h-1v-1h-3l-3-1-2-1h-4l6-1h7v-1l-1-2-2-1-2-1h-11l-1-1h-1v-1h19l1-2v-1h-2l-2-1h-11l-2-1h-3v-1h22v-1l-1-1-4-1-3-1h-6t-6-1l-6-1v-1h1l2 1h19l-1-1-1-1h-3l-2-1-1-1h-3q-4 0-16-2t-12-1v1h-2q-2 0-3 2t-1 3v1l-3 7q-3 7-3 10v3l-1 2v2h-1v-1l-1-1-1-2 1-1 1-1h-2v-1t-3-1l-2-2q-1-1-2-2h-2v-1h-1v-2h-1v-1h4q4 0 3-1t-1-2v-2h3l4-1h-2l-2-1h-2v-2h-1v-1h1v-2h1q1 0 4 0h3-4l-2-1q-3-1-6-1h-5v-1h-1v-2l1-1 1-1v-1l1-1 1-1 6-6q7-6 24-12 18-6 50-14t73-14 69-9 40-5q13 0 14-1z" fill="#3b3e40" stroke="#3b3e40"/>
  <path d="m960 495h1l2 1q2 0 3 1h1l1 1q1 0 2 1h1v1h2q2 1 2 2-1 1-1 1-1 1 0 1v1q-1 1-1 1h-1t0 1v1q0 1-2 2h-2 4v3l-1 2v2h-1q0 1 0 1h-1v1h-1v3h-2v1t-1 1h-1t0 1v1h-1v1h-1v1h-1v1h-1v1l-1 2-1 1v-2l-1-3q-1-2-1-4t-2-4-4-2h-4v-3l1-2v-2l4 1q4 0 5-8 2-9 4-9z" fill="#4c5053" stroke="#4c5053"/>
  <path d="m399 525h1v2q0 1 0 2 1 1 2 1h7l5-2q4 0 6-1h3v1q0 1-2 2-2 0-1 1 0 1-6 4-5 2-5 3t-1 2q-2 0-2 2v2h-1v1h-1v1h-5t1-1l2-1v-1h-1v-1h-2l-1-1h-1v-1q-1-1-1-1v-1h-1l-1-1-1-1h4l1 1h1v-2q1-2 0-6t0-4z" fill="#6b7073" stroke="#6b7073"/>
  <path d="m1032 518h1q1 1 1 6v10q0 5 0 6l-2 6q-2 5-3 5 0 1 0 1h-1t0 1h-1q-1 1-3 1t-2 0l-1-1v-1q-1 0-2-2l-2-3v-1h-1t0-1l1-1v-2q1-1 2-6l2-4v-1q1-1 1-2v-2q0-1 1-1v-1l1-1t1 0v-1q1 0 1-1 0 0 1 0v-1l3-1q2-2 2-2z" fill="#f0f2f2" stroke="#f0f2f2"/>
  <path d="m325 594h1l4 5q3 5 4 6 0 1 0 1h2q1 0 1 0h1v-1h1v-1h1v-1q0-1 2-3l2-3q1-1 1-1l4 3q3 3 4 4 0 1 1 1h1l1 1 1 1h1l1 1 1 1h3q1 0 1-1v-1h2v2h-1v1h-1v2l-1 1-3 3q-2 3 0 4h2v1h-2q-1 2-1 2h-1l1 1 1 1h3l1 1 2 1v1h-1v1h-5l-2-1-1-1h-1t-4-2q-3-2-9-6-7-5-12-11l-5-5v-1h-1v-1q-1 0-1-2l-1-2q-1 0-1-1v-1h1q1 0 2 0z" fill="#a5acaf" stroke="#a5acaf"/>
  <path d="m100 448v-1h2l1 1h16l6 1q6 1 6 1h-3q-2 0-2 2 0 1-4 1h-8q-5-1-7-1h-2l-3-1h-3v-1q1-1 1-2z" fill="#232426" stroke="#232426"/>
  <path d="m293 452v3l1 3v2h1l9 1q9 1 11 0h2l-7 7q-7 6-8 7h-1q-1 1-2 1-1 1-8 0h-8l-1-1-1-1h-1v-3l1-3v-2q1-1 3-4l2-4 1-1v-1h1t0-1q1-1 1-1h1t0-1l1-1q1 0 2 0z" fill="#b6c0c2" stroke="#b6c0c2"/>
  <path d="m173 485h7q6 1 8 0h1l-1 1t2 1q3 1 6 1h3v1h-1v1h-2l-3 3q-3 3-3 6v3h2l1 1 1 1h3v1h-9q-10-1-16-1h-8q-3 0-14-2h-12v-5h1v-1h1v-1h1v-1l10-2q10-2 10-3 1-2 2-3 1 0 5 0 5 0 5-1z" fill="#45494b" stroke="#45494b"/>
  <path d="m428 486h1l-1 1q0 1 1 1t1 1-1 1v1h-1q0-1 0-1-1 0-4-2l-2-1q0-1-4-3-5-2-12-3-6-1-6 4v5t-1 0-11 1-11 2l-1 1v4q0 3 0 4 0 0 0 1h-1v-1q-1 0-1 0v-1l-1 3q-1 2-1 3v1h-2v1l-1 1-1 1v1l-1 1v1h-2v-1l1-1v-3l1-1 1-1v-2q0-2 1-5v-2q1 0 3-6l2-5v-7h-1l-1 1q-1 1-4 1l-4 1h-2l-2-1h-1v-1h1v-1h1l1-1 1-1h1v-1h1v-1h15q16-2 28 2 12 2 16 5t4 3z" fill="#84888b" stroke="#84888b"/>
  <path d="m402 521l2-2 1 1q1 0 1 0v2l-1 1-1 1v1l-1 1-1 1v3q-1 0-2-2l-1-2h1t0-1v-1q0-1 2-3z" fill="#a8afb1" stroke="#a8afb1"/>
  <path d="m84 563l3 5q3 5 2 5 0 1 2 1h2v1l1 1-1 1-1 1 1 2v1h-1l-1-1h-2l-1-1-1-1h-1q-1 0-2-1h-2v-1h-1l-1-1-1-1h-1t-1-1q-1 0-1-1t-2-2q-1 0-2-2l-2-3v-2l-1-1q-1-1-1-2v-2h1q1 1 2 0 0-1 4 2 3 2 6 2 3 1 3 1z" fill="#101010" stroke="#101010"/>
  <path d="m883 450h2l9-1h9v8h-7l-7 1h-2t-1-1q-2-1-4-4l-1-3h2z" fill="#0d0d0e" stroke="#0d0d0e"/>
  <path d="m391 536h2l1 1 1 1h1v1t1 1v1h1l1 1h-1q-1 0-2 1h-1v-1q-1-1-3-3l-2-2v-1t1 0z" fill="#84898c" stroke="#84898c"/>
  <path d="m564 249h7v1q-1 1-1 1v1t1 1v1h-1q-2 0 0 2 1 2 2 3h1l1 1q2 0 2 1h-6l-7 1h-4v-1h-1v-2l2-4q2-5 2-5 1 0 2-1z" fill="#3383af" stroke="#3383af"/>
  <path d="m83 577h1q1 1 2 1h1l1 1 1 1h3t0 1h1l15 4q15 5 24 6 8 1 9 2h3l3 1 9 1q9 1 21 2t17 2 11 2 13 1h30q23 1 23 0 0-2 2-2 1-1 3-4 1-3 3-3 2-1 5-1h2v1l6 9q6 8 15 15t23 15q15 8 16 8h1l1 1 1 1h2v1h1v1h3v1h-3l-2-1h-5q-5 0-12-2-7 0-61-1t-88-5q-35-4-65-10t-47-12-20-8q-4-3-4-9t5-9q4-4 16-6l12-4h2v-1z" fill="#2c2c2a" stroke="#2c2c2a"/>
  <path d="m998 566v-1h2l3 1h4l1 2q2 1 2 2v1h-1q0 1-4 3l-4 2h-2l-1 1-2 1h-6q-7 0-8-1l-2-1h-3l-1-1-2-1v-2l4-1 3-1 5-1q4-1 6-1h1l1-1q1-1 2-1h1q1 0 1 0z" fill="#e8ecec" stroke="#e8ecec"/>
  <path d="m459 409v4q-1 1-1 1 0 1-3 2l-3 1h-2q-1-1-2-1h-1l-2-3q-1-2-1-7t4-6q3 0 6 1 2 1 4 3 0 2 1 5zm-10-1q-1-5 1-4t3 5q0 3-2 3-1 0-2-4z" fill="#dcdee0" stroke="#dcdee0"/>
  <path d="m808 424h4l1 1q1 1 3 2 1 1 1 3 0 1 1 1t1 1v2h-1t0-1h-6q-6 1-8 1l-2 2h-1v1h-1v1l-1 1-1 1v8l1 1 1 1v1h1v1h1l1 1 1 1h11v1h1v1h2v4h-3v-1h-1v2l1 1h-9q-8 0-13-1l-5-1q0-1-1-1h-1q0-1-2-2l-1-1q-1 0-3-4-2-5 0-10 0-5 3-8t9-6l7-3h3q2-1 6-1z" fill="#0c0c0c" stroke="#0c0c0c"/>
  <path d="m798 469l2-1h34l-8 1h-12q-4 1-10 1h-7t1-1z" fill="#bababc" stroke="#bababc"/>
  <path d="m995 492h1v1q0 1-1 2v1h-1t0 1h1v1q1 0 1 0l1 1q1 1 1 1l-1 1h-1v3l-1 1-1 1v3l-1 1-1 1v-1t-1 0v-1q-1-1-5-3l-4-2q0-1 0-4v-3q0-1 2-1h3l2 1q3 0 4-2 1-3 2-3zm-11 6t0-1 0 1z" fill="#595d60" stroke="#595d60"/>
  <path d="m706 477h4v1h4l4 1q5 1 5 1h-9l-5 1q-5 1-49 3l-45 3v-1h-5l-2-1-2-1h8l44-4q45-2 48-3z" fill="#dfdfe0" stroke="#dfdfe0"/>
  <path d="m442 614v1h-1v1h3l1-1q1-1 1 0t2 1q3 0 4 0l-4 4q-4 4-5 4h-1v1h-1v1h-1v1h-1v1h-1v1l-1 1q-1 0-1 0t-11 6l-11 6-2 1-1 1h-2l1-1v-1h1v-1h-1v-2h-1l-1-1 1-1 1-1t1-1 1-5l1-4h1l10-6q10-6 11-7t1-1h4q4-1 4 0t-1 1-1 1z" fill="#101010" stroke="#101010"/>
  <path d="m233 446v-1l2 1q3 0 3 0v1l2 1q3 0 8 1h4q0 1 1 1h1v2q0 1-8 2-7 0-7 2v3q-1 0-1-1t-8-1l-7-1h-2l-1 1h-1v-1l1-1v-1h1v-1h1v-1h4q4-1 4-1v1h1q1 0 3-1 1 0 1-2t-1-2-1-1z" fill="#4a4d4f" stroke="#4a4d4f"/>
  <path d="m1018 512q-1 0-8 4l-8 2-1 1h-1v4t-1-3q-1-2-3-3t-4 1l-3 2v-2l1-1v-1h1v-1h1v-4l1-1 1-1 12-1q12 0 12 2t0 2z" fill="#a7aeb1" stroke="#a7aeb1"/>
  <path d="m172 433l7-3 5 1q5 1 6 2 2 1 1 3-1 1-1 2 0 0-1 0v1l-2 1q-2 1-3 3-2 1-2 2 0 0-1 1h-1t0 1h-1q-1 0-1 1 0 0-1 0v1h-7l-6-1h-1v-1h-1v-1h-1v-1h-1v-2h1l1-1 1-2v-1h1v-1q1 0 1-1h1q0-1 6-4z" fill="#c8cdcf" stroke="#c8cdcf"/>
  <path d="m570 373h1l1 1q0 2 2 1 1-1 2-1h1q1-1 2 2 1 4 0 4t-1-1l-1 1v1h-1l-1 1h-2v1h-2l-2 1h-3v-5l1-1q1-1 1-2 0 0 1 0v-1q1 0 1-1 0 0 0-1zm-1 5t0-1q1 0 1 1 0 0-1 0z" fill="#333334" stroke="#333334"/>
  <path d="m1022 466q-1 0-2 0t-4-2l-4-3v-1t-1 0h-1t-5-2-5 3l-1 4q-1 0-1 1v2q0 1-1 2-1 0-7 0-5 0-6 0l-1 1v-1q1-1 1-4v-4l1-1v-1h-2v1l-1 1v1t-2 1v2h-1v1h-2v-1h-1v-1h1v-1h2l1-1q0-1 1-2l1-1v-1l1-1v-1h-1l-2 1h-2q-1 0-4 1l-2 1v-2h1v-1h1v-1h2l1-1 1-1 8-1q9-1 16 1 8 2 13 5t6 5q1 1 1 2z" fill="#6b6f72" stroke="#6b6f72"/>
  <path d="m94 468v-2h8q9 0 14 1h6q0 1 3 1h7l2 1 3 1h3v1q0 1-1 2t-17 1l-16-2h-10q-2 1-2 2 0 0-1-1v-1t1-1q2-1 1-1-1-1-1-2z" fill="#191a1c" stroke="#191a1c"/>
  <path d="m233 489h4l2 1q2 0 0 1-2 0-2 1t-1 1h-1v1h-1q-1 0-1-1v-1q1 0 1 0t-2-1l-3-1t4-1z" fill="#9ea7a9" stroke="#9ea7a9"/>
  <path d="m373 537q1 0 1 1l-2 2q-2 1-2 4v4h-2q0-1-2-1l-2 1v-4h1l2-1h2v-3q1 0 1 0 0-1 1-1v-1q1 0 1 0 0-1 1-1z" fill="#adb1b3" stroke="#adb1b3"/>
  <path d="m503 492v1q1 1 1 1l3 6q3 6 9 6 5 2 12 1l6-1h2v-1h1v1h1v44q0 12-1 15v3h5v1h-1l-1 1h-8q-7 0-16 2l-9 1h-5l-6 1-4 1q-4 1-5 6 0 5-1 5t-1 3-1 4q-2 1-4 1h-1l-1 1-1 1h-2l-1 1-1 1q-1 0-1-3v-3h-3l-1 1-1 1h-1l-1 4q-1 3-2 3t-3 3q-1 2-4 7-4 4-4 5-1 0-4 0-2 0-2-1t-1 0l-1 1h-3v-1h1v-3h-6l1-1 1-1h1v-1q1 0 2-2t7-9l5-8q1 0 4-10l4-9v-1q1-1 1-3v-3q0-2 1-4l1-3v-7q0-6-1-9t-3-13q-4-11-9-20-5-8-14-15l-8-7h-1t-4-3-16-5q-12-4-28-2h-15v1h-1v1h-1l-1 1-1 1h-1v1h-1q-1 0-6 3l-6 4h-2l-1 1v-1h-2v-1h-1v-1h2l-1-1-1-1h1v-1l1-1 1-1v-1l3-1q3-2 4-3 0-1 3-3 4-1 4-2l3-1q3 0 5-1l1-1 5-2q6-2 6-2h6q5 0 15-1h10v-1l-1-1v-1h-1l-1-1-2-1h-4q-3 0-9-1h-6q0-1-2-1l-1-1-1-1-1-2v-1h1v-1h-1l-2-1h-2v-2l4-1q4 0 21 0t30 4 13 5 5 4 13 10q6 7 12 15 5 8 9 7 3 0 4-1 0-2 7-1t8 2q0 1 1 1z" fill="#0a0909" stroke="#0a0909"/>
  <path d="m0 433v-433h1154v866h-1154v-433zm679-193l5-1q6 0 5 6t-1 6v1q0 1 13 1 13 1 23 1h10v2q0 1-1 2 0 1-4 2h-4q-1 0 0 2 0 3-3 3h-2l-2 1q-1 0 2 2 4 0 2 1-3 0-4 3 0 3 2 3l2 1h-1l-3 1q-3 1-6 2l-2 1 10-1q10-1 10-3-1-3 52 0 53 2 104 8 50 6 86 12 35 6 41 8t10 7 7 7q2 1 2 2t12 12q12 10 16 15 5 5 5 6h1v1h1v1h1v1h1v1q1 0 1 1l3 2q3 1 10 10 7 8 7 9v1h1v1h1v2h1v1h1v2l2 12q2 13 3 18v5l1 5q0 4 4 10t5 8v2l-2 24q-1 24-3 30-2 5-8 11-5 5-6 6l-1 1h-2l-1 1-2 1h-2t-4 2l-5 2h-1q-2 0-4 1l-3 1h-1t-6 2l-6 2-2 1-1 1h-3v1l-1 1v1h3l4 1 18 2q19 4 20 4h5q3 1 3 1v1h2v1l1 1 1 1v6h-1v1h-1v1h-1v1q-1 0-1 0l-1 1h-1v1h-1q-1 0-3 1l-2 1q0 1-1 1 0 1-3 1l-4 1q0 1-4 1l-3 2h-12q-2 0-3 1h-1q0 1-11 2l-11 1h-3q-4 0-6 1l-2 1h-1q-1 1-1 2t-1 1-4 4-4 5q-1 0-10 4-8 4-28 5h-23l-4-1h-12q-11 0-18-1-8-1-33-1-25-2-233 18l-209 20-3 1-3 1h-2q-1 0-1 0t-11 6l-11 6-2 1-1 1h-2q-1 0-7 2l-7 1h-1v1h-12q-12 0-20-2l-7-1h-3l-2-1h-5q-5 0-12-2-7 0-61-1t-88-5q-35-4-65-10t-47-12-20-8q-4-3-4-9t5-9q4-4 16-6l12-4h2v-1h-1v-1h-1l-1-1-1-1h-1t-1-1q-1 0-1-1t-2-2q-1 0-2-2l-2-3v-2l-1-1q-1-1-1-2v-2t-3-8q-3-7-5-20l-2-14t0-14v-16q0-2 1-3l1-1q0-1 1-1v-1q1 0 1 0v-3q0-3 1-3v-2q1-3 3-14l3-11v-1q1 0 2-2l1-3v-2l1-1 1-1v-1l1-1 1-1 6-6q7-6 24-12 18-6 50-14t73-14 69-9 40-5q13 0 14-1h1v-1h1v-1h1v-1h2v-1h1v-1l6-4q6-5 7-6h-1t-1-2q-1 0-2-4l-1-4t0-1h1l3-4q2-3 4-5 3 0 6-1 2-1 2-1h4q4 0 6 3t2 3h1t1-1q0-1 0-1h1l23-14q22-14 38-23t17-9h1l2-1 1-1h2l1-1 2-1 20-4q19-4 31-6t17-2h6l2-1 1-1h1v-3l1-1 1-2v-2h-5l-1-1h-2q0-1 0-1l-1-2q0-2 1-2t2-1v-2l2-4q2-5 2-5 1 0 2-1h2v-1h14q14-2 18-2h6q3 0 8-1l5-1h5v1h-1v1h-1v2q-2 2-2 4v6h5v-2l1-1 2-5q2-6 11-6 9-2 9-2h6q6 0 14-1h8q0-1 2-1h3zm423 618h-7 1v-1h1v1h1q1 0 1-1t-1-1-1-2q1-1 1 0 1 0 4 0 2-1 2 0t2 0q1 0 1 1 1 1-1 2-1 1 0 1 2 0-4 0z" fill="#fefefe" stroke="#fefefe"/>
  <path d="m758 290v-1l39 2q39 3 53 5t21 7q7 4 18 13 10 8 10 9h1v1h1l1 1v2l1 1 1 1v1h-2v1h-1v-1h-1v-1h-2v-1h-1l-1-1q-1 0-1-1-1-1-4-4t-10-8-7-6-4-3q-4-3-19-5t-55-4l-40-2v-1h1q1 0 1-3l-1-2q1 0 1 0z" fill="#ebebec" stroke="#ebebec"/>
  <path d="m901 539l1-1h1v2h6q1 0 1 0 0 1-4 2-3 0-4 3-2 3-4 3l-1-1q1 0-4-3l-4-2-5-1h-4v-1h20v-1h1z" fill="#121212" stroke="#121212"/>
  <path d="m361 402v1q0 1-23 5t-48 10l-26 6-2 1-1 1h-1l1 1 1 1h2t0 1h1v1h-3l-2-1q-2-1-4 0h-3q-1 0-1 1v1h-1q-1-1-2-1t-23 2l-22 2-2 1h-1v-1h1v-2h1l1-1 1-1h1l1-1 1-1 6-1q5-1 7-2h3q0-1 0-1l36-8q35-8 68-11 33-4 33-3z" fill="#343638" stroke="#343638"/>
  <path d="m638 406h1q1 0 1 1t0 5v4l-1 1-1 1h-2l-2-1q-1-1-2-1v-4t0-2l-1-2h5v1l1-1q1-1 1-2z" fill="#86878b" stroke="#86878b"/>
  <path d="m908 468v2q0 1 1 4v2h2v3h1l1-1h1v-2h2v1l1-1q0-1 1-1h1l-6 20q-5 20-6 21v2h-1v1h-2v-2l-1 1-1 1v1h-2v-3l-1-3q-1-2-1-9t3-20l3-13 1-1q1-1 1-1v-1q1-1 2-1z" fill="#c4c4c6" stroke="#c4c4c6"/>
  <path d="m1020 553h1l1 1t2 0q2-1 3-1 0-1 1-1h1l-1 1q0 1 0 2-1 1-1 1-1 1-2 3l-1 2-1 1h-1v2h-1v1h-1q0 1-8 7l-8 6h-3l-1 1h-2v-1h-2l2-1 1-1h2l4-2q4-2 4-3h1v-1q0-1-2-2l-1-2v-1h1v-2h-1v-1q-1 0-2-1l-1-1v-1h-1v-1h-1v-2h2v1h1v1h1l4-2q5-4 7-4t3 1z" fill="#959a9d" stroke="#959a9d"/>
  <path d="m319 430h2t-4 2l-4 2-4 1q-5 1-7 5-4 4-4 5v1t-1 0v1l-3 3q-3 2-4 3 0 1 0 1h-1t-1 1h-1v-1q1-1 2-2l1-2 1-1q1-1 1-3l2-3v-3h-1l-3-1q-4-1-8-2l-3-1q-1-1-1-1-1-1-2-1h-1t-3-2l-3-2h-3v-1h-1v-1h-1v-1h-1v-1h29q24 0 24 2 1 2 3 2z" fill="#8c9195" stroke="#8c9195"/>
  <path d="m284 459l3-4h1v1q-1 2-1 2h-1l-2 4q-2 3-3 4 0 0-1 1h-1v-1q1-1 1-2t4-5z" fill="#858c8d" stroke="#858c8d"/>
  <path d="m441 546h1l3 1q3 1 3 1v13t-1 1v2l-1 2v4l-1 1q-1 1-1 2v1l-2 4q-2 5-3 6l-1 1v1h-1v1h-1v1h-4v-1h-1v-1h-1v-1q0-1-2-3l-2-2v-1q0-1-4-6l-3-5q-1-1-1-1v-5q0-2 0-4 0-1 3-4l2-2 9-3q8-3 9-3z" fill="#0b0c0c" stroke="#0b0c0c"/>
  <path d="m543 366h5q0 1-4 4-2 3-6 7l-4 4v1q0 1 2 1h1v1h-5q-1 0-4-1-2-1 0-3 3-2 5-5 1-3 3-3 1 0 3-2l3-2v-1l1-1z" fill="#55595b" stroke="#55595b"/>
  <path d="m945 581l-5-1v-1h1l2 1q2 0 2-2 1-1 1 0v1l1 1q0 1 2 1t2-1q-1-2 3-3t3 0-1 1q-1 1-1 2 1 1-2 2-3 0-8-1z" fill="#5d5d5d" stroke="#5d5d5d"/>
  <path d="m410 561v1l2 3q2 3 3 4l1 1 3 4q3 5 4 6l4 6q3 6 0 10t-4 4v1h-1v1h-1v1h-1v1t-1 0v1h-1q-1 1-1 1-1 0-3 0h-2v-1h-1v-1h-1t0-1h-1v-1q-1 0-1 0 0-1-1-1v-1q-1 0-9-9t-12-10h-5l-2 3q-3 3-3 4v1t-1 1l-3 6q-4 6-4 7v1h-1v1h-1v1h-1v1h-1v1h-2v-1h-1v-1h-2v-2l-1-1v-3h-1t0-6q-1-5 4-12 5-8 9-10l4-2q1 0 1-1l1-1q2 0 6-1 4 0 5 0l3 1q2 2 4 0t3-4v-3q1-1 1-3l1-1h1q0-1 0-1l2-1q2-1 4 0t3 3q1 3 1 3z" fill="#f3f5f6" stroke="#f3f5f6"/>
  <path d="m58 513v-3l1 2q1 3 7 6 6 2 22 6 16 2 22 3h6l2 1q2 1 2 2v1h4q3 0 3-1t1-1q2 0 1 2t3 3 5 2q1 0 5 1t6 1q2 1 2 2 0 2 7 3t11 1q4 1 3 3 0 2 7 2t8 1q0 2 1 2t4 3 4 4q1 0 3 3 2 2 3 3 1 0 1 1t1 2q1 0 2 1 0 1 5 4 4 3 4 4 1 1 2 2 2 0 3 3 1 2 2 3t1 2-2 1h-1v1h1v1h12l-1 1-1 1h-5l-3 1h-3v6h3l4 1-1 1v1h-7q-7 0-13-1t-11-2-17-2-21-2l-9-1-3-1h-2v-1h1l1-1 1-1h1v-1h-1v-1h3v-1l1 1 1 1v-1h2v-3l14 1q13 2 20 2h8v-1l1-1 1-2-1-1-1-1h-6q-6 0-17-2t-17 0l-6 2h-2v2h-1v-1h-1v-1h1t1-2-1-2-2-2q-1-2-3-6t-6-4q-4-1-4-4 1-4-4-5-4-1-4-2-1-1-4 0-4 1-4 0t-4-1q-3 0-3 1t-1 1-1-1-2-1-6 1q-4 0-4 1t-3 1q-2 1-2 2-1 1-3 1t-2 1l1 1v1t-3-1q-3 0-6-2-4-3-4-2-1 1-2 0h-1t-3-8q-3-7-5-20l-2-14v-3zm27 43q1 0 1 0-1 0-1 0z" fill="#050505" stroke="#050505"/>
  <path d="m631 349h5q0 1 0 1h1t1 1v2h-1v1h-1t-2 1h-2q0-1 0-2t-7-1l-7-1h-2v-1h5q5 0 10-1z" fill="#4e4e4e" stroke="#4e4e4e"/>
  <path d="m278 435t1 1l2 2q1 2 1 5t0 3h-2q-1 0-6 3-6 3-8 5t-3 2h-4q-3 0-3-1v-1q1 0 1-2v-1h1q0-1 1-3l1-3 1-1h8q8-2 9-2h1l1-1q1-1 0-1-2-1-2-2v-1q-1-1-1-1 1-1 1-1z" fill="#5f5f5b" stroke="#5f5f5b"/>
  <path d="m1022 511h1q1 0 1 3v4l-1 4v4q-1 0-1 1v1q-1 0-2 2 0 1-2 2-3 1-3 2t-1 1q-2 0-2 1t-2 0l-2-1v-1t-1 0q-1-1-1-1v-1t-3-4l-3-5v-4h1l1-1 8-2q7-4 8-4h1q1 0 3-1z" fill="#121314" stroke="#121314"/>
  <path d="m130 444h3l1 1 2 1h3l1 1 1 1h-19l-2-1h-5q-4-1-9-1t-4-2v-3q0-1 12 1t16 2z" fill="#161619" stroke="#161619"/>
  <path d="m927 581q1 0 1 1v2h-3v1h1v1h2v-1h1v1h1l2 1 1 1h7q7 2 8 2h2l2 1 3 1h2v1h-3l-4-1h-12q-11 0-18-1-8-1-33-1-25-2-233 18l-209 20-3 1-3 1h-2l1-1v-1h1v-1h1v-1h1v-1h1v-1h1q1 0 5-4l4-4q0-1 4-5 3-5 4-7 2-3 3-3t2-3l1-4h1l1-1 1-1h3v3q0 3 1 3h8l170-16q169-15 209-18 38-2 44 4 6 7 8 9 3 3 6 2 3 0 3 1t3 1q3 1 3 0zm-8 1q0-1 1-1t1 1-1 1-1-1z" fill="#2d2e2b" stroke="#2d2e2b"/>
  <path d="m925 362v-2h1q2 1 2 2t2 1l2 1 1 2v1h-1l-2 1h-10q-11 0-106 5l-94 5-4-1-4-1h-1v-1h1v-1l14-1q15-1 20-1h6t1 0v-1l75-3q75-4 86-4h11v-1q1 0 0-1z" fill="#535659" stroke="#535659"/>
  <path d="m237 488h18v2q0 1-1 1t-2 3q-2 4-2 4h-1v1h-1v1h-1v1h-1v1h-2v1h-1q-1 1-7 1h-5l-3 1-3 1h-2v-2h2v-1h1v-1h1l1-1h1v-1q1-1 3-4l2-2h1v-1h1q1 0 1-1t2-1q2-1 0-1l-2-1v-1z" fill="#676d6f" stroke="#676d6f"/>
  <path d="m910 458l2-3-2 7q-2 6-2 6-1 0-2 1v-1q0-2 2-5 0-3 2-5z" fill="#d2d1d3" stroke="#d2d1d3"/>
  <path d="m164 438l1-1-1 1q0 2-1 3l-1 1-1 1h-1v2h1v1h1v1h1v1h7q7 0 8-1h1v1q-1 1-2 2-2 2-6 4t-10 2-7-2l-2-2v-1q0-1 3-4l3-3v-1t2-2l2-2v-1t2 0z" fill="#909499" stroke="#909499"/>
  <path d="m1022 528v1q0 1-1 2v1h-1t-4 5l-3 4v-1q-1 0-1 0 0-1-1-1v-1q-1 0-3-2l-2-3 3 2q3 2 3 0 1-2 4-3 4-1 4-2 1-2 2-2z" fill="#303030" stroke="#303030"/>
  <path d="m666 241h8l1 1q1 2 2 2v3q1 2 3 4t2 3h-6q-6 0-14 1l-8 1h-7l-1-1h-1v-1l1-1v-5l1-3v-3h5q6 0 14-1z" fill="#d12729" stroke="#d12729"/>
  <path d="m984 460h1v1l-1 1v4q0 3-1 4v1l-4 12q-3 12-5 14-1 1-2 2h-2q-1-1-2-1l-1-1h1q2 1 3 0 1 0 1-3 0-2-2-2-3 0-6 0h-2 3v-1h1v-1l5-8q5-7 5-9t1-3q1 0 1-2v-1h1v-1h1v-2q2-1 2-2v-1q1-1 2-1z" fill="#93989b" stroke="#93989b"/>
  <path d="m239 460v-1h1v5q0 4 1 6l1 1v1q1 0 2 1h2v1q0 1-1 1h-2q-1-1-1-2-1-1-4-1-4 1-5-2l-1-3v-2q0-2 1-3 0-1 3-1t3-1z" fill="#777b7c" stroke="#777b7c"/>
  <path d="m457 540h1v2h-1v1h-1v1t-1 0v1h-1q-2 0-2 1t-2 2l-2 1v-1t-3-1l-3-1t2-1l2-1h2q2-2 4-2h1l2-1 2-1z" fill="#363a3e" stroke="#363a3e"/>
  <path d="m599 292h20-1v1l-2 3q-1 2-1 3h-1q0 1 0 1-1 0-12 10-10 10-20 21l-11 11h-1q-1 0-2-1l-2-1q0-1-1-1v-1q-1-1-3-3l-2-2v-1t-1 0q-1-1-1-1h-2q-1-1-6-1-4 0-7 2l-3 1h-2v-2h-1l-1-1h-2l-1 1h-1v-2h1l1-1h2v-1h1v-1h1l18-10q18-10 27-14t11-6q2-1 1-1 0-1 0-1h12l-5-1-4-1h1zm-61 36q0-1 1 0 1 0 0 0-1 1-1 0z" fill="#3a3c3c" stroke="#3a3c3c"/>
  <path d="m389 537h1l2 2q2 2 3 3v1q-1 0-1 1v1t-5 4-8 5l-4 1h-1q-1-1-4-1-2-1-2-2v-2h6v-2q0-1 2-2 2 0 3 0t1-1 1-1 3 0h3v-2q-1-3-2-4h-1l1-1q1-1 2 0z" fill="#c6cbce" stroke="#c6cbce"/>
  <path d="m964 526h2q1 0 1 3v7q-1 3-1 4v1l-3 9q-3 10-4 10t-1-1v-1h-1t-1-4l-2-4t1 0v-2q1-1 2-8l1-7 1-1 1-2v-1h1v-1h1v-1h1q1 0 1-1z" fill="#eff1f1" stroke="#eff1f1"/>
  <path d="m729 406q0-1 7 0 6 0 6 1-1 1-7 0-6 0-6-1z" fill="#dfdfe0" stroke="#dfdfe0"/>
  <path d="m867 422h9l3 2q3 1 2 3 0 2 2 2h2q0 1-7 1h-8v6h3l13-1h14v6h-1v1h-5q-6 0-15 1h-9v7h11l1 3q2 3 4 4 1 1 1 1h-9q-8 0-18 1h-10v-36h4q5-1 13-1z" fill="#0d0d0d" stroke="#0d0d0d"/>
  <path d="m618 259h2l30 1q29 0 29 1t1 1h1t-45 4l-46 2v1l-1 3v3h-1q0-1-11 0l-11 1v-1q0-1 2-2 1-1 0-1-2-1-2-2 0-2-1-2h-6l-1-1h-1v-1h-1l23-2q23-2 25-3t2-1h5q5 0 7-1z" fill="#3f4348" stroke="#3f4348"/>
  <path d="m746 331h1v1h3l2 6q0 6 1 20v13h-1q0 1 0 1h-6q-5 0-20 1l-14 1h-4q-3 0-43 3l-40 3h-3t-1 2q0 2 0 3h-5q-4 1-11 1h-11q-4 0-5-1t-9-1l-7-1v-1h2l1-1h1v-1l1-1v-1t0-2q0-3-1-2h-1v-1q1-1 2-2 2-1 2-1h1q1 0 1 0v-1h2q3-1 4-1t0-6v-7h-1v-1t1-1 1-1l1-2q2-2 2-2h4v-1h1v1h1v-2h4q2 0 5-1l3-1h8l-2 1h-2v1h-4l-2 1q-3 1-4 1h-1l-1 1-1 1h-2v1h-1v1h-3v2h4l13 1q12 1 12 0h10q2-1 2-1h4q3-1 4 0 0 2 0 2 1 1 6 0 5 0 41-10 36-8 39-9 2-1 3-2 0-1 7-2 6-1 6-2z" fill="#161616" stroke="#161616"/>
  <path d="m97 462v-2h7q6 0 12 1h8l1 1h11l2 1 2 1 1 2v1h-7l-6 1h-3q-3 0-3-1h-1q0-1-9-1l-8-2h-2q-3 0-4-1t-1-1z" fill="#323234" stroke="#323234"/>
  <path d="m463 399l2-1h9t0 1v1q0 1-3 2h-4v2h3v-1h1v1l3 1q3 1 3 2 1 0 1 2v3t-1 1-6 1-7 0l-1-1v-1q-1 0-1 0l2-1q3-1 4 0 0 1 2 1h2v-4h-3q-2 0-5 0h-2v-1l-1-4q0-4 2-4z" fill="#d6d7d9" stroke="#d6d7d9"/>
  <path d="m361 463h1v1q-1 2 0 2h2l5-2q5 0 6-1h1q1 1 2 1 0 0-6 2l-5 2-1 1q-2 1-5 1l-3 1v-1q0-1 1-1 0-1 1-3v-2t1-1z" fill="#3f3b2f" stroke="#3f3b2f"/>
  <path d="m1091 420v-2l1 2q2 2 4 2t2-1h1l1 5q0 4 4 10t5 8v2h-1v-1h-1v-1h-2v1h-1v-2h-1v1q-1 0-7-2t-10-2-8-2q-5-2-9-3l-4-1h-5 2l2-1 2-1h5q5 0 11-3 6-2 8-4t1-5z" fill="#242324" stroke="#242324"/>
  <path d="m812 426v-2h2l9 1q9 1 9 2h1v1h2v1h1v1h1v1h1v1h1v1h1v1h-2l-3 1-3 1h-3q-3 0-5 0-1 0-3-1l-2-1q-1-1-1-1t-1-1q0-2-1-2h-1v-2q-1-2-2-2-2 1-1 0z" fill="#141416" stroke="#141416"/>
  <path d="m228 490h1l3 1q2 1 2 1t-1 0v1l-5 5q-5 6-5 6h-1l-3 1h-3q0-1-2-1-3-1 0-5l3-4h1q0-1 0-1 1 0 1-1l3-1q4-2 6-2z" fill="#bec7c9" stroke="#bec7c9"/>
  <path d="m371 570h2q1-1 1-1h1v1q0 1-5 2-4 2-9 10-5 7-4 12 0 6 0 6h1v3l1 1v2h2l1 1 1 1h-3l-1-1-1-1h-1l-1-1-1-1h-1q-1 0-4-4-2-3-4-3h-2v-2h1q0-1 0-1 1 0 5-7t6-15q2-7 0-7h-1v-1h5l2 1q2 1 4-1 1-2 2 2t3 4z" fill="#cfd7da" stroke="#cfd7da"/>
  <path d="m592 294h3t0 1q1 0-1 1-2 2-11 6t-27 14l-18 10h-1v1h-1v1t-1 0v1h-1q-1 1-1 1h-1t0 1h-1q-1 1-6 4t-14 9-9 7-3 2-13 9q-9 8-12 8-2 1-2 2t-3 3l-3 1v1h1v1h-2v1h-1v1h1l1 1q2 1 4 1h3l-3 1h-6q-1-1-26-3t-54-4l-29-2h-2v-2h1v-1h1v-1h2v-1h1v-1l6-4q6-5 7-6l6-4q7-4 7-4v-1q1-1 2-1h1l4-3q4-3 4-3 1 0 1 0v-1t1-1l23-14q22-14 38-23t17-9h5l11-2q11 0 47 0 35 0 43 1t11 1z" fill="#181818" stroke="#181818"/>
  <path d="m87 484l1-4v5h1v-1h1v-1l1-1 1-1h1l1 1h2l6 2q6 0 6 1t-8 0h-8l2 2q1 3 4 3h2l4 1q4 1 3 1t-1 1l-1 1q-1 1-1 2v2h8l2 1 2 1h-8l-1 1h-1v2h-1v1h1l4 1 3 1h1v1h-2l-1-1h-18v2q0 2-1 2 0 1 0 2v1h-2q-2-1-6-1l-5-2h-2l-1-1h-2v-1h4l3 1h3v-3q0-4 2-12 0-7 1-10z" fill="#4e4f50" stroke="#4e4f50"/>
  <path d="m1082 504h5l1-1h1v2h-2q-2 1-4 1h-2v1h-1q-1 1-12 3-11 3-10 2l1-2q1 0 1 0v-1t1-1q1 0 1 0v-1l8-1q8-2 12-2z" fill="#363636" stroke="#363636"/>
  <path d="m589 337v1q-1 0-1 0 0 1-1 1v1q-1 0-2 2t-5 6q-4 3-6 6l-2 3h-1q-1 0-1-1l-1-1q0-1 0-3l1-3v-2l-1-1v-1h1l2 1h1v1h1v3h1l6-7q6-7 7-7t1 1z" fill="#313436" stroke="#313436"/>
  <path d="m457 568v2l-3 10q-4 9-4 10l-4 5q-4 5-4 6h-1v1h-1t-2-3l-2-2h-1v-3l-1-2v-1q0-1 1-2l1-1q1 0 1-1h1q0-1 0-1v-1l1-1q1-1 3-6l2-4 4-4q4-3 6-5t2-1q0 2 1 4z" fill="#f1f3f3" stroke="#f1f3f3"/>
  <path d="m459 548h1v15l1 1q1 1 1 1v2q0 2-1 3v1h-1q0-1 0-1t-2 0h-1v-2q-1-2-1-4 0-1-2 1t-6 5l-4 4v-1q0-1 1-2l1-1v-4l1-2v-2h1t0-1 3-5l2-4h1v-1l2-1q2-2 3-2z" fill="#bec3c6" stroke="#bec3c6"/>
  <path d="m988 510h3q1 0 1 0v5h-1v1h-1v1l-1 1v2q-1 1-1 2 0 2-2 2h-1t0-3q1-2 0-1-1 0-5 1l-5 1v1l1 1v2h-1q-1-1-3-1-2 1-4 0l-1-1h-1l-1 1h-1v-2h1l1-1h2v-3h1v-1h1t0-1h1l1 1q2 0 4 0 1 0 6-4 4-4 6-4z" fill="#767b7f" stroke="#767b7f"/>
  <path d="m394 545v3q0 2-1 2t-1 2v2t-1 0v1q-1 0-1 1 0 0-1 2-1 0-5 1l-3 1h-1q-1 0-2-1l-1-1t1-1 0-1l-1-1 4-1q3-1 8-5t5-4z" fill="#94999e" stroke="#94999e"/>
  <path d="m981 540h1q2 0 2 2v3l-1 1q-1 0 1 0 1 1 1 2v1h-1q-1-1-3-1h-2v-2q1-1 1-3v-2t1-1z" fill="#4e5053" stroke="#4e5053"/>
  <path d="m66 494h1l1 1q0 1 6 3t0 1q-7-1-7 1t-1 3-2 1v-2h-1v-7h1q1-1 2-1z" fill="#8e8f92" stroke="#8e8f92"/>
  <path d="m710 375h1v1h1l4 1 4 1t-22 2l-23 1v-1h5l2-1 2-1 13-1q13-1 13-2z" fill="#5b5f62" stroke="#5b5f62"/>
  <path d="m168 505l-1-1h5q6 0 16 1h24q0 1 2 1h8v1q0 1-2 1-2 1-2 2 1 2-14 2-14 2-26 0h-12v-1h3q3-1 2-2t-2-2-1-2z" fill="#232526" stroke="#232526"/>
  <path d="m98 455v-1h19l3 1h6l2 1h11l2 1h2v1l-1 2h-21q-2 0-13-2t-10-3z" fill="#2c2d2f" stroke="#2c2d2f"/>
  <path d="m612 245l5-1h5v1h-1v1h-1v2q-2 2-2 4v6h2v1h-2q-2 1-7 1h-13t-1-1 0-4q1-4 2-7l2-2h3q3 0 8-1z" fill="#348fb7" stroke="#348fb7"/>
  <path d="m402 613l2 1t-3 2h-3l-2 1q-2 1-6 1l-5 1 3-3q4-4 8-4 5 0 6 1z" fill="#494949" stroke="#494949"/>
  <path d="m158 438l5-3v1q-1 1-1 2v1l-2 2q-2 2-2 2v1l-3 3q-3 3-3 4v1h-1v1h-1v-5q0-2 1-3l1-1t0-2q1-1 6-4z" fill="#606568" stroke="#606568"/>
  <path d="m973 494v3h-1q0 1 0 1h-1q-1 0-3-1h-2q-1-1-3-1l-2-1v-1q-1-1-1-1v-1h4q3 0 6 0 2 0 2 0t1 2z" fill="#c5cdd0" stroke="#c5cdd0"/>
  <path d="m618 352v-1l7 1q7 0 7 1t0 2h-3q0-1 1-2 0-1-6-1h-6z" fill="#959595" stroke="#959595"/>
  <path d="m186 427v-1h12l1 1 1 1v3h-1v1h-1v1h-1v1h-1q-1 0-1 1t-2 2-3 2h-1v-1q0-1 1-1 1-1 1-2 1-1-1-2-1-1-6-2l-5-1t1-1l2-1h3v-1h1z" fill="#959a9d" stroke="#959a9d"/>
  <path d="m398 542h3v1h1v1l-2 1q-1 1-1 1h-1q-1 0-2-2v-1q1-1 2-1z" fill="#cdd1d3" stroke="#cdd1d3"/>
  <path d="m916 385v1h-3q-3 1-1-1 3-1 4 0z" fill="#c6c7ca" stroke="#c6c7ca"/>
  <path d="m679 240l5-1q6 0 5 6t-1 6v-3q0-2-1-2v-1l-1-1v-1q0-1 0-1 0-1-3-2h-4z" fill="#dd9393" stroke="#dd9393"/>
  <path d="m827 472v-1h20q0 1-10 1h-10z" fill="#c5c5c7" stroke="#c5c5c7"/>
  <path d="m902 327l-1-1h1q1 0 19 19 17 19 18 19 0 0 1 1v1h1v1h1v1l4 6q4 7 6 11t4 21q2 16 1 18t-1 2q-1 0-1 1v1q-1 0-6 5l-6 5h-1t0 1q-1 1-6 6-4 5-10 18l-7 12h-1q0 1 0 1h-1v1h-1v-1h-2v2h-1l-1 1h-1v-3h-2v-2q-1-3-1-4v-2t2-6l2-7 5-11q5-10 9-17 4-6 4-6v-1l1-1 1-1v-1l1-1v-1h-1l-1-1h-4q-4 0-29 2l-24 2-2 1-3 1h-4v1h-6q-6-1-17 0-12 1-20 1l-8 2h-6q-4 0-6 1h-3q0-1-11-1-12 0-20 1l-9 1h-7q-7 0-12 1-4 1-20 0-17-1-16 0t0 1v1h-2q-3 1-9 1h-6v3h-1q0 1-6 1h-9l-2 1h-3q-1-1-6-2l-5-1-1-1v-1h-1v-1h1v-1h-4l-1-1q-1 0-2-5l-1-6v-1q0-1-1-3t-4-6l-3-3v-1t-1 0v-1q-1-1-1-3-2-2-4-5l-4-3v-1h-1v-1h-1v-1l-1-1v-1h1l2-1 22-1q23-1 24-2h1l23-1q22-2 22-2l94-5q95-5 106-5h10l2-1h1v-1l-1-2-2-1-2-1t-1 0q-1-1-1-1v-1t-1 0v-1l-1-1v-1h-1v-1q-1 0-12-11l-11-11v-1l-1-1v-1h1l1 1h3v-1l-1-1-1-1q0-1 0-2zm14 58v1h-3q-3 1-1-1 3-1 4 0zm20 17t-1 1l-1 1h-3q-3 0-9 0-7 0-8-1v-1h-2q-1 0-4-2l-2-1h-1v-1h-1v-1h-1v-1h-1l2-1 1-1 19-1q18-1 17 3t-3 5-2 1zm-202-8h5v1q0 1-7 3-7 1-5-1 2-3 7-3zm-14 16l-5-4h1q1 0 4-1l3-1h8q8 0 11-1h17q0-1 1-1t1 4q-1 3-3 5-3 1-18 1t-20-2z" fill="#f2f3f3" stroke="#f2f3f3"/>
  <path d="m896 463l3 1q3 0 2 1 0 1 0 2h-3q-2 1-26 2l-25 2h-21v-1h-7v-1h7l8-1 31-2q31-2 31-3z" fill="#dedee0" stroke="#dedee0"/>
  <path d="m317 546h1v1q0 1 1 1 1 1 0 2t1 11 2 11q0 2 1 3v1h-1q-1 0-2-2l-2-2v-1q0-1-1-3-1-1-1-10v-11q0-2 1-1z" fill="#606466" stroke="#606466"/>
  <path d="m258 439h1v1q-1 0-1 0v2h1q1 1 1 2v1l-1 3q-1 2-1 3h-2l-1-1h-2q-1 0-1-1h2q1 0 0-2v-2h1q1 0 2-3t1-3z" fill="#999ea3" stroke="#999ea3"/>
  <path d="m436 515l1-1h6l1 1q1 1 4 1h2v1h-1v1h-2l-1 1q-2 1-12 4l-11 4h-3q-2 1-6 1l-5 2h-7v-3l1-1 1-1v-1l1-1 1-1v-1l11-1q11-2 13-2h3l1-1 1-1h1v-1z" fill="#ecedee" stroke="#ecedee"/>
  <path d="m538 456l1-18v3l1 3v2h7v-1q1 0 1-3l1-3v39h-1v6l-1 1-1 1h6v1h-4l-4 1h-6l-2 1h-2v-1h3v-7q1-7 1-25z" fill="#bdbcbf" stroke="#bdbcbf"/>
  <path d="m295 448l3-2v1q0 1-2 3t-2 2h-1q-1 0-3 2l-2 1v-1q0-1 1-1v-1q1 0 1 0 1 0 1-1h1q0-1 3-3z" fill="#a7afb2" stroke="#a7afb2"/>
  <path d="m255 454h1v1q0 1 3 1h3l-4 8q-4 7-5 8-1 0-1 0v1t-2 2q-2 1-4 2-3 1-2-1v-1q1-1 1-1h1v-3h1v-1q1 0 0-2l-1-3v-1t-1 0v-2q0-1 3-1 3-1 4-4 2-3 3-3z" fill="#3d3d3c" stroke="#3d3d3c"/>
  <path d="m1035 538l1-2v6q0 6-3 9-2 3-3 4t-2 1h-1v-1q1-1 1-1v-1t1-1 0-1q1 0 3-5l2-6t1-2z" fill="#50514f" stroke="#50514f"/>
  <path d="m380 344h1q1 1 1 2 0 2 1 2t1 1v1t-7 4l-6 4h-1t-1-2q-1 0-2-4l-1-4h1v2l1 1v-1l4-1q4-1 5-2t1-1h1q1-1 1-2z" fill="#53586d" stroke="#53586d"/>
  <path d="m702 429h4q1 0 1 15v15l13-1q12 0 14-1h3v10h-5q-6 1-26 2l-19 1v-40h6q6 0 9-1z" fill="#0b0c0c" stroke="#0b0c0c"/>
  <path d="m338 528l4-1 7 2q7 1 7 2h-2l-1 1h-1v1l1 1v2h2v1h1v1h1l1 1 1 1h2v1h1v1l3-1q3 0 4 0v2h-2l-2 1h-1v4l2-1q2 0 2 1l-1 1q-1 1 1 2l1 1h-1v1h-2q-2 0-3 3t-3 3-2 1v1h-1v1h-1l-1 1h-1v-2h1q0-1 1-1 1-2-6-4l-8-3h-1q-1-1-5-2l-5-2v-1h1v-1h1v-1q-1 0 1-9 1-9 4-9z" fill="#5a5e60" stroke="#5a5e60"/>
  <path d="m361 616l2-4v2h2v1h1v1h2l1 1q1 1 1 1h-6l-1 1h-3q-1 1-1 1-1 0 2-4z" fill="#505355" stroke="#505355"/>
  <path d="m280 446h2l-4 8q-4 9-4 10v1l-1 1-1 1v1q0 1-1 2-1 0-1 0v1l-4 7q-5 6-6 7h-12v-3l1-2 1-1v-1t1-2l1-3q1-1 1-1 1-1 5-8l4-8h1q1 0 3-2t8-5q5-3 6-3z" fill="#e9bb1e" stroke="#e9bb1e"/>
  <path d="m648 432h7l5 1q5 1 6 2h1v1h2v1h1v1h1t2 3q1 2 2 9 1 6-1 8 0 3-4 6-2 3-9 6-7 2-18 3l-11 1v-1h-1v-1h-2v-1h1v-3h6l2-1 3-1h1v-1l6-2q5-1 6-3 2-2 2-3v-11h-1v-1h-1v-1h-1l-1-1-1-1h-1q-1 0-6 0-4 0-8 2l-4 2v1l-1 1-1 2v-4q0-2 1-2 1-1 1-3v-2h-1q0-1-1-1 0 0-4-1h-3v-1h2l1-1 2-1h3l6-2q6 0 11 0z" fill="#0b0b0c" stroke="#0b0b0c"/>
  <path d="m323 582h1v1l1 1 1 1v-1l2 2q2 3 2 4v1h1v1h1l1 1 1 1t-1 1-3-1-3-1l-1 1v1q-1 1-2 1h-1q-1-1-1-2-1 0-2-3l-1-2v-1q-1 0-1 0v-2q0-2 2-2l1-1v-1q0-1 1-1 1 1 1 1z" fill="#999ea2" stroke="#999ea2"/>
  <path d="m646 256h27q19 0 20 1h1v1q0 1 1 1t1 1-2 1q-1 1-1 1h-13q-1 0-1-1t-29-1l-30-1v-1h8l8-1q9-1 10-1z" fill="#555055" stroke="#555055"/>
  <path d="m998 468h1l-2 6q-1 7-2 8l-1 2v5h1v1h2q-1 1-1 2-1 0-1 1h-1q-1 1-2 2 0 2-4 2t-5 0h-3l-3 1q-1 0-1 2v3h-1v1h-1l-1-2v-2h-2v-1h1v-1h1v-1h1v-1t1 0q1-1 4-13l4-12 1-1q1 0 6 0 6 0 7 0 1-1 1-2zm-24 34t0-1 0 1z" fill="#383a3c" stroke="#383a3c"/>
  <path d="m942 472l-2 6q-2 5-2 12-2 7-2 8 0 2-1 4l-1 1v4l-1 1-1 1v2l-1-1-1-2v-8l1-2v-2t3-8l4-8 2-4q2-4 2-4z" fill="#3c3930" stroke="#3c3930"/>
  <path d="m364 488h4v1q0 1 0 2t1 4v5q-1 3-1 5v2l-1 1-1 1v4t-1 1l-1 2q-2 3-2 4 0 0-1 0v1q-1 0-2 1-1 0-11 0l-11-2h-1v-1h-1v-1h-1v-6q0-2 4-6 4-3 4-4t9-7q9-7 13-7z" fill="#070808" stroke="#070808"/>
  <path d="m66 458l3-11q1 0 1 1v1h1v1h5q5 0 5 1v2q0 1 1 2t-3 1h-4v1h1v2h1v1h2q1 1 2 2h-5q-5-1-5 1 0 1-2 3-1 1-1 3v6h4v2h-1l-1-1h-3v-1h-1v-1h-1v-1h-1v1h-1v-2q1-3 3-14z" fill="#636667" stroke="#636667"/>
  <path d="m1074 563h2q2 1 4 0h2q0 1-4 1l-3 2h-10t1-1l4-1q4 0 4-1z" fill="#bbbbba" stroke="#bbbbba"/>
  <path d="m246 589h3v1q-1 1-1 2t-2 2q-2 0-2 1t-4 0q-5-1-6-3l-1-2h5q6 0 8-1z" fill="#292b2b" stroke="#292b2b"/>
  <path d="m615 352l1-1h2v1q0 1-1 2v1h-3v-1t1-2z" fill="#969696" stroke="#969696"/>
  <path d="m720 410l-5-4h1q1 0 4-1l3-1h8q8 0 11-1h4v1q-1 0 0 1 1 0 1 1t6 0q7-1 7-2t-1-1q0-1 1-1t1 4q-1 3-3 5-3 1-18 1t-20-2zm9-4q0-1 7 0 6 0 6 1-1 1-7 0-6 0-6-1z" fill="#7a7a7c" stroke="#7a7a7c"/>
  <path d="m410 627h1q0 1-3 4-2 3-4 4-1 1-5 1h-7q0-1-1-1h-1q0-1-2-1l-1-2h-8v-1h12l7-1q8-2 10-2 1 0 2-1z" fill="#636462" stroke="#636462"/>
  <path d="m688 251v1q0 1 13 1 13 1 23 1h10v2q0 1-1 2 0 1-4 2h-4t0-1q1 0-15-1l-16-1h-1q-1-1-20-1h-19l8-1q8-1 14-1h8q2-1 3-2t1-1z" fill="#726d75" stroke="#726d75"/>
  <path d="m985 524h-1t0 1v1q0 2 1 2t1-1h1q1 0 1 1v1h-1v1h-3q0-1-1-1h-1q0-1-2-1h-3v-1h-1v-3l-1-1v-1l5-1q4-1 5-1 1-1 0 1 0 3 0 3z" fill="#585c5f" stroke="#585c5f"/>
  <path d="m859 421h11q5 1 5 1h-8q-8 0-13 1h-4v36h10q10-1 18-1h8v1h1v1h4l-1 1-2 1h1l3 1h4q0 1-31 3l-31 2h-34l-2 1q-1 1-1 1h-11q-9 0-9-1-1 0 2-1 2 0 1-1 0-1 4-1 3 0 4-2 0-2 0-2-1-1-1-2v-1l5 2q6 1 14 1h9l7-2q8-2 13-5 5-4 5-5 0-2-2-2h-3l-5-1q-5-1-6-1t-1 1q-1 1-4 4l-4 3h-11l-1-1-1-1h-1v-1h-1v-1l-1-1-1-1v-8l1-1 1-1v-1h1v-1h1l2-2q2 0 8-1h6q0 1 0 1h1l2 1q2 1 3 1 2 0 5 0h3l3-1 3-1h2v-1h-1v-1h-1v-1h-1v-1h-1v-1h-1v-1h-2v-1h-1q0-1-9-2l-9-1 8-2q8 0 20-1 11-1 17 0z" fill="#b3b4b6" stroke="#b3b4b6"/>
  <path d="m676 240h7q3 1 3 2 0 0 0 1v1l1 1v1h-3q-4 0-6-1h-1v-1q-1 0-2-2l-1-1q0-1 2-1z" fill="#c8383b" stroke="#c8383b"/>
  <path d="m396 340h1v1q-1 1-3 2t-4 3l-3 2h-1q-1 0-2 1 0-1-1-1t-1-2q0-1-1-2h-1v-2q0-1 1-2 1 0 1-2l1-2h3q4 0 6 3 1 2 2 2 1-1 2-1z" fill="#5a5f67" stroke="#5a5f67"/>
  <path d="m93 455l3-7v2q0 3 2 2 0-2 1-2v4h-1v1q-1 1 10 3t13 2h2v1h-7q-6-1-12-1h-7v2t1 1 4 1h2l8 2q9 0 9 1h-5q-5-1-14-1h-8v2q0 1 1 2 1 0 0 1 0 1 1 1h2v1l-1 1h-3q0-1-1-2l-1 1q0 1 0 3v5l-1 1-1 1v1h-1v1h-1v-8q0-3 1-4v-3l1-2v-3q0-3 3-10z" fill="#717275" stroke="#717275"/>
  <path d="m1066 519l-1-1h8q8 0 9 1v1t-4 2l-5 2h-1q-2 0-4 1l-3 1t1-4q1-3 0-3z" fill="#141414" stroke="#141414"/>
  <path d="m1102 858h-7 1v-1h1v1h1q1 0 1-1t-1-1-1-2q1-1 1 0 1 0 4 0 2-1 2 0t2 0q1 0 1 1 1 1-1 2-1 1 0 1 2 0-4 0zm-2-1q0-1 1-1t1 1q-1 1-2 0z" fill="#868686" stroke="#868686"/>
  <path d="m1051 566h2q2 0 4 1h2q0 1-11 2l-11 1v-1h1v-1h4q3 0 6-1h2t1-1z" fill="#abaca9" stroke="#abaca9"/>
  <path d="m253 429h1v1q0 1 0 2t1 3v2q0 1-4 1h-4q1-1 3-3 3-3 2-3v-2q0-1 1-1z" fill="#404346" stroke="#404346"/>
  <path d="m570 446h6q6 0 6 3 1 3-4 4-4 1-7 2h-3v-5q0-4 2-4z" fill="#c0c0c1" stroke="#c0c0c1"/>
  <path d="m964 427q0 1-8 4-9 4-9 5t-3 2l-2 1v-1q0-1 6-6 6-4 7-4v-1q1 0 1-1h2v1h1v-1h2q1-1 2 0t1 1z" fill="#333" stroke="#333"/>
  <path d="m1010 460h1t1 1l2 7q2 6 4 8 2 3 2 4v2h-2v5h-2v-5q0-2-3-6-3-3-7-7-5-3-6-2l-1 1h-1l1-6q1-6 6-4t5 2z" fill="#464a4b" stroke="#464a4b"/>
  <path d="m926 578v-4h2v1h2q2 0 0 1 0 1 2 3t2 0q1-1 1-2h1v3h2v-1l1-1v-1h2v2h-1v1h-1v1h-1v1h-1q-1 0-1 1-1 1-4 0l-2-1-1 1h-1v-1q0-1-1-1t-1-3z" fill="#6a6969" stroke="#6a6969"/>
  <path d="m373 459h7q4 1 0 2t-4 2h-1q-1 1-6 1l-5 2h-2q-2 0-2-1 1-1 1-1h1t0-1l4-2q5-1 7-2z" fill="#646050" stroke="#646050"/>
  <path d="m181 445h1v1q0 1 1 1l-4 3q-5 4-9 14-4 9-4 11v2l-1 1v2l-2 2q-2 2-5 2-4 2-6 2h-3l-3 1h-4v-4q0-4 1-7v-3h1v-1q0-2 3-12l3-9v2h1v-1h1l2 2q1 2 7 2t10-2 5-3q0-1 0-1h1t0-1h1q0-1 0-1 1 0 1-1 1 0 1-1t1-1z" fill="#4d5153" stroke="#4d5153"/>
  <path d="m612 351l4-1v1l-1 1q-1 2-1 2v1h-2q-2 0-2-1-1-2 2-3z" fill="#5e5e5e" stroke="#5e5e5e"/>
  <path d="m260 429l2 1h3v-1h1v1h3l3 2q3 2 3 2h-1t1 1 1 1h1t1 1q0 1 0 1h1l1 1q1 1 0 2l-1 1h-1q-1 0-9 2h-8l-1 1v-1q0-1-1-2h-1v-1q1-1 1-1v-1q1 0 1-1 0-2-2-2l-3 1v-2q-1-2-1-3t0-2v-1h2q2-1 4 0z" fill="#727577" stroke="#727577"/>
  <path d="m401 551h1l-1 1q-1 2-1 3v1t-1 0v1l-1 1q0 2-1 3v1h-1t0-1v-3l1-2q1-1 1-2t1-1 1-1 1-1z" fill="#acb1b4" stroke="#acb1b4"/>
  <path d="m374 447h2v2h2l2 1h1v1h-1v1l1 2 1 1 1 1q2 0 2 1h-2l-2 1h-3q-3 0-3 1h-2q-2 1-7 2l-4 2t-1 1h-2q-1 0-7 4-7 4-15 10l-8 6-1 1h-1v1l-1 1v7h1l1-1 1-1h1v-1h1v-1h1v-1t4-3l3-2 1-1 1-1h2v2h-2l1 1 1 1h-2v1h1v1h2v2l-9 8q-9 9-13 17t-8 19q-2 11-2 24t2 20q2 6 3 8l1 1v2h1l1 2q1 3 2 3v1q0 1 1 1l1 2q0 2 1 2v1h1v1l5 5q5 6 12 11 6 4 9 6 4 2 4 2h1l1 1 2 1h4l3 1q3 1 7 2h5v1h8l1 2q2 0 2 1h1q0 1 1 1 0 1 1 1v1h1l1 1 1 1h1v1h1v2l1 1v1h-1l-2 1h-1v1h-1v1h-12q-12 0-20-2l-7-1v-1h-3v-1h-1v-1h-2l-1-1-1-1h-1q-1 0-16-8-14-8-23-15t-15-15l-6-9v-1h-2q-3 0-5 1-2 0-4 5-2 4-9 5t-24 0l-17-1v-1l1-1-4-1h-3v-6h3l3-1h5l1-1 1-1h1l1 2q1 2 6 3 4 1 4 0t2-1q2-1 2-2t1-2v-1h19v-2q0-2 2-13 0-11 2-18 2-8 4-10 2-3 3-3 1 1 1-1t1-2 1-4q0-3 1-3t1-1 1-1 1-1q0-2 4-13t12-24 18-21l10-9h1l1-1h1l13-6q12-6 18-7 7-1 10-2z" fill="#0a0a09" stroke="#0a0a09"/>
  <path d="m586 355h2l-1 5q-1 4-1 4v1h-1q0 1-1 2l-2 2q-1 1-1 1h-1t-2 1q-1 1-2 2v1q-1 0-3 2t-3 1l-2-1t0-1h1l9-10q8-9 8-10z" fill="#737373" stroke="#737373"/>
  <path d="m366 626l4 1q5 1 12 1h7l1 1q0 1 1 1v1h-17q-4-1-7-2l-3-1h1v-1h1v-1z" fill="#b8babc" stroke="#b8babc"/>
  <path d="m178 427h4v1l-2 1q-1 1-1 1l-7 3q-6 3-6 4h-1q-1 0-1 1 0 0-1 0v1h-1v-1q0-1 1-2v-1h1v-1h1v-1h1v-1l4-2q4-2 8-3z" fill="#6a6f71" stroke="#6a6f71"/>
  <path d="m752 426h6v1h-11v25h-1t-1 3-1 2-1-1q-1 1-1 1-2 0-3 0h-5q-2 1-14 1l-13 1v-15q0-15-1-15h-2v-1q1 0 0-1t16 0q16 1 20 0 5-1 12-1z" fill="#c7c7c9" stroke="#c7c7c9"/>
  <path d="m588 275h6q5-1 18-1h12v1q0 1 0 1h-3q-3 0-31 2h-27 1l1-1 1-1 11-1q11-1 11 0z" fill="#252c35" stroke="#252c35"/>
  <path d="m449 408q-1-5 1-4t3 5q0 3-2 3-1 0-2-4z" fill="#59595b" stroke="#59595b"/>
  <path d="m978 529h3v1q-1 0-2 1l-2 1h-1v2l1 1 1 1v5l1-1q0-1 1-1h1v1q-1 1-1 1v2q0 2-1 3v2l-1 5q-1 5-1 5h-1t-2-2-4-8q0-7-2-7h-2v-1q0-1 1-4v-4h1q2 0 2-1h2q2 1 2 0l1-1q1 0 3-1z" fill="#b7c0c2" stroke="#b7c0c2"/>
  <path d="m976 466t0 1h1v3q-1 1-1 3t-5 9l-5 8v1h-1v1h-5t-4-2l-3-2h-1v-1h1v-1h1v-3l1-1q1-1 2-4l1-2t1 0v-1q1 0 1-1l5-4q5-4 7-4 3 0 4 0z" fill="#0d0e0f" stroke="#0d0e0f"/>
  <path d="m234 492t1 0v2h-1l-2 2q-2 3-3 4v1h-1l-1 1h-1v1h-1v1q-1 0-1 0v1t-1 1h-1t-1 0v1h-1q0-1-2-1h-3q1-1 1-1h3l3-1h1t5-6l5-5v-1q1 0 1 0z" fill="#969e9f" stroke="#969e9f"/>
  <path d="m898 467h3l1 1t1 1l1 1v2l-3 13q-3 13-3 20t1 9l1 3v3h2v-1l1-1 1-1v1q1 0 2 0h1l-1 1q0 1 0 2l-1 1h-2l-1 1q-1 0-2 2 0 2-3 1-3-2-3-9-2-7-2-9-1-2-12-2-12 0-70 6-59 6-120 13-62 7-82 9-21 2-37 5t-23 3q-6 0-7 2l-1 2v-3h-1v-3l-1-3v-35h-6q-5 0-10 1h-5v-1h-1v-1l-1-1-1-1v-8 3h3l46-3q46-3 49-4h3l45-3q44-2 49-3l5-1h9l51-4q50-4 52-4h11q10 0 10-1l25-2q24-1 26-2z" fill="#9d9d9f" stroke="#9d9d9f"/>
  <path d="m400 490v7t-1 1q-1 2-11 2h-10l-1 1q-1 1-1 1 0-1 0-4v-4l1-1q0-1 11-2t11-1q1 0 1 0z" fill="#626669" stroke="#626669"/>
  <path d="m71 444l1-3h1v1h5q3 0 6 1l2 1h4-3q-3 0-4 0h-1v2h-1v1h1v2h2l2 1h2l-4 1h-3q0-1-5-1h-5v-1h-1v-1q0-1-1-1v-1q1 0 2-2z" fill="#76797c" stroke="#76797c"/>
  <path d="m402 489v-3h2v1h1v1h2v1q0 1 7 4 6 3 8 3 1 2 1 2h1v1h1v1h1v1h1q0 1 1 1 0 0 0 1h1l2 3q3 2 3 2v1l1 1 1 1v5h-1l-1 1-1 1h-3q-2 0-13 2l-11 1v-1t-1 0l-1-1v-1t-1 0q-1-1-1-10l-1-8v-4q1-4 1-7z" fill="#060607" stroke="#060607"/>
  <path d="m556 331h2q0 1 0 1h1t1 1v1q0 1 1 4v2l2 1q2 1 3 1v1h-1v1h-2q-2 0-3 0-2 0-4 1l-3 2h-4q-4 1-7 1l-2 2h-3l-1-1v-12l1-1 1-1v-1t1 0v-1h1l3-1q3-2 7-2 5 0 6 1z" fill="#eef1f2" stroke="#eef1f2"/>
  <path d="m565 344h2l1 1h1v1l1 1v2l-1 3q0 2 0 3t-1 1-1-2q-1-1-3 2-3 4-9 4h-8l-1-1-1-1h-2v-1h-1l-1-1v-1h1l1 1h3l4-2q4-2 5-2v-1h1q1-1 1-1 1 0 1 0v-1t1-1q1 0 1 0v-1l2-1q3-2 3-2z" fill="#44484c" stroke="#44484c"/>
  <path d="m396 561q0 1 0 1h1v2q-1 2-3 4t-4 0l-3-1v-1q-1 0-3-1l-3-1v-1q-1 0-1-1 0 0 0-1l1-1 3-1q4-1 5-1 1-2 1-2 1 0 1-1h1q0-1 0-1h2q1-1 1 3 1 4 1 4z" fill="#676b6e" stroke="#676b6e"/>
  <path d="m274 434h2q1 0 2 1 0 0 1 1l3 1q4 1 8 2l3 1h1v3l-2 3q0 2-1 4v1q-1 0-1 1 0 0-1 0v1q-1 0-1 1 0 0-1 0v2l-3 2q-2 3-3 4t-1 2v2t-1 0v1q0 1 0 1h-1v2h-2v1l-1-1h-3l-1 1h-1v-2h2v-2l1-1 1-1v-1q0-1 4-10l4-8t0-3-1-4l-2-1q-1-1-1-1-1-1-1-1h-1t-1-1-1-1z" fill="#5a5c58" stroke="#5a5c58"/>
  <path d="m566 275v1l-1 1-1 1h-1 27q28-2 31-2h3l30 2q31 2 38 1h6v-2 1q1 2 4 2h2l7 2q7 1 7 3-1 1 19 2 21 1 21 1v2t-1 0-29 0q-28 0-51 1t-33 4q-11 3-18 7l-6 5h-1v1h-1l-1 1-1 1-1 1v1h-2v-1l1-1v-2l1-1 1-1v-1q0-1 0-3 0-3-1-2h-1v-1q0-1 1-1 1-1 2-3l1-2v-1h1-21l4 1 5 1h-15q-3 0-11-1t-43-1q-36 0-47 0l-11 2h-4l2-1 1-1h2l1-1 2-1 20-4q19-4 31-6t17-2h6l2-1 1-1h1v-3l1-1 1-2v-2h1q1 0 1 2 0 1 2 2 1 0 0 1-2 1-2 2z" fill="#3b3d3f" stroke="#3b3d3f"/>
  <path d="m215 494l4-1q0 1-1 1 0 0-1 0v1l-2 1q-3 1-5 4t-1 3v1h1q1 0 1 1h-9q0-1-1-1t5-5q6-4 9-5z" fill="#707578" stroke="#707578"/>
  <path d="m334 594h3-1q-2 1-2 2v2h-1v1h1v2l1 2q1 3 1 3h1t-1 1q-2 0-2-1-1-2-4-7l-4-5 1-1q1-1 3 1t3 1 1-1z" fill="#c3cacc" stroke="#c3cacc"/>
  <path d="m914 403v-1h22t-1 1l-1 1h-3q-3 0-9 0-7 0-8-1z" fill="#b0b0b2" stroke="#b0b0b2"/>
  <path d="m375 558h2l1 1q1 1 2 1h1l-1 1q0 1 0 1 0 1 1 1v1l3 1q2 1 3 1v1q-1 0-5 0-4 1-6 1l-1 1q0 1-1 1h-1v-2q1-2 1-4 0-1-2-2-1 0 0-2 2-2 3-2z" fill="#656a6c" stroke="#656a6c"/>
  <path d="m460 571h1l-4 9q-3 10-4 10-1-1-2 0h-1q0-1 4-10l3-10 1-2q2-3 2 0 0 2 0 3z" fill="#b1b5b5" stroke="#b1b5b5"/>
  <path d="m188 582h6l1 1 1 1-1 2-1 1v1h-8q-7 0-20-2l-14-1h-2l-1-1h-3v-2h2l6-2q6-2 17 0t17 2z" fill="#262828" stroke="#262828"/>
  <path d="m548 384q0 1-1 1l-3 9q-3 8-3 9h-1q0 1-2 1-1 0-3-2-1-2-6-2-4 0-19 4t-20 6q-6 2-9 2l-3-1v-2q0-2-1-2 0-1-3-2l-3-1v-1h-1v1h-3v-2h4q3-1 3-2v-1q0-1 0-1 0-1 0-2h1v-1h-1v-2h-1l-1-1h-1l1-1 2-1h-15l3-1 2-1h3q3-1 3-2t0-1q0-1 0-1h2q1 0 1 1t1 1q2 0 2-1t20 0q19 1 26 1t9 0h2v-1h1v-1h8q6 0 6 0z" fill="#3f4243" stroke="#3f4243"/>
  <path d="m371 413v-1l24 1q24 1 35 3 12 4 13 4h1v4q0 4-6 7t-7 3h-1l-1 1-1 1h-2v2h2l1 1 1 1 9 3q9 4 17 9 8 6 9 8 1 3 5 6t7 6q3 4 11 8t10 4 2 1 1 1 3 5 3 4q1 0 2 3v4h6l1 1h6q5-1 10-1h6v4h-1v-1h-1v1h-2l-6 1q-7 1-12-1-6 0-10-8-5-8-12-9t-7 1q-1 1-4 1-4 1-9-7-6-8-12-15-8-7-13-10t-5-4-13-5-30-4-21 0l-4 1h-2q-3 1-10 2-6 1-18 7l-13 6h-1l-1 1h-1v-2h-1v-1h-1v-1h-1v-1h-1v-2h1v-1h-1v-1h2l1-1 1-1 4-2q4-2 4-2 1 0 1-1h1l2-1h3v-1h1l4-2q4-1 5-2h1q1-1 1-1l17-3q16-3 15-4t1-3q0-2 1-3l1-1v-3h-1q-1 0-1-2t-1-3q-2-2-9-2l-8-1q0-1 2-1 1 0-1-1h-2z" fill="#1d1d1e" stroke="#1d1d1e"/>
  <path d="m1089 560h1v1q0 1-4 1l-4 1h-2q-2 1-4 0h-2q-1-1-1-1l7-1q8-1 9-1z" fill="#959593" stroke="#959593"/>
  <path d="m978 458h2l2-1h1v1l-1 1v2q-1 1-2 1l-1 2h-1q-1 0-1 1 1 1 1 1v2q0 2-1 2v-1q-1-1-1-3-1-1-4-1-2 1-8 6l-6 5v-2l1-2v-2l1-1v-1h1v-1h1v-1l4-2q3-3 3-4t1-1q1-1 2-1h3q2 0 3 0z" fill="#595b5b" stroke="#595b5b"/>
  <path d="m1020 532h1l-2 4q-1 5-2 6v2h-1q-2 0-2-1t-1-1-1-2l-1-1h2q1 0 4-3 3-4 3-4z" fill="#69696a" stroke="#69696a"/>
  <path d="m563 344h2t-3 2l-2 1q-1 1-1 1h-1t0 1q-1 1-1 1h-1q-1 0-1 1h-1q-1-1-2-1h-1l1-1q1 0 1-1v-1l3-2q2-1 4-1 1 0 3 0z" fill="#85898d" stroke="#85898d"/>
  <path d="m220 441h3l5 2q4 1 4 2h1q0 1 1 1v2q1 3 0 3-2 1-3 1h-1v-1t-4 1q-4 0-4 1t-1 1h-1v-1q0-1 0-4t-1-4-1 1l-1 1v-3q0-3 3-3z" fill="#737577" stroke="#737577"/>
  <path d="m352 490l11-7h1v1h4q3 2 2 2-1 2-2 2h-4q-4 0-13 7-9 6-9 7t-4 4q-4 4-4 6v6h2v2h-2l-4-1h-5v-1l1-1v-1l1-1 1-1v-1q0-1 7-9t17-14z" fill="#323435" stroke="#323435"/>
  <path d="m378 584l3-3 3 1q2 1 3 2 1 2 0 2v1l-1 1q-2 0-2 1h-1q-1-1-2-1t-3 0q-1 0-1 1t-1 1h-1v-1q1-1 3-5z" fill="#474a4c" stroke="#474a4c"/>
  <path d="m1065 353h1v1h1v1h1v1h1v2h1l-6 1-7 1h-6v2q-1 0-7 0l-6-1v-7h-1v-1h-1q0-1-2-4t-3-3-1-1-2-1q-1-1-1-2-1-1-9-8-8-8-13-12-6-4-17-8-10-2-36-7t-44-6l-17-1h-1v4h1v1h1v2h1v1h1l10 10q11 9 14 13 4 3 18 17 13 12 14 13l2 1h6l-4 1h-4v-1h-2q-2 0-2 1l-1 1h-4v1h-1q-1-1-4-4-4-3-19-19l-15-15v-1t-1 0h-1v-1h-1q0-1-10-9-11-9-18-13-7-5-21-7t-53-5l-39-2v-1t-21-1q-20-1-19-2 0-2-7-3l-7-2h6l10-1q10-1 10-3-1-3 52 0 53 2 104 8 50 6 86 12 35 6 41 8t10 7 7 7q2 1 2 2t12 12q12 10 16 15 5 5 5 6z" fill="#424546" stroke="#424546"/>
  <path d="m638 404v-1l3 3q3 4 4 6t1 3v4h-1v1h1v2q0 1-1 1 0 1-5 1t-9-4q-4-5-5-5-1-1-2-3l-2-2 5 4q5 3 5 2 1 0 2 1l2 1h2l1-1 1-1v-4q0-4 0-4l-1-1v-1q-1 0-1 0v-2z" fill="#c7c8cb" stroke="#c7c8cb"/>
  <path d="m896 421h7v3l-1 4-8 1h-11q-2 0-2-2 1-2-2-3l-3-2h7q7 0 13-1z" fill="#181819" stroke="#181819"/>
  <path d="m334 520h3l11 2q10 0 11 0 1-1 2-1h1q0-1 0-1h2q2 0 3 2t1 3h1v4h-1v1h-1v1h-1v1h-2q-2 0-5-1h-3q0-1-7-2l-7-2v-1h-4l-1-1q-1-1-3-1h-2l-2-1-1-1h-2l3-1q2-1 4-1z" fill="#dfe3e5" stroke="#dfe3e5"/>
  <path d="m412 626h2v1q1 1 0 1-2 1-2 4 0 2-1 3t-1 1l-1 1-1 1 1 1h1v2h1v1h-1v1l-1 1q-1 0-7 2l-7 1v-1h1v-1t1-2l1-2h-1v-1h-1l-1-1-1-1h-1l-1-1h-1v-2h1l1 1h6q4 0 5-1 2-1 4-4 3-3 3-4h1q0-1 0-1z" fill="#1b1a1a" stroke="#1b1a1a"/>
  <path d="m618 352h6q6 0 6 1-1 1-1 2h-12v-1q1-1 1-2z" fill="#e5e5e5" stroke="#e5e5e5"/>
  <path d="m384 538h3q1 1 2 4v2h-3q-2 0-3 0t-1 1-1 1-3 0q-2 1-2 2v2h-6v-1h-1v-1h1v-7h1q0-1 0-1h1t0-1q1-1 1-1h1l2-1q2-1 4 0 1 1 4 1z" fill="#e5e8e9" stroke="#e5e8e9"/>
  <path d="m646 242h1v3l-1 3v5l-1 1v1h1l1 1h-1q-1 0-10 1l-8 1h-5v-2l1-1 2-5q2-6 11-6 9-2 9-2z" fill="#ce2c2f" stroke="#ce2c2f"/>
  <path d="m93 508v-2h18l1 1h4l1 1h2v1h-1v1h-1l-1 2q0 1 1 1l1 1h1v1h-1v1h-6q-6 0-13-2l-7-1v-1q0-1 0-2 1 0 1-2zm19 0h1v1h1v1q0 1-2 1h-1v-1l1-1v-1z" fill="#181819" stroke="#181819"/>
  <path d="m92 473l1-1v1q1 1 1 1h9l13 2q13 2 16 2h3l1 1 1 1h1v1l-1 2-1 2v2h-7q-3-1-12-1l-9-1h-1q0-1-5-1l-6-2h-2l-1-1h-1v-5q0-2 0-3z" fill="#161618" stroke="#161618"/>
  <path d="m970 442h6-1l-1 1-1 1h-2v1h-1v1h-1l-1 1q-1 1-2 1-2 2-8 6t-8 7l-2 3v1l-1 1-1 1v1l-1 1v1h-2v-2h1v-2h1l1-1v-1l5-6q5-5 5-6 0 0 1 0v-1h1v-1l4-3q3-3 4-3h1l1-1 1-1h1z" fill="#666457" stroke="#666457"/>
  <path d="m1014 548h1l1-1h1l2 3q1 2 2 2v1h-1q-1-1-3-1t-7 4l-5 3v-1q-1 0-1 0-1 0-1-1h-1q0-1 0-1v-1l2 1q2 1 3-1 1-1 3-2h1v-1l1-1v-1q1-2 2-2z" fill="#c5cbce" stroke="#c5cbce"/>
  <path d="m240 446l7-1h7v2q1 2 0 2h-6q-5-1-8-1l-2-1q1-1 1-1h1z" fill="#d4dde4" stroke="#d4dde4"/>
  <path d="m271 470h4l1 1v2l-1 1-1 2v9h8q9-1 12-2 2-1 3-2h1l-9 15q-9 16-13 18-5 2-6 3l-1 1h-7v-2q0-2-1-8-1-5-9-5h-8v-1h2v-1h1v-1h1v-1h1v-1h1t2-4q1-3 2-3t1-1v-2l2-1 2-1h1v-1q1-1 6-7l4-7q1-1 1-1z" fill="#5c6162" stroke="#5c6162"/>
  <path d="m945 534v-1h3l2 8q2 8 4 8h1v3q1 3 1 4 1 2 1 2h1v1q0 1 1 1t4-10l3-9h2q2 0 2 7 2 6 4 8t2 2h1l-1 3q0 3-1 4l-1 1v2l-1 1v1h8l-3 1-4 1v2l2 1 1 1h3l2 1q1 1 8 1h8v2h-9q-3 0-7 0-3 0-10-4-6-2-12-10-7-8-12-19l-4-11 1-2z" fill="#878c8f" stroke="#878c8f"/>
  <path d="m391 536q-1 0-1 0v1h-1q-1-1-2 0l-1 1h-2q-3 0-4-1-2-1-4 0l-2 1h-1t-1 1q0 1 0 1h-2v-2h1v-1h1v-1h2l2-1q2-1 2-3 0-1 4-1t5 2q1 1 3 2 1 1 1 1z" fill="#838689" stroke="#838689"/>
  <path d="m224 424t-1 0v1h-2q-2 1-7 2l-6 1-1 1-1 1h-1l-1 1-1 1h-1v2h-1v1l-7 4q-6 4-8 6-2 1-2 2h-2q-1-1-1-1h1t0-1 2-2q1-2 3-3l2-1h1q0-1 0-1h1q1 0 3-1 1-1 1-2t1-1h1v-1h1v-1h1v-1h1v-3l-1-1-1-1h-12v1h-1v1h-3v-1h-1v-1h1l1-1 1-1h1l1-1 1-1 20-1q20-2 19 0-2 2-2 3z" fill="#565a5d" stroke="#565a5d"/>
  <path d="m921 498l1-1 1 2q1 3 1 2h1l1 4q0 4 2 11 0 6 1 10l1 3v4h1v1h1v1h1v1h2v-1h1v-2l1-1 1-1 1-3q1-4 2-4t1 1h1v4l1 4v3l4 11q5 11 12 19 6 8 12 10 7 4 10 4 4 0 7 0h9v-1h2l1-1h3l8-6q8-6 8-7h1v-1h1v-2h1l1-1h1l1 1h-1v1h1v5h-2v3l1 1q-1 1-1 2t-1 1-4 4-4 5q-1 0-10 4-8 4-28 5h-20v-1h-2l-3-1-2-1h-2q-1 0-8-2h-7l-1-1-2-1h-1v-1h-1v1h-2v-1h-1v-1h3v-1h1l1-1 2 1q3 1 4 0 0-1 1-1h1v-1h1v-1h1v-1h1v-2h-2v1l-1 1v1h-2v-3h-1q0 1-1 2 0 2-1 2-1-1-3-3l-2-3v-1h-2v4q0 3 1 3 0 1-3 1-2 0-4 0-3 0-3-1t-4-3q-3-3-9-10-6-6-44-4-40 3-209 18l-170 16h-8l1-1 1-1h2l1-1 1-1h1q2 0 4-1 1-1 1-4t1-3 1-5q1-5 5-6l4-1 6-1h5v1h-1l-1 1-1 1h-1v1h-1v1h-2v1h-1v1h2l3-1 3-1 187-15q186-15 194-16h10q1 1 1 0l2-3q2-2 5-2 4-1 4-2 0 0-1 0v-1l-1-1v-1h-1v-1h2v-1q-1 0 0-1t1-2q1 0 6-17 4-17 5-17zm10 77q0-1 0-1 1 0 1 0 0 1-1 1zm15 3v1l1 1q0 1 2 1t2-1q-1-2 3-3t3 0-1 1q-1 1-1 2 1 1-2 2-3 0-7 0-4-1-2-2 1 0 1-2 1-1 1 0zm-28 2t1 0 1 0q-2 0-2 0z" fill="#040405" stroke="#040405"/>
  <path d="m936 402h-24q-1 0-4-2l-2-1h-1v-1h-1v-1h-1v-1h-1l2-1 1-1 19-1q18-1 17 3t-3 5-2 1z" fill="#79797b" stroke="#79797b"/>
  <path d="m902 523l1-1h2l1-1v2l-1 3-1 3v5l-1 2v2h-1l-1 1h-5q-5 0-5-4t-81 2q-81 7-176 14l-95 7v-15h1v3l1-2q1-2 7-2 7 0 23-3t37-5q20-2 82-9 61-7 120-13 58-6 70-6 11 0 12 2 0 2 2 9 0 7 3 9 3 1 3-1 1-2 2-2z" fill="#868687" stroke="#868687"/>
  <path d="m1034 507v1q-1 0-2 2v1l-2 4q-2 4-3 5v1h-1q0 1 0 1-1 0-1 1v1q-1 0-1 0l-1 1v-3l1-4v-4q0-3-1-3l5-3q6-2 6-1z" fill="#6a6e72" stroke="#6a6e72"/>
  <path d="m378 346t-1 1-5 2l-4 1v1l-1-1v-3l4-3q3-2 5 0 2 1 2 2z" fill="#282c32" stroke="#282c32"/>
  <path d="m386 588l1-1 5 4q5 3 6 5 2 2 2 2h1t1 1q0 1 0 1h1t1 1l1 2q1 2 1 3v2l-1-1-1-1v-1h-1q0-1-1-2-2-1-8-6l-5-5h-1v-1t-2-1l-2-1q0-1 2-1z" fill="#494c4d" stroke="#494c4d"/>
  <path d="m221 450v3q-1 0-1 1v2h-2q-1 0-1-4v-5l1-1q0-2 1-1t1 2 1 3z" fill="#9c9fa1" stroke="#9c9fa1"/>
  <path d="m62 500l1 2v1q0 1 1 1 0 0 1 1v1h-1q0 1 0 2v4h1l1 1 2 1 12 2q12 4 20 4 7 2 13 2h6v1h1v1h-1v1h-1v1h-2v1h-6q-6-1-22-3-16-4-22-6-6-3-7-6l-1-2v-3q0-3 2-3 1 1 1-2 1-3 1-2z" fill="#303133" stroke="#303133"/>
  <path d="m947 517v-1l3 2q4 2 5 5t2 5l1 3v2l-1 7q-1 7-2 8v1h-1q0 1 0 1-1 0-4-9l-2-8v-1l-1-4q-1-4-1-7v-3l1-1z" fill="#111213" stroke="#111213"/>
  <path d="m748 299l-1-4h9v1l40 2q40 2 55 4t19 5q4 2 4 3t7 6 10 8 4 4q0 1 1 1l1 1h1v1h1q0 1 1 1 0 0 0 1h1l11 11q10 12 11 12v1h1v1l1 1v1l1 1v1h1l-1 1-1 1h-11q-11 0-86 4l-74 4h-2v-15q0-13 0-19l-2-6h-3v-1h-1q0 1-6 2-7 1-7 2-1 1-3 2-3 1-39 9-36 10-41 10-5 1-6 0 0 0 0-2-1-1-4 0h-3v-1h1v-4h-1v-1h-2l-1-1-1-1h4v1h1v1h1q1 0 1-1 1-1 14-5t17-5q3-1 4-2 0-1 13-5 14-4 28-9t20-7q6 0 8 0t2-1 1 1l1 1v-1h1v-1h1v-1q0-2-1-3t-1-4 0-6z" fill="#1a1a1a" stroke="#1a1a1a"/>
  <path d="m128 450h9l3 1 4 1 1 1v1h-26v-1h3q4 0 4-1 0-2 2-2z" fill="#242528" stroke="#242528"/>
  <path d="m965 524h2l1 1q2 1 4 0 2 0 3 1v1q0 1-2 1t-1 1q0 1 1 2h1q0 1-4 1h-3v-3q0-3-2-3l-2 1v-1q1-1 1-1t1-1z" fill="#a7adb0" stroke="#a7adb0"/>
  <path d="m708 374h4v1h-2q0 1-13 2l-13 1-2 1-2 1h-5v1h-1q-1 1-24 2l-22 1h-2q-2 0-2 1h-3q0-1 0-3 1-2 1-2h3l40-3q40-3 43-3z" fill="#3b3d3f" stroke="#3b3d3f"/>
  <path d="m373 504l1-3v1t1 0v4q-1 4-1 6v2l-2 4q-2 4-3 6v1h-1q0-1-1-3t-3-2l-3 1v-1q0-1 1-1 1-1 2-3l1-2h1t0-1q1-1 1-1h1v-1l1-1 1-1v-1h2v-1q0-1 1-3z" fill="#93999c" stroke="#93999c"/>
  <path d="m569 355l1 1q0 1 1 1h1v1t-1 1q0 1-1 1t-6 6l-5 5v1q-1 0-1 0 0 1-2 2l-1 1h-1q0-1 3-5t-1-4h-17v-1l-1-1v-6l1-1v-1h2l1 1h1v1h2l1 1 1 1h8q6 0 9-4 2-3 3-2 0 2 1 2t1-1z" fill="#191b1c" stroke="#191b1c"/>
  <path d="m429 488v-2l8 7q9 7 14 15 5 9 9 20 2 10 3 13t1 9v7l-1 3q-1 2-1 4v1t-1-1l-1-1v-15h-1q-1 0-3 2l-2 1v1h-1v-2l1-1v-1q0-2 1-2v-2q1 0 1 0v-1h1v-1h1v-2h-1l-2 1-2 1h-1q-2 0-4 2h-2l-2 1q-2 1-2 1h-1q-1 0-9 3l-9 3h-1q-2 0-3 1h-1v-1t0-2q0-1-7-1h-7v-2h-1v-1h1v-1h1v-1h1v-2q0-2 2-2 1-1 1-2t5-3q6-3 6-4-1-1 1-1 2-1 2-2v-1l11-4q10-3 12-4l1-1h2v-1h1v-1h-2q-3 0-4-1l-1-1h5v-1l-1-1-1-2v-2l-1-1q-1-1-7-7l-6-7v-1h-1t-1-1h-2q0-1 0-1 0-1 1-2z" fill="#959a9e" stroke="#959a9e"/>
  <path d="m64 473h1v1h1v1h1v1h4t1 1 2 1h2l2 1 1 1h3v2h-4l-2-1q-1-1-3-1h-2l-1-1h-2v2q-1-1-3-1h-2v1h-1v1h-2v-1q0-1 2-4l1-3h1v-1z" fill="#a4a7a8" stroke="#a4a7a8"/>
  <path d="m340 422h7l4 3q4 3 5 7 2 4 2 6 0 1-1 2-1 0-1 0v1h-1q-1 1-5 2l-4 2h-1v1h-3l-1 1-1 1h-2v-2h2v-4q0-4-1-4 0 0 0-2-1-2-5-4l-5-2h-2v-1h-1v-2h1l1-1h1q1 0 1-1l4-1q4-2 6-2z" fill="#8c9497" stroke="#8c9497"/>
  <path d="m188 486l1-1 22 1q22 2 24 2h2v1h-4q-4 1-4 1h-1q-2 0-6 2l-3 1-4 1q-3 1-9 5-6 5-5 5t1 1h-5v-1h-3l-1-1-1-1h-2v-3q0-3 3-6l3-3h2v-1h1v-1h-3q-3 0-6-1-2-1-2-1z" fill="#383b3d" stroke="#383b3d"/>
  <path d="m353 565h3q2 0 0 7-2 8-6 15t-5 8v1q-1 0-1 0v1l-2 3q-2 2-2 3v1h-1v1h-1v1h-3v-2l-1-3v-2h-1v-1h1v-2q0-1 2-2h2v-1h1v-1h1v-2h1t3-10l3-9h1q0-1 2-3l2-2q1 0 1-1z" fill="#eceef0" stroke="#eceef0"/>
  <path d="m367 549l1-1h1v1h1v3q0 1 2 2 3 0 4 1h1l1 1q1 0 0 1t-1 1h-2q-1 0-3 2-1 2 0 2 2 1 2 4 0 2 0 2v1t-1 1h-2q-2 0-3-4t-2-2q-2 2-4 1l-2-1h-5v1h-1v1h-2v-2h2v-1l1-1h1v-1l1-1h1t0-1 2 0 3-3 3-3h2v-1h1l-1-1q-2-1-1-2z" fill="#969ca0" stroke="#969ca0"/>
  <path d="m1e3 523l3 5q3 4 3 4v1q0 1 0 1h1t1 1l1 1q1 2 2 2v1q0 1 1 1 0 0 0 1h1l1 1q0 2 2 2h1l-1 1q0 1 0 1h1v1h-1l-1 1h-1q-1 0-2 2v1l-1 1v1h-1q-2 1-3 2l-1 2h-2v-1h-1q-1-1-1-1-1-1-2-3-2-2-3-2t-1-1-1-1-1-2q-1-1-2-1-1-1-2-2 0-1-1-1-1-1-5-2l-3-1h-1q0 1 0 1h-1v1h-1v-5l-1-1-1-1v-2h1l2-1q1-1 2-1v-1h2q0 1 1 1h3v-1h1v-1q0-1-1-1h-1q-1-1-2-1v-1q0-1 0-1h2q2 0 2-2 0-1 1-2l3-2q2-2 4-1t3 3q1 3 1 3z" fill="#f2f3f4" stroke="#f2f3f4"/>
  <path d="m616 404v-1l4 2q3 1 5 3t3 3l1 1h2l1 1v3q0 1-4-1l-3-2v-1q-1 0-1 0 0-1-1-1v-1q-1 0-1 0 0-1-3-3t-3-3z" fill="#9ea0a3" stroke="#9ea0a3"/>
  <path d="m424 490l-2-3 2 1q3 2 4 2 0 0 0 1h2q1 1 1 1h1v1l6 7q6 6 7 7l1 1v2l1 2 1 1v1h-11l-1 1v-4l-1-1-1-1v-1t-3-2l-2-3v-1q-1 0-1 0v-2q0-1-2-4l-2-2v-1t0-1q1 0 0-2z" fill="#4e5153" stroke="#4e5153"/>
  <path d="m412 555h1l2 5q2 4 3 5v1t1 1v1h-1q-1 0-4-3l-2-3h-2v-2q0-1 1-3 0-2 1-2z" fill="#75797b" stroke="#75797b"/>
  <path d="m426 580l2 2q2 2 2 3v1h1v1h1v1l2-1q2-1 3-1h1l-2 2q-2 2-2 3v1l1 2v2h-1t-2 0-2 1-2 1q-2 1-3 2-1 2-4 4l-4 2 1-1v-1h2v-1h1v-1h1v-1h1v-1q1 0 4-4t0-10l-4-6h1q1 0 2 0z" fill="#bdc1c4" stroke="#bdc1c4"/>
  <path d="m612 346h2v-1h1l4 1q4 2 11 2h7v2h-1q-1 0-10 0h-10l-4 1q-3 1-2 3 0 1 2 1h12q0 1-12 0l-13-1h-4v-2h3v-1h1v-1h2l1-1 1-1h1q1 0 4-1l2-1h2z" fill="#2d2d2d" stroke="#2d2d2d"/>
  <path d="m309 435l4-1 4 1q5 1 7 3 2 1 2 6 0 6-2 7 0 1 0 2v2h-1v1q-1 0-1 0v1t-1 1l-1 1q-2 1-2 2h-3q-2 1-11 0l-9-1h-1v-2l-1-3v-3h1t2-3l1-2h1q0-1 0-1v-1q0-1 4-5 2-4 7-5z" fill="#e2e9ea" stroke="#e2e9ea"/>
  <path d="m616 385h7l3 5q4 4 5 5t3 4 2 3h1t1 1v3t0 1h1v1l-1 1v-1h-1v1h-1v-1h-5l1 2q0 2 0 2v1l-1-1h-2l-1-1q-1-1-3-3-3-2-5-3l-3-1q-1-1-1-1-1-1-9-6l-7-5h-1l-1-1-1-1h-1l-1-1-1-1h-1v-1h3l2-1h7q7 0 11-1z" fill="#767778" stroke="#767778"/>
  <path d="m896 539h4v1h-20v1q-1 1-11 1t-80 6-159 14l-88 7v-1h-5v-3q1-3 1-15v-13l1 3v18l95-7q95-7 176-14 81-6 81-2t5 4z" fill="#3f3f40" stroke="#3f3f40"/>
  <path d="m76 462h5l2 2q3 1 3 1v1h2l-1 1-1 1 1 2 1 1v1h1v1q-1 1-1 4v3l-1 4q-1 3-1 10-2 8-2 12v3h-3l-3-1h-4v1h-1q-1-1-2-1h-1l-2-1-1-1h-2l-1-1-1-1v-1h3q1-1 1-3t7-1q6 1 0-1t-6-3l-1-1v-2l3 1q4 1 5 1h1l2 1h3v-2h-1q-2-1-5-1l-3-2t-2-1-2-2q-1-2 0-2l1 1h2l3 1 2 1h4v1-3h-3l-1-1q-1-1-2-1h-2l-1-1-1-1h-2v-3h2l1 1h2q2 0 3 1l2 1h4v-2h-3l-1-1-2-1h-2q-1 0-2-1v-1t-1 0-1-1h-2v-6q0-2 1-3 2-2 2-3 0-2 5-1z" fill="#1b1c1d" stroke="#1b1c1d"/>
  <path d="m1086 384h5l1 1 1 1h1l2 12q2 13 3 18v5h-1q0 1-2 1t-4-2l-1-2v-2q-1-1-1-1v-1q0-1-6-13l-6-12v-1l-1-2q-1-1-1-2h2q3 0 8 0z" fill="#b11617" stroke="#b11617"/>
  <path d="m1012 361h26l6 1q6 0 7 0v-1h1v1h1v1h1v1h1l1 1 1 1 9 8q10 9 10 10t1 2l1 2v1l6 12q6 12 6 13v1q-1-1-4-1-3-2-4-1-2 0-2 1t-1 1-1-1-2-2l-2-2h-1l-1 1-2 1h-3v1h-1v1h9l-5 1q-4 1-6 1-1 0-2 2 0 1-10 2l-11 1v1l1 1v1l2 3q2 3 2 5v1l1 1 1 1v4l-1-1-1-1v-2h-1v-1h-1v-1l-1-1q-1-1-2-2l-1-2-1-1v-1h-2v-1h-1v-2h-1v1h-1v1l1 1 1 1v1l1 1 1 1 2 4q2 3 2 4v1l1 1 1 1v2l1 1 1 1v2h-1v-1h-1v-2h-1v-1h-1v-2h-1v-1h-1t-1-2-6-6-12-6-19-3q-11-1-24 2l-14 2t-1-1-2 0h-2v1h-1v-1h-1l-1 1h-1v-2h1q1 0 1-1 1-2-1-18-2-17-4-21t-6-11l-4-6v-1h-1v-1h-1v-1h1v-1h4l1-1h8l4-1h14q13 0 40-1z" fill="#38393b" stroke="#38393b"/>
  <path d="m454 545h1v1q-1 0-1 2v1l-1 1v2l-2 5q-2 5-3 5h-1v-1l1-1v-11l2-1q2-1 2-2t2-1z" fill="#626568" stroke="#626568"/>
  <path d="m254 452v-2h1l1 1h1v1q0 2-1 2h-1q-1 0-3 3-1 3-4 4-3 0-3 1 1 1 1 2v1h-1q-1 0-2-3l-1-3h-1q0-1-1 0h-1v-3q0-2 7-2 8-1 8-2z" fill="#6f7583" stroke="#6f7583"/>
  <path d="m403 547h1v2h7q7 0 7 1 0 2 0 2v1t-3 1l-2 1q-1 0-1 1l-1 2q-1 1-1 2v1t-1-3q-1-2-4-3t-3 1q-1 1-2 1h-1v-1l1-1q0-1 0-2l1-1h1t0-1v-2q0-2 1-2z" fill="#c0c5c8" stroke="#c0c5c8"/>
  <path d="m466 392h6l1 1h1v2h1v1h-1q0 1 0 2h-9l-2 1q-2 0-2 4l1 4v1h2q3 0 5 0h3v4h-2q-2 0-4-1t-2 1l-1 1h-1q-1 0-1-1-1-1-1 0h-1v-3q-1-3-1-5-2-2-4-3-3-1-6-1-4 1-4 6t1 7l2 3h1q1 0 2 1h2q0 1-2 1h-1l-2 1-2 1h-2q-1 0-13-4-11-2-35-3l-24-1v1h-5q-5 1-9 1t-13 4l-8 2-1 1-1 1h-3l-1 1-1 1h-1l1 1h1q0 1-1 1h-1l-1 1h-1v2h-2q-1 1-2 1h-3q-2 0-3-2 0-2-24-2h-29l1 1h1v2h-1l-1-1h-1l-1-1-1-1h1l1-1 2-1 26-6q25-6 48-10t23-5l51-5q50-6 54-6z" fill="#53585a" stroke="#53585a"/>
  <path d="m211 459v-1h2q2 0 2 2v2q-1 0-1 0v2q0 1-1 2l-1 1v1t-1-2l-1-3v-1t1-1v-2z" fill="#6a6f78" stroke="#6a6f78"/>
  <path d="m453 590l-5 8q-6 7-7 9t-2 2v1h-1l-1 1-1 1t-3 2-3 4q0 1-1 1-1-1-1 1-1 1-2 1-1-1-6 2l-6 3h-2t-2 0-2-1v-1h3l1-1 1-1h1q1 0 2-1l1-1h2v-1l-1-1v-1t-3-2l-3-1v-1l2 1q3 0 3-1l-1-1t-2-2l-2-2v-1h-1v-1h-1v-1h-1v-1h-1v-1l-1-1v-1h1l1 1h1v2h1v1h1v1h2q2 0 3 0h1q1 0 1-1l3-2q4-2 4-3t2-2q2 0 2-1t2-1 2 0h1v1h1l2 2q2 3 2 3h1v-1h1q0-1 4-6l4-5h1q1-1 2 0z" fill="#acb1b4" stroke="#acb1b4"/>
  <path d="m368 415h4l8 1q7 0 9 2 1 1 1 3t1 2h1v3l-1 1q-1 1-1 3-2 2-1 3t-15 4l-16 3-1 1h-1v-2h1q1-1 1-2t-2-5q-1-4-5-7l-4-3h-6l2-1 2-1h3l8-2q8-2 12-3z" fill="#5a5f61" stroke="#5a5f61"/>
  <path d="m1036 516v-6h1q1 0 1 1h1l-1 9q0 10-1 12l-1 1v3l-1 2q-1 2-1 2 0-1 0-6v-5l1-3 1-4v-6z" fill="#94989a" stroke="#94989a"/>
  <path d="m830 447l5 1h3q2 0 2 2 0 1-5 5-5 3-13 5l-7 2-1-1v-2h1v1h3v-4h-2v-1h-1v-1l4-3q3-3 4-4 0-1 1-1t6 1z" fill="#141415" stroke="#141415"/>
  <path d="m559 347h1v1q0 1-1 2-1 0-7 3l-6 3h-4q0-1-1-1v-1q-1 0-2-2l-2-2h1l1 1q1 1 3 1h2l2-1q1-1 3-1h3q2 0 4-1t3-2z" fill="#686c73" stroke="#686c73"/>
  <path d="m378 458h3l2-1h8q6 1 9 1h4l2 1 1 1h1v1l1 1v1h-10q-10 1-15 1h-6q-1 0-2-1 0-1 4-2t0-2h-5q0-1 3-1z" fill="#3e3c32" stroke="#3e3c32"/>
  <path d="m999 466v-1l5 3q4 2 8 7t4 7v1l1 1v2h-1t0 1h-2l-1 1h-3q-2 0-4 1l-2 1h-9v-1h-1v-5l1-2q1-1 2-8l2-6v-2z" fill="#0a0a0a" stroke="#0a0a0a"/>
  <path d="m1034 509v-1h1q1 1 1 2v12l-1 4-1 3v-5q0-5-1-6h-1t-4 3l-3 2v-1l1-1 2-5q4-4 4-4v-1l1-1q1 0 1-1z" fill="#c0c7c9" stroke="#c0c7c9"/>
  <path d="m631 439h1v2q0 2-1 3-1 0-1 2v12l1 2 1 1v1h1l2 2q2 0 5 1h2v1h-1l-3 1-2 1h-6v3h-1v1h2v1h1v1h-3q-3 0-5-1-1-1-6-4t-6-10q-2-6 0-11l2-5h1v-1h1v-1l2-2q3-1 4-2h4q4 1 4 1 1 0 1 1z" fill="#090909" stroke="#090909"/>
  <path d="m359 464h1v1l-1 2q-1 2-1 3v1q0 1-4 2-3 2-3 3-1 1-4 3l-3 1v1l-1 1q-1 0-1 0v1h-2l-1 1-3 2q-4 3-4 3v1h-1v1h-1v1h-1l-1 1-1 1h-1v-7l1-1v-1h1l1-1 8-6q8-6 15-10 6-4 7-4z" fill="#333028" stroke="#333028"/>
  <path d="m598 439h1q0 1 1 1 0 0 0 1h1l1 3q0 2 0 4v3q0 2-2 3 0 2-4 4t-16 4-12 10q0 7-6 8h-6l-4 1h-3v-42l11-1q10-2 23-1t14 1 1 1zm-28 7h6q6 0 6 3 1 3-4 4-4 1-7 2h-3v-5q0-4 2-4z" fill="#090909" stroke="#090909"/>
  <path d="m880 541h4l5 1 5 2q5 2 5 3h-11q-8 1-194 16l-187 15-3 1-3 1h-2v-1h1v-1h2v-1h1v-1h1l1-1 1-1h1v-1l9-1q9-2 16-2h8l1-1h1l88-7q89-8 159-14t80-6 11-1z" fill="#3a3b3e" stroke="#3a3b3e"/>
  <path d="m736 295h11l1 4q0 3 0 6t1 4 1 3v1h-1v1h-1v1l-1-1q-1-1-1-1 0 1-2 1t-8 0q-6 2-20 7t-28 9q-13 4-13 5-1 1-4 2-4 1-17 5t-13 5q-1 1-2 1-1 1-1 2v1q-1-1-1-1h-1t0-1v-1h-6q-7 0-11-2l-4-1h1l2-1h-8l-3 1q-3 1-5 1h-4v2h-1v-1h-1v1h-3v-1l1-1v-1h1v-1h1v-1h1v-1h1l17-18q18-18 25-20 8-4 28-6 21-2 40-2 18 0 28-1z" fill="#222" stroke="#222"/>
  <path d="m251 431h1v1q1 0-2 3-2 2-3 3l-4 3q-3 3-4 4v1h-1t-2 0h-2q0-1-1-1h-1q0-1-4-2l-5-2q0-1-3-1-4 0-4 1t-3 1l-2-1v9q-1 10 0 10v1q-1 1-1 1v4q0 3-10 4-11 2-20 4l-8 4h-1l-1 1-1 1h-1v1h-1l-1 1-1-1v-3l1-1v-2q0-2 4-11 4-10 9-14l4-3h1q0-1 2-2 2-2 8-6l7-4h1l2-1 22-2q22-2 23-2t2 1z" fill="#1f2121" stroke="#1f2121"/>
  <path d="m891 300l17 1q18 1 44 6t36 7q11 4 17 8 5 4 13 12 8 7 9 8 0 1 1 2 2 0 2 1t1 1 3 3 2 4h1v1h1v7h-26q-27 1-40 1h-17q-3 0-3 1h-6q0-1 2-1t-12-14-18-17q-3-4-14-13l-10-10h-1v-1h-1v-2h-1v-1h-1v-4h1z" fill="#151515" stroke="#151515"/>
  <path d="m593 260h13t-2 1-24 2q-23 2-23 3v1h-1q-1 0-1-3 0-2 1-2l2-1h1v1h4l7-1h12q6-1 11-1z" fill="#586975" stroke="#586975"/>
  <path d="m927 414h4l1 1h1v1l-1 1v1l-1 1-1 1v1t-4 6q-4 7-9 17l-5 11-2 3q-2 2-2 5-2 3-2 5v2t-1 1l-1 1v-2l-1-1q-1-1-1-1l-1-1q0-1 0-2 1-1-2-1l-3-1h-4l-3-1h-1l2-1 1-1h-4v-1h-1v-1h3l7-1h7v-8h-9l-9 1h-15v-7h9q9-1 15-1h5v-1h1v-6h-14l-13 1h-3v-6h8q7 0 7-1h9l8-1 1-4v-3h-7q-6 1-13 1h-8t-5-1h-5v-1h4l3-1 2-1 24-2q25-2 29-2z" fill="#bababc" stroke="#bababc"/>
  <path d="m94 487l-2-2h16q0 1 0 0l9 1q9 0 12 1h3q0 1 0 2 0 2-4 3t-4 2-9 0l-9-1q0-1 1-1t-3-1l-4-1h-2q-3 0-4-3z" fill="#505153" stroke="#505153"/>
  <path d="m1012 462l-1-2h1q1 0 3 2t4 3 3 1l4 4q4 5 4 6v1q-1-1-2-1 0 0 0 3-1 4-2 4l-1-1h-2l-1-1q-1 0-1 1t-1 1h-2v-1h1v-1h1v-1q0-1-2-4-2-2-3-6-1-3-2-3h-1v-1q0-1 1-1 1-1-1-3z" fill="#5e6365" stroke="#5e6365"/>
  <path d="m734 394h5v1q0 1-7 3-7 1-5-1 2-3 7-3z" fill="#c4c4c5" stroke="#c4c4c5"/>
  <path d="m359 481v1l1-1q2 0 2 1t1 1l-11 7q-10 6-17 14t-7 9v1l-1 1-1 1v1l-1 1v1h10v1h-1q-2 0-4 1l-3 1h2l1 1 2 1h2q2 0 3 1l1 1h4v1l-4 1q-3 0-4 9-2 9-1 9v1h-1v1h-1v1h-1q-2-1-7-2l-5-1v-1l-1 1h-1v12q0 9 1 10 1 2 1 3v1l2 1q1 1 2 2 0 1 0 1h1l1 2q0 2 1 3l1 1v3l-1-1-1-1v-1h-1l-1 1h-1v1l-1 1v3h-1v1h-1v-2l-1-1q-1-2-3-8-2-7-2-20t2-24q4-11 8-19t13-17l9-8v-1l1-1h2l6-4q5-3 6-3zm-41 104t1 0q0 1-1 1 0 0 0-1z" fill="#888c8f" stroke="#888c8f"/>
  <path d="m757 290l1 2q0 3-1 3h-21q-10 1-28 1-19 0-40 2-20 2-28 6-7 2-25 20l-17 18h-1v1h-1v1h-1v1h-1v1l-1 1v1h-1t-2 2l-1 2h-1t0 1q-1 1-1 1v1h-1q0 1-8 9l-7 9h-1q0 1 0 1-1 0-1 1h-1q0 1 0 1 0 1-1 2l-1 1t-2 1v2h-1v1h-1v1h-3v1l1 1v1h1v1h15q12 0 14-1h3v1h1l1 1 1 1h1l1 1 1 1h1l7 5q8 5 9 6 0 1 0 1h1l2 2q3 3 3 4 0 0 0 1h1q0 1 1 1 0 0 0 1h1v1q0 1 1 1t5 5q4 4 9 4t5-1q1 0 1-1v-2h-1v-1h1v-3l1 6q1 5 2 5l1 1h4v1h-1v1h1v1l1 1h-7q-5 0-11 0l-6 2h-3l-2 1-1 1h-2v1h-1q-1 1-4 2l-2 2h-2l-1 1h-8v1h-1v-1h-1l-1-1h-1v-1q-1 0-1 0 0-1-1-1h-1q0-1-1-1t-14-1-23 1l-11 1-1 3q0 3-1 3v1h-7v-2l-1-3v-16q1-13 1-17l1-5q0-1 3-9l3-9q1 0 1-1l3-4q3-4 4-4v-1l1-1q2-1 2-2 0 0 1 0v-1l5-5q5-6 6-6t1-1q1-1 1-1v-1l2-3q2-3 6-6 4-4 5-6t2-2v-1q1 0 1-1 0 0 1 0v-1l12-12q11-12 12-13 1 0 1 0v-1q1-1 1-1h1l1-1 1-1h1v-1h1l6-5q7-4 18-7 10-3 33-4t51-1q29 0 29 0z" fill="#f4f5f5" stroke="#f4f5f5"/>
  <path d="m215 496l3-2v1q0 1-3 3-3 3-4 4 0 1 3 2 2 0 2 1 0 0-1 1h-1q-2 0-2-1h-1q0-1-1-1h-1v-1q-1 0 1-3t5-4z" fill="#9ea3a6" stroke="#9ea3a6"/>
  <path d="m977 498l3-1h2v3q0 3 0 4h-2q-3 0-3 1h-1q-1 1-2 1l-2 1v-1q0-1 1-1 1-1 1-1v-1h1q1 0 1-3 0-2 1-2z" fill="#707478" stroke="#707478"/>
  <path d="m681 262h15q2 0 2 1t10 1q11 0 12 1l-2 1q-1 0 2 2 4 0 2 1-3 0-4 3 0 3 2 3l2 1h-1l-3 1q-3 1-6 2l-2 1h-8q-3 0-4-2v-5h-37l-37 1h-12q-13 0-18 1h-5v-3l1-3v-1l46-2q45-4 45-4z" fill="#e7ebed" stroke="#e7ebed"/>
  <path d="m694 258v-1l16 1q16 1 15 1 0 1 0 1-1 0 0 2 0 3-3 3h-2q-1-1-12-1-10 0-10-1t-2-1h-3t1-1q2 0 2-1t-1-1-1-1z" fill="#494f5e" stroke="#494f5e"/>
  <path d="m1096 546l-4-4h3q3 1 3 1v1h2v1l1 1 1 1v6h-1v1h-1v1h-1v1q-1 0-1 0l-1 1v-1q1-1 1-2 0 0 1-2 1-3-3-6z" fill="#a7a7a7" stroke="#a7a7a7"/>
  <path d="m344 557l-2-4 7 3q7 2 8 3v1q-1 0-1 0v1t-1 1q-1 0-1 0v2t-1 0v1q-1 0-1 1l-2 2q-2 2-2 3h-1v-3q-1-3-1-5t-2-6z" fill="#444749" stroke="#444749"/>
  <path d="m552 368v-2h4q4 0 3 2t0 2v2q-1 0-1 0h-1q-1 0-1 1-1 1-1 1v2q-1 0-2 2t-3 4q-1 3-2 3h-1v-1h-10v-1h2l2-1h1v-1h1q0-1 4-6 5-5 5-7z" fill="#5c6162" stroke="#5c6162"/>
  <path d="m814 469h5v1h7v1h1v1h-1q-2 0-52 4l-51 4t-5-1l-4-1h-4v-1h4l3-1 30-2q30-2 39-3l9-1h9q6 0 10-1z" fill="#dedee0" stroke="#dedee0"/>
  <path d="m1060 563h4l1 1q1 0 1 1-1 1-1 1h-2q-2 0-3 1h-3q-2-1-3-1h-2l-1 1h-1v-1q0-1 4-2 3 0 6-1z" fill="#797977" stroke="#797977"/>
  <path d="m140 471h1v1h2v4q-1 3-1 7v4h4l3-1h3q2 0 6-2 3 0 5-2l2-2h1q2 0 3-1h1l-2 2q-1 1-2 2l-1 1h5l2 1h1q0 1-5 0-4 0-6 3-1 3-11 5l-10 1v1h-1v1h-1v1h-1v5h12q11 2 14 2h3l1 1q0 1 1 2t2 2-2 2h-5q-3-1-6-1h-4l2 1 2 1 1 1v1h-3l2 2q2 0 0 1-1 1 3 3t14 7q11 6 13 7 2 2 6 8 4 5 9 12 6 6 7 6t4 3q2 3 6 4 4 2 5 3 0 1 3 2 4 0 4 1t2 1h1v2l1 3v1h-1v1h-1v1l-1 1q-1 1-1 2v1h-1v1h-1l-1 1h-6l1 1 1 1h-5v-1h-1v-1q1 0 1-2t-1-4q-1-3-3-3-1-1-2-2 0-1-4-4-5-3-5-4-1-1-2-1-1-1-1-2t-1-1q-1-1-3-3-2-3-3-3-1-1-4-4t-4-3-1-2q-1-1-8-1t-7-2q1-2-3-3-4 0-11-1t-7-3q0-1-2-2-2 0-6-1t-5-1q-1-1-5-2t-4-2q0-2 0-2-1-1-1 0t-3 1h-4v-1q0-1-2-2l-2-1v-1h2v-1h1v-1h1v-1h-1v-1h-6q-6 0-13-2-8 0-20-4l-12-2-2-1-1-1h-1v-7l1 1h2l1 1 2 1h1q1 0 2 1h3l1 1h2l5 2q4 0 6 1h2l7 1q7 2 13 2h6v-1h1v-1h-1l-1-1q-1-1-3-1l-3-1v-1l1-1v-1h1v1h1q0 1 1 1h3v-1h1v-1h-2l-1-1h-2v-1h-1l-3-1-4-1h-1v-1h1v-2h1l1-1h8l-2-1-2-1h-8v-2h-1v-1h-1v-1h1l1-1h2l9 1q9 1 9 0t4-2 4-3q0-1 0-2h4v-2l1-2 1-2v-1h-1l-1-1-1-1h-3q-3 0-16-2l-13-2h-6l1-1v-1h8l16 2q16 0 17-1t1-2z" fill="#161616" stroke="#161616"/>
  <path d="m422 487l2 2q3 2 3 3t-2 1q-1 0-1 0v1l2 2q2 3 2 4t1 2v1h-2v-1l-1-1v-1h-1v-1h-1v-1h-1t-1-2q-2 0-8-3-7-3-7-4v-1h-2v-1h-1v-1h-2v3q0 3-1 7v4h-1v-15q0-5 6-4 7 1 12 3 4 2 4 3z" fill="#2f3134" stroke="#2f3134"/>
  <path d="m686 433h1v37l19-1q20-1 26-2h5v-10h2q1 0 3 0 0 0 1-1 1 0 1 1t1-2 1-3h1v14h11l4-1q5 0 5-1v-2h1v1l1 1 1 1v-1h1v1h1v-1h3l1-1 2-1h-1v-1h-1v-1q0-1 4-2 3 0 3-1v-1l1 1q2 1 2 2h1q0 1 1 1v3q-1 3-4 3-4 0-4 1 1 1-1 1-3 1-2 1 0 1 9 1h9l-9 1q-9 1-39 3l-30 2-3 1h-8q-3 1-48 3l-44 4h-10q-1 0-26 2l-26 1v-1h-6l1-1 1-1v-6h1v3h3l4-1h6q6-1 6-8 0-8 12-10t16-4 4-4q2-1 2-3v-3q0-2 0-4l-1-2h-1v-1l-1-1v-1h1l1 1h1v1h1v1h1v1h1v-1h8l1-1h2v1h-1v1h-1l-2 5q-2 5 0 11 1 7 6 10t6 4q2 1 5 1h3l11-1q11-1 18-3 7-3 9-6 4-3 4-6 2-2 1-8-1-7-2-9-2-3-2-3h-1v-1h-1v-1h-2v-1h2l2-1h9q6 0 6-1z" fill="#b7b7b9" stroke="#b7b7b9"/>
  <path d="m318 548l-1-2h1l5 1q5 1 7 2h1l5 2q4 1 5 2h1l2 4q2 4 2 6t1 5v3l-3 9q-3 10-3 10h-1v2h-1v1h-1v1h-4l-1-1-1-1h-1v-1h-1v-1q0-1-2-4l-2-2v-2l-1-1q-1-1-1-3l-1-2q-1-1-1-1v-2q0-2-2-12t-1-11-1-2z" fill="#0b0c0c" stroke="#0b0c0c"/>
  <path d="m1069 358v-1h1q1 0 2 2 2 1 3 2 1 0 8 9 7 8 7 9v1h1v1h1v2h1v1h1v2h-1l-1-1-1-1h-5q-5 0-8 0h-2q0-1-10-10l-9-8-1-1-1-1h-1v-1h-1v-1h-1v-1h-1v-1h6l6-1q6 0 6-1z" fill="#e84d44" stroke="#e84d44"/>
  <path d="m980 504h2l4 2q4 2 5 3v1h-3q-2 0-6 4-5 4-6 4-2 0-4 0l-1-1v-2l1-2 2 1q1 0 3-2 2-4 3-4 2 0 2-1t-1-1-3-1h-1q0-1 3-1z" fill="#a2a7ab" stroke="#a2a7ab"/>
  <path d="m677 247v-2h1q2 1 6 1h3q1 0 1 2v3t-1 1-3 2h-2q0-1-2-3t-3-4z" fill="#913535" stroke="#913535"/>
  <path d="m232 587l2-1h7l4 1q4 1 4 1h-1v1h-2q-2 1-8 1h-13l-1-1-1-1h6l1-1h2z" fill="#b4b9ba" stroke="#b4b9ba"/>
  <path d="m259 439h-1t-1 0q0 1 1 1h1t-1 1v1h-1q-1 0-1 2 0 1-1 1h-8q-7 0-7 1t-1 1h-1v-1q0-1 5-4l4-4h4q4 0 4-1l3-1q2 0 2 2 0 1-1 1z" fill="#727886" stroke="#727886"/>
  <path d="m1044 532h2v1l-1 1v1h3l4 1 18 2q19 4 20 4h2l4 4q4 3 3 6-1 2-1 2 0 1-1 2v1h-1v1h-1q-1 0-3 1l-2 1q-1 0-1 1h-7q-7 1-8 1h-4q-3 0-4 1h-6q-3 1-6 2l-3 1h-1t0 1h-2q-3 1-6 1h-4v1h-1v1h-3q-4 0-6 1l-2 1h-1l-1-1v-3h2v-5h-1v-1h1l-1-1h-1l1-2q1-2 2-3 1 0 1 0v-1t2-1q1 0 3-3 3-3 3-9v-7h1v1h1v1h1v1h1v-1l1-1 1-1v-1q1-2 2-2z" fill="#31312e" stroke="#31312e"/>
  <path d="m624 274l37-1h37v6h-6q-7 1-38-1l-30-2t0-1v-1z" fill="#222224" stroke="#222224"/>
  <path d="m210 466v-3l1 3q1 2 1 2v1l-1 1-1 1v1l-1 1q-1 1 6-1 7 0 12-2 5-1 5-2v-1l1 3q1 3 5 3 3-1 4 0 0 1 0 1h1t1 1v1q-1 2 2 1 2-1 4-3 1-2 2-2h1l-1 3q-2 3-2 3v1l-1 1-1 2v3h12v1h-1l-2 1-2 1h-20q-2 0-24-2l-22-1h-1q-2 1-8 0h-8l-2-1h-5v-1h1v-1h2v-1l1-1h1v-1l1-1h1l8-4q9-2 20-4 10-1 10-4z" fill="#595c5c" stroke="#595c5c"/>
  <path d="m372 518l2-4-2 8q-2 8-3 8 0 0-1 1h-1v-1l1-1v-1l1-2v-2q1-2 3-6z" fill="#767b7d" stroke="#767b7d"/>
  <path d="m566 379v5h3l2-1h2l7 1q8 0 9 1t5 1h4l-2 1h-6q-2 1-14 1h-15v-1h-1v-1l-1-1v-1h3v-1h1v-1h1v-2q2-1 2-1z" fill="#464748" stroke="#464748"/>
  <path d="m604 484h2l2 1 2 1h5v1h-3q-3 1-49 4l-46 3h-3v-4h5q5 0 10-1h7l2-1h6l4-1h4l26-1q25-2 26-2z" fill="#dcdcde" stroke="#dcdcde"/>
  <path d="m145 582h-1v1h1v1h4l1 1h2v3h-2v1l-1-1-1-1v1h-3v1h1v1h-1l-1 1-1 1h-1v1h-1q-1-1-9-2-9-1-24-6l-15-4v-1q-1 0-1 0 0-1 0-2l1-1 1-1-1-1v-1h-2q-2 0-2-1 1 0-2-5l-3-5v-5l1-1v-1h3l2 1q3 0 3-1t14-2q14 0 15 1 0 1 4 2 5 1 4 5 0 3 4 4 4 0 6 4t3 6q0 2 2 2t1 2-1 2zm-59-23t1 0q0 1-1 1 0 0 0-1z" fill="#030303" stroke="#030303"/>
  <path d="m976 505h2q2 1 3 1t1 1-2 1q-1 0-3 4-2 2-3 2l-2-1v-3h-4 2q2-1 2-2v-1t1-1h1q1 0 2-1z" fill="#d8dddf" stroke="#d8dddf"/>
  <path d="m407 600v1q1 0 1 1v1h-2v-2h-2v-1h-1l-1-1v-1h-2t-2-2q-1-2-6-5l-5-4v-1q1 0 0-2-1-1-3-2l-3-1h5q4 1 12 10t9 9z" fill="#898d8f" stroke="#898d8f"/>
  <path d="m62 480h1v18q1 3 1 4v1h-1l-1-2q0-2-1 1 0 3-1 2-2 0-2 3v9t0-14v-16q0-2 1-3l1-1q1 0 1-1h1q0-1 0-1z" fill="#484b4d" stroke="#484b4d"/>
  <path d="m559 333l-1-2 3 3q3 3 4 4v1q0 1 1 1v2q-1 0-3-1l-2-1v-2q-1-3-2-5z" fill="#b8bec3" stroke="#b8bec3"/>
  <path d="m1070 562h3t1 1q0 1-4 1l-4 1q0-1-1-1l-1-1h2q1-1 4-1z" fill="#7c7c7a" stroke="#7c7c7a"/>
  <path d="m598 246h3l-2 2q-1 3-2 7-1 3 0 4t1 1h-5q-5 0-11 1h-6q0-1-2-1l-1-1q0-1 2-1t3-2q0-1-3-2h-4v-1q-1-1-1-1v-1t1-1v-1h-5v-1h14q14-2 18-2z" fill="#308db7" stroke="#308db7"/>
  <path d="m422 552h1l-2 2q-3 3-3 4 0 2 0 4v3q-1-1-4-5l-2-4q1 0 1-1l2-1q3-1 3-1h1q1-1 3-1z" fill="#393b3c" stroke="#393b3c"/>
  <path d="m984 525v1q1 0 2 1 0 1-1 1t-1 1v1q-1 0-1-1h-5q-2 1-3 1l-1 1h-3v-1q0-2 2-2t2-1v-1h1v1h1v1l3-1q2 0 3-1t1-1z" fill="#818588" stroke="#818588"/>
  <path d="m1042 441v1h-2q-1 0-1-1t-3-1q-2 1-6-1-3-3-12-7t-24-4-25 4-10 5-1 1-2 2q-2 2-4 2h-1v1h-1v2h-1v1h1v2h1l1 1 1 1h1v1h1v-1h3v1h-2v1q0 1-5 6l-5 6v1l-1 1h-1v2h-1v2q-1 0-1 1v1t-2 4l-2 4-4 8q-3 8-3 8h-1v-1l-1 1-1 1v5h-2v-1q0-1-1-1v1h-1q0 1-1-2l-1-2v3h-3l-4 16q-4 16-5 16 0 1-1 2t0 1v1h-2v1h1v1l1 1v1h-6v-4l1-2v-5l1-3 1-3v-4t1-1v-2q1-1 6-20l5-20t1 0v-1l7-12q6-13 10-18 5-5 6-6 0 0 1-1h2q2-1 2-2t9-5q8-3 8-4l14-2q13-3 24-2 12 1 19 3t12 6 6 6 2 2 1 1z" fill="#0f0e0e" stroke="#0f0e0e"/>
  <path d="m63 480h2q2 0 3 1v1h2l1 1 1 1h2q1 0 2 1l1 1h3v3-1h-4l-2-1-3-1h-2l-1-1q-1 0 0 2 0 1 2 2t2 1l3 2q3 0 5 1h1v2h-3l-2-1h-1q-1 0-5-1l-3-1v2h-1q-1 0-2 1h-1v-15z" fill="#b3b6b8" stroke="#b3b6b8"/>
  <path d="m799 425l-7 3q-6 3-9 6t-3 8q-2 5 0 10 2 4 3 4v1q0 1-3 1-4 1-4 2v1h1v1h1l-2 1-1 1h-3v1h-1v-1h-1v1l-1-1-1-1v-1h-1v-36h-7l-1 1h-1v-1l18-2q17 0 20 0t3 1z" fill="#c1c1c4" stroke="#c1c1c4"/>
  <path d="m223 441h-3q-3 0-3 3v8q0 4 1 4h1v1l1 1q1 0-2 2-2 1-2 2t-1 1h-1v-1q0-1 1-2 0-2-2-2h-2v2q-1 0 0-10v-9l2 1q3 0 3-1t4-1q3 0 3 1z" fill="#4f5358" stroke="#4f5358"/>
  <path d="m1018 485v-1h4q4 0 6 1h2v2h-1l-1 1h-2v1h-1v1h-1q-2 0-7 2t-13 3l-9 2v-4q1 0 1-1t1-2h7l2-1q2-1 4-1h3l1-1h2t1-1q1 0 1-1z" fill="#e9ebeb" stroke="#e9ebeb"/>
  <path d="m220 456h3l7 1q8 0 8 1t1 1v1q0 1-3 1t-3 1q-1 1-1 3v3q0 1-5 2-5 2-12 2-7 2-6 1l1-1v-1l1-1 1-1v-2l1-1q1-1 1-2v-1q1-1 1-1h1t2-2q3-2 2-2l-1-1h1q0-1 0-1z" fill="#252727" stroke="#252727"/>
  <path d="m395 543h1v1q1 2 2 2h5v1q-1 0-1 2v2t-1 1h-1q-2 1-2 2t-1 2l-1 2v3t-1-4q0-4-1-4t-1 1q-1 1-2 2h-1v-1q0-1 1-3t2-2 1-2v-4q0-1 1-1z" fill="#74787c" stroke="#74787c"/>
  <path d="m540 403h1l-1 5q0 4-1 17v13l-1 18q0 18-1 25v7h-3v1h-5q-5 1-10 1h-5v9l1 1 1 1v1h1v1h-1l-1-1h-6v-4q-1-3-1-3 0 1-2 0l-2-1v-1q0-1-1-1v-2q-1-1-1-2 0-2-1-2t-1-1-2-1-10-4-11-8q-3-3-7-6t-5-6q-1-2-9-8-8-5-17-9l-9-3-1-1-1-1h-2v-2h2l1-1 1-1h1q1 0 7-3t6-7v-4h1l1-1q1-1 0-1t2 0q4 0 4-1l3-1q3-1 3-2 0 0 1-1v-1h1q1 0 2 0 0 0 0 1h1l1 1q2 0 7 0t6-1 1-1v-1l3 1q3 0 9-2 5-2 20-6t19-4q5 0 6 2 2 2 3 2 2 0 2-1z" fill="#2e2e30" stroke="#2e2e30"/>
  <path d="m382 336h1l-1 2q0 2-2 2-1 0 0 1 2 0 2 1t-1 1q-1 1-1 1 0 1-1 2h-1q0-1-2-2-1-2-3-1t-4 3l-2 2h-1l4-5q3-5 8-5 4-2 4-2z" fill="#5c5e63" stroke="#5c5e63"/>
  <path d="m615 300v-1h1q1 0 1 3-1 2-1 3v1l-1 1-1 1v3q-1 1-1 1-1 1-6 6-5 6-9 10-4 3-4 4t-4 4l-3 3v-1q-1 0-6 6l-6 6h-1v-3h-1v-1h-1l-2-1h-2l-1-1h-2v-1h1v-2l-1-1v-1h1l1 1 3-1q3-1 22-19t20-19 2-1 1 0z" fill="#606467" stroke="#606467"/>
  <path d="m400 497v3h1l1 8q0 9 1 10 1 0 1 0v1l-2 2q-2 2-2 3v1t-1 1v3q1 3 1 3 0 1-1 3v2h-1l-1-1h-6t-1-1q-2-1-3-2-1-2-5-2t-4 1q0 2-2 3l-2 1t-1 0v1q-1 0-1 1 0 0-1 0v1q-1 0-1 1 0 0-1 0v1q-1 0-4 0l-3 1v-1h-1v-1h-2l-1-1-1-1h-1v-1h-1v-1h-2v-2l-1-1v-1h1l1-1h5q3 1 5 1h2v-1h2q0-1 0-1 1 0 1-1h1q0-1 2-8l2-7v-2q0-2 1-6v-3h1q0-1 0-1t1-1l1-1h10q10 0 11-2 1-1 1-1z" fill="#37383a" stroke="#37383a"/>
  <path d="m650 442h1l1 1 1 1h1v1h1v1h1v11q0 1-2 3-1 2-6 3l-6 2h-2q-3-1-5-1l-2-2h-1v-1l-1-1-1-2v-8l1-2 1-1v-1l4-2q4-2 8-2 5 0 6 0z" fill="#bfbec1" stroke="#bfbec1"/>
  <path d="m983 548h1t0 1h1l7 6q6 6 6 8 0 1 0 2-1 1-1 1h-1q-1 0-2 1l-1 1h-1q-2 0-6 1l-5 1h-8v-1l1-1v-2l1-1q1-1 1-4l1-3t1-5l1-5h1q2 0 3 0z" fill="#111212" stroke="#111212"/>
  <path d="m1040 441h1q0 1 1 1v1h1v1h1v2t-1 1q0 1-1 1t-1 0l-1 1h2q2 0 2 4t3 12q2 8 5 8 4 1 4 4 1 3 2 3 2 0 2 1t-1 1 2 2q3 1 4 8t2 7 1 1-1 2q-1 0 0 1 0 1-3 1-2 1-2 2v1q-1 1-1 1h-1t0 1q-1 1-1 1l-1 2q-1 1 10-2 11-2 12-3h2v1h6v-1l1 1 1 1v3h-5v1h-1v5h-1v1h-1q-1-1-9-1h-8l1 1q1 0 0 3-1 4-1 4h-1t-6 2l-6 2-2 1-1 1h-5q-1 0-2 2v1l-1 1-1 1v1h-1v-1h-1v-1h-1v-1h-1v-2l1-1q1-2 1-12l1-9v-3q-1-2-1-8-2-7-5-15l-3-8v-1q0-1-4-6l-4-4q0-1-1-2-1-2-6-5t-13-5q-7-2-16-1l-8 1-1 1-1 1h-2v1h-1v1h-1q-1 0-2 1-1 0-1 1t-3 4l-4 2v1h-1v1h-1v1l-1 1v1l-4 5q-3 5-7 17t-5 22v10h-1q0-1-1-1t-2 4l-1 3-1 1-1 1v2h-1v1h-2v-1h-1v-1h-1v-1h-1v-4l-1-3q-1-4-1-10-2-7-2-11l-1-4v-1h3v-3l1-1 1-1v1h1v2l-1 2v8l1 2 1 1v-2l1-1 1-1v-4l1-1q1-2 1-4 0-1 2-8 0-7 2-12l2-6v-1q0-1 1-1v-2h1v-2h1l1-1q1 1 1 0h1v-1l2-3q2-3 8-7t8-6q1 0 2-1l1-1h1v-1h1v-1h2l1-1 1-1h1-7l-1 1-1 1h-1q-1 0-4 4l-4 3v1h-2v-2h-1v1h-1v-1h-1l-1-1-1-1h-1v-2h-1v-1h1v-2h1v-1h1q2 0 4-2 1-2 2-2t1-1 10-5 25-4 24 4 12 7q4 2 6 1 3 0 4 1 0 1 0 0zm1 5t0-1q1 0 1 1 0 0-1 0z" fill="#0b0a09" stroke="#0b0a09"/>
  <path d="m1072 411l1-1h1l2 2q2 1 2 2t1 1 1-1 2-1q1-1 4 1 3 0 4 1 0 0 1 1v4q1 3-1 5t-8 4q-6 3-11 3h-5l-2 1-2 1h-2 5l4 1q4 1 9 3 4 2 8 2t10 2 7 2v-1h1v2h1v-1h2v1h1v1h1l-2 24q-1 24-3 30-2 5-8 11-5 5-6 6l-1 1h-2l-1 1-2 1h-2v-1h1v-1h1v-5h1v-1h5v-3l-1-1-1-1v1h-6v-1h-1v-1h2q2 0 4-1h2v-2h-1l-1 1h-5q-4 0-12 1l-7 1v1l-1 1v1h-1v1h-2v-1l1-1v-1h1v-1h1l1-1q1-1 3-1 1 0 1-1-1-1-2-9-1-9-4-10-3-2-2-2t1-1-2-1q-1 0-2-3 0-3-4-4-3 0-5-8-3-8-5-12l-2-4v-3h1q1-1 1 0 1 0 2 0h1v1h1v-2l-1-1-1-1v-2l-1-1-1-1v-1q0-1-2-4l-2-4-1-1-1-1v-1l-1-1-1-1v-1l-1-1v-1h2v1h1v2h1v1h2v1l1 1 1 2q1 1 2 2l1 1v1h1v1h1v2l1 1 1 1v-4l-1-1-1-1v-1q0-2-2-5l-2-3v-1l-1-1v-1l11-1q10-1 10-2 1-2 2-2 2 0 6-1l5-1h-9v-1h1v-1h3l2-1z" fill="#0a0909" stroke="#0a0909"/>
  <path d="m570 254h5q3 1 3 2-1 2-3 2t-2 1h-1q-1-1-2-3-2-2 0-2z" fill="#195877" stroke="#195877"/>
  <path d="m537 330h-1l1 1h1v2h1v1q-1 0-1 0v1l-1 1-1 1v12l1 1t1 1q0 1 0 1h1l1 1q0 1 1 1v1q1 0 1 1v1h-1q-1-1-2 0l-1 1v6l1 1v1h4l-1 1v1l-3 3q-2 3-4 3-1 0-3 4t-3 5q0 1 1 1t2 0h2v1h-1v1h-2q-2 0-9 0t-26-1q-20-1-20 0t-2 1q-1 0-1-1t-1-1h-6v-2h1l-1-1-1-1h-1v-1h1v-1h2v-1h-1v-1l3-1q3-2 3-3t2-2q3 0 12-8 10-8 13-9t3-2 9-7 14-9 6-4h1t1-1h1q1 0 1-1l2-1q3 0 2 1t-2 1zm-11 53q0-1 0-1 0 1 0 1z" fill="#393a3a" stroke="#393a3a"/>
 </g>
</svg>
