<?xml version="1.0" encoding="UTF-8" standalone="no"?>
<!DOCTYPE svg PUBLIC "-//W3C//DTD SVG 1.1//EN" "http://www.w3.org/Graphics/SVG/1.1/DTD/svg11.dtd">
<svg width="100%" height="100%" viewBox="0 0 3000 1650" version="1.1" xmlns="http://www.w3.org/2000/svg" xmlns:xlink="http://www.w3.org/1999/xlink" xml:space="preserve" xmlns:serif="http://www.serif.com/" style="fill-rule:evenodd;clip-rule:evenodd;stroke-linecap:round;stroke-linejoin:round;stroke-miterlimit:1.5;">
    <g transform="matrix(0.996807,-0.0798537,0.0709862,0.886115,795.805,626.599)">
        <rect x="283.138" y="587.855" width="518.569" height="41.12" style="fill:rgb(5,119,173);stroke:rgb(5,119,173);stroke-width:22.34px;"/>
    </g>
    <g transform="matrix(1,0,0,1,0.0451093,0)">
        <g transform="matrix(1,0,0,1,-164.5,0)">
            <g transform="matrix(0.934111,0,0,1,262.028,15.9925)">
                <path d="M887.67,122.719C895.005,191.277 896.669,249.43 890.67,301.986C907.967,312.361 921.04,312.944 935.67,301.986C992.614,290.329 1018.73,302.308 995.67,351.986L1072.67,351.986C1098.21,317.406 1107.13,275.9 1100.67,227.986L995.67,192.986C962.797,158.617 925.88,138.406 887.67,122.719Z" style="fill:rgb(5,119,173);stroke:black;stroke-width:5.13px;"/>
                <path d="M830.67,122.719C818.595,172.901 822.074,221.138 852.67,265.986C879.129,270.216 887.881,246.115 887.67,207.672C878.319,161.435 858.687,134.289 830.67,122.719Z" style="fill:rgb(237,237,237);stroke:black;stroke-width:5.13px;"/>
                <path d="M887.67,122.719C868.67,107.34 849.67,111.417 830.67,122.719C880.831,180.625 890.842,229.747 855.67,268.986C858.263,291.52 869.404,306.128 890.67,301.986C900.103,240.658 894.253,181.378 887.67,122.719Z" style="fill:rgb(122,124,125);stroke:black;stroke-width:5.13px;"/>
            </g>
            <g transform="matrix(0.934111,0,0,1,285.68,36.9122)">
                <g transform="matrix(1,0,0,1,2.10173,-2.867)">
                    <path d="M1072.67,282.487L1122.67,299.982" style="fill:none;stroke:rgb(5,119,173);stroke-width:34.39px;"/>
                </g>
                <g transform="matrix(1,0,0,1.13698,498.436,-84.2773)">
                    <g transform="matrix(1.12518,0,0,1,-586.991,53.934)">
                        <path d="M1102.69,266.466C1077.69,262.221 1066.07,298.597 1096.75,302.688L1176.67,329.982L1176.67,277.982L1102.69,266.466Z" style="fill:rgb(4,5,5);stroke:black;stroke-width:4.53px;"/>
                    </g>
                    <g transform="matrix(1.12518,0,0,1.25124,-765.333,-81.5244)">
                        <ellipse cx="1335.17" cy="351.154" rx="13.5" ry="20.828" style="fill:rgb(4,5,5);stroke:black;stroke-width:3.97px;"/>
                    </g>
                </g>
                <g transform="matrix(1,0,0,1,-1.14334,2.33333)">
                    <g transform="matrix(0.910821,-0.412802,0.501752,1.10708,8.40394,461.616)">
                        <path d="M1069.67,259.982L1061.91,274.061L1104.94,326.227L1100.67,333.982L1039.49,260.662L1048.47,242.359L1069.67,259.982Z" style="stroke:black;stroke-width:3.52px;"/>
                    </g>
                    <g transform="matrix(0.910821,-0.412802,0.501752,1.10708,-232.943,263.4)">
                        <ellipse cx="1246.17" cy="564.482" rx="9.5" ry="10.5" style="stroke:black;stroke-width:3.52px;"/>
                    </g>
                    <g transform="matrix(1,0,0,1,-599.898,-6)">
                        <path d="M1713.67,311.115C1712.61,300.757 1716.83,291.533 1724.67,285.62L1701.69,277.287L1685.88,303.115L1713.67,311.115Z" style="fill:rgb(8,9,9);stroke:black;stroke-width:3.83px;"/>
                    </g>
                    <g transform="matrix(3.53333,0,0,1.87933,-5470.27,-256.742)">
                        <ellipse cx="1897.98" cy="308.808" rx="2.5" ry="9.841" style="fill:rgb(20,69,92);stroke:black;stroke-width:0.48px;"/>
                    </g>
                </g>
            </g>
            <g transform="matrix(1.06164,0,0,1.12456,394.889,262.377)">
                <ellipse cx="466.309" cy="870.413" rx="253.253" ry="249.119" style="fill:rgb(6,3,6);stroke:black;stroke-width:8.24px;"/>
            </g>
            <g transform="matrix(0.775417,0,0,0.819827,528.357,524.132)">
                <ellipse cx="466.309" cy="870.413" rx="253.253" ry="249.119" style="fill:rgb(203,203,203);stroke:black;stroke-width:11.29px;"/>
            </g>
            <g transform="matrix(0.509015,0,0,0.544484,652.583,767.278)">
                <ellipse cx="466.309" cy="870.413" rx="253.253" ry="249.119" style="fill:rgb(5,119,173);stroke:rgb(5,119,173);stroke-width:17.09px;"/>
            </g>
            <g transform="matrix(0.934111,0,0,1.40735,1316.16,119.955)">
                <ellipse cx="-456.283" cy="796.707" rx="38.121" ry="28.293" style="fill:rgb(19,19,18);stroke:rgb(5,119,173);stroke-width:7.54px;"/>
            </g>
            <g transform="matrix(0.934111,0,0,1,1199.89,408.226)">
                <path d="M-328.621,786.191L-287.307,819.271L-303.088,872.795L-354.155,872.795L-369.936,819.271L-328.621,786.191Z" style="fill:rgb(19,19,18);stroke:rgb(5,119,173);stroke-width:9.31px;"/>
            </g>
            <g transform="matrix(0.934111,0,0,1,817.297,283.085)">
                <path d="M98.539,774.628C86.848,773.497 75.075,773.497 63.385,774.628L57.595,802.677C46.39,804.383 35.408,807.311 24.846,811.409L5.739,789.998C-4.953,794.836 -15.149,800.694 -24.705,807.49L-15.626,834.662C-24.472,841.714 -32.512,849.715 -39.599,858.518L-66.905,849.483C-73.734,858.993 -79.62,869.139 -84.482,879.779L-62.966,898.793C-67.084,909.303 -70.026,920.231 -71.741,931.382L-99.928,937.143C-101.064,948.777 -101.064,960.492 -99.928,972.126L-71.741,977.887C-70.026,989.038 -67.084,999.966 -62.966,1010.48L-84.482,1029.49C-79.62,1040.13 -73.734,1050.28 -66.905,1059.79L-39.599,1050.75C-32.512,1059.55 -24.472,1067.56 -15.626,1074.61L-24.705,1101.78C-15.149,1108.58 -4.953,1114.43 5.739,1119.27L24.846,1097.86C35.408,1101.96 46.39,1104.89 57.595,1106.59L63.385,1134.64C75.075,1135.77 86.848,1135.77 98.539,1134.64L104.328,1106.59C115.533,1104.89 126.516,1101.96 137.077,1097.86L156.184,1119.27C166.876,1114.43 177.072,1108.58 186.628,1101.78L177.549,1074.61C186.396,1067.56 194.435,1059.55 201.523,1050.75L228.828,1059.79C235.657,1050.28 241.543,1040.13 246.405,1029.49L224.889,1010.48C229.007,999.966 231.95,989.038 233.664,977.887L261.851,972.126C262.987,960.492 262.987,948.777 261.851,937.143L233.664,931.382C231.95,920.231 229.007,909.303 224.889,898.793L246.405,879.779C241.543,869.139 235.657,858.993 228.828,849.483L201.523,858.518C194.435,849.715 186.396,841.714 177.549,834.662L186.628,807.49C177.072,800.694 166.876,794.836 156.184,789.998L137.077,811.409C126.516,807.311 115.533,804.383 104.328,802.677L98.539,774.628ZM80.962,918.464C101.023,918.464 117.31,934.671 117.31,954.635C117.31,974.598 101.023,990.806 80.962,990.806C60.9,990.806 44.613,974.598 44.613,954.635C44.613,934.671 60.9,918.464 80.962,918.464Z" style="fill:rgb(5,119,173);stroke:rgb(5,119,173);stroke-width:9.31px;"/>
            </g>
            <g transform="matrix(0.934111,0,0,1,256.59,18.5919)">
                <g transform="matrix(1,0,0,1.35302,-709.099,323.701)">
                    <ellipse cx="1468.72" cy="323.803" rx="11.511" ry="37.499" style="fill:rgb(107,107,107);stroke:rgb(101,101,101);stroke-width:7.75px;"/>
                </g>
                <path d="M1083.98,349.387L979.283,349.566C903.73,466.244 848.35,578.922 828.303,695.601L759.622,708.868C768.232,743.018 769.431,777.169 759.622,811.32C775.738,816.878 791.854,818.041 807.97,811.32C821.233,836.234 804.714,840.53 778.041,837.796C850.27,887.804 906.179,949.799 947.71,1027.43C987.812,1118.82 1042.27,1166.66 1100.8,1187.44C963.964,1012.64 868.274,824.912 946.71,582.456L1008.27,430.505C1002.78,402.192 998.833,377.879 990.283,349.566" style="fill:rgb(5,119,173);stroke:black;stroke-width:9.31px;"/>
                <g transform="matrix(0.999953,-0.00909501,0.0104209,0.999724,-10.5269,6.52669)">
                    <path d="M1002.28,1174.75C1027.62,1237.31 984.458,1225.48 916.318,1174.75C825.761,1151.89 449.045,1039.08 353.768,1002.51C452.596,869.469 548.481,804.802 771.134,829C804.944,832.674 837.342,847.126 859.969,870.722C895.426,907.699 915.11,923.221 939.307,961.047C980.928,1026.11 999.352,1110.74 1002.28,1174.75Z" style="fill:rgb(255,213,7);stroke:black;stroke-width:9.31px;"/>
                </g>
            </g>
            <g transform="matrix(0.934111,0,0,1,261.933,18.5919)">
                <path d="M1074.71,349.387C1018.24,472.005 978.488,590.065 961.134,702.017C937.599,1052.42 1197.16,1182.9 1566.71,1090.97L1583.71,1182.96L1099.04,1190.44C889.09,965.511 863.499,705.642 998.374,427.35L981.041,349.387C995.097,289.307 1021.35,271.911 1074.71,349.387Z" style="fill:rgb(255,213,7);stroke:rgb(3,3,3);stroke-width:9.31px;"/>
            </g>
            <g transform="matrix(0.934111,0,0,1,262.867,11.9293)">
                <path d="M1818.17,1182.49L1582.71,1189.46L1563.65,1096.34C1773.43,1011.59 1731.51,858.409 1537.17,663.801C1483.27,644.564 1489.07,627.623 1537.17,612.308L2097.7,614.675C2316.36,593.392 2355.44,635.984 2468.32,755.578C2588.82,855.13 2623.68,1002.84 2653.95,1161.24C2648.32,1184.78 2632.99,1188.94 2607.74,1173.24C2516.2,870.909 2295.66,728.78 1960.88,728.534C1740.57,794.576 1728.5,963.415 1818.17,1182.49Z" style="fill:rgb(255,213,7);stroke:rgb(3,3,3);stroke-width:9.31px;"/>
            </g>
            <g transform="matrix(1.06164,0,0,1.12456,1825.42,254.249)">
                <ellipse cx="466.309" cy="870.413" rx="253.253" ry="249.119" style="fill:rgb(6,3,6);stroke:black;stroke-width:8.24px;"/>
            </g>
            <g transform="matrix(0.775417,0,0,0.819827,1958.89,519.489)">
                <ellipse cx="466.309" cy="870.413" rx="253.253" ry="249.119" style="fill:rgb(203,203,203);stroke:black;stroke-width:11.29px;"/>
            </g>
            <g transform="matrix(0.509015,0,0,0.544484,2083.11,759.151)">
                <ellipse cx="466.309" cy="870.413" rx="253.253" ry="249.119" style="fill:rgb(5,119,173);stroke:rgb(5,119,173);stroke-width:17.09px;"/>
            </g>
            <g transform="matrix(0.934111,0,0,1.40735,2746.69,111.828)">
                <ellipse cx="-456.283" cy="796.707" rx="38.121" ry="28.293" style="fill:rgb(19,19,18);stroke:rgb(5,119,173);stroke-width:7.54px;"/>
            </g>
            <g transform="matrix(0.934111,0,0,1,2630.42,400.099)">
                <path d="M-328.621,786.191L-287.307,819.271L-303.088,872.795L-354.155,872.795L-369.936,819.271L-328.621,786.191Z" style="fill:rgb(19,19,18);stroke:rgb(5,119,173);stroke-width:9.31px;"/>
            </g>
            <g transform="matrix(0.934111,0,0,1,2247.83,274.958)">
                <path d="M98.539,774.628C86.848,773.497 75.075,773.497 63.385,774.628L57.595,802.677C46.39,804.383 35.408,807.311 24.846,811.409L5.739,789.998C-4.953,794.836 -15.149,800.694 -24.705,807.49L-15.626,834.662C-24.472,841.714 -32.512,849.715 -39.599,858.518L-66.905,849.483C-73.734,858.993 -79.62,869.139 -84.482,879.779L-62.966,898.793C-67.084,909.303 -70.026,920.231 -71.741,931.382L-99.928,937.143C-101.064,948.777 -101.064,960.492 -99.928,972.126L-71.741,977.887C-70.026,989.038 -67.084,999.966 -62.966,1010.48L-84.482,1029.49C-79.62,1040.13 -73.734,1050.28 -66.905,1059.79L-39.599,1050.75C-32.512,1059.55 -24.472,1067.56 -15.626,1074.61L-24.705,1101.78C-15.149,1108.58 -4.953,1114.43 5.739,1119.27L24.846,1097.86C35.408,1101.96 46.39,1104.89 57.595,1106.59L63.385,1134.64C75.075,1135.77 86.848,1135.77 98.539,1134.64L104.328,1106.59C115.533,1104.89 126.516,1101.96 137.077,1097.86L156.184,1119.27C166.876,1114.43 177.072,1108.58 186.628,1101.78L177.549,1074.61C186.396,1067.56 194.435,1059.55 201.523,1050.75L228.828,1059.79C235.657,1050.28 241.543,1040.13 246.405,1029.49L224.889,1010.48C229.007,999.966 231.95,989.038 233.664,977.887L261.851,972.126C262.987,960.492 262.987,948.777 261.851,937.143L233.664,931.382C231.95,920.231 229.007,909.303 224.889,898.793L246.405,879.779C241.543,869.139 235.657,858.993 228.828,849.483L201.523,858.518C194.435,849.715 186.396,841.714 177.549,834.662L186.628,807.49C177.072,800.694 166.876,794.836 156.184,789.998L137.077,811.409C126.516,807.311 115.533,804.383 104.328,802.677L98.539,774.628ZM80.962,918.464C101.023,918.464 117.31,934.671 117.31,954.635C117.31,974.598 101.023,990.806 80.962,990.806C60.9,990.806 44.613,974.598 44.613,954.635C44.613,934.671 60.9,918.464 80.962,918.464Z" style="fill:rgb(5,119,173);stroke:rgb(5,119,173);stroke-width:9.31px;"/>
            </g>
            <g transform="matrix(0.934111,0,0,1,262.867,11.9293)">
                <path d="M2602.33,1166.87L1810.39,1166.87C1726.08,957.941 1707.33,793.925 1928.32,719.336C1951.98,711.35 2014.81,715.99 2038.77,719.336C2382.49,767.335 2550.88,929.151 2602.33,1166.87Z" style="fill:rgb(5,119,173);stroke:rgb(3,3,3);stroke-width:9.31px;"/>
            </g>
            <g transform="matrix(0.96009,0,0,1,214.444,11.9293)">
                <path d="M1863.93,1166.87L1823.78,1220.49C1563.74,1247.38 1306.52,1228 1094.08,1189.46L1863.93,1166.87Z" style="fill:rgb(5,119,173);stroke:rgb(3,3,3);stroke-width:9.19px;"/>
            </g>
            <g transform="matrix(0.934111,0,0,1,262.867,11.9293)">
                <g transform="matrix(1.14144,0,0,0.77412,-302.519,175.363)">
                    <path d="M1984.39,825L2232.02,825" style="fill:none;stroke:rgb(3,3,3);stroke-width:9.67px;"/>
                </g>
                <g transform="matrix(1.14144,0,0,0.77412,-302.519,194.359)">
                    <path d="M1984.39,825L2232.02,825" style="fill:none;stroke:rgb(3,3,3);stroke-width:9.67px;"/>
                </g>
                <g transform="matrix(1.14144,0,0,0.77412,-302.519,213.355)">
                    <path d="M1984.39,825L2232.02,825" style="fill:none;stroke:rgb(3,3,3);stroke-width:9.67px;"/>
                </g>
                <g transform="matrix(1.14144,0,0,0.77412,-302.519,158.093)">
                    <path d="M1984.39,825L2232.02,825" style="fill:none;stroke:rgb(3,3,3);stroke-width:9.67px;"/>
                </g>
                <g transform="matrix(1.14144,0,0,0.77412,-302.519,234.078)">
                    <path d="M1984.39,825L2232.02,825" style="fill:none;stroke:rgb(3,3,3);stroke-width:9.67px;"/>
                </g>
                <g transform="matrix(1.14144,0,0,0.77412,-302.519,252.775)">
                    <path d="M1984.39,825L2232.02,825" style="fill:none;stroke:rgb(3,3,3);stroke-width:9.67px;"/>
                </g>
            </g>
            <g transform="matrix(0.753152,0,0,1,524.339,11.9293)">
                <path d="M1539.6,607.307L1539.6,564.64L1688.93,564.64L1760.27,612.308L1539.6,607.307Z" style="fill:rgb(75,75,75);stroke:rgb(3,3,3);stroke-width:10.18px;"/>
                <g transform="matrix(1,0,0,1,590.667,110)">
                    <g transform="matrix(0.580645,0,0,0.784314,539.616,107.478)">
                        <path d="M1286.78,453.306L1369.44,453.306" style="fill:none;stroke:rgb(116,117,117);stroke-width:11.16px;"/>
                    </g>
                    <g transform="matrix(0.580645,0,0,0.784314,539.616,116.89)">
                        <path d="M1286.78,453.306L1369.44,453.306" style="fill:none;stroke:rgb(116,117,117);stroke-width:11.16px;"/>
                    </g>
                    <g transform="matrix(0.580645,0,0,0.784314,539.616,98.0661)">
                        <path d="M1286.78,453.306L1369.44,453.306" style="fill:none;stroke:rgb(116,117,117);stroke-width:11.16px;"/>
                    </g>
                    <g transform="matrix(0.580645,0,0,0.784314,539.616,125.517)">
                        <path d="M1286.78,453.306L1369.44,453.306" style="fill:none;stroke:rgb(116,117,117);stroke-width:11.16px;"/>
                    </g>
                    <g transform="matrix(0.580645,0,0,0.784314,539.616,134.145)">
                        <path d="M1286.78,453.306L1369.44,453.306" style="fill:none;stroke:rgb(116,117,117);stroke-width:11.16px;"/>
                    </g>
                    <g transform="matrix(0.580645,0,0,0.784314,539.616,142.772)">
                        <path d="M1286.78,453.306L1369.44,453.306" style="fill:none;stroke:rgb(116,117,117);stroke-width:11.16px;"/>
                    </g>
                    <g transform="matrix(0.580645,0,0,0.784314,539.616,89.4387)">
                        <path d="M1286.78,453.306L1369.44,453.306" style="fill:none;stroke:rgb(116,117,117);stroke-width:11.16px;"/>
                    </g>
                </g>
                <path d="M1464.27,564.64C1437.68,537.501 1439.29,503.557 1464.27,463.974C1526.15,469.736 1588.04,476.303 1649.93,463.974C1715.6,428.582 1781.27,408.031 1846.93,399.307C1882.14,371.17 1916.46,359.835 1948.11,399.307C1977.44,456.998 1981.44,511.171 1946.78,559.973L1464.27,564.64Z" style="stroke:rgb(3,3,3);stroke-width:10.18px;"/>
                <path d="M1850.78,395.973C1890.3,448.574 1906.36,504.928 1901.44,564.64" style="fill:none;stroke:rgb(116,117,117);stroke-width:10.18px;"/>
                <path d="M1649.93,461.306L1698.78,564.64" style="fill:none;stroke:rgb(116,117,117);stroke-width:10.18px;"/>
            </g>
            <g transform="matrix(0.934111,0,0,1.07432,-22.0373,56.6637)">
                <g transform="matrix(0.715113,0,0,1,1191.64,-83.9999)">
                    <path d="M1539.6,607.307L1539.6,564.64L1688.93,564.64L1760.27,612.308L1539.6,607.307Z" style="fill:rgb(75,75,75);stroke:rgb(3,3,3);stroke-width:10.07px;"/>
                </g>
                <g transform="matrix(0.715113,0,0,1,1614.03,26.0001)">
                    <g transform="matrix(0.580645,0,0,0.784314,539.616,107.478)">
                        <path d="M1286.78,453.306L1369.44,453.306" style="fill:none;stroke:rgb(116,117,117);stroke-width:10.8px;"/>
                    </g>
                    <g transform="matrix(0.580645,0,0,0.784314,539.616,116.89)">
                        <path d="M1286.78,453.306L1369.44,453.306" style="fill:none;stroke:rgb(116,117,117);stroke-width:10.8px;"/>
                    </g>
                    <g transform="matrix(0.580645,0,0,0.784314,539.616,98.0661)">
                        <path d="M1286.78,453.306L1369.44,453.306" style="fill:none;stroke:rgb(116,117,117);stroke-width:10.8px;"/>
                    </g>
                    <g transform="matrix(0.580645,0,0,0.784314,539.616,125.517)">
                        <path d="M1286.78,453.306L1369.44,453.306" style="fill:none;stroke:rgb(116,117,117);stroke-width:10.8px;"/>
                    </g>
                    <g transform="matrix(0.580645,0,0,0.784314,539.616,134.145)">
                        <path d="M1286.78,453.306L1369.44,453.306" style="fill:none;stroke:rgb(116,117,117);stroke-width:10.8px;"/>
                    </g>
                    <g transform="matrix(0.580645,0,0,0.784314,539.616,142.772)">
                        <path d="M1286.78,453.306L1369.44,453.306" style="fill:none;stroke:rgb(116,117,117);stroke-width:10.8px;"/>
                    </g>
                    <g transform="matrix(0.580645,0,0,0.784314,539.616,89.4387)">
                        <path d="M1286.78,453.306L1369.44,453.306" style="fill:none;stroke:rgb(116,117,117);stroke-width:10.8px;"/>
                    </g>
                </g>
                <g transform="matrix(0.715113,0,0,1,1191.64,-83.9999)">
                    <path d="M1464.27,564.64C1437.68,537.501 1439.29,503.557 1464.27,463.974C1526.15,469.736 1588.04,476.303 1649.93,463.974C1715.6,428.582 1781.27,408.031 1846.93,399.307C1882.14,371.17 1916.46,359.835 1948.11,399.307C1977.44,456.998 1981.44,511.171 1946.78,559.973L1464.27,564.64Z" style="stroke:rgb(3,3,3);stroke-width:10.07px;"/>
                </g>
                <g transform="matrix(0.715113,0,0,1,1191.64,-83.9999)">
                    <path d="M1850.78,395.973C1890.3,448.574 1906.36,504.928 1901.44,564.64" style="fill:none;stroke:rgb(116,117,117);stroke-width:10.07px;"/>
                </g>
                <g transform="matrix(0.715113,0,0,1,1191.64,-83.9999)">
                    <path d="M1649.93,461.306L1698.78,564.64" style="fill:none;stroke:rgb(116,117,117);stroke-width:10.07px;"/>
                </g>
            </g>
            <g transform="matrix(0.932624,0,0,1.11733,292.586,-142.047)">
                <path d="M1869.45,1166.87C1924.95,1050.48 2028.28,959.63 2177.04,965.203C2322.45,956.17 2422.71,1053.94 2489.2,1166.87" style="fill:none;stroke:rgb(1,3,5);stroke-width:6.88px;"/>
            </g>
            <g transform="matrix(0.934111,0,0,1,272.537,5.92922)">
                <path d="M2136.76,1104.44C2198.97,1080.91 2240.64,1090.61 2268.59,1104.44" style="fill:none;stroke:rgb(1,3,5);stroke-width:21.85px;"/>
            </g>
            <g transform="matrix(0.782713,-0.425658,0.352948,0.749767,343.331,502.567)">
                <g transform="matrix(1,0,0,1,2.10173,-2.867)">
                    <path d="M1072.67,282.487L1122.67,299.982" style="fill:none;stroke:rgb(5,119,173);stroke-width:39.84px;"/>
                </g>
                <g transform="matrix(1,0,0,1.13698,498.436,-84.2773)">
                    <g transform="matrix(1.12518,0,0,1,-586.991,53.934)">
                        <path d="M1102.69,266.466C1077.69,262.221 1066.07,298.597 1096.75,302.688L1176.67,329.982L1176.67,277.982L1102.69,266.466Z" style="fill:rgb(4,5,5);stroke:black;stroke-width:5.26px;"/>
                    </g>
                    <g transform="matrix(1.12518,0,0,1.25124,-765.333,-81.5244)">
                        <ellipse cx="1335.17" cy="351.154" rx="13.5" ry="20.828" style="fill:rgb(4,5,5);stroke:black;stroke-width:4.67px;"/>
                    </g>
                </g>
                <g transform="matrix(1,0,0,1,-1.14334,2.33333)">
                    <g transform="matrix(0.910821,-0.412802,0.501752,1.10708,8.40394,461.616)">
                        <path d="M1069.67,259.982L1061.91,274.061L1104.94,326.227L1100.67,333.982L1039.49,260.662L1048.47,242.359L1069.67,259.982Z" style="stroke:black;stroke-width:3.87px;"/>
                    </g>
                    <g transform="matrix(0.910821,-0.412802,0.501752,1.10708,-232.943,263.4)">
                        <ellipse cx="1246.17" cy="564.482" rx="9.5" ry="10.5" style="stroke:black;stroke-width:3.87px;"/>
                    </g>
                    <g transform="matrix(1,0,0,1,-599.898,-6)">
                        <path d="M1713.67,311.115C1712.61,300.757 1716.83,291.533 1724.67,285.62L1701.69,277.287L1685.88,303.115L1713.67,311.115Z" style="fill:rgb(8,9,9);stroke:black;stroke-width:4.44px;"/>
                    </g>
                    <g transform="matrix(3.53333,0,0,1.87933,-5470.27,-256.742)">
                        <ellipse cx="1897.98" cy="308.808" rx="2.5" ry="9.841" style="fill:rgb(20,69,92);stroke:black;stroke-width:0.53px;"/>
                    </g>
                </g>
            </g>
        </g>
        <g transform="matrix(-0.0347131,-0.786733,0.562638,-0.0248254,2269.68,1270.01)">
            <path d="M596.385,316.846C596.385,316.846 517.385,379.146 517.385,405.846C517.385,454.966 552.784,494.846 596.385,494.846C639.986,494.846 675.385,454.966 675.385,405.846C675.385,379.146 596.385,316.846 596.385,316.846Z" style="fill:rgb(190,68,29);stroke:rgb(216,48,35);stroke-width:30.88px;"/>
        </g>
        <path d="M2483.39,726.85L2363.39,726.85L2427.68,799.275L2483.39,726.85Z" style="fill:rgb(96,96,96);stroke:rgb(107,107,107);stroke-width:21.14px;"/>
        <g transform="matrix(1,0,0,1.11268,-20.7266,-86.8136)">
            <path d="M2037.97,672.846L2321.39,672.846L2321.39,274.846C2305.39,237.512 2294.72,288.84 2289.39,326.173L2289.39,672.846" style="fill:none;stroke:rgb(125,125,125);stroke-width:19.98px;"/>
        </g>
        <g transform="matrix(1,0,0,0.696697,-3,188.456)">
            <path d="M2097.38,631.393L2097.38,726.85" style="fill:none;stroke:rgb(5,1,1);stroke-width:24.53px;"/>
        </g>
        <g transform="matrix(1,0,0,0.696697,-43,188.456)">
            <path d="M2097.38,632.828L2097.38,726.85" style="fill:none;stroke:rgb(5,1,1);stroke-width:24.53px;"/>
        </g>
        <g transform="matrix(1,0,0,0.696697,-82,188.456)">
            <path d="M2097.38,635.699L2097.38,724.783" style="fill:none;stroke:rgb(5,1,1);stroke-width:24.53px;"/>
        </g>
        <g transform="matrix(0.900353,0,0,1.11733,203.415,-124.974)">
            <path d="M1867.23,1166.87C1922.73,1050.48 2028.28,959.63 2177.04,965.203C2322.45,956.17 2422.71,1053.94 2489.2,1166.87" style="fill:none;stroke:rgb(1,3,5);stroke-width:6.98px;"/>
        </g>
    </g>
</svg>
